<?xml version="1.0" encoding="UTF-8" standalone="no"?>
<svg
   xmlns:dc="http://purl.org/dc/elements/1.1/"
   xmlns:cc="http://creativecommons.org/ns#"
   xmlns:rdf="http://www.w3.org/1999/02/22-rdf-syntax-ns#"
   xmlns:svg="http://www.w3.org/2000/svg"
   xmlns="http://www.w3.org/2000/svg"
   version="1.1"
   id="svg4747"
   xml:space="preserve"
   width="135"
   height="95"
   viewBox="0 0 1706.6667 1365.3333"><metadata
     id="metadata4753"><rdf:RDF><cc:Work
         rdf:about=""><dc:format>image/svg+xml</dc:format><dc:type
           rdf:resource="http://purl.org/dc/dcmitype/StillImage" /><dc:title></dc:title></cc:Work></rdf:RDF></metadata><defs
     id="defs4751"><clipPath
       clipPathUnits="userSpaceOnUse"
       id="clipPath4781"><path
         d="M 0,1024 H 1280 V 0 H 0 Z"
         id="path4779" /></clipPath></defs><g
     id="g4755"
     transform="matrix(1.3333333,0,0,-1.3333333,-73.663355,1425.6033)"><path
       id="path4761"
       style="fill:#5c5c5b;fill-opacity:1;fill-rule:nonzero;stroke:none"
       d="m 657.334,757.3955 -33.234,-33.234 67.174,-67.175 33.235,33.234 z m 0,-5.657 61.518,-61.518 -27.578,-27.577 -61.517,61.518 z" /><path
       id="path4765"
       style="fill:#5c5c5b;fill-opacity:1;fill-rule:nonzero;stroke:none"
       d="m 728.0439,686.6851 -33.233,-33.234 67.174,-67.175 33.235,33.234 z m 0,-5.657 61.519,-61.518 -27.578,-27.577 -61.518,61.518 z" /><path
       id="path4769"
       style="fill:#5c5c5b;fill-opacity:1;fill-rule:nonzero;stroke:none"
       d="m 618.4429,718.5049 -33.234,-33.234 67.175,-67.175 33.234,33.234 z m 0,-5.657 61.518,-61.518 -27.577,-27.577 -61.518,61.518 z" /><path
       id="path4773"
       style="fill:#5c5c5b;fill-opacity:1;fill-rule:nonzero;stroke:none"
       d="m 689.1533,647.7939 -33.233,-33.234 67.174,-67.175 33.235,33.234 z m 0,-5.657 61.519,-61.518 -27.578,-27.577 -61.518,61.518 z" /><g
       id="g4783"
       transform="translate(598.644,759.5171)"><path
         d="m 0,0 -110.309,-110.309 c 0,0 9.9,-11.314 30.406,-14.849 l 96.166,96.166 c 0,0 -1.414,14.143 -16.263,28.992 m -0.084,-5.741 c 8.44,-9.522 11.202,-18.291 12.036,-21.905 l -93.189,-93.189 c -11.745,2.421 -19.492,7.551 -23.299,10.643 L -0.084,-5.741"
         style="fill:#5c5c5b;fill-opacity:1;fill-rule:nonzero;stroke:none"
         id="path4785" /></g><g
       id="g4787"
       transform="translate(613.4932,774.3662)"><path
         d="m 0,0 -12.021,-12.021 c 0,0 12.728,-11.313 16.971,-28.284 l 12.021,12.021 c 0,0 -4.243,15.556 -16.971,28.284 m -0.099,-5.756 c 7.284,-8.367 11.062,-17.409 12.504,-21.436 L 6.76,-32.838 c -3.754,9.676 -9.603,16.974 -13.134,20.807 l 6.275,6.275"
         style="fill:#5c5c5b;fill-opacity:1;fill-rule:nonzero;stroke:none"
         id="path4789" /></g><g
       id="g4791"
       transform="translate(485.5068,646.3799)"><path
         d="m 0,0 -11.314,-11.313 56.569,-56.569 21.92,21.92 -30.405,30.406 c 0,0 -0.716,-0.08 -1.998,-0.08 -5.34,0 -20.516,1.38 -34.772,15.636 m 0.086,-5.571 c 14.28,-12.629 28.833,-14.065 34.686,-14.065 0.145,0 0.285,10e-4 0.417,0.003 l 26.329,-26.329 -16.263,-16.264 -50.912,50.913 5.743,5.742"
         style="fill:#5c5c5b;fill-opacity:1;fill-rule:nonzero;stroke:none"
         id="path4793" /></g><g
       id="g4795"
       transform="translate(493.9922,854.2695)"><path
         d="m 0,0 67.175,-67.175 33.234,33.234 -67.175,67.175 z"
         style="fill:#111c4e;fill-opacity:1;fill-rule:nonzero;stroke:none"
         id="path4797" /></g><g
       id="g4799"
       transform="translate(423.2812,924.98)"><path
         d="m 0,0 67.175,-67.175 33.234,33.234 -67.175,67.175 z"
         style="fill:#111c4e;fill-opacity:1;fill-rule:nonzero;stroke:none"
         id="path4801" /></g><g
       id="g4803"
       transform="translate(455.1011,815.3784)"><path
         d="m 0,0 67.175,-67.175 33.234,33.234 -67.175,67.175 z"
         style="fill:#111c4e;fill-opacity:1;fill-rule:nonzero;stroke:none"
         id="path4805" /></g><g
       id="g4807"
       transform="translate(384.3906,886.0894)"><path
         d="m 0,0 67.175,-67.175 33.234,33.234 -67.175,67.175 z"
         style="fill:#111c4e;fill-opacity:1;fill-rule:nonzero;stroke:none"
         id="path4809" /></g><g
       id="g4811"
       transform="translate(596.5225,761.6382)"><path
         d="m 0,0 -110.309,-110.309 c 0,0 -11.313,9.9 -14.849,30.406 l 96.167,96.167 c 0,0 14.142,-1.414 28.991,-16.264"
         style="fill:#111c4e;fill-opacity:1;fill-rule:nonzero;stroke:none"
         id="path4813" /></g><g
       id="g4815"
       transform="translate(599.3511,764.4668)"><path
         d="m 0,0 c 0,0 -11.314,12.728 -28.284,16.971 l 12.02,12.02 c 0,0 15.557,-4.242 28.285,-16.97 z"
         style="fill:#111c4e;fill-opacity:1;fill-rule:nonzero;stroke:none"
         id="path4817" /></g><g
       id="g4819"
       transform="translate(483.3853,648.5015)"><path
         d="m 0,0 -11.313,-11.314 -56.569,56.568 21.92,21.921 30.406,-30.405 c 0,0 -2.121,-19.093 15.556,-36.77"
         style="fill:#111c4e;fill-opacity:1;fill-rule:nonzero;stroke:none"
         id="path4821" /></g><g
       id="g4823"
       transform="translate(327.9839,418.2842)"><path
         d="m 0,0 2.38,-2.189 c -1.651,-3.175 -3.11,-6.414 -4.379,-9.714 -7.366,-3.872 -14.459,-6.618 -21.282,-8.236 -6.824,-1.619 -14.681,-2.428 -23.568,-2.428 -16.632,0 -30.693,2.919 -42.183,8.76 -11.489,5.839 -20.329,14.06 -26.519,24.662 -6.189,10.6 -9.283,22.758 -9.283,36.47 0,19.741 6.999,35.912 20.996,48.515 13.997,12.6 33.311,18.902 57.942,18.902 8.188,0 16.298,-0.732 24.329,-2.191 8.029,-1.461 16.012,-3.682 23.947,-6.666 l 0.667,-1.428 C 1.877,101.029 1.067,97.728 0.613,94.555 -0.23,89.032 -0.879,82.175 -1.333,73.986 h -7.999 c -0.38,10.03 -0.762,15.535 -1.142,16.521 -0.381,0.983 -2.125,2.666 -5.231,5.047 -3.107,2.381 -7.308,4.317 -12.603,5.808 -5.294,1.491 -11.145,2.239 -17.548,2.239 -15.219,0 -27.315,-4.7 -36.287,-14.093 -8.973,-9.397 -13.459,-22.472 -13.459,-39.232 0,-18.156 5.395,-32.85 16.188,-44.087 9.965,-10.412 23.646,-15.616 41.04,-15.616 6.728,0 13.029,0.698 18.902,2.095 C -13.602,-5.937 -7.11,-3.491 0,0"
         style="fill:#111c4e;fill-opacity:1;fill-rule:nonzero;stroke:none"
         id="path4825" /></g><g
       id="g4827"
       transform="translate(492.335,523.2178)"><path
         d="m 0,0 c -8.507,-0.318 -13.584,-1.111 -15.235,-2.38 -1.651,-1.271 -2.476,-16.316 -2.476,-45.136 0,-1.015 0.096,-8.506 0.286,-22.471 l 0.286,-30.662 c 0.063,-6.539 0.301,-10.491 0.714,-11.855 0.412,-1.365 0.904,-2.285 1.476,-2.761 0.572,-0.476 1.459,-0.873 2.666,-1.19 1.205,-0.318 5.3,-0.7 12.283,-1.144 v -7.997 c -1.521,0 -5.007,0.094 -10.458,0.284 -7.923,0.256 -13.976,0.382 -18.16,0.382 -9.697,0 -20.917,-0.221 -33.656,-0.666 v 7.997 c 8.649,0.382 13.543,1.143 14.679,2.285 1.137,1.141 1.878,6.39 2.225,15.746 0.347,9.355 0.522,30.142 0.522,62.365 l -0.665,33.298 -12.074,0.667 c -1.079,0.062 -2.441,0.095 -4.089,0.095 h -25.762 l -16.163,-0.762 c 0,-2.853 -0.096,-7.198 -0.286,-13.033 -0.317,-10.845 -0.475,-19.948 -0.475,-27.306 0,-31.272 0.158,-50.615 0.474,-58.037 0.315,-7.421 1.027,-11.67 2.131,-12.749 1.104,-1.078 6.044,-1.934 14.82,-2.569 v -7.997 c -0.189,0 -2.066,0.063 -5.626,0.19 -10.681,0.318 -18.596,0.476 -23.746,0.476 -3.433,0 -14.464,-0.221 -33.092,-0.666 v 7.997 c 8.361,0.382 13.101,0.937 14.218,1.667 1.116,0.729 1.93,2.538 2.441,5.428 0.511,2.889 0.766,11.379 0.766,25.471 0,38.151 -0.079,61.194 -0.239,69.132 -0.161,7.933 -0.782,12.425 -1.868,13.473 -1.085,1.047 -6.191,1.857 -15.318,2.428 v 7.998 c 14.863,-0.571 26.457,-0.856 34.778,-0.856 h 79.941 c 8.194,0 19.754,0.285 34.682,0.856 z"
         style="fill:#111c4e;fill-opacity:1;fill-rule:nonzero;stroke:none"
         id="path4829" /></g><g
       id="g4831"
       transform="translate(644.9736,523.2178)"><path
         d="m 0,0 c -5.65,0 -9.538,-0.874 -11.664,-2.62 -2.128,-1.745 -7.888,-14.329 -17.282,-37.754 l -29.043,-72.082 c -7.617,-19.741 -17.781,-50.51 -21.59,-56.698 -3.809,-6.191 -8.079,-10.665 -12.807,-13.427 -4.73,-2.761 -10.174,-4.142 -16.33,-4.142 -5.079,0 -9.841,1.079 -14.283,3.238 1.586,6.284 2.697,12.411 3.332,18.377 l 2.57,0.762 c 3.491,-4.253 8.091,-6.38 13.804,-6.38 4.378,0 8.203,1.714 11.471,5.142 3.269,3.428 11.123,28.015 14.663,38.159 -1.84,5.092 -6.439,16.143 -13.795,33.155 -3.616,8.252 -8.342,19.457 -14.178,33.614 -6.659,16.123 -12.624,29.819 -17.892,41.088 -5.27,11.267 -8.666,17.218 -10.189,17.854 -1.523,0.633 -5.427,1.205 -11.712,1.714 v 7.998 c 11.739,-0.445 22.877,-0.666 33.412,-0.666 9.076,0 18.723,0.221 28.941,0.666 V 0 c -6.919,-0.445 -11.204,-0.985 -12.853,-1.619 -1.65,-0.635 -2.475,-1.747 -2.475,-3.333 0,-2.159 2.665,-9.651 7.997,-22.472 l 27.765,-65.779 20.719,53.21 c 7.935,20.25 11.903,31.962 11.903,35.137 0,1.586 -0.731,2.697 -2.191,3.332 -1.46,0.634 -6.031,1.143 -13.711,1.524 v 7.998 c 11.298,-0.38 19.235,-0.571 23.805,-0.571 4.188,0 11.393,0.191 21.613,0.571 z"
         style="fill:#111c4e;fill-opacity:1;fill-rule:nonzero;stroke:none"
         id="path4833" /></g><g
       id="g4835"
       transform="translate(677.7305,397.6221)"><path
         d="m 0,0 v 7.997 c 3.618,0 7.395,0.317 11.331,0.951 1.841,0.318 3.143,0.841 3.904,1.57 0.762,0.729 1.333,2.078 1.714,4.044 0.444,2.727 0.824,12.749 1.143,30.064 0.19,12.305 0.285,24.863 0.285,37.677 0,25.18 -0.08,38.007 -0.239,38.484 -0.159,0.476 -2.404,0.714 -6.73,0.714 -8.845,0 -16.449,-0.254 -22.812,-0.762 -3.692,-0.318 -5.777,-0.635 -6.253,-0.953 -0.479,-0.318 -0.845,-0.872 -1.099,-1.665 -0.254,-0.794 -0.794,-6.365 -1.621,-16.712 h -8.188 c 0.126,12.16 -0.192,22.633 -0.954,31.42 l 1.047,0.764 c 19.997,-0.951 39.453,-1.427 58.371,-1.427 18.854,0 39.96,0.476 63.322,1.427 l 1.048,-1.527 c -1.207,-8.724 -2.064,-18.942 -2.571,-30.657 h -7.903 c -0.571,10.702 -1.144,16.502 -1.715,17.401 -0.444,0.705 -1.461,1.185 -3.048,1.441 -5.079,0.834 -15.171,1.25 -30.279,1.25 -1.271,0 -2.032,-0.19 -2.286,-0.572 -0.254,-0.446 -0.38,-2.128 -0.38,-5.051 L 45.516,51.836 c 0,-18.553 0.159,-29.94 0.477,-34.166 0.319,-4.225 1.085,-6.781 2.298,-7.671 C 49.12,9.427 54.13,8.759 63.322,7.997 V 0 C 53.975,0.444 44.058,0.666 33.568,0.666 19.772,0.666 8.581,0.444 0,0"
         style="fill:#111c4e;fill-opacity:1;fill-rule:nonzero;stroke:none"
         id="path4837" /></g><g
       id="g4839"
       transform="translate(781.7109,397.6221)"><path
         d="m 0,0 v 7.997 c 8.365,0.382 13.105,0.937 14.223,1.667 1.117,0.729 1.867,2.238 2.251,4.524 0.633,3.49 0.951,12.283 0.951,26.375 l -0.094,52.086 c -0.065,17.582 -0.384,27.169 -0.959,28.756 -0.319,0.953 -0.862,1.682 -1.627,2.191 -1.276,0.824 -6.193,1.49 -14.745,2 v 7.997 c 12.716,-0.444 22.793,-0.666 30.231,-0.666 11.762,0 22.506,0.222 32.234,0.666 v -7.997 c -7.808,-0.51 -12.411,-1.081 -13.807,-1.715 -0.825,-0.381 -1.429,-0.951 -1.809,-1.714 -0.635,-1.206 -1.08,-4.888 -1.333,-11.045 -0.319,-9.141 -0.477,-18.411 -0.477,-27.805 v -7.903 c 6.592,-0.318 17.049,-0.476 31.373,-0.476 12.739,0 22.12,0.158 28.141,0.476 0.062,20.63 -0.159,34.342 -0.667,41.136 -0.253,3.618 -0.916,5.84 -1.988,6.665 -1.452,1.205 -6.377,1.999 -14.771,2.381 v 7.997 c 15.783,-0.444 26.463,-0.666 32.041,-0.666 9.569,0 19.68,0.222 30.329,0.666 v -7.997 c -8.127,-0.51 -12.854,-1.112 -14.187,-1.81 -0.763,-0.381 -1.333,-0.952 -1.715,-1.714 -0.572,-1.333 -0.985,-6.508 -1.238,-15.521 -0.445,-13.84 -0.667,-25.043 -0.667,-33.613 l 0.572,-43.23 c 0.126,-9.776 0.412,-15.395 0.857,-16.854 0.443,-1.461 1.174,-2.493 2.191,-3.094 1.014,-0.605 5.744,-1.192 14.187,-1.763 V 0 L 138.944,0.284 C 131.021,0.54 124.808,0.666 120.309,0.666 110.927,0.666 99.866,0.444 87.127,0 v 7.997 c 8.413,0.385 13.201,1.07 14.362,2.062 1.16,0.99 1.868,3.593 2.119,7.813 0.439,7.223 0.754,22.625 0.945,46.211 H 80.88 c -13.627,0 -25.574,-0.128 -35.841,-0.381 v -6.285 c 0,-16.633 0.221,-29.105 0.664,-37.422 0.316,-5.586 1.072,-8.841 2.273,-9.76 1.199,-0.921 6.029,-1.667 14.489,-2.238 V 0 L 51.211,0.284 C 44.091,0.54 37.732,0.666 32.139,0.666 Z"
         style="fill:#111c4e;fill-opacity:1;fill-rule:nonzero;stroke:none"
         id="path4841" /></g><g
       id="g4843"
       transform="translate(1095.4639,531.2153)"><path
         d="m 0,0 v -7.998 c -9,-0.318 -14.218,-1.223 -15.653,-2.713 -1.437,-1.493 -2.154,-15.918 -2.154,-43.279 0,-29.899 0.176,-48.627 0.527,-56.18 0.351,-7.555 1.068,-11.855 2.154,-12.902 1.084,-1.048 6.126,-1.889 15.126,-2.524 v -7.997 c -0.19,0 -2.066,0.062 -5.627,0.189 -10.682,0.319 -18.597,0.477 -23.745,0.477 -3.435,0 -14.465,-0.222 -33.093,-0.666 v 7.997 c 8.887,0.254 14.028,1.062 15.426,2.429 1.395,1.364 2.095,11.505 2.095,30.422 l 0.476,53.229 c 0,2.983 -0.159,8.57 -0.476,16.759 l -12.378,-20.854 c -18.157,-30.851 -30.647,-51.262 -37.47,-61.226 -6.824,-9.968 -14.396,-19.553 -22.71,-28.756 -8.38,-1.271 -13.775,-2.191 -16.187,-2.762 l -1.62,1.429 c 0.888,9.901 1.333,35.197 1.333,75.889 0,30.153 -0.461,46.102 -1.38,47.849 -0.921,1.746 -6.332,2.809 -16.236,3.19 V 0 c 13.522,-0.444 22.568,-0.666 27.139,-0.666 13.521,0 25.264,0.222 35.231,0.666 v -7.998 c -9.014,-0.318 -14.205,-1.238 -15.568,-2.761 -1.366,-1.524 -2.048,-15.616 -2.048,-42.278 0,-4.952 0.285,-21.425 0.858,-49.42 l 12.092,18.854 c 19.425,30.28 36.056,57.925 49.896,82.937 l 8.397,-0.095 c 13.614,0 25.48,0.253 35.595,0.761"
         style="fill:#111c4e;fill-opacity:1;fill-rule:nonzero;stroke:none"
         id="path4845" /></g><g
       id="g4847"
       transform="translate(1108.3174,397.6221)"><path
         d="m 0,0 v 7.997 c 7.788,0.571 12.159,1.079 13.118,1.524 0.701,0.317 1.212,0.73 1.531,1.238 0.638,0.887 1.148,2.793 1.533,5.713 0.702,5.014 1.084,14.283 1.149,27.804 l 0.096,35.899 c 0,11.427 -0.176,20.98 -0.528,28.662 -0.35,7.68 -0.845,12.155 -1.482,13.426 -0.385,0.824 -1.022,1.459 -1.916,1.904 C 12.159,124.8 7.66,125.277 0,125.596 v 7.997 c 11.481,-0.444 21.717,-0.666 30.71,-0.666 10.777,0 20.982,0.222 30.613,0.666 v -7.997 C 53.278,125.024 48.634,124.325 47.39,123.5 46.145,122.674 45.395,120.675 45.139,117.501 44.818,113.502 44.627,97.506 44.564,69.51 h 1.332 c 6.405,5.142 15.632,13.76 27.683,25.853 12.048,12.093 21.371,22.17 27.967,30.233 l 0.096,3.522 -0.096,3.524 0.856,0.951 c 6.912,-0.444 12.809,-0.666 17.692,-0.666 5.135,0 10.906,0.222 17.31,0.666 v -7.997 l -5.421,-0.574 c -4.312,-0.445 -7.103,-0.922 -8.371,-1.431 -2.536,-1.145 -5.928,-3.5 -10.176,-7.064 C 107.095,111.243 99.073,104.009 89.374,94.82 L 72.449,78.85 81.201,68.088 c 10.338,-12.699 22.676,-27.111 37.011,-43.235 8.236,-9.271 13.18,-14.379 14.829,-15.332 1.14,-0.635 4.149,-1.142 9.029,-1.524 V 0 l -5.042,0.189 -16.932,0.477 C 115.529,0.666 109.632,0.444 102.402,0 97.265,6.601 88.575,17.171 76.337,31.708 c -9.133,10.917 -17.853,20.82 -26.16,29.709 -1.062,1.142 -1.81,1.809 -2.246,1.999 -0.374,0.127 -0.748,0.19 -1.121,0.19 -0.937,0 -1.591,-0.38 -1.964,-1.142 -0.188,-0.509 -0.282,-3.047 -0.282,-7.617 l 0.381,-28.853 c 0.126,-8.443 0.476,-13.3 1.048,-14.569 0.38,-0.889 1.015,-1.523 1.904,-1.904 C 49.166,8.95 53.642,8.44 61.323,7.997 V 0 C 51.885,0.444 41.425,0.666 29.945,0.666 24.139,0.666 14.159,0.444 0,0"
         style="fill:#111c4e;fill-opacity:1;fill-rule:nonzero;stroke:none"
         id="path4849" /></g><g
       id="g4851"
       transform="translate(643.4873,336.6699)"><path
         d="M 0,0 H -7.758 V 25.335 L -17.957,0 h -3.364 L -31.52,25.335 V 0 h -7.704 v 36.186 h 10.796 l 8.789,-21.864 8.789,21.864 H 0 Z"
         style="fill:#5c5c5b;fill-opacity:1;fill-rule:nonzero;stroke:none"
         id="path4853" /></g><g
       id="g4855"
       transform="translate(673.4336,349.582)"><path
         d="M 0,0 -5.642,15.57 -11.284,0 Z M 13.129,-12.912 H 4.34 L 2.116,-6.781 H -13.4 l -2.279,-6.131 h -8.789 l 13.997,36.185 h 9.658 z"
         style="fill:#5c5c5b;fill-opacity:1;fill-rule:nonzero;stroke:none"
         id="path4857" /></g><g
       id="g4859"
       transform="translate(723.0732,336.6699)"><path
         d="m 0,0 h -9.494 l -10.959,14.485 -2.821,-3.364 V 0 h -7.704 v 36.186 h 7.704 V 20.019 l 12.803,16.167 h 9.494 L -15.354,19.205 Z"
         style="fill:#5c5c5b;fill-opacity:1;fill-rule:nonzero;stroke:none"
         id="path4861" /></g><g
       id="g4863"
       transform="translate(754.375,336.6699)"><path
         d="M 0,0 H -25.606 V 36.186 H 0 V 29.404 H -17.902 V 21.755 H -0.379 V 14.974 H -17.902 V 6.781 H 0 Z"
         style="fill:#5c5c5b;fill-opacity:1;fill-rule:nonzero;stroke:none"
         id="path4865" /></g><g
       id="g4867"
       transform="translate(778.6797,336.6699)"><path
         d="m 0,0 h -7.758 v 29.404 h -10.579 v 6.782 H 10.524 V 29.404 H 0 Z"
         style="fill:#5c5c5b;fill-opacity:1;fill-rule:nonzero;stroke:none"
         id="path4869" /></g><g
       id="g4871"
       transform="translate(828.8613,336.6699)"><path
         d="m 0,0 h -7.758 v 15.19 h -17.09 V 0 h -7.703 v 36.186 h 7.703 V 21.972 h 17.09 V 36.186 H 0 Z"
         style="fill:#5c5c5b;fill-opacity:1;fill-rule:nonzero;stroke:none"
         id="path4873" /></g><g
       id="g4875"
       transform="translate(858.7529,349.582)"><path
         d="M 0,0 -5.642,15.57 -11.284,0 Z M 13.129,-12.912 H 4.34 L 2.116,-6.781 H -13.4 l -2.279,-6.131 h -8.789 l 13.997,36.185 h 9.658 z"
         style="fill:#5c5c5b;fill-opacity:1;fill-rule:nonzero;stroke:none"
         id="path4877" /></g><g
       id="g4879"
       transform="translate(889.3506,356.3086)"><path
         d="M 0,0 H 8.083 V 9.766 H 0 C -1.592,9.766 -2.894,9.322 -3.906,8.437 -4.919,7.55 -5.425,6.365 -5.425,4.883 -5.425,3.399 -4.919,2.215 -3.906,1.329 -2.894,0.442 -1.592,0 0,0 m -4.666,-19.639 h -8.843 l 8.138,13.781 c -2.206,0.505 -4.078,1.681 -5.615,3.526 -1.537,1.844 -2.306,4.249 -2.306,7.215 0,3.435 1.094,6.239 3.282,8.409 2.189,2.17 5.145,3.255 8.87,3.255 H 15.787 V -19.639 H 8.083 V -6.781 H 2.495 Z"
         style="fill:#5c5c5b;fill-opacity:1;fill-rule:nonzero;stroke:none"
         id="path4881" /></g><g
       id="g4883"
       transform="translate(961.5049,336.6699)"><path
         d="m 0,0 h -9.494 l -10.959,14.485 -2.821,-3.364 V 0 h -7.704 v 36.186 h 7.704 V 20.019 l 12.803,16.167 h 9.494 L -15.354,19.205 Z"
         style="fill:#5c5c5b;fill-opacity:1;fill-rule:nonzero;stroke:none"
         id="path4885" /></g><g
       id="g4887"
       transform="translate(973.8467,346.2178)"><path
         d="m 0,0 c 2.007,-2.242 4.656,-3.363 7.947,-3.363 3.291,0 5.949,1.121 7.975,3.363 2.025,2.242 3.038,5.081 3.038,8.518 0,3.435 -1.013,6.274 -3.038,8.517 -2.026,2.242 -4.684,3.363 -7.975,3.363 C 4.656,20.398 2.007,19.277 0,17.035 -2.008,14.792 -3.012,11.953 -3.012,8.518 -3.012,5.081 -2.008,2.242 0,0 m 7.947,-10.199 c -5.462,0 -9.973,1.763 -13.535,5.29 -3.563,3.526 -5.344,8.002 -5.344,13.427 0,5.425 1.781,9.901 5.344,13.427 3.562,3.527 8.073,5.289 13.535,5.289 5.497,0 10.028,-1.755 13.59,-5.261 3.563,-3.509 5.344,-7.994 5.344,-13.455 0,-5.461 -1.781,-9.947 -5.344,-13.455 -3.562,-3.508 -8.093,-5.262 -13.59,-5.262"
         style="fill:#5c5c5b;fill-opacity:1;fill-rule:nonzero;stroke:none"
         id="path4889" /></g><g
       id="g4891"
       transform="translate(1047.5469,336.6699)"><path
         d="M 0,0 H -7.758 V 25.335 L -17.957,0 h -3.364 l -10.2,25.335 V 0 h -7.703 v 36.186 h 10.796 l 8.789,-21.864 8.788,21.864 H 0 Z"
         style="fill:#5c5c5b;fill-opacity:1;fill-rule:nonzero;stroke:none"
         id="path4893" /></g><g
       id="g4895"
       transform="translate(1089.4287,336.6699)"><path
         d="m 0,0 h -7.758 v 29.404 h -17.09 V 0 h -7.703 V 36.186 H 0 Z"
         style="fill:#5c5c5b;fill-opacity:1;fill-rule:nonzero;stroke:none"
         id="path4897" /></g><g
       id="g4899"
       transform="translate(1119.3203,349.582)"><path
         d="M 0,0 -5.642,15.57 -11.284,0 Z M 13.129,-12.912 H 4.34 L 2.116,-6.781 H -13.4 l -2.279,-6.131 h -8.789 l 13.997,36.185 h 9.658 z"
         style="fill:#5c5c5b;fill-opacity:1;fill-rule:nonzero;stroke:none"
         id="path4901" /></g><g
       id="g4903"
       transform="translate(1170.5332,336.6699)"><path
         d="m 0,0 h -7.758 v 15.19 h -17.09 V 0 h -7.703 v 36.186 h 7.703 V 21.972 h 17.09 V 36.186 H 0 Z"
         style="fill:#5c5c5b;fill-opacity:1;fill-rule:nonzero;stroke:none"
         id="path4905" /></g><g
       id="g4907"
       transform="translate(1187.2422,336.6699)"><path
         d="M 0,0 H -7.433 V 36.186 H 0.271 V 12.804 l 16.763,23.382 h 7.921 V 0 h -7.703 v 24.25 z"
         style="fill:#5c5c5b;fill-opacity:1;fill-rule:nonzero;stroke:none"
         id="path4909" /></g><g
       id="g4911"
       transform="translate(1233.4639,356.3086)"><path
         d="M 0,0 H 8.083 V 9.766 H 0 c -1.593,0 -2.895,-0.444 -3.906,-1.329 -1.014,-0.887 -1.52,-2.072 -1.52,-3.554 0,-1.484 0.506,-2.668 1.52,-3.554 C -2.895,0.442 -1.593,0 0,0 m -4.666,-19.639 h -8.843 l 8.138,13.781 c -2.207,0.505 -4.078,1.681 -5.615,3.526 -1.538,1.844 -2.306,4.249 -2.306,7.215 0,3.435 1.094,6.239 3.282,8.409 2.188,2.17 5.145,3.255 8.87,3.255 H 15.787 V -19.639 H 8.083 V -6.781 H 2.495 Z"
         style="fill:#5c5c5b;fill-opacity:1;fill-rule:nonzero;stroke:none"
         id="path4913" /></g><g
       id="g4915"
       transform="translate(638.0278,262.7451)"><path
         d="m 0,0 c -27.122,-27.122 -58.699,-48.413 -93.854,-63.282 -36.388,-15.391 -75.052,-23.195 -114.919,-23.195 -39.868,0 -78.532,7.804 -114.919,23.195 -35.156,14.869 -66.733,36.16 -93.854,63.282 -27.122,27.122 -48.413,58.699 -63.283,93.854 -15.391,36.388 -23.194,75.052 -23.194,114.919 0,39.868 7.803,78.532 23.194,114.919 14.87,35.156 36.161,66.733 63.283,93.855 27.121,27.121 58.698,48.413 93.854,63.283 36.387,15.39 75.051,23.193 114.919,23.193 16.03,0 31.861,-1.284 47.433,-3.793 l -25.585,23.027 c -7.221,0.494 -14.502,0.766 -21.848,0.766 -174.108,0 -315.25,-141.142 -315.25,-315.25 0,-174.107 141.142,-315.25 315.25,-315.25 116.104,0 217.531,62.776 272.237,156.226 H 40.068 C 28.62,31.865 15.23,15.229 0,0"
         style="fill:#111c4e;fill-opacity:1;fill-rule:nonzero;stroke:none"
         id="path4917" /></g><g
       id="g4919"
       transform="translate(741.2891,832.1572)"><path
         d="m 0,0 7.585,-7.393 -1.79,-10.439 9.375,4.929 9.375,-4.929 -1.791,10.439 7.585,7.394 L 19.857,1.523 15.17,11.021 10.482,1.523 Z M 31.186,-26.973 15.17,-18.552 -0.846,-26.973 2.212,-9.139 -10.744,3.492 7.162,6.094 15.17,22.318 23.178,6.094 41.083,3.491 28.127,-9.139 Z"
         style="fill:#5c5c5b;fill-opacity:1;fill-rule:nonzero;stroke:none"
         id="path4921" /></g><g
       id="g4923"
       transform="translate(571.4585,900.0898)"><path
         d="M 0,0 5.095,-2.679 4.122,2.994 8.244,7.012 2.547,7.84 0,13.001 -2.547,7.84 -8.243,7.012 -4.122,2.994 -5.095,-2.679 Z m -10.407,-9.991 1.988,11.589 -8.42,8.207 11.635,1.691 L 0,22.04 5.204,11.496 16.839,9.805 8.42,1.598 10.407,-9.991 0,-4.52 Z"
         style="fill:#111c4e;fill-opacity:1;fill-rule:nonzero;stroke:none"
         id="path4925" /></g><g
       id="g4927"
       transform="translate(295.4585,800.0898)"><path
         d="M 0,0 5.095,-2.679 4.122,2.994 8.244,7.012 2.547,7.84 0,13.001 -2.547,7.84 -8.244,7.012 -4.122,2.994 -5.095,-2.679 Z M 10.407,-9.991 0,-4.52 -10.407,-9.991 -8.419,1.598 -16.839,9.805 -5.204,11.496 0,22.04 5.204,11.496 16.839,9.805 8.419,1.598 Z"
         style="fill:#111c4e;fill-opacity:1;fill-rule:nonzero;stroke:none"
         id="path4929" /></g></g></svg>
