<?xml version="1.0" encoding="UTF-8" standalone="no"?>
<svg
   xmlns:dc="http://purl.org/dc/elements/1.1/"
   xmlns:cc="http://creativecommons.org/ns#"
   xmlns:rdf="http://www.w3.org/1999/02/22-rdf-syntax-ns#"
   xmlns:svg="http://www.w3.org/2000/svg"
   xmlns="http://www.w3.org/2000/svg"
   xmlns:xlink="http://www.w3.org/1999/xlink"
   xml:space="preserve"
   style="enable-background:new 0 0 368.258 368.258;"
   viewBox="0 0 368.258 368.258"
   y="0px"
   x="0px"
   id="Capa_1"
   version="1.1"><metadata
   id="metadata4962"><rdf:RDF><cc:Work
       rdf:about=""><dc:format>image/svg+xml</dc:format><dc:type
         rdf:resource="http://purl.org/dc/dcmitype/StillImage" /><dc:title></dc:title></cc:Work></rdf:RDF></metadata><defs
   id="defs4960"><linearGradient
     id="lapkin"><stop
       id="stop4972"
       offset="0"
       style="stop-color:#2351ee;stop-opacity:1" /><stop
       id="stop4974"
       offset="1"
       style="stop-color:#00ff00;stop-opacity:1" /></linearGradient><linearGradient
     gradientUnits="userSpaceOnUse"
     y2="200.11137"
     x2="400.22626"
     y1="200.11137"
     x1="0"
     id="linearGradient15843"
     xlink:href="#lapkin" /><linearGradient
     y2="200.11137"
     x2="400.22626"
     y1="200.11137"
     x1="0"
     gradientUnits="userSpaceOnUse"
     id="linearGradient15845"
     xlink:href="#lapkin" /><linearGradient
     y2="200.11137"
     x2="400.22626"
     y1="200.11137"
     x1="0"
     gradientUnits="userSpaceOnUse"
     id="linearGradient15847"
     xlink:href="#lapkin" /><linearGradient
     y2="200.11137"
     x2="400.22626"
     y1="200.11137"
     x1="0"
     gradientUnits="userSpaceOnUse"
     id="linearGradient15849"
     xlink:href="#lapkin" /><linearGradient
     y2="200.11137"
     x2="400.22626"
     y1="200.11137"
     x1="0"
     gradientUnits="userSpaceOnUse"
     id="linearGradient15851"
     xlink:href="#lapkin" /><linearGradient
     y2="200.11137"
     x2="400.22626"
     y1="200.11137"
     x1="0"
     gradientUnits="userSpaceOnUse"
     id="linearGradient15853"
     xlink:href="#lapkin" /><linearGradient
     y2="200.11137"
     x2="400.22626"
     y1="200.11137"
     x1="0"
     gradientUnits="userSpaceOnUse"
     id="linearGradient15855"
     xlink:href="#lapkin" /><linearGradient
     y2="200.11137"
     x2="400.22626"
     y1="200.11137"
     x1="0"
     gradientUnits="userSpaceOnUse"
     id="linearGradient15857"
     xlink:href="#lapkin" /><linearGradient
     y2="200.11137"
     x2="400.22626"
     y1="200.11137"
     x1="0"
     gradientUnits="userSpaceOnUse"
     id="linearGradient15859"
     xlink:href="#lapkin" /><linearGradient
     y2="200.11137"
     x2="400.22626"
     y1="200.11137"
     x1="0"
     gradientUnits="userSpaceOnUse"
     id="linearGradient15861"
     xlink:href="#lapkin" /><linearGradient
     y2="200.11137"
     x2="400.22626"
     y1="200.11137"
     x1="0"
     gradientUnits="userSpaceOnUse"
     id="linearGradient15863"
     xlink:href="#lapkin" /><linearGradient
     y2="200.11137"
     x2="400.22626"
     y1="200.11137"
     x1="0"
     gradientUnits="userSpaceOnUse"
     id="linearGradient15865"
     xlink:href="#lapkin" /><linearGradient
     y2="200.11137"
     x2="400.22626"
     y1="200.11137"
     x1="0"
     gradientUnits="userSpaceOnUse"
     id="linearGradient15867"
     xlink:href="#lapkin" /><linearGradient
     y2="200.11137"
     x2="400.22626"
     y1="200.11137"
     x1="0"
     gradientUnits="userSpaceOnUse"
     id="linearGradient15869"
     xlink:href="#lapkin" /><linearGradient
     y2="200.11137"
     x2="400.22626"
     y1="200.11137"
     x1="0"
     gradientUnits="userSpaceOnUse"
     id="linearGradient15871"
     xlink:href="#lapkin" /><linearGradient
     y2="200.11137"
     x2="400.22626"
     y1="200.11137"
     x1="0"
     gradientUnits="userSpaceOnUse"
     id="linearGradient15873"
     xlink:href="#lapkin" /><linearGradient
     y2="200.11137"
     x2="400.22626"
     y1="200.11137"
     x1="0"
     gradientUnits="userSpaceOnUse"
     id="linearGradient15875"
     xlink:href="#lapkin" /><linearGradient
     gradientUnits="userSpaceOnUse"
     y2="210.89149"
     x2="279.59698"
     y1="210.89149"
     x1="142.179"
     id="linearGradient16113"
     xlink:href="#lapkin" /><linearGradient
     y2="210.89149"
     x2="279.59698"
     y1="210.89149"
     x1="142.179"
     gradientUnits="userSpaceOnUse"
     id="linearGradient16177"
     xlink:href="#lapkin" /><linearGradient
     y2="210.89149"
     x2="279.59698"
     y1="210.89149"
     x1="142.179"
     gradientUnits="userSpaceOnUse"
     id="linearGradient16179"
     xlink:href="#lapkin" /><linearGradient
     y2="210.89149"
     x2="279.59698"
     y1="210.89149"
     x1="142.179"
     gradientUnits="userSpaceOnUse"
     id="linearGradient16181"
     xlink:href="#lapkin" /><linearGradient
     y2="210.89149"
     x2="279.59698"
     y1="210.89149"
     x1="142.179"
     gradientUnits="userSpaceOnUse"
     id="linearGradient16183"
     xlink:href="#lapkin" /><linearGradient
     y2="210.89149"
     x2="279.59698"
     y1="210.89149"
     x1="142.179"
     gradientUnits="userSpaceOnUse"
     id="linearGradient16185"
     xlink:href="#lapkin" /><linearGradient
     y2="210.89149"
     x2="279.59698"
     y1="210.89149"
     x1="142.179"
     gradientUnits="userSpaceOnUse"
     id="linearGradient16187"
     xlink:href="#lapkin" /><linearGradient
     y2="210.89149"
     x2="279.59698"
     y1="210.89149"
     x1="142.179"
     gradientUnits="userSpaceOnUse"
     id="linearGradient16189"
     xlink:href="#lapkin" /><linearGradient
     y2="210.89149"
     x2="279.59698"
     y1="210.89149"
     x1="142.179"
     gradientUnits="userSpaceOnUse"
     id="linearGradient16191"
     xlink:href="#lapkin" /><linearGradient
     y2="210.89149"
     x2="279.59698"
     y1="210.89149"
     x1="142.179"
     gradientUnits="userSpaceOnUse"
     id="linearGradient16193"
     xlink:href="#lapkin" /><linearGradient
     y2="210.89149"
     x2="279.59698"
     y1="210.89149"
     x1="142.179"
     gradientUnits="userSpaceOnUse"
     id="linearGradient16195"
     xlink:href="#lapkin" /><linearGradient
     y2="210.89149"
     x2="279.59698"
     y1="210.89149"
     x1="142.179"
     gradientUnits="userSpaceOnUse"
     id="linearGradient16197"
     xlink:href="#lapkin" /><linearGradient
     y2="210.89149"
     x2="279.59698"
     y1="210.89149"
     x1="142.179"
     gradientUnits="userSpaceOnUse"
     id="linearGradient16199"
     xlink:href="#lapkin" /><linearGradient
     y2="210.89149"
     x2="279.59698"
     y1="210.89149"
     x1="142.179"
     gradientUnits="userSpaceOnUse"
     id="linearGradient16201"
     xlink:href="#lapkin" /><linearGradient
     y2="210.89149"
     x2="279.59698"
     y1="210.89149"
     x1="142.179"
     gradientUnits="userSpaceOnUse"
     id="linearGradient16203"
     xlink:href="#lapkin" /><linearGradient
     y2="210.89149"
     x2="279.59698"
     y1="210.89149"
     x1="142.179"
     gradientUnits="userSpaceOnUse"
     id="linearGradient16205"
     xlink:href="#lapkin" /><linearGradient
     y2="210.89149"
     x2="279.59698"
     y1="210.89149"
     x1="142.179"
     gradientUnits="userSpaceOnUse"
     id="linearGradient16207"
     xlink:href="#lapkin" /><linearGradient
     y2="210.89149"
     x2="279.59698"
     y1="210.89149"
     x1="142.179"
     gradientUnits="userSpaceOnUse"
     id="linearGradient16209"
     xlink:href="#lapkin" /><linearGradient
     y2="210.89149"
     x2="279.59698"
     y1="210.89149"
     x1="142.179"
     gradientUnits="userSpaceOnUse"
     id="linearGradient16211"
     xlink:href="#lapkin" /><linearGradient
     gradientUnits="userSpaceOnUse"
     y2="183.99899"
     x2="311.49301"
     y1="183.99899"
     x1="56.502998"
     id="linearGradient16431"
     xlink:href="#lapkin" /><linearGradient
     y2="183.99899"
     x2="311.49301"
     y1="183.99899"
     x1="56.502998"
     gradientUnits="userSpaceOnUse"
     id="linearGradient16433"
     xlink:href="#lapkin" /><linearGradient
     y2="183.99899"
     x2="311.49301"
     y1="183.99899"
     x1="56.502998"
     gradientUnits="userSpaceOnUse"
     id="linearGradient16435"
     xlink:href="#lapkin" /><linearGradient
     y2="183.99899"
     x2="311.49301"
     y1="183.99899"
     x1="56.502998"
     gradientUnits="userSpaceOnUse"
     id="linearGradient16437"
     xlink:href="#lapkin" /><linearGradient
     y2="183.99899"
     x2="311.49301"
     y1="183.99899"
     x1="56.502998"
     gradientUnits="userSpaceOnUse"
     id="linearGradient16439"
     xlink:href="#lapkin" /><linearGradient
     y2="183.99899"
     x2="311.49301"
     y1="183.99899"
     x1="56.502998"
     gradientUnits="userSpaceOnUse"
     id="linearGradient16441"
     xlink:href="#lapkin" /><linearGradient
     y2="183.99899"
     x2="311.49301"
     y1="183.99899"
     x1="56.502998"
     gradientUnits="userSpaceOnUse"
     id="linearGradient16443"
     xlink:href="#lapkin" /><linearGradient
     y2="183.99899"
     x2="311.49301"
     y1="183.99899"
     x1="56.502998"
     gradientUnits="userSpaceOnUse"
     id="linearGradient16445"
     xlink:href="#lapkin" /><linearGradient
     y2="183.99899"
     x2="311.49301"
     y1="183.99899"
     x1="56.502998"
     gradientUnits="userSpaceOnUse"
     id="linearGradient16447"
     xlink:href="#lapkin" /><linearGradient
     y2="183.99899"
     x2="311.49301"
     y1="183.99899"
     x1="56.502998"
     gradientUnits="userSpaceOnUse"
     id="linearGradient16449"
     xlink:href="#lapkin" /><linearGradient
     y2="183.99899"
     x2="311.49301"
     y1="183.99899"
     x1="56.502998"
     gradientUnits="userSpaceOnUse"
     id="linearGradient16451"
     xlink:href="#lapkin" /><linearGradient
     y2="183.99899"
     x2="311.49301"
     y1="183.99899"
     x1="56.502998"
     gradientUnits="userSpaceOnUse"
     id="linearGradient16453"
     xlink:href="#lapkin" /><linearGradient
     y2="183.99899"
     x2="311.49301"
     y1="183.99899"
     x1="56.502998"
     gradientUnits="userSpaceOnUse"
     id="linearGradient16455"
     xlink:href="#lapkin" /><linearGradient
     y2="183.99899"
     x2="311.49301"
     y1="183.99899"
     x1="56.502998"
     gradientUnits="userSpaceOnUse"
     id="linearGradient16457"
     xlink:href="#lapkin" /><linearGradient
     y2="183.99899"
     x2="311.49301"
     y1="183.99899"
     x1="56.502998"
     gradientUnits="userSpaceOnUse"
     id="linearGradient16459"
     xlink:href="#lapkin" /><linearGradient
     y2="183.99899"
     x2="311.49301"
     y1="183.99899"
     x1="56.502998"
     gradientUnits="userSpaceOnUse"
     id="linearGradient16461"
     xlink:href="#lapkin" /><linearGradient
     y2="183.99899"
     x2="311.49301"
     y1="183.99899"
     x1="56.502998"
     gradientUnits="userSpaceOnUse"
     id="linearGradient16463"
     xlink:href="#lapkin" /><linearGradient
     y2="183.99899"
     x2="311.49301"
     y1="183.99899"
     x1="56.502998"
     gradientUnits="userSpaceOnUse"
     id="linearGradient16465"
     xlink:href="#lapkin" /><linearGradient
     y2="183.99899"
     x2="311.49301"
     y1="183.99899"
     x1="56.502998"
     gradientUnits="userSpaceOnUse"
     id="linearGradient16467"
     xlink:href="#lapkin" /><linearGradient
     y2="183.99899"
     x2="311.49301"
     y1="183.99899"
     x1="56.502998"
     gradientUnits="userSpaceOnUse"
     id="linearGradient16469"
     xlink:href="#lapkin" /><linearGradient
     y2="183.99899"
     x2="311.49301"
     y1="183.99899"
     x1="56.502998"
     gradientUnits="userSpaceOnUse"
     id="linearGradient16471"
     xlink:href="#lapkin" /><linearGradient
     y2="183.99899"
     x2="311.49301"
     y1="183.99899"
     x1="56.502998"
     gradientUnits="userSpaceOnUse"
     id="linearGradient16473"
     xlink:href="#lapkin" /><linearGradient
     y2="183.99899"
     x2="311.49301"
     y1="183.99899"
     x1="56.502998"
     gradientUnits="userSpaceOnUse"
     id="linearGradient16475"
     xlink:href="#lapkin" /><linearGradient
     y2="183.99899"
     x2="311.49301"
     y1="183.99899"
     x1="56.502998"
     gradientUnits="userSpaceOnUse"
     id="linearGradient16477"
     xlink:href="#lapkin" /><linearGradient
     y2="183.99899"
     x2="311.49301"
     y1="183.99899"
     x1="56.502998"
     gradientUnits="userSpaceOnUse"
     id="linearGradient16479"
     xlink:href="#lapkin" /><linearGradient
     y2="183.99899"
     x2="311.49301"
     y1="183.99899"
     x1="56.502998"
     gradientUnits="userSpaceOnUse"
     id="linearGradient16481"
     xlink:href="#lapkin" /><linearGradient
     y2="183.99899"
     x2="311.49301"
     y1="183.99899"
     x1="56.502998"
     gradientUnits="userSpaceOnUse"
     id="linearGradient16483"
     xlink:href="#lapkin" /><linearGradient
     gradientUnits="userSpaceOnUse"
     y2="169.3255"
     x2="338.65201"
     y1="169.3255"
     x1="0"
     id="linearGradient16741"
     xlink:href="#lapkin" /><linearGradient
     y2="169.3255"
     x2="338.65201"
     y1="169.3255"
     x1="0"
     gradientUnits="userSpaceOnUse"
     id="linearGradient16743"
     xlink:href="#lapkin" /><linearGradient
     y2="169.3255"
     x2="338.65201"
     y1="169.3255"
     x1="0"
     gradientUnits="userSpaceOnUse"
     id="linearGradient16745"
     xlink:href="#lapkin" /><linearGradient
     y2="169.3255"
     x2="338.65201"
     y1="169.3255"
     x1="0"
     gradientUnits="userSpaceOnUse"
     id="linearGradient16747"
     xlink:href="#lapkin" /><linearGradient
     y2="169.3255"
     x2="338.65201"
     y1="169.3255"
     x1="0"
     gradientUnits="userSpaceOnUse"
     id="linearGradient16749"
     xlink:href="#lapkin" /><linearGradient
     y2="169.3255"
     x2="338.65201"
     y1="169.3255"
     x1="0"
     gradientUnits="userSpaceOnUse"
     id="linearGradient16751"
     xlink:href="#lapkin" /><linearGradient
     y2="169.3255"
     x2="338.65201"
     y1="169.3255"
     x1="0"
     gradientUnits="userSpaceOnUse"
     id="linearGradient16753"
     xlink:href="#lapkin" /><linearGradient
     y2="169.3255"
     x2="338.65201"
     y1="169.3255"
     x1="0"
     gradientUnits="userSpaceOnUse"
     id="linearGradient16755"
     xlink:href="#lapkin" /><linearGradient
     y2="169.3255"
     x2="338.65201"
     y1="169.3255"
     x1="0"
     gradientUnits="userSpaceOnUse"
     id="linearGradient16757"
     xlink:href="#lapkin" /><linearGradient
     y2="169.3255"
     x2="338.65201"
     y1="169.3255"
     x1="0"
     gradientUnits="userSpaceOnUse"
     id="linearGradient16759"
     xlink:href="#lapkin" /><linearGradient
     y2="169.3255"
     x2="338.65201"
     y1="169.3255"
     x1="0"
     gradientUnits="userSpaceOnUse"
     id="linearGradient16761"
     xlink:href="#lapkin" /><linearGradient
     y2="169.3255"
     x2="338.65201"
     y1="169.3255"
     x1="0"
     gradientUnits="userSpaceOnUse"
     id="linearGradient16763"
     xlink:href="#lapkin" /><linearGradient
     y2="169.3255"
     x2="338.65201"
     y1="169.3255"
     x1="0"
     gradientUnits="userSpaceOnUse"
     id="linearGradient16765"
     xlink:href="#lapkin" /><linearGradient
     y2="169.3255"
     x2="338.65201"
     y1="169.3255"
     x1="0"
     gradientUnits="userSpaceOnUse"
     id="linearGradient16767"
     xlink:href="#lapkin" /><linearGradient
     y2="169.3255"
     x2="338.65201"
     y1="169.3255"
     x1="0"
     gradientUnits="userSpaceOnUse"
     id="linearGradient16769"
     xlink:href="#lapkin" /><linearGradient
     y2="169.3255"
     x2="338.65201"
     y1="169.3255"
     x1="0"
     gradientUnits="userSpaceOnUse"
     id="linearGradient16771"
     xlink:href="#lapkin" /><linearGradient
     y2="169.3255"
     x2="338.65201"
     y1="169.3255"
     x1="0"
     gradientUnits="userSpaceOnUse"
     id="linearGradient16773"
     xlink:href="#lapkin" /><linearGradient
     y2="169.3255"
     x2="338.65201"
     y1="169.3255"
     x1="0"
     gradientUnits="userSpaceOnUse"
     id="linearGradient16775"
     xlink:href="#lapkin" /><linearGradient
     y2="169.3255"
     x2="338.65201"
     y1="169.3255"
     x1="0"
     gradientUnits="userSpaceOnUse"
     id="linearGradient16777"
     xlink:href="#lapkin" /><linearGradient
     gradientUnits="userSpaceOnUse"
     y2="152.8125"
     x2="285.58801"
     y1="152.8125"
     x1="20.039"
     id="linearGradient17039"
     xlink:href="#lapkin" /><linearGradient
     y2="152.8125"
     x2="285.58801"
     y1="152.8125"
     x1="20.039"
     gradientUnits="userSpaceOnUse"
     id="linearGradient17041"
     xlink:href="#lapkin" /><linearGradient
     y2="152.8125"
     x2="285.58801"
     y1="152.8125"
     x1="20.039"
     gradientUnits="userSpaceOnUse"
     id="linearGradient17043"
     xlink:href="#lapkin" /><linearGradient
     y2="152.8125"
     x2="285.58801"
     y1="152.8125"
     x1="20.039"
     gradientUnits="userSpaceOnUse"
     id="linearGradient17045"
     xlink:href="#lapkin" /><linearGradient
     y2="152.8125"
     x2="285.58801"
     y1="152.8125"
     x1="20.039"
     gradientUnits="userSpaceOnUse"
     id="linearGradient17047"
     xlink:href="#lapkin" /><linearGradient
     y2="152.8125"
     x2="285.58801"
     y1="152.8125"
     x1="20.039"
     gradientUnits="userSpaceOnUse"
     id="linearGradient17049"
     xlink:href="#lapkin" /><linearGradient
     y2="152.8125"
     x2="285.58801"
     y1="152.8125"
     x1="20.039"
     gradientUnits="userSpaceOnUse"
     id="linearGradient17051"
     xlink:href="#lapkin" /><linearGradient
     y2="152.8125"
     x2="285.58801"
     y1="152.8125"
     x1="20.039"
     gradientUnits="userSpaceOnUse"
     id="linearGradient17053"
     xlink:href="#lapkin" /><linearGradient
     y2="152.8125"
     x2="285.58801"
     y1="152.8125"
     x1="20.039"
     gradientUnits="userSpaceOnUse"
     id="linearGradient17055"
     xlink:href="#lapkin" /><linearGradient
     y2="152.8125"
     x2="285.58801"
     y1="152.8125"
     x1="20.039"
     gradientUnits="userSpaceOnUse"
     id="linearGradient17057"
     xlink:href="#lapkin" /><linearGradient
     y2="152.8125"
     x2="285.58801"
     y1="152.8125"
     x1="20.039"
     gradientUnits="userSpaceOnUse"
     id="linearGradient17059"
     xlink:href="#lapkin" /><linearGradient
     y2="152.8125"
     x2="285.58801"
     y1="152.8125"
     x1="20.039"
     gradientUnits="userSpaceOnUse"
     id="linearGradient17061"
     xlink:href="#lapkin" /><linearGradient
     y2="152.8125"
     x2="285.58801"
     y1="152.8125"
     x1="20.039"
     gradientUnits="userSpaceOnUse"
     id="linearGradient17063"
     xlink:href="#lapkin" /><linearGradient
     y2="152.8125"
     x2="285.58801"
     y1="152.8125"
     x1="20.039"
     gradientUnits="userSpaceOnUse"
     id="linearGradient17065"
     xlink:href="#lapkin" /><linearGradient
     y2="152.8125"
     x2="285.58801"
     y1="152.8125"
     x1="20.039"
     gradientUnits="userSpaceOnUse"
     id="linearGradient17067"
     xlink:href="#lapkin" /><linearGradient
     y2="152.8125"
     x2="285.58801"
     y1="152.8125"
     x1="20.039"
     gradientUnits="userSpaceOnUse"
     id="linearGradient17069"
     xlink:href="#lapkin" /><linearGradient
     y2="152.8125"
     x2="285.58801"
     y1="152.8125"
     x1="20.039"
     gradientUnits="userSpaceOnUse"
     id="linearGradient17071"
     xlink:href="#lapkin" /><linearGradient
     y2="152.8125"
     x2="285.58801"
     y1="152.8125"
     x1="20.039"
     gradientUnits="userSpaceOnUse"
     id="linearGradient17073"
     xlink:href="#lapkin" /><linearGradient
     y2="152.8125"
     x2="285.58801"
     y1="152.8125"
     x1="20.039"
     gradientUnits="userSpaceOnUse"
     id="linearGradient17075"
     xlink:href="#lapkin" /><linearGradient
     y2="152.8125"
     x2="285.58801"
     y1="152.8125"
     x1="20.039"
     gradientUnits="userSpaceOnUse"
     id="linearGradient17077"
     xlink:href="#lapkin" /><linearGradient
     y2="152.8125"
     x2="285.58801"
     y1="152.8125"
     x1="20.039"
     gradientUnits="userSpaceOnUse"
     id="linearGradient17079"
     xlink:href="#lapkin" /><linearGradient
     y2="152.8125"
     x2="285.58801"
     y1="152.8125"
     x1="20.039"
     gradientUnits="userSpaceOnUse"
     id="linearGradient17081"
     xlink:href="#lapkin" /><linearGradient
     y2="152.8125"
     x2="285.58801"
     y1="152.8125"
     x1="20.039"
     gradientUnits="userSpaceOnUse"
     id="linearGradient17083"
     xlink:href="#lapkin" /><linearGradient
     gradientUnits="userSpaceOnUse"
     y2="189.422"
     x2="378.84451"
     y1="189.422"
     x1="0"
     id="linearGradient17343"
     xlink:href="#lapkin" /><linearGradient
     y2="189.422"
     x2="378.84451"
     y1="189.422"
     x1="0"
     gradientUnits="userSpaceOnUse"
     id="linearGradient17345"
     xlink:href="#lapkin" /><linearGradient
     y2="189.422"
     x2="378.84451"
     y1="189.422"
     x1="0"
     gradientUnits="userSpaceOnUse"
     id="linearGradient17347"
     xlink:href="#lapkin" /><linearGradient
     y2="189.422"
     x2="378.84451"
     y1="189.422"
     x1="0"
     gradientUnits="userSpaceOnUse"
     id="linearGradient17349"
     xlink:href="#lapkin" /><linearGradient
     y2="189.422"
     x2="378.84451"
     y1="189.422"
     x1="0"
     gradientUnits="userSpaceOnUse"
     id="linearGradient17351"
     xlink:href="#lapkin" /><linearGradient
     y2="189.422"
     x2="378.84451"
     y1="189.422"
     x1="0"
     gradientUnits="userSpaceOnUse"
     id="linearGradient17353"
     xlink:href="#lapkin" /><linearGradient
     y2="189.422"
     x2="378.84451"
     y1="189.422"
     x1="0"
     gradientUnits="userSpaceOnUse"
     id="linearGradient17355"
     xlink:href="#lapkin" /><linearGradient
     y2="189.422"
     x2="378.84451"
     y1="189.422"
     x1="0"
     gradientUnits="userSpaceOnUse"
     id="linearGradient17357"
     xlink:href="#lapkin" /><linearGradient
     y2="189.422"
     x2="378.84451"
     y1="189.422"
     x1="0"
     gradientUnits="userSpaceOnUse"
     id="linearGradient17359"
     xlink:href="#lapkin" /><linearGradient
     y2="189.422"
     x2="378.84451"
     y1="189.422"
     x1="0"
     gradientUnits="userSpaceOnUse"
     id="linearGradient17361"
     xlink:href="#lapkin" /><linearGradient
     y2="189.422"
     x2="378.84451"
     y1="189.422"
     x1="0"
     gradientUnits="userSpaceOnUse"
     id="linearGradient17363"
     xlink:href="#lapkin" /><linearGradient
     y2="189.422"
     x2="378.84451"
     y1="189.422"
     x1="0"
     gradientUnits="userSpaceOnUse"
     id="linearGradient17365"
     xlink:href="#lapkin" /><linearGradient
     y2="189.422"
     x2="378.84451"
     y1="189.422"
     x1="0"
     gradientUnits="userSpaceOnUse"
     id="linearGradient17367"
     xlink:href="#lapkin" /><linearGradient
     y2="189.422"
     x2="378.84451"
     y1="189.422"
     x1="0"
     gradientUnits="userSpaceOnUse"
     id="linearGradient17369"
     xlink:href="#lapkin" /><linearGradient
     y2="189.422"
     x2="378.84451"
     y1="189.422"
     x1="0"
     gradientUnits="userSpaceOnUse"
     id="linearGradient17371"
     xlink:href="#lapkin" /><linearGradient
     y2="189.422"
     x2="378.84451"
     y1="189.422"
     x1="0"
     gradientUnits="userSpaceOnUse"
     id="linearGradient17373"
     xlink:href="#lapkin" /><linearGradient
     y2="189.422"
     x2="378.84451"
     y1="189.422"
     x1="0"
     gradientUnits="userSpaceOnUse"
     id="linearGradient17375"
     xlink:href="#lapkin" /><linearGradient
     y2="189.422"
     x2="378.84451"
     y1="189.422"
     x1="0"
     gradientUnits="userSpaceOnUse"
     id="linearGradient17377"
     xlink:href="#lapkin" /><linearGradient
     y2="189.422"
     x2="378.84451"
     y1="189.422"
     x1="0"
     gradientUnits="userSpaceOnUse"
     id="linearGradient17379"
     xlink:href="#lapkin" /><linearGradient
     y2="189.422"
     x2="378.84451"
     y1="189.422"
     x1="0"
     gradientUnits="userSpaceOnUse"
     id="linearGradient17381"
     xlink:href="#lapkin" /><linearGradient
     y2="189.422"
     x2="378.84451"
     y1="189.422"
     x1="0"
     gradientUnits="userSpaceOnUse"
     id="linearGradient17383"
     xlink:href="#lapkin" /><linearGradient
     gradientUnits="userSpaceOnUse"
     y2="217.50751"
     x2="435.01599"
     y1="217.50751"
     x1="0.0003749516"
     id="linearGradient17592"
     xlink:href="#lapkin" /><linearGradient
     y2="217.50751"
     x2="435.01599"
     y1="217.50751"
     x1="0.0003749516"
     gradientUnits="userSpaceOnUse"
     id="linearGradient17594"
     xlink:href="#lapkin" /><linearGradient
     y2="217.50751"
     x2="435.01599"
     y1="217.50751"
     x1="0.0003749516"
     gradientUnits="userSpaceOnUse"
     id="linearGradient17596"
     xlink:href="#lapkin" /><linearGradient
     y2="217.50751"
     x2="435.01599"
     y1="217.50751"
     x1="0.0003749516"
     gradientUnits="userSpaceOnUse"
     id="linearGradient17598"
     xlink:href="#lapkin" /><linearGradient
     y2="217.50751"
     x2="435.01599"
     y1="217.50751"
     x1="0.0003749516"
     gradientUnits="userSpaceOnUse"
     id="linearGradient17600"
     xlink:href="#lapkin" /><linearGradient
     y2="217.50751"
     x2="435.01599"
     y1="217.50751"
     x1="0.0003749516"
     gradientUnits="userSpaceOnUse"
     id="linearGradient17602"
     xlink:href="#lapkin" /><linearGradient
     y2="217.50751"
     x2="435.01599"
     y1="217.50751"
     x1="0.0003749516"
     gradientUnits="userSpaceOnUse"
     id="linearGradient17604"
     xlink:href="#lapkin" /><linearGradient
     y2="217.50751"
     x2="435.01599"
     y1="217.50751"
     x1="0.0003749516"
     gradientUnits="userSpaceOnUse"
     id="linearGradient17606"
     xlink:href="#lapkin" /><linearGradient
     y2="217.50751"
     x2="435.01599"
     y1="217.50751"
     x1="0.0003749516"
     gradientUnits="userSpaceOnUse"
     id="linearGradient17608"
     xlink:href="#lapkin" /><linearGradient
     y2="217.50751"
     x2="435.01599"
     y1="217.50751"
     x1="0.0003749516"
     gradientUnits="userSpaceOnUse"
     id="linearGradient17610"
     xlink:href="#lapkin" /><linearGradient
     y2="217.50751"
     x2="435.01599"
     y1="217.50751"
     x1="0.0003749516"
     gradientUnits="userSpaceOnUse"
     id="linearGradient17612"
     xlink:href="#lapkin" /><linearGradient
     y2="217.50751"
     x2="435.01599"
     y1="217.50751"
     x1="0.0003749516"
     gradientUnits="userSpaceOnUse"
     id="linearGradient17614"
     xlink:href="#lapkin" /><linearGradient
     y2="217.50751"
     x2="435.01599"
     y1="217.50751"
     x1="0.0003749516"
     gradientUnits="userSpaceOnUse"
     id="linearGradient17616"
     xlink:href="#lapkin" /><linearGradient
     y2="217.50751"
     x2="435.01599"
     y1="217.50751"
     x1="0.0003749516"
     gradientUnits="userSpaceOnUse"
     id="linearGradient17618"
     xlink:href="#lapkin" /><linearGradient
     y2="217.50751"
     x2="435.01599"
     y1="217.50751"
     x1="0.0003749516"
     gradientUnits="userSpaceOnUse"
     id="linearGradient17620"
     xlink:href="#lapkin" /><linearGradient
     y2="217.50751"
     x2="435.01599"
     y1="217.50751"
     x1="0.0003749516"
     gradientUnits="userSpaceOnUse"
     id="linearGradient17622"
     xlink:href="#lapkin" /><linearGradient
     y2="217.50751"
     x2="435.01599"
     y1="217.50751"
     x1="0.0003749516"
     gradientUnits="userSpaceOnUse"
     id="linearGradient17624"
     xlink:href="#lapkin" /><linearGradient
     y2="217.50751"
     x2="435.01599"
     y1="217.50751"
     x1="0.0003749516"
     gradientUnits="userSpaceOnUse"
     id="linearGradient17626"
     xlink:href="#lapkin" /><linearGradient
     y2="217.50751"
     x2="435.01599"
     y1="217.50751"
     x1="0.0003749516"
     gradientUnits="userSpaceOnUse"
     id="linearGradient17628"
     xlink:href="#lapkin" /><linearGradient
     y2="217.50751"
     x2="435.01599"
     y1="217.50751"
     x1="0.0003749516"
     gradientUnits="userSpaceOnUse"
     id="linearGradient17630"
     xlink:href="#lapkin" /><linearGradient
     y2="217.50751"
     x2="435.01599"
     y1="217.50751"
     x1="0.0003749516"
     gradientUnits="userSpaceOnUse"
     id="linearGradient17632"
     xlink:href="#lapkin" /></defs>
	
	<g
   id="g4927">
	</g>
	<g
   id="g4929">
	</g>
	<g
   id="g4931">
	</g>
	<g
   id="g4933">
	</g>
	<g
   id="g4935">
	</g>
	<g
   id="g4937">
	</g>
	<g
   id="g4939">
	</g>
	<g
   id="g4941">
	</g>
	<g
   id="g4943">
	</g>
	<g
   id="g4945">
	</g>
	<g
   id="g4947">
	</g>
	<g
   id="g4949">
	</g>
	<g
   id="g4951">
	</g>
	<g
   id="g4953">
	</g>
	<g
   id="g4955">
	</g>
<g
   style="fill:url(#linearGradient15843);fill-opacity:1"
   transform="matrix(0.90000967,0,0,0.90000967,-506.19936,-41.773291)"
   id="g15835"><path
     style="fill:url(#linearGradient15845);fill-opacity:1"
     d="m 399.054,326.783 -30.627,-30.627 c -0.75,-0.75 -1.768,-1.172 -2.829,-1.172 -1.061,0 -2.078,0.422 -2.829,1.172 l -15.165,15.165 -3.532,-3.531 15.166,-15.166 c 0.75,-0.75 1.171,-1.768 1.171,-2.828 0,-1.06 -0.421,-2.078 -1.171,-2.828 l -30.627,-30.627 c -1.562,-1.562 -4.094,-1.562 -5.657,0 l -15.165,15.165 -3.531,-3.531 15.165,-15.165 c 1.562,-1.562 1.562,-4.095 0,-5.656 l -30.627,-30.628 c -0.75,-0.75 -1.768,-1.172 -2.829,-1.172 -1.061,0 -2.078,0.422 -2.829,1.172 l -15.165,15.165 -7.145,-7.146 54.792,-54.792 c 0.611,-0.61 1.007,-1.402 1.13,-2.258 l 8.921,-61.916 c 0.18,-1.248 -0.239,-2.507 -1.13,-3.398 L 298.043,75.684 c -0.892,-0.892 -2.149,-1.31 -3.399,-1.131 l -61.916,8.921 c -0.855,0.123 -1.647,0.52 -2.258,1.131 l -54.792,54.792 -7.146,-7.146 15.165,-15.166 c 1.562,-1.562 1.562,-4.095 0,-5.656 L 153.07,80.802 c -0.75,-0.75 -1.768,-1.172 -2.829,-1.172 -1.061,0 -2.078,0.422 -2.829,1.172 l -15.165,15.165 -3.531,-3.531 15.165,-15.165 c 1.562,-1.562 1.562,-4.095 0,-5.656 L 113.254,40.987 c -0.75,-0.75 -1.768,-1.172 -2.829,-1.172 -1.061,0 -2.078,0.422 -2.829,1.172 L 92.435,56.152 88.904,52.621 104.069,37.456 c 0.75,-0.75 1.171,-1.768 1.171,-2.828 0,-1.06 -0.421,-2.078 -1.171,-2.828 L 73.442,1.172 c -1.563,-1.563 -4.095,-1.563 -5.657,0 L 52.621,16.336 45.496,9.211 c -1.563,-1.563 -4.095,-1.563 -5.657,0 -1.562,1.562 -1.562,4.095 0,5.656 l 7.126,7.126 -24.97,24.97 -7.125,-7.125 c -1.563,-1.563 -4.095,-1.563 -5.657,0 -1.562,1.562 -1.562,4.095 0,5.656 L 16.339,52.62 1.171,67.785 C 0.421,68.535 0,69.553 0,70.613 c 0,1.06 0.421,2.078 1.171,2.828 l 30.627,30.627 c 0.781,0.781 1.805,1.172 2.829,1.172 1.023,0 2.047,-0.391 2.829,-1.172 l 15.164,-15.164 3.531,3.532 -15.165,15.165 c -1.562,1.562 -1.562,4.095 0,5.656 l 30.627,30.627 c 0.781,0.781 1.805,1.172 2.829,1.172 1.023,0 2.047,-0.391 2.829,-1.172 l 15.165,-15.165 3.531,3.532 -15.165,15.165 c -1.562,1.562 -1.562,4.095 0,5.656 l 30.627,30.627 c 0.75,0.75 1.768,1.172 2.829,1.172 1.061,0 2.078,-0.422 2.829,-1.172 l 15.165,-15.165 7.145,7.145 -15.165,15.165 c -1.562,1.562 -1.562,4.095 0,5.656 l 18.113,18.113 -29.578,8.318 c -1.367,0.385 -2.428,1.465 -2.787,2.839 -0.359,1.374 0.038,2.836 1.042,3.84 l 59.593,59.593 c 0.76,0.76 1.781,1.172 2.829,1.172 0.337,0 0.677,-0.043 1.011,-0.13 1.374,-0.358 2.455,-1.419 2.839,-2.786 l 8.325,-29.573 18.107,18.107 c 0.75,0.75 1.768,1.172 2.829,1.172 1.061,0 2.078,-0.422 2.829,-1.172 l 15.165,-15.165 7.145,7.146 -15.165,15.165 c -1.562,1.562 -1.562,4.095 0,5.656 l 30.627,30.627 c 0.781,0.781 1.805,1.172 2.829,1.172 1.023,0 2.047,-0.391 2.829,-1.172 l 15.165,-15.165 3.531,3.531 -15.165,15.165 c -1.562,1.562 -1.562,4.095 0,5.656 l 30.627,30.627 c 0.781,0.781 1.805,1.172 2.829,1.172 1.024,0 2.047,-0.391 2.829,-1.172 l 15.165,-15.165 3.532,3.531 -15.166,15.166 c -1.562,1.562 -1.562,4.095 0,5.656 l 30.627,30.627 c 0.75,0.75 1.768,1.172 2.829,1.172 1.061,0 2.078,-0.422 2.829,-1.172 l 15.165,-15.165 7.125,7.125 c 0.781,0.781 1.805,1.172 2.829,1.172 1.024,0 2.047,-0.391 2.829,-1.172 1.562,-1.562 1.562,-4.095 0,-5.656 l -7.126,-7.125 24.97,-24.971 7.125,7.125 c 0.781,0.781 1.805,1.172 2.829,1.172 1.023,0 2.047,-0.391 2.828,-1.172 1.563,-1.562 1.563,-4.095 0,-5.656 l -7.125,-7.126 15.165,-15.165 c 1.556,-1.559 1.556,-4.092 -0.006,-5.654 z m -181.205,-70.571 -18.01,-18.01 47.138,-47.139 c 5.051,-5.05 7.832,-11.765 7.832,-18.907 0,-7.142 -2.781,-13.857 -7.832,-18.907 -5.05,-5.051 -11.765,-7.833 -18.908,-7.833 -7.142,0 -13.857,2.782 -18.908,7.833 l -47.138,47.138 -18.01,-18.01 77.802,-77.802 73.835,73.835 z m -49.972,-50.366 46.941,-46.94 c 3.54,-3.539 8.245,-5.489 13.25,-5.489 5.005,0 9.711,1.95 13.251,5.489 3.539,3.54 5.488,8.245 5.488,13.251 0,5.006 -1.949,9.711 -5.489,13.251 l -46.94,46.94 z m 139.259,-38.921 -5.829,5.829 -73.835,-73.835 5.829,-5.829 z m 10.333,-60.504 -7.496,52.027 -68.196,-68.195 52.027,-7.496 z M 34.627,95.583 9.657,70.613 70.614,9.657 l 24.97,24.97 z m 23.65,-12.336 24.97,-24.97 3.531,3.531 -24.97,24.97 z m 16.165,52.151 -24.97,-24.97 60.957,-60.957 24.97,24.971 z m 23.65,-12.335 24.971,-24.97 3.531,3.531 -24.971,24.971 z m 16.165,52.151 -24.97,-24.97 60.957,-60.957 24.97,24.97 z m 23.65,-12.336 24.97,-24.97 7.146,7.146 -24.97,24.97 z m 33.535,115.841 -49.935,-49.935 27.323,-7.684 30.301,30.301 z m 35.11,-11.21 -73.836,-73.836 5.64,-5.64 73.836,73.836 z m 23.651,-12.337 24.97,-24.97 7.145,7.146 -24.97,24.97 z m 19.778,55.766 -24.97,-24.97 60.957,-60.957 24.97,24.971 z m 23.65,-12.336 24.971,-24.971 3.531,3.531 -24.971,24.971 z m 16.165,52.151 -24.97,-24.97 60.957,-60.957 24.971,24.97 z m 23.65,-12.336 24.971,-24.971 3.532,3.531 -24.971,24.971 z m 16.166,52.151 -24.97,-24.97 60.957,-60.957 24.97,24.97 z"
     id="path15780" /><g
     style="fill:url(#linearGradient15847);fill-opacity:1"
     id="g15782">
	</g><g
     style="fill:url(#linearGradient15849);fill-opacity:1"
     id="g15784">
	</g><g
     style="fill:url(#linearGradient15851);fill-opacity:1"
     id="g15786">
	</g><g
     style="fill:url(#linearGradient15853);fill-opacity:1"
     id="g15788">
	</g><g
     style="fill:url(#linearGradient15855);fill-opacity:1"
     id="g15790">
	</g><g
     style="fill:url(#linearGradient15857);fill-opacity:1"
     id="g15792">
	</g><g
     style="fill:url(#linearGradient15859);fill-opacity:1"
     id="g15794">
	</g><g
     style="fill:url(#linearGradient15861);fill-opacity:1"
     id="g15796">
	</g><g
     style="fill:url(#linearGradient15863);fill-opacity:1"
     id="g15798">
	</g><g
     style="fill:url(#linearGradient15865);fill-opacity:1"
     id="g15800">
	</g><g
     style="fill:url(#linearGradient15867);fill-opacity:1"
     id="g15802">
	</g><g
     style="fill:url(#linearGradient15869);fill-opacity:1"
     id="g15804">
	</g><g
     style="fill:url(#linearGradient15871);fill-opacity:1"
     id="g15806">
	</g><g
     style="fill:url(#linearGradient15873);fill-opacity:1"
     id="g15808">
	</g><g
     style="fill:url(#linearGradient15875);fill-opacity:1"
     id="g15810">
	</g></g><g
   style="fill:url(#linearGradient16113);fill-opacity:1"
   transform="matrix(0.83648256,0,0,0.8506137,-571.58369,95.21558)"
   id="g16105"><g
     style="fill:url(#linearGradient16181);fill-opacity:1"
     id="g16048">
		<path
   style="fill:url(#linearGradient16177);fill-opacity:1"
   d="m 210.891,386.4 c 10.216,0 18.528,-8.312 18.528,-18.528 0,-10.216 -8.312,-18.528 -18.528,-18.528 -10.216,0 -18.528,8.312 -18.528,18.528 0,10.216 8.311,18.528 18.528,18.528 z m 0,-29.056 c 5.805,0 10.528,4.723 10.528,10.528 0,5.805 -4.723,10.528 -10.528,10.528 -5.805,0 -10.528,-4.723 -10.528,-10.528 0,-5.805 4.722,-10.528 10.528,-10.528 z"
   id="path16044" />
		<path
   style="fill:url(#linearGradient16179);fill-opacity:1"
   d="M 259.493,20.298 C 246.541,7.234 229.321,0.031 210.997,0.003 c -0.007,0 -0.013,0 -0.02,0 -0.029,0 -0.058,-0.002 -0.087,-0.002 -0.052,0 -0.103,0.004 -0.155,0.004 -0.025,0.001 -0.05,0.001 -0.075,0.002 -37.781,0.126 -68.481,31.155 -68.481,69.283 v 33.907 c 0,0.056 64.879,217.396 64.879,217.396 0.002,0.007 0.004,0.014 0.006,0.02 0.26,0.852 -0.319,1.722 -1.21,1.722 h -23.186 c -6.925,0 -12.953,4.735 -14.593,11.463 l -14.665,60.163 c -1.174,4.814 0.825,9.864 4.977,12.567 0.557,0.361 1.063,0.685 1.449,0.92 15.383,9.378 33.036,14.334 51.05,14.334 18.558,0 36.66,-5.235 52.295,-15.107 0.034,-0.021 0.068,-0.041 0.102,-0.063 4.229,-2.682 6.272,-7.76 5.083,-12.636 l -14.669,-60.179 c -1.64,-6.728 -7.667,-11.462 -14.592,-11.462 h -23.183 c -0.891,0 -1.47,-0.87 -1.21,-1.722 0.002,-0.007 0.004,-0.014 0.006,-0.02 0,0 64.879,-217.339 64.879,-217.396 V 69.289 c 0.005,-18.512 -7.137,-35.91 -20.104,-48.991 z m 0.424,372.783 h -11.52 l -6.623,-47.884 h 6.471 z m -26.224,-47.884 6.623,47.884 h -58.849 l 6.623,-47.884 z m -60.307,47.884 h -11.525 l 11.672,-47.884 h 6.476 z m -8.592,8 h 92.188 c -13.943,8.31 -29.826,12.7 -46.093,12.7 -16.239,0 -32.154,-4.395 -46.095,-12.7 z m 81.134,-65.39 0.367,1.506 h -70.813 l 0.367,-1.506 c 0.769,-3.154 3.573,-5.357 6.819,-5.357 h 56.44 c 3.247,0 6.052,2.203 6.82,5.357 z M 271.602,69.289 v 20.833 c -6.134,-4.291 -15.331,-7.571 -25.945,-9.786 v -20.88 c 0,-19.17 -7.735,-37.001 -21.195,-49.91 11.029,2.529 21.157,8.122 29.35,16.385 11.472,11.572 17.79,26.97 17.79,43.358 z M 210.841,8.778 c 16.836,11.437 26.815,30.194 26.815,50.677 v 19.449 c -8.581,-1.295 -17.748,-1.961 -26.766,-1.961 -9.053,0 -18.255,0.671 -26.865,1.975 V 59.455 c 0.001,-20.483 9.98,-39.24 26.816,-50.677 z m 60.06,96.175 c -2.766,4.768 -13.744,10.119 -31.008,13.093 l 3.844,-30.073 c 17.708,3.608 27.822,9.759 27.862,14.647 z m -60.01,15.404 c -7.539,0 -14.484,-0.42 -20.787,-1.142 l -4.167,-32.599 c 7.36,-1.048 15.716,-1.673 24.954,-1.673 9.238,0 17.595,0.625 24.954,1.673 l -4.167,32.599 c -6.304,0.723 -13.248,1.142 -20.787,1.142 z m 19.753,6.944 -19.754,154.534 -19.754,-154.534 c 6.473,0.697 13.153,1.057 19.754,1.057 6.601,0 13.281,-0.36 19.754,-1.057 z m -52.599,-39.327 3.844,30.073 c -17.264,-2.974 -28.242,-8.325 -31.008,-13.093 l -0.698,-2.333 c 0.04,-4.888 10.154,-11.039 27.862,-14.647 z m 4.888,38.243 19.157,149.867 -47.329,-158.163 c 7.31,3.772 17.221,6.558 28.172,8.296 z m 55.915,0 c 10.951,-1.738 20.862,-4.524 28.172,-8.296 L 219.691,276.084 Z M 197.165,9.599 C 183.74,22.503 176.026,40.311 176.026,59.455 v 20.901 c -10.572,2.215 -19.731,5.488 -25.846,9.766 V 69.289 c 0,-29.029 20.101,-53.391 46.985,-59.69 z"
   id="path16046" />
	</g><g
     style="fill:url(#linearGradient16183);fill-opacity:1"
     id="g16050">
	</g><g
     style="fill:url(#linearGradient16185);fill-opacity:1"
     id="g16052">
	</g><g
     style="fill:url(#linearGradient16187);fill-opacity:1"
     id="g16054">
	</g><g
     style="fill:url(#linearGradient16189);fill-opacity:1"
     id="g16056">
	</g><g
     style="fill:url(#linearGradient16191);fill-opacity:1"
     id="g16058">
	</g><g
     style="fill:url(#linearGradient16193);fill-opacity:1"
     id="g16060">
	</g><g
     style="fill:url(#linearGradient16195);fill-opacity:1"
     id="g16062">
	</g><g
     style="fill:url(#linearGradient16197);fill-opacity:1"
     id="g16064">
	</g><g
     style="fill:url(#linearGradient16199);fill-opacity:1"
     id="g16066">
	</g><g
     style="fill:url(#linearGradient16201);fill-opacity:1"
     id="g16068">
	</g><g
     style="fill:url(#linearGradient16203);fill-opacity:1"
     id="g16070">
	</g><g
     style="fill:url(#linearGradient16205);fill-opacity:1"
     id="g16072">
	</g><g
     style="fill:url(#linearGradient16207);fill-opacity:1"
     id="g16074">
	</g><g
     style="fill:url(#linearGradient16209);fill-opacity:1"
     id="g16076">
	</g><g
     style="fill:url(#linearGradient16211);fill-opacity:1"
     id="g16078">
	</g></g><g
   style="fill:url(#linearGradient16431);fill-opacity:1"
   transform="matrix(0.97223473,0,0,0.97223473,-512.84968,-43.469)"
   id="g16423"><g
     style="fill:url(#linearGradient16453);fill-opacity:1"
     id="g16358">
		<path
   style="fill:url(#linearGradient16433);fill-opacity:1"
   d="M 286.155,46.539 C 270.129,25.111 247.304,8.958 221.885,1.055 c -1.21,-0.378 -2.534,-0.156 -3.56,0.599 -1.023,0.754 -1.628,1.949 -1.628,3.221 v 5.746 H 206.348 C 202.25,4.331 193.774,0 184,0 174.226,0 165.749,4.331 161.651,10.62 H 151.3 V 4.874 c 0,-1.271 -0.604,-2.467 -1.628,-3.221 -1.026,-0.755 -2.349,-0.977 -3.56,-0.599 -25.419,7.903 -48.243,24.057 -64.27,45.484 -16.577,22.163 -25.339,48.546 -25.339,76.296 0,20.602 5.029,41.044 14.552,59.188 v 181.976 c 0,2.209 1.791,4 4,4 h 217.886 c 2.209,0 4,-1.791 4,-4 V 182.022 c 9.523,-18.144 14.552,-38.586 14.552,-59.188 0.001,-27.749 -8.761,-54.132 -25.338,-76.295 z M 216.698,18.62 v 110.7 H 201.199 V 97.083 c 4.782,-3.49 7.771,-8.411 7.771,-13.86 L 208.953,18.62 Z M 200.97,83.224 c 0,6.041 -7.771,11.146 -16.971,11.146 -9.2,0 -16.971,-5.104 -16.971,-11.146 v -50.05 c 4.458,3.173 10.423,5.118 16.971,5.118 6.548,0 12.512,-1.945 16.971,-5.118 z M 184,102.369 c 3.248,0 6.35,-0.483 9.199,-1.352 V 129.32 H 174.8 v -28.304 c 2.849,0.87 5.951,1.353 9.2,1.353 z M 184,8 c 9.199,0 16.971,5.104 16.971,11.146 0,6.041 -7.771,11.146 -16.971,11.146 -9.2,0 -16.971,-5.104 -16.971,-11.146 C 167.029,13.104 174.8,8 184,8 Z m -24.954,10.62 -0.017,64.603 c 0,5.449 2.989,10.369 7.771,13.859 v 32.237 H 151.3 V 18.62 Z m 129.896,166.405 v 15.362 H 79.056 V 185.025 Z M 79.056,208.388 h 209.886 v 67.145 H 79.056 Z m 97.447,151.61 H 106.445 V 310.91 h 70.058 z m 8,0 V 306.91 c 0,-2.209 -1.791,-4 -4,-4 h -78.058 c -2.209,0 -4,1.791 -4,4 v 53.088 h -19.39 v -76.466 h 209.886 v 76.466 z M 290.505,177.025 H 77.493 C 68.997,160.344 64.505,141.665 64.505,122.835 64.505,96.825 72.716,72.1 88.25,51.33 102.175,32.713 121.572,18.343 143.301,10.442 V 133.32 c 0,2.209 1.791,4 4,4 h 73.397 c 2.209,0 4,-1.791 4,-4 V 10.442 c 21.729,7.9 41.126,22.271 55.051,40.888 15.534,20.77 23.745,45.495 23.745,71.505 0,18.83 -4.493,37.51 -12.989,54.19 z"
   id="path16338" />
		<path
   style="fill:url(#linearGradient16435);fill-opacity:1"
   d="m 107.942,237.96 h -14 c -2.209,0 -4,1.791 -4,4 0,2.209 1.791,4 4,4 h 14 c 2.209,0 4,-1.791 4,-4 0,-2.209 -1.791,-4 -4,-4 z"
   id="path16340" />
		<path
   style="fill:url(#linearGradient16437);fill-opacity:1"
   d="m 247.942,237.96 h -14 c -2.209,0 -4,1.791 -4,4 0,2.209 1.791,4 4,4 h 14 c 2.209,0 4,-1.791 4,-4 0,-2.209 -1.791,-4 -4,-4 z"
   id="path16342" />
		<path
   style="fill:url(#linearGradient16439);fill-opacity:1"
   d="m 219.942,237.96 h -14 c -2.209,0 -4,1.791 -4,4 0,2.209 1.791,4 4,4 h 14 c 2.209,0 4,-1.791 4,-4 0,-2.209 -1.791,-4 -4,-4 z"
   id="path16344" />
		<path
   style="fill:url(#linearGradient16441);fill-opacity:1"
   d="m 275.942,237.96 h -14 c -2.209,0 -4,1.791 -4,4 0,2.209 1.791,4 4,4 h 14 c 2.209,0 4,-1.791 4,-4 0,-2.209 -1.791,-4 -4,-4 z"
   id="path16346" />
		<path
   style="fill:url(#linearGradient16443);fill-opacity:1"
   d="m 191.942,237.96 h -14 c -2.209,0 -4,1.791 -4,4 0,2.209 1.791,4 4,4 h 14 c 2.209,0 4,-1.791 4,-4 0,-2.209 -1.791,-4 -4,-4 z"
   id="path16348" />
		<path
   style="fill:url(#linearGradient16445);fill-opacity:1"
   d="m 163.942,237.96 h -14 c -2.209,0 -4,1.791 -4,4 0,2.209 1.791,4 4,4 h 14 c 2.209,0 4,-1.791 4,-4 0,-2.209 -1.791,-4 -4,-4 z"
   id="path16350" />
		<path
   style="fill:url(#linearGradient16447);fill-opacity:1"
   d="m 135.942,237.96 h -14 c -2.209,0 -4,1.791 -4,4 0,2.209 1.791,4 4,4 h 14 c 2.209,0 4,-1.791 4,-4 0,-2.209 -1.791,-4 -4,-4 z"
   id="path16352" />
		<path
   style="fill:url(#linearGradient16449);fill-opacity:1"
   d="m 240.76,27.255 c -1.896,-1.127 -4.353,-0.504 -5.482,1.395 -1.129,1.899 -0.504,4.354 1.395,5.482 5.265,3.129 10.287,6.757 14.927,10.781 0.757,0.656 1.69,0.979 2.619,0.979 1.119,0 2.232,-0.467 3.023,-1.379 1.447,-1.669 1.269,-4.195 -0.4,-5.643 -4.999,-4.336 -10.409,-8.243 -16.082,-11.615 z"
   id="path16354" />
		<path
   style="fill:url(#linearGradient16451);fill-opacity:1"
   d="m 268.833,50.994 c -1.429,-1.684 -3.952,-1.893 -5.638,-0.462 -1.685,1.429 -1.892,3.953 -0.462,5.638 15.78,18.597 24.471,42.292 24.471,66.721 0,2.209 1.791,4 4,4 2.209,0 4,-1.791 4,-4 10e-4,-26.323 -9.365,-51.856 -26.371,-71.897 z"
   id="path16356" />
	</g><g
     style="fill:url(#linearGradient16455);fill-opacity:1"
     id="g16360">
	</g><g
     style="fill:url(#linearGradient16457);fill-opacity:1"
     id="g16362">
	</g><g
     style="fill:url(#linearGradient16459);fill-opacity:1"
     id="g16364">
	</g><g
     style="fill:url(#linearGradient16461);fill-opacity:1"
     id="g16366">
	</g><g
     style="fill:url(#linearGradient16463);fill-opacity:1"
     id="g16368">
	</g><g
     style="fill:url(#linearGradient16465);fill-opacity:1"
     id="g16370">
	</g><g
     style="fill:url(#linearGradient16467);fill-opacity:1"
     id="g16372">
	</g><g
     style="fill:url(#linearGradient16469);fill-opacity:1"
     id="g16374">
	</g><g
     style="fill:url(#linearGradient16471);fill-opacity:1"
     id="g16376">
	</g><g
     style="fill:url(#linearGradient16473);fill-opacity:1"
     id="g16378">
	</g><g
     style="fill:url(#linearGradient16475);fill-opacity:1"
     id="g16380">
	</g><g
     style="fill:url(#linearGradient16477);fill-opacity:1"
     id="g16382">
	</g><g
     style="fill:url(#linearGradient16479);fill-opacity:1"
     id="g16384">
	</g><g
     style="fill:url(#linearGradient16481);fill-opacity:1"
     id="g16386">
	</g><g
     style="fill:url(#linearGradient16483);fill-opacity:1"
     id="g16388">
	</g></g><g
   style="fill:url(#linearGradient16741);fill-opacity:1"
   transform="matrix(1.062857,0,0,1.062857,-506.52518,-30.834989)"
   id="g16733"><g
     style="fill:url(#linearGradient16747);fill-opacity:1"
     id="g16676">
		<path
   style="fill:url(#linearGradient16743);fill-opacity:1"
   d="M 337.479,291.58 228.798,182.898 c -1.563,-1.562 -4.096,-1.562 -5.656,0 l -16.993,16.993 -9.658,-9.658 18.379,-18.379 c 1.563,-1.563 1.563,-4.095 0,-5.657 l -18.38,-18.38 9.057,-9.057 16.994,16.994 c 0.75,0.75 1.768,1.171 2.828,1.171 1.06,0 2.078,-0.421 2.828,-1.171 L 336.879,47.072 c 0.75,-0.75 1.172,-1.768 1.172,-2.829 0,-1.061 -0.422,-2.078 -1.172,-2.829 L 297.236,1.772 c -1.563,-1.562 -4.096,-1.562 -5.656,0 l -87.219,87.219 c -10e-4,0.001 -0.002,0.001 -0.003,0.002 -0.001,0.001 -0.001,0.002 -0.002,0.003 l -21.458,21.458 c -1.563,1.563 -1.563,4.095 0,5.657 l 16.991,16.992 -9.057,9.057 -18.379,-18.379 c -0.75,-0.75 -1.768,-1.171 -2.828,-1.171 -1.06,0 -2.078,0.421 -2.828,1.171 l -18.379,18.379 -9.658,-9.658 16.992,-16.992 c 1.563,-1.563 1.563,-4.095 0,-5.657 L 47.071,1.171 C 46.321,0.421 45.304,0 44.243,0 43.182,0 42.165,0.421 41.415,1.171 L 1.772,40.814 c -0.75,0.75 -1.172,1.768 -1.172,2.829 0,1.061 0.422,2.078 1.172,2.829 l 108.683,108.682 c 0.75,0.75 1.768,1.171 2.828,1.171 1.06,0 2.078,-0.421 2.828,-1.171 l 16.993,-16.993 9.658,9.657 -18.379,18.379 c -1.563,1.563 -1.563,4.095 0,5.657 l 18.378,18.378 -10.259,10.259 -16.992,-16.992 c -1.563,-1.562 -4.096,-1.562 -5.656,0 L 1.172,292.181 C 0.422,292.931 0,293.948 0,295.009 c 0,1.061 0.422,2.078 1.172,2.829 l 39.643,39.642 c 0.781,0.781 1.805,1.171 2.828,1.171 1.023,0 2.048,-0.391 2.828,-1.171 L 155.153,228.798 c 0.75,-0.75 1.172,-1.768 1.172,-2.829 0,-1.061 -0.422,-2.078 -1.172,-2.829 l -16.994,-16.993 10.259,-10.259 18.38,18.38 c 0.75,0.75 1.768,1.171 2.828,1.171 1.06,0 2.078,-0.421 2.828,-1.171 l 18.38,-18.38 9.658,9.658 -16.993,16.992 c -0.75,0.75 -1.172,1.768 -1.172,2.829 0,1.061 0.422,2.078 1.172,2.829 l 108.682,108.682 c 0.781,0.781 1.805,1.171 2.828,1.171 1.023,0 2.048,-0.391 2.828,-1.171 l 39.643,-39.642 c 0.75,-0.75 1.172,-1.768 1.172,-2.829 0,-1.061 -0.423,-2.076 -1.173,-2.827 z m -112.111,-144.311 -14.165,-14.166 15.804,-15.804 14.165,14.165 z m 3.739,-71.71 14.163,14.163 -16.264,16.264 -14.163,-14.163 z m 21.92,-21.92 14.163,14.164 -16.264,16.263 -14.163,-14.163 z m 21.921,-21.921 14.164,14.164 -16.264,16.264 -14.164,-14.164 z m 17.721,50.249 -14.165,-14.165 16.264,-16.264 14.165,14.165 z m -21.92,21.92 -14.165,-14.165 16.264,-16.263 14.165,14.165 z m -19.822,-8.508 14.165,14.165 -16.263,16.263 -14.165,-14.165 z M 312.59,60.047 298.425,45.882 314.228,30.079 328.393,44.244 Z M 294.408,10.258 308.572,24.422 292.769,40.225 278.605,26.061 Z m -103.024,103.025 15.803,-15.803 14.163,14.163 -15.804,15.804 z m -58.28,13.563 -15.804,-15.803 14.164,-14.164 15.803,15.803 z M 75.559,108.943 89.723,94.779 105.987,111.043 91.823,125.207 Z M 53.639,87.023 67.803,72.859 84.067,89.122 69.903,103.287 Z M 31.718,65.103 45.882,50.939 62.145,67.202 47.982,81.366 Z M 81.967,47.381 67.803,61.545 51.539,45.282 65.703,31.118 Z m 21.92,21.92 L 89.723,83.465 73.459,67.202 87.623,53.038 Z m -8.507,19.821 14.164,-14.164 16.264,16.264 -14.164,14.164 z M 44.243,9.657 60.047,25.461 45.883,39.625 30.079,23.821 Z M 24.422,29.478 40.226,45.282 26.062,59.446 10.258,43.643 Z m 88.861,117.189 -15.804,-15.804 14.164,-14.164 15.804,15.803 z m -0.601,45.317 14.164,14.164 -15.803,15.803 -14.164,-14.164 z m -3.739,71.71 -14.165,-14.165 16.264,-16.264 14.165,14.165 z m -21.92,21.92 -14.165,-14.166 16.263,-16.263 14.165,14.165 z M 65.103,307.534 50.937,293.368 67.2,277.105 81.365,291.271 Z M 47.381,257.285 61.544,271.448 45.281,287.711 31.118,273.548 Z m 21.92,-21.92 14.163,14.164 -16.263,16.263 -14.163,-14.163 z m 19.82,8.507 -14.163,-14.164 16.264,-16.264 14.164,14.164 z M 25.461,279.206 39.624,293.369 23.82,309.172 9.657,295.009 Z m 18.182,49.789 -14.166,-14.166 15.804,-15.804 14.166,14.166 z m 103.024,-103.025 -15.803,15.803 -14.165,-14.165 15.803,-15.803 z m 22.959,-20.186 -36.758,-36.759 36.758,-36.759 18.364,18.364 c 0.005,0.005 0.008,0.011 0.013,0.016 0.005,0.005 0.011,0.008 0.016,0.013 l 18.365,18.365 z m 87.659,84.886 14.165,-14.165 16.264,16.264 -14.165,14.165 z m -21.92,-21.92 14.164,-14.165 16.263,16.263 -14.165,14.165 z m -21.92,-21.921 14.164,-14.164 16.264,16.263 -14.164,14.165 z m 50.248,-17.722 -14.164,14.164 -16.264,-16.263 14.165,-14.164 z m 21.921,21.921 -14.164,14.164 -16.263,-16.263 14.164,-14.164 z m -8.508,19.82 14.164,-14.164 16.264,16.264 -14.164,14.164 z m -51.136,-79.465 15.804,15.804 -14.165,14.164 -15.804,-15.804 z m -19.822,19.822 15.804,15.804 -14.164,14.164 -15.803,-15.804 z m 88.861,117.189 -15.803,-15.803 14.165,-14.165 15.803,15.803 z m 19.821,-19.821 -15.803,-15.803 14.164,-14.164 15.803,15.803 z"
   id="path16672" />
		<path
   style="fill:url(#linearGradient16745);fill-opacity:1"
   d="m 169.626,154.025 c -4.007,0 -7.773,1.56 -10.606,4.393 -5.849,5.849 -5.849,15.365 0,21.214 2.833,2.833 6.6,4.394 10.606,4.394 4.006,0 7.773,-1.561 10.606,-4.394 5.849,-5.849 5.849,-15.365 0,-21.214 -2.833,-2.833 -6.599,-4.393 -10.606,-4.393 z m 4.95,19.95 c -1.322,1.322 -3.08,2.051 -4.95,2.051 -1.87,0 -3.628,-0.729 -4.95,-2.051 -2.729,-2.729 -2.729,-7.17 0,-9.899 1.322,-1.322 3.08,-2.05 4.95,-2.05 1.87,0 3.628,0.728 4.95,2.05 2.73,2.729 2.73,7.17 0,9.899 z"
   id="path16674" />
	</g><g
     style="fill:url(#linearGradient16749);fill-opacity:1"
     id="g16678">
	</g><g
     style="fill:url(#linearGradient16751);fill-opacity:1"
     id="g16680">
	</g><g
     style="fill:url(#linearGradient16753);fill-opacity:1"
     id="g16682">
	</g><g
     style="fill:url(#linearGradient16755);fill-opacity:1"
     id="g16684">
	</g><g
     style="fill:url(#linearGradient16757);fill-opacity:1"
     id="g16686">
	</g><g
     style="fill:url(#linearGradient16759);fill-opacity:1"
     id="g16688">
	</g><g
     style="fill:url(#linearGradient16761);fill-opacity:1"
     id="g16690">
	</g><g
     style="fill:url(#linearGradient16763);fill-opacity:1"
     id="g16692">
	</g><g
     style="fill:url(#linearGradient16765);fill-opacity:1"
     id="g16694">
	</g><g
     style="fill:url(#linearGradient16767);fill-opacity:1"
     id="g16696">
	</g><g
     style="fill:url(#linearGradient16769);fill-opacity:1"
     id="g16698">
	</g><g
     style="fill:url(#linearGradient16771);fill-opacity:1"
     id="g16700">
	</g><g
     style="fill:url(#linearGradient16773);fill-opacity:1"
     id="g16702">
	</g><g
     style="fill:url(#linearGradient16775);fill-opacity:1"
     id="g16704">
	</g><g
     style="fill:url(#linearGradient16777);fill-opacity:1"
     id="g16706">
	</g></g><g
   style="fill:url(#linearGradient17039);fill-opacity:1"
   transform="matrix(1.1633195,0,0,1.1633195,-508.9419,-67.359646)"
   id="g17031"><g
     style="fill:url(#linearGradient17053);fill-opacity:1"
     id="g16970">
		<path
   style="fill:url(#linearGradient17041);fill-opacity:1"
   d="M 257.392,164.423 V 109.35 c 2.261,-2.233 3.666,-5.329 3.666,-8.75 V 78.325 c 0,-13.76 -11.011,-24.989 -24.683,-25.359 V 24.339 C 236.375,10.918 225.458,0 212.037,0 H 109.223 C 87.182,0 69.25,17.932 69.25,39.974 V 52.966 C 55.578,53.336 44.568,64.565 44.568,78.325 V 100.6 c 0,3.415 1.4,6.507 3.654,8.739 v 55.087 c -16.771,9.108 -28.183,26.883 -28.183,47.275 v 89.924 c 0,2.209 1.791,4 4,4 h 257.549 c 2.209,0 4,-1.791 4,-4 V 211.701 C 285.587,191.307 274.17,173.53 257.392,164.423 Z m 20.195,64.115 H 261.29 v -17.792 h 16.273 c 0.006,0.319 0.024,17.792 0.024,17.792 z m -28.195,-67.63 c -5.507,-1.909 -11.411,-2.96 -17.559,-2.96 h -16.09 c 10.545,-12.414 17.505,-27.962 19.226,-45.042 0,0 14.209,-0.021 14.423,-0.032 z M 152.809,29.985 c 41.124,0 74.581,33.457 74.581,74.581 0,41.124 -33.457,74.581 -74.581,74.581 -41.124,0 -74.581,-33.457 -74.581,-74.581 0,-41.124 33.457,-74.581 74.581,-74.581 z M 97.635,165.948 c 14.636,13.169 33.983,21.199 55.174,21.199 21.191,0 40.538,-8.03 55.174,-21.199 h 13.412 c -17.101,19.839 -42.186,31.475 -68.583,31.475 -26.403,0 -51.493,-11.636 -68.594,-31.475 z m -17.439,7.514 c 17.642,19.217 42.386,30.795 68.616,31.868 v 92.294 H 80.196 Z m 76.617,31.869 c 26.23,-1.074 50.975,-12.656 68.616,-31.881 V 297.625 H 156.813 Z M 253.058,78.325 V 100.6 c 0,2.374 -1.932,4.306 -4.306,4.306 h -13.371 c 0,-0.114 0.009,-0.226 0.009,-0.34 0,-16.005 -4.591,-30.95 -12.504,-43.618 h 12.796 c 9.581,0 17.376,7.795 17.376,17.377 z M 109.223,8 h 102.814 c 9.009,0 16.338,7.33 16.338,16.339 V 52.948 H 217.201 C 202.053,34.089 178.824,21.985 152.809,21.985 c -26.015,0 -49.245,12.105 -64.393,30.963 H 77.279 L 77.25,39.974 C 77.25,22.344 91.593,8 109.223,8 Z M 52.567,78.325 c 0,-9.582 7.795,-17.376 17.376,-17.376 h 12.789 c -7.913,12.667 -12.505,27.613 -12.505,43.618 0,0.114 0.008,0.226 0.009,0.34 H 56.873 c -2.374,0 -4.305,-1.932 -4.305,-4.306 V 78.325 Z m 3.654,34.548 c 0.217,0.011 14.427,0.033 14.427,0.033 1.721,17.08 8.68,32.628 19.226,45.042 H 73.78 c -6.148,0 -12.052,1.052 -17.559,2.962 z m -28.183,98.828 c 0,-24.697 19.668,-44.874 44.158,-45.713 V 297.625 H 28.038 Z m 205.391,85.924 V 165.988 c 21.452,0.74 39.198,16.309 43.273,36.758 H 257.29 c -2.209,0 -4,1.791 -4,4 v 25.792 c 0,2.209 1.791,4 4,4 h 20.297 v 61.087 z"
   id="path16958" />
		<path
   style="fill:url(#linearGradient17043);fill-opacity:1"
   d="m 211.368,232.933 h -40.314 c -2.209,0 -4,1.791 -4,4 v 17.25 c 0,2.209 1.791,4 4,4 h 40.314 c 2.209,0 4,-1.791 4,-4 v -17.25 c 0,-2.209 -1.791,-4 -4,-4 z m -4,17.251 h -32.314 v -9.25 h 32.314 z"
   id="path16960" />
		<path
   style="fill:url(#linearGradient17045);fill-opacity:1"
   d="m 204.186,37.468 h 15.707 c 2.209,0 4,-1.791 4,-4 v -7.042 c 0,-7.737 -6.294,-14.031 -14.03,-14.031 h -5.677 c -2.209,0 -4,1.791 -4,4 v 17.073 c 0,2.209 1.791,4 4,4 z m 4,-17.073 h 1.677 c 3.325,0 6.03,2.706 6.03,6.031 v 3.042 h -7.707 z"
   id="path16962" />
		<path
   style="fill:url(#linearGradient17047);fill-opacity:1"
   d="m 152.809,170.957 c 35.773,0 64.877,-28.368 64.877,-63.236 0,-16.66 -6.757,-30.184 -19.541,-39.108 -11.257,-7.858 -26.934,-12.012 -45.336,-12.012 -18.403,0 -34.08,4.154 -45.336,12.012 -12.784,8.924 -19.541,22.447 -19.541,39.107 0,34.869 29.104,63.237 64.877,63.237 z M 112.052,75.172 c 9.907,-6.916 24,-10.572 40.757,-10.572 16.756,0 30.85,3.656 40.757,10.572 10.696,7.467 16.12,18.417 16.12,32.548 0,30.458 -25.515,55.236 -56.877,55.236 -31.362,0 -56.877,-24.779 -56.877,-55.236 0,-14.13 5.423,-25.081 16.12,-32.548 z"
   id="path16964" />
		<path
   style="fill:url(#linearGradient17049);fill-opacity:1"
   d="m 163.168,78.863 c 0.831,0.119 1.658,0.255 2.483,0.408 0.247,0.046 0.493,0.068 0.736,0.068 1.89,0 3.57,-1.344 3.928,-3.269 0.404,-2.172 -1.029,-4.26 -3.201,-4.664 -0.934,-0.174 -1.871,-0.327 -2.811,-0.462 -2.191,-0.315 -4.214,1.205 -4.527,3.392 -0.313,2.186 1.205,4.213 3.392,4.527 z"
   id="path16966" />
		<path
   style="fill:url(#linearGradient17051);fill-opacity:1"
   d="m 178.31,83.415 c 13.453,5.916 16.279,18.033 16.281,27.156 0,2.209 1.791,3.999 4,3.999 h 0.001 c 2.209,0 4,-1.792 3.999,-4.001 -0.003,-16.262 -7.483,-28.506 -21.061,-34.478 -2.022,-0.89 -4.382,0.029 -5.272,2.051 -0.889,2.023 0.03,4.383 2.052,5.273 z"
   id="path16968" />
	</g><g
     style="fill:url(#linearGradient17055);fill-opacity:1"
     id="g16972">
	</g><g
     style="fill:url(#linearGradient17057);fill-opacity:1"
     id="g16974">
	</g><g
     style="fill:url(#linearGradient17059);fill-opacity:1"
     id="g16976">
	</g><g
     style="fill:url(#linearGradient17061);fill-opacity:1"
     id="g16978">
	</g><g
     style="fill:url(#linearGradient17063);fill-opacity:1"
     id="g16980">
	</g><g
     style="fill:url(#linearGradient17065);fill-opacity:1"
     id="g16982">
	</g><g
     style="fill:url(#linearGradient17067);fill-opacity:1"
     id="g16984">
	</g><g
     style="fill:url(#linearGradient17069);fill-opacity:1"
     id="g16986">
	</g><g
     style="fill:url(#linearGradient17071);fill-opacity:1"
     id="g16988">
	</g><g
     style="fill:url(#linearGradient17073);fill-opacity:1"
     id="g16990">
	</g><g
     style="fill:url(#linearGradient17075);fill-opacity:1"
     id="g16992">
	</g><g
     style="fill:url(#linearGradient17077);fill-opacity:1"
     id="g16994">
	</g><g
     style="fill:url(#linearGradient17079);fill-opacity:1"
     id="g16996">
	</g><g
     style="fill:url(#linearGradient17081);fill-opacity:1"
     id="g16998">
	</g><g
     style="fill:url(#linearGradient17083);fill-opacity:1"
     id="g17000">
	</g></g><g
   style="fill:url(#linearGradient17343);fill-opacity:1"
   transform="matrix(0.95463423,0,0,0.95463423,-468.62155,-18.196684)"
   id="g17335"><g
     style="fill:url(#linearGradient17353);fill-opacity:1"
     id="g17276">
		<path
   style="fill:url(#linearGradient17345);fill-opacity:1"
   d="m 134.979,109.125 c 0.466,1.445 0.846,2.931 1.13,4.415 0.366,1.916 2.043,3.249 3.924,3.249 0.25,0 0.503,-0.023 0.757,-0.072 2.17,-0.415 3.592,-2.511 3.177,-4.681 -0.346,-1.805 -0.808,-3.61 -1.374,-5.366 -0.677,-2.102 -2.928,-3.259 -5.034,-2.579 -2.104,0.678 -3.259,2.932 -2.58,5.034 z"
   id="path17268" />
		<path
   style="fill:url(#linearGradient17347);fill-opacity:1"
   d="m 94.22,78.258 c -0.004,2.209 1.784,4.003 3.993,4.007 11.55,0.02 22.862,5.549 30.261,14.792 0.79,0.986 1.952,1.5 3.126,1.5 0.876,0 1.759,-0.287 2.497,-0.877 1.725,-1.381 2.003,-3.898 0.623,-5.623 -8.899,-11.117 -22.542,-17.769 -36.493,-17.792 -0.003,0 -0.005,0 -0.007,0 -2.206,0 -3.996,1.786 -4,3.993 z"
   id="path17270" />
		<path
   style="fill:url(#linearGradient17349);fill-opacity:1"
   d="M 111.556,213.187 H 93.583 c -2.209,0 -4,1.791 -4,4 0,2.209 1.791,4 4,4 h 17.973 c 2.209,0 4,-1.791 4,-4 0,-2.209 -1.791,-4 -4,-4 z"
   id="path17272" />
		<path
   style="fill:url(#linearGradient17351);fill-opacity:1"
   d="m 377.673,242.862 -12.267,-12.268 c -7.85,-7.85 -20.083,-8.705 -28.89,-2.578 l -8.015,-8.014 c 1.206,0.16 2.019,0.266 2.062,0.266 0.869,0 1.72,-0.283 2.42,-0.814 0.845,-0.643 1.399,-1.594 1.543,-2.645 l 9.951,-72.923 c 0.299,-2.188 -1.232,-4.205 -3.421,-4.504 L 323.86,137.03 c -11,-1.501 -21.256,5.228 -24.561,15.436 l -38.82,-5.295 c -2.749,-0.376 -5.492,-0.485 -8.204,-0.351 v -17.683 c 0,-8.423 -3.279,-16.332 -9.226,-22.266 -5.931,-5.945 -13.836,-9.22 -22.26,-9.22 -8.409,0 -16.315,3.275 -22.262,9.224 -5.946,5.949 -9.218,13.856 -9.211,22.262 v 21.354 h -15.472 l -15.866,-15.867 c 1.16,-4.726 1.788,-9.659 1.788,-14.738 0,-34.102 -27.744,-61.846 -61.846,-61.846 -31.075,0 -56.86,23.04 -61.195,52.932 l -28.49,28.49 C 2.925,144.772 0,151.833 0,159.344 c 0,7.51 2.925,14.571 8.236,19.882 l 64.601,64.601 v 6.694 c 0,24.257 19.734,43.991 43.99,43.991 h 6.281 l 3.159,3.157 c 15.425,15.425 35.679,23.135 55.94,23.135 20.257,0 40.521,-7.714 55.941,-23.135 l 39.558,-39.414 42.269,42.305 c 0.781,0.781 1.805,1.172 2.828,1.172 1.023,0 2.048,-0.391 2.828,-1.172 l 52.042,-52.042 c 1.562,-1.561 1.562,-4.095 0,-5.656 z m -95.967,8.08 v -30.279 c 6.279,-0.85 12.338,-3.678 17.152,-8.493 1.79,-1.789 3.317,-3.77 4.588,-5.909 l 17.293,17.292 -33.211,33.211 z m -46.572,-39.163 -17.416,-17.416 1.157,-8.467 c 0.005,-0.037 0.012,-0.072 0.018,-0.108 2.335,1.144 4.816,1.984 7.425,2.497 1.949,0.383 3.905,0.572 5.848,0.572 4.67,0 9.251,-1.112 13.443,-3.237 l 7.228,9.51 c -2.208,1.521 -4.3,3.246 -6.236,5.183 z m 18.592,-57.006 c 0.516,2.757 0.505,5.55 -0.04,8.322 -1.133,5.765 -4.443,10.743 -9.321,14.019 -4.878,3.276 -10.737,4.458 -16.504,3.322 -2.472,-0.486 -4.788,-1.367 -6.912,-2.618 2.37,-6.185 6.408,-11.608 11.811,-15.716 6.128,-4.659 13.415,-7.177 20.966,-7.329 z m 23.98,32.654 c -6.241,0 -12.278,1.303 -17.818,3.759 l -7.664,-10.083 c 4.789,-4.312 8.047,-10.028 9.312,-16.464 0.602,-3.062 0.717,-6.142 0.368,-9.199 l 22.125,3.018 -3.954,29.037 c -0.786,-0.043 -1.575,-0.068 -2.369,-0.068 z m 0,8 c 7.004,0 13.698,1.996 19.447,5.704 -1.033,1.977 -2.351,3.782 -3.951,5.382 -8.576,8.575 -22.53,8.576 -31.106,0 -1.593,-1.593 -2.901,-3.38 -3.924,-5.327 5.769,-3.744 12.495,-5.759 19.534,-5.759 z m 49.436,16.336 -6.327,-0.865 8.876,-64.996 6.32,0.864 z m -25.311,-50.878 c 2.199,0.287 4.205,-1.234 4.503,-3.423 1.042,-7.636 7.845,-13.081 15.424,-12.591 l -8.218,60.17 -4.729,-4.729 c -5.826,-5.826 -13,-9.809 -20.817,-11.674 l 3.962,-29.101 z m -73.912,-5.152 c -5.158,3.921 -9.298,8.825 -12.247,14.384 l -18.355,-18.355 c 0,0 0.01,-23.253 0.022,-23.564 h 46.913 c 0.012,0.313 0.023,19.77 0.023,19.77 -5.857,1.402 -11.416,4.01 -16.356,7.765 z m -7.129,-50.081 c 6.283,0 12.177,2.439 16.603,6.877 2.235,2.229 3.963,4.833 5.129,7.669 h -43.455 c 1.164,-2.833 2.889,-5.435 5.12,-7.667 4.434,-4.436 10.331,-6.879 16.603,-6.879 z m -28.057,52.839 c 0,0 19.485,19.443 19.681,19.579 -0.654,2.188 -1.15,4.439 -1.464,6.745 l -0.334,2.447 -28.77,-28.77 h 10.887 z m 36.745,58.945 -12.316,12.315 -71.1,-71.099 c 3.758,-4.657 6.851,-9.867 9.144,-15.489 z m -77.71,-97.55 c 0,1.862 -0.095,3.702 -0.281,5.516 -13.12,12.749 -30.839,18.138 -46.117,14.177 -0.293,-5.015 -2.362,-9.694 -5.945,-13.275 -3.871,-3.872 -9.018,-6.004 -14.492,-6.004 -0.878,0 -1.744,0.075 -2.601,0.183 -7.531,-16.336 -2.581,-37.634 12.607,-52.821 0.562,-0.562 1.113,-1.085 1.657,-1.587 0.442,-0.011 0.882,-0.034 1.327,-0.034 29.689,0 53.845,24.155 53.845,53.845 z M 84.933,128.3 c 3.337,0 6.476,1.3 8.836,3.66 2.36,2.36 3.66,5.499 3.66,8.837 0,3.338 -1.3,6.476 -3.66,8.836 -2.36,2.36 -5.499,3.66 -8.836,3.66 -3.338,0 -6.477,-1.3 -8.837,-3.661 -2.36,-2.359 -3.66,-5.497 -3.66,-8.835 0,-3.338 1.3,-6.477 3.66,-8.837 2.36,-2.36 5.499,-3.66 8.837,-3.66 z M 84.094,67.849 c -13.183,16.702 -16.886,38.038 -9.386,55.2 -1.537,0.889 -2.979,1.966 -4.268,3.256 -3.872,3.871 -6.004,9.019 -6.004,14.493 0,5.474 2.133,10.622 6.004,14.492 3.871,3.872 9.018,6.004 14.493,6.004 5.475,0 10.621,-2.132 14.492,-6.003 2.219,-2.219 3.844,-4.865 4.847,-7.744 3.673,0.872 7.449,1.306 11.263,1.306 11.302,0 22.917,-3.753 33.056,-10.752 -7.483,20.754 -27.368,35.633 -50.668,35.633 -29.691,0 -53.847,-24.155 -53.847,-53.847 C 44.075,94.976 61.083,73.969 84.094,67.849 Z M 72.837,193.034 19.407,139.604 36.15,122.861 c 1.137,23.9 15.909,44.276 36.686,53.536 v 16.637 z m -42.544,-3.064 14.084,-14.084 6.308,6.308 -14.084,14.084 z M 8,159.344 c 0,-5.307 2.048,-10.294 5.758,-14.077 L 38.721,170.23 24.637,184.314 13.893,173.57 C 10.093,169.77 8,164.717 8,159.344 Z m 34.257,42.59 14.084,-14.084 16.496,16.496 v 28.168 z m 39.132,54.822 c 7.717,-3.526 16.862,-1.976 23.001,4.162 6.479,6.479 7.768,16.592 3.44,24.455 -13.535,-3.497 -23.998,-14.694 -26.441,-28.617 z m 34.787,29.74 c 3.76,-8.856 2.798,-19.004 -2.65,-27.016 l 19.934,-19.935 h 23.702 c 0.314,0 0.625,0.012 0.937,0.024 v 46.92 c -0.311,0.011 -41.706,0.011 -41.923,0.007 z m 64.47,-23.467 c 0,9.786 -6.018,18.189 -14.547,21.712 v -43.426 c 8.528,3.524 14.547,11.928 14.547,21.714 z m 51.846,28.984 c -26.868,26.865 -70.06,27.699 -97.939,2.499 h 22.609 c 17.36,0 31.483,-14.123 31.483,-31.483 0,-17.36 -14.123,-31.484 -31.483,-31.484 h -21.358 v -44.36 c 0,-2.209 -1.791,-4 -4,-4 -2.209,0 -4,1.791 -4,4 v 46.704 l -19.648,19.648 c -7.678,-6.432 -18.017,-8.282 -27.319,-5.152 v -69.071 c 5.431,1.563 11.158,2.419 17.085,2.419 16.559,0 31.607,-6.554 42.719,-17.189 l 70.864,70.863 -9.691,9.691 c -1.563,1.562 -1.563,4.095 0,5.656 1.561,1.563 4.096,1.563 5.656,0 l 44.422,-44.421 c 1.259,2.106 2.772,4.062 4.546,5.836 4.845,4.845 10.949,7.676 17.268,8.507 v 30.266 z m 60.693,-29.594 33.211,-33.21 7.042,7.042 c 1.563,1.563 4.096,1.563 5.656,0 5.449,-5.447 14.157,-5.668 19.889,-0.693 l -46.349,46.348 z m 29.618,29.656 -4.513,-4.513 46.386,-46.385 4.512,4.513 z"
   id="path17274" />
	</g><g
     style="fill:url(#linearGradient17355);fill-opacity:1"
     id="g17278">
	</g><g
     style="fill:url(#linearGradient17357);fill-opacity:1"
     id="g17280">
	</g><g
     style="fill:url(#linearGradient17359);fill-opacity:1"
     id="g17282">
	</g><g
     style="fill:url(#linearGradient17361);fill-opacity:1"
     id="g17284">
	</g><g
     style="fill:url(#linearGradient17363);fill-opacity:1"
     id="g17286">
	</g><g
     style="fill:url(#linearGradient17365);fill-opacity:1"
     id="g17288">
	</g><g
     style="fill:url(#linearGradient17367);fill-opacity:1"
     id="g17290">
	</g><g
     style="fill:url(#linearGradient17369);fill-opacity:1"
     id="g17292">
	</g><g
     style="fill:url(#linearGradient17371);fill-opacity:1"
     id="g17294">
	</g><g
     style="fill:url(#linearGradient17373);fill-opacity:1"
     id="g17296">
	</g><g
     style="fill:url(#linearGradient17375);fill-opacity:1"
     id="g17298">
	</g><g
     style="fill:url(#linearGradient17377);fill-opacity:1"
     id="g17300">
	</g><g
     style="fill:url(#linearGradient17379);fill-opacity:1"
     id="g17302">
	</g><g
     style="fill:url(#linearGradient17381);fill-opacity:1"
     id="g17304">
	</g><g
     style="fill:url(#linearGradient17383);fill-opacity:1"
     id="g17306">
	</g></g><g
   style="fill:url(#linearGradient17592);fill-opacity:1"
   transform="matrix(0.82188413,0,0,0.82188413,5.1645596,9.106536)"
   id="g17584"><g
     style="fill:url(#linearGradient17602);fill-opacity:1"
     id="g17525">
		<path
   style="fill:url(#linearGradient17594);fill-opacity:1"
   d="m 135.961,174.815 c 21.243,0 38.526,-16.865 38.526,-37.595 0,-18.951 -14.762,-30.724 -38.526,-30.724 -23.763,0 -38.525,11.772 -38.525,30.724 -0.001,20.729 17.282,37.595 38.525,37.595 z m 0,-60.319 c 27.551,0 30.526,15.892 30.526,22.724 0,16.318 -13.694,29.595 -30.526,29.595 -16.832,0 -30.525,-13.276 -30.525,-29.595 -0.001,-6.832 2.974,-22.724 30.525,-22.724 z"
   id="path17517" />
		<path
   style="fill:url(#linearGradient17596);fill-opacity:1"
   d="m 137.061,124.736 c 1.34,0 2.663,0.069 3.932,0.206 0.146,0.016 0.291,0.023 0.434,0.023 2.017,0 3.75,-1.521 3.972,-3.57 0.237,-2.197 -1.352,-4.17 -3.548,-4.406 -1.553,-0.168 -3.165,-0.253 -4.79,-0.253 -2.209,0 -4,1.791 -4,4 0,2.209 1.791,4 4,4 z"
   id="path17519" />
		<path
   style="fill:url(#linearGradient17598);fill-opacity:1"
   d="m 149.89,127.648 c 3.74,2.289 5.974,6.304 5.975,10.739 0,2.209 1.791,3.999 4,3.999 0,0 0.001,0 0.001,0 2.209,-0.001 4,-1.792 3.999,-4.001 -0.002,-7.242 -3.665,-13.807 -9.798,-17.562 -1.885,-1.152 -4.347,-0.56 -5.5,1.324 -1.154,1.884 -0.561,4.347 1.323,5.501 z"
   id="path17521" />
		<path
   style="fill:url(#linearGradient17600);fill-opacity:1"
   d="M 431.015,42.683 H 264.006 c -2.209,0 -4,1.791 -4,4 v 118.945 c -1.258,-0.216 -2.547,-0.336 -3.86,-0.336 H 176.74 c 6.24,-8.428 9.938,-18.846 9.938,-30.113 0,-27.966 -22.751,-50.718 -50.717,-50.718 -27.965,0 -50.717,22.752 -50.717,50.718 0,11.268 3.698,21.686 9.938,30.113 h -6.156 c -8.997,0 -17.806,3.649 -24.168,10.011 L 6.536,233.615 c -8.715,8.728 -8.714,22.919 0.002,31.635 4.231,4.231 9.849,6.562 15.819,6.562 5.981,0 11.6,-2.331 15.818,-6.561 l 34.712,-34.704 v 123.271 c -9.536,1.217 -16.93,9.383 -16.93,19.243 v 15.271 c 0,2.209 1.791,4 4,4 h 66.14 c 2.13,0 3.886,-1.669 3.995,-3.796 l 4.096,-80.204 h 4.718 l 4.096,80.204 c 0.108,2.127 1.865,3.796 3.995,3.796 h 64.96 c 2.209,0 4,-1.791 4,-4 v -15.271 c 0,-9.325 -6.611,-17.135 -15.39,-18.984 V 210.032 h 56.02 c 1.157,0 2.299,-0.087 3.42,-0.258 v 178.558 c 0,2.209 1.791,4 4,4 2.209,0 4,-1.791 4,-4 V 206.903 c 1.694,-1.011 3.269,-2.251 4.68,-3.714 4.251,-4.409 6.47,-10.213 6.247,-16.337 -0.269,-7.665 -4.617,-14.404 -10.927,-18.228 v -5.171 h 163.009 c 2.209,0 4,-1.791 4,-4 V 46.683 c -0.001,-2.209 -1.792,-4 -4.001,-4 z m -178.87,159.349 h -30 v -28.74 h 30 z m -100.762,5.633 c -0.551,-1.55 -2.016,-2.666 -3.755,-2.666 h -23.333 c -2.209,0 -4,1.791 -4,4 v 4.333 h -16.113 c -5.175,0 -9.385,-4.21 -9.385,-9.385 v -30.655 h 7.759 c 8.93,7.837 20.618,12.604 33.405,12.604 9.431,0 18.263,-2.595 25.835,-7.098 v 19.801 c 0,4.999 -4.067,9.066 -9.066,9.066 z m -3.481,119.997 h 44.664 v 6.666 h -44.323 z m 44.664,-61.342 c -6.878,-0.124 -12.437,-5.749 -12.437,-12.655 0,-11.396 -9.271,-20.666 -20.667,-20.666 h -7.835 v -4.634 h 40.938 v 37.955 z m -48.938,-53.321 v 28.666 H 128.295 V 212.999 Z M 135.961,92.461 c 23.554,0 42.717,19.163 42.717,42.718 0,23.554 -19.163,42.717 -42.717,42.717 -23.554,0 -42.717,-19.163 -42.717,-42.717 0,-23.555 19.163,-42.718 42.717,-42.718 z M 35.346,256.766 15.023,236.442 37.368,214.101 57.692,234.425 Z m -23.151,2.828 C 7.578,254.976 6.779,247.97 9.776,242.51 l 19.514,19.514 c -2.099,1.163 -4.466,1.788 -6.934,1.788 -3.833,0 -7.442,-1.498 -10.161,-4.218 z M 63.349,228.769 43.025,208.445 70.515,180.96 c 4.345,-4.346 10.182,-7.032 16.282,-7.564 v 30.552 c 0,9.586 7.799,17.385 17.385,17.385 h 16.113 v 24.333 c 0,2.209 1.791,4 4,4 h 23.333 c 2.209,0 4,-1.791 4,-4 V 241 h 7.835 c 6.984,0 12.667,5.682 12.667,12.666 0,11.318 9.148,20.53 20.437,20.655 V 281 H 80.886 v -42.667 h 1.577 c 6.25,0 11.333,5.084 11.333,11.333 0,10.661 8.673,19.334 19.333,19.334 h 11.532 c 1.653,4.653 6.087,8 11.3,8 6.617,0 12,-5.383 12,-12 0,-6.617 -5.383,-12 -12,-12 -5.213,0 -9.647,3.347 -11.3,8 h -11.532 c -6.249,0 -11.333,-5.084 -11.333,-11.334 0,-10.66 -8.673,-19.333 -19.333,-19.333 h -1.577 v -9.44 c 0,-1.618 -0.975,-3.076 -2.469,-3.695 -1.494,-0.619 -3.215,-0.277 -4.359,0.866 z m 61.5,105.559 H 80.886 v -6.666 h 44.303 z m 7.112,-69.329 c 0,-2.206 1.794,-4 4,-4 2.206,0 4,1.794 4,4 0,2.206 -1.794,4 -4,4 -2.206,0 -4,-1.794 -4,-4 z m -56.663,96.666 h 22.164 c 2.209,0 4,-1.791 4,-4 0,-2.209 -1.791,-4 -4,-4 H 80.886 v -11.337 h 43.554 l -1.498,29.334 H 64.051 c 0.691,-5.608 5.462,-9.967 11.247,-9.997 z m 13.398,17.997 v 4.67 H 79.03 v -4.67 z m 8,0 h 9.667 v 4.67 h -9.667 z m -32.74,0 h 7.074 v 4.67 h -7.074 z m 50.407,4.67 v -4.67 h 8.171 l -0.239,4.67 z m 16.023,-84 c -2.13,0 -3.886,1.669 -3.995,3.796 l -0.793,15.534 H 80.886 v -30.663 h 111.68 v 30.663 h -45.072 l -0.793,-15.534 c -0.108,-2.127 -1.865,-3.796 -3.995,-3.796 z m 20.172,79.33 h 7.138 v 4.67 h -6.899 z m 42.472,0 v 4.67 h -9.667 v -4.67 z m -17.667,4.67 h -9.667 v -4.67 h 9.667 z m 25.667,0 v -4.67 h 6.926 v 4.67 z m 6.831,-12.67 H 150.15 l -1.498,-29.334 h 43.915 v 11.337 h -18.545 c -2.209,0 -4,1.791 -4,4 0,2.209 1.791,4 4,4 h 22.603 c 5.779,0.03 10.546,4.389 11.236,9.997 z m -11.295,-169.63 c -2.209,0 -4,1.791 -4,4 v 14.333 h -40.938 v -4.7 h 1.102 c 9.411,0 17.066,-7.656 17.066,-17.066 v -25.307 h 44.349 v 28.74 z m 70.361,-4.396 c -1.886,1.956 -4.225,3.289 -6.782,3.938 v -27.725 c 6.015,1.673 10.573,6.991 10.794,13.29 0.142,3.937 -1.282,7.666 -4.012,10.497 z M 427.015,155.453 H 268.006 V 50.683 h 159.009 z"
   id="path17523" />
	</g><g
     style="fill:url(#linearGradient17604);fill-opacity:1"
     id="g17527">
	</g><g
     style="fill:url(#linearGradient17606);fill-opacity:1"
     id="g17529">
	</g><g
     style="fill:url(#linearGradient17608);fill-opacity:1"
     id="g17531">
	</g><g
     style="fill:url(#linearGradient17610);fill-opacity:1"
     id="g17533">
	</g><g
     style="fill:url(#linearGradient17612);fill-opacity:1"
     id="g17535">
	</g><g
     style="fill:url(#linearGradient17614);fill-opacity:1"
     id="g17537">
	</g><g
     style="fill:url(#linearGradient17616);fill-opacity:1"
     id="g17539">
	</g><g
     style="fill:url(#linearGradient17618);fill-opacity:1"
     id="g17541">
	</g><g
     style="fill:url(#linearGradient17620);fill-opacity:1"
     id="g17543">
	</g><g
     style="fill:url(#linearGradient17622);fill-opacity:1"
     id="g17545">
	</g><g
     style="fill:url(#linearGradient17624);fill-opacity:1"
     id="g17547">
	</g><g
     style="fill:url(#linearGradient17626);fill-opacity:1"
     id="g17549">
	</g><g
     style="fill:url(#linearGradient17628);fill-opacity:1"
     id="g17551">
	</g><g
     style="fill:url(#linearGradient17630);fill-opacity:1"
     id="g17553">
	</g><g
     style="fill:url(#linearGradient17632);fill-opacity:1"
     id="g17555">
	</g></g></svg>