<?xml version="1.0" encoding="UTF-8" standalone="no"?>
<svg
   xmlns:dc="http://purl.org/dc/elements/1.1/"
   xmlns:cc="http://creativecommons.org/ns#"
   xmlns:rdf="http://www.w3.org/1999/02/22-rdf-syntax-ns#"
   xmlns:svg="http://www.w3.org/2000/svg"
   xmlns="http://www.w3.org/2000/svg"
   xmlns:xlink="http://www.w3.org/1999/xlink"
   xml:space="preserve"
   style="enable-background:new 0 0 368.258 368.258;"
   viewBox="0 0 368.258 368.258"
   y="0px"
   x="0px"
   id="Capa_1"
   version="1.1"><metadata
   id="metadata4962"><rdf:RDF><cc:Work
       rdf:about=""><dc:format>image/svg+xml</dc:format><dc:type
         rdf:resource="http://purl.org/dc/dcmitype/StillImage" /><dc:title></dc:title></cc:Work></rdf:RDF></metadata><defs
   id="defs4960"><linearGradient
     id="lapkin"><stop
       id="stop4972"
       offset="0"
       style="stop-color:#2351ee;stop-opacity:1" /><stop
       id="stop4974"
       offset="1"
       style="stop-color:#00ff00;stop-opacity:1" /></linearGradient><linearGradient
     gradientUnits="userSpaceOnUse"
     y2="200.11137"
     x2="400.22626"
     y1="200.11137"
     x1="0"
     id="linearGradient15843"
     xlink:href="#lapkin" /><linearGradient
     y2="200.11137"
     x2="400.22626"
     y1="200.11137"
     x1="0"
     gradientUnits="userSpaceOnUse"
     id="linearGradient15845"
     xlink:href="#lapkin" /><linearGradient
     y2="200.11137"
     x2="400.22626"
     y1="200.11137"
     x1="0"
     gradientUnits="userSpaceOnUse"
     id="linearGradient15847"
     xlink:href="#lapkin" /><linearGradient
     y2="200.11137"
     x2="400.22626"
     y1="200.11137"
     x1="0"
     gradientUnits="userSpaceOnUse"
     id="linearGradient15849"
     xlink:href="#lapkin" /><linearGradient
     y2="200.11137"
     x2="400.22626"
     y1="200.11137"
     x1="0"
     gradientUnits="userSpaceOnUse"
     id="linearGradient15851"
     xlink:href="#lapkin" /><linearGradient
     y2="200.11137"
     x2="400.22626"
     y1="200.11137"
     x1="0"
     gradientUnits="userSpaceOnUse"
     id="linearGradient15853"
     xlink:href="#lapkin" /><linearGradient
     y2="200.11137"
     x2="400.22626"
     y1="200.11137"
     x1="0"
     gradientUnits="userSpaceOnUse"
     id="linearGradient15855"
     xlink:href="#lapkin" /><linearGradient
     y2="200.11137"
     x2="400.22626"
     y1="200.11137"
     x1="0"
     gradientUnits="userSpaceOnUse"
     id="linearGradient15857"
     xlink:href="#lapkin" /><linearGradient
     y2="200.11137"
     x2="400.22626"
     y1="200.11137"
     x1="0"
     gradientUnits="userSpaceOnUse"
     id="linearGradient15859"
     xlink:href="#lapkin" /><linearGradient
     y2="200.11137"
     x2="400.22626"
     y1="200.11137"
     x1="0"
     gradientUnits="userSpaceOnUse"
     id="linearGradient15861"
     xlink:href="#lapkin" /><linearGradient
     y2="200.11137"
     x2="400.22626"
     y1="200.11137"
     x1="0"
     gradientUnits="userSpaceOnUse"
     id="linearGradient15863"
     xlink:href="#lapkin" /><linearGradient
     y2="200.11137"
     x2="400.22626"
     y1="200.11137"
     x1="0"
     gradientUnits="userSpaceOnUse"
     id="linearGradient15865"
     xlink:href="#lapkin" /><linearGradient
     y2="200.11137"
     x2="400.22626"
     y1="200.11137"
     x1="0"
     gradientUnits="userSpaceOnUse"
     id="linearGradient15867"
     xlink:href="#lapkin" /><linearGradient
     y2="200.11137"
     x2="400.22626"
     y1="200.11137"
     x1="0"
     gradientUnits="userSpaceOnUse"
     id="linearGradient15869"
     xlink:href="#lapkin" /><linearGradient
     y2="200.11137"
     x2="400.22626"
     y1="200.11137"
     x1="0"
     gradientUnits="userSpaceOnUse"
     id="linearGradient15871"
     xlink:href="#lapkin" /><linearGradient
     y2="200.11137"
     x2="400.22626"
     y1="200.11137"
     x1="0"
     gradientUnits="userSpaceOnUse"
     id="linearGradient15873"
     xlink:href="#lapkin" /><linearGradient
     y2="200.11137"
     x2="400.22626"
     y1="200.11137"
     x1="0"
     gradientUnits="userSpaceOnUse"
     id="linearGradient15875"
     xlink:href="#lapkin" /><linearGradient
     gradientUnits="userSpaceOnUse"
     y2="210.89149"
     x2="279.59698"
     y1="210.89149"
     x1="142.179"
     id="linearGradient16113"
     xlink:href="#lapkin" /></defs>
	
	<g
   id="g4927">
	</g>
	<g
   id="g4929">
	</g>
	<g
   id="g4931">
	</g>
	<g
   id="g4933">
	</g>
	<g
   id="g4935">
	</g>
	<g
   id="g4937">
	</g>
	<g
   id="g4939">
	</g>
	<g
   id="g4941">
	</g>
	<g
   id="g4943">
	</g>
	<g
   id="g4945">
	</g>
	<g
   id="g4947">
	</g>
	<g
   id="g4949">
	</g>
	<g
   id="g4951">
	</g>
	<g
   id="g4953">
	</g>
	<g
   id="g4955">
	</g>
<g
   style="fill:url(#linearGradient15843);fill-opacity:1"
   transform="matrix(0.90000967,0,0,0.90000967,-506.19936,-41.773291)"
   id="g15835"><path
     style="fill:url(#linearGradient15845);fill-opacity:1"
     d="m 399.054,326.783 -30.627,-30.627 c -0.75,-0.75 -1.768,-1.172 -2.829,-1.172 -1.061,0 -2.078,0.422 -2.829,1.172 l -15.165,15.165 -3.532,-3.531 15.166,-15.166 c 0.75,-0.75 1.171,-1.768 1.171,-2.828 0,-1.06 -0.421,-2.078 -1.171,-2.828 l -30.627,-30.627 c -1.562,-1.562 -4.094,-1.562 -5.657,0 l -15.165,15.165 -3.531,-3.531 15.165,-15.165 c 1.562,-1.562 1.562,-4.095 0,-5.656 l -30.627,-30.628 c -0.75,-0.75 -1.768,-1.172 -2.829,-1.172 -1.061,0 -2.078,0.422 -2.829,1.172 l -15.165,15.165 -7.145,-7.146 54.792,-54.792 c 0.611,-0.61 1.007,-1.402 1.13,-2.258 l 8.921,-61.916 c 0.18,-1.248 -0.239,-2.507 -1.13,-3.398 L 298.043,75.684 c -0.892,-0.892 -2.149,-1.31 -3.399,-1.131 l -61.916,8.921 c -0.855,0.123 -1.647,0.52 -2.258,1.131 l -54.792,54.792 -7.146,-7.146 15.165,-15.166 c 1.562,-1.562 1.562,-4.095 0,-5.656 L 153.07,80.802 c -0.75,-0.75 -1.768,-1.172 -2.829,-1.172 -1.061,0 -2.078,0.422 -2.829,1.172 l -15.165,15.165 -3.531,-3.531 15.165,-15.165 c 1.562,-1.562 1.562,-4.095 0,-5.656 L 113.254,40.987 c -0.75,-0.75 -1.768,-1.172 -2.829,-1.172 -1.061,0 -2.078,0.422 -2.829,1.172 L 92.435,56.152 88.904,52.621 104.069,37.456 c 0.75,-0.75 1.171,-1.768 1.171,-2.828 0,-1.06 -0.421,-2.078 -1.171,-2.828 L 73.442,1.172 c -1.563,-1.563 -4.095,-1.563 -5.657,0 L 52.621,16.336 45.496,9.211 c -1.563,-1.563 -4.095,-1.563 -5.657,0 -1.562,1.562 -1.562,4.095 0,5.656 l 7.126,7.126 -24.97,24.97 -7.125,-7.125 c -1.563,-1.563 -4.095,-1.563 -5.657,0 -1.562,1.562 -1.562,4.095 0,5.656 L 16.339,52.62 1.171,67.785 C 0.421,68.535 0,69.553 0,70.613 c 0,1.06 0.421,2.078 1.171,2.828 l 30.627,30.627 c 0.781,0.781 1.805,1.172 2.829,1.172 1.023,0 2.047,-0.391 2.829,-1.172 l 15.164,-15.164 3.531,3.532 -15.165,15.165 c -1.562,1.562 -1.562,4.095 0,5.656 l 30.627,30.627 c 0.781,0.781 1.805,1.172 2.829,1.172 1.023,0 2.047,-0.391 2.829,-1.172 l 15.165,-15.165 3.531,3.532 -15.165,15.165 c -1.562,1.562 -1.562,4.095 0,5.656 l 30.627,30.627 c 0.75,0.75 1.768,1.172 2.829,1.172 1.061,0 2.078,-0.422 2.829,-1.172 l 15.165,-15.165 7.145,7.145 -15.165,15.165 c -1.562,1.562 -1.562,4.095 0,5.656 l 18.113,18.113 -29.578,8.318 c -1.367,0.385 -2.428,1.465 -2.787,2.839 -0.359,1.374 0.038,2.836 1.042,3.84 l 59.593,59.593 c 0.76,0.76 1.781,1.172 2.829,1.172 0.337,0 0.677,-0.043 1.011,-0.13 1.374,-0.358 2.455,-1.419 2.839,-2.786 l 8.325,-29.573 18.107,18.107 c 0.75,0.75 1.768,1.172 2.829,1.172 1.061,0 2.078,-0.422 2.829,-1.172 l 15.165,-15.165 7.145,7.146 -15.165,15.165 c -1.562,1.562 -1.562,4.095 0,5.656 l 30.627,30.627 c 0.781,0.781 1.805,1.172 2.829,1.172 1.023,0 2.047,-0.391 2.829,-1.172 l 15.165,-15.165 3.531,3.531 -15.165,15.165 c -1.562,1.562 -1.562,4.095 0,5.656 l 30.627,30.627 c 0.781,0.781 1.805,1.172 2.829,1.172 1.024,0 2.047,-0.391 2.829,-1.172 l 15.165,-15.165 3.532,3.531 -15.166,15.166 c -1.562,1.562 -1.562,4.095 0,5.656 l 30.627,30.627 c 0.75,0.75 1.768,1.172 2.829,1.172 1.061,0 2.078,-0.422 2.829,-1.172 l 15.165,-15.165 7.125,7.125 c 0.781,0.781 1.805,1.172 2.829,1.172 1.024,0 2.047,-0.391 2.829,-1.172 1.562,-1.562 1.562,-4.095 0,-5.656 l -7.126,-7.125 24.97,-24.971 7.125,7.125 c 0.781,0.781 1.805,1.172 2.829,1.172 1.023,0 2.047,-0.391 2.828,-1.172 1.563,-1.562 1.563,-4.095 0,-5.656 l -7.125,-7.126 15.165,-15.165 c 1.556,-1.559 1.556,-4.092 -0.006,-5.654 z m -181.205,-70.571 -18.01,-18.01 47.138,-47.139 c 5.051,-5.05 7.832,-11.765 7.832,-18.907 0,-7.142 -2.781,-13.857 -7.832,-18.907 -5.05,-5.051 -11.765,-7.833 -18.908,-7.833 -7.142,0 -13.857,2.782 -18.908,7.833 l -47.138,47.138 -18.01,-18.01 77.802,-77.802 73.835,73.835 z m -49.972,-50.366 46.941,-46.94 c 3.54,-3.539 8.245,-5.489 13.25,-5.489 5.005,0 9.711,1.95 13.251,5.489 3.539,3.54 5.488,8.245 5.488,13.251 0,5.006 -1.949,9.711 -5.489,13.251 l -46.94,46.94 z m 139.259,-38.921 -5.829,5.829 -73.835,-73.835 5.829,-5.829 z m 10.333,-60.504 -7.496,52.027 -68.196,-68.195 52.027,-7.496 z M 34.627,95.583 9.657,70.613 70.614,9.657 l 24.97,24.97 z m 23.65,-12.336 24.97,-24.97 3.531,3.531 -24.97,24.97 z m 16.165,52.151 -24.97,-24.97 60.957,-60.957 24.97,24.971 z m 23.65,-12.335 24.971,-24.97 3.531,3.531 -24.971,24.971 z m 16.165,52.151 -24.97,-24.97 60.957,-60.957 24.97,24.97 z m 23.65,-12.336 24.97,-24.97 7.146,7.146 -24.97,24.97 z m 33.535,115.841 -49.935,-49.935 27.323,-7.684 30.301,30.301 z m 35.11,-11.21 -73.836,-73.836 5.64,-5.64 73.836,73.836 z m 23.651,-12.337 24.97,-24.97 7.145,7.146 -24.97,24.97 z m 19.778,55.766 -24.97,-24.97 60.957,-60.957 24.97,24.971 z m 23.65,-12.336 24.971,-24.971 3.531,3.531 -24.971,24.971 z m 16.165,52.151 -24.97,-24.97 60.957,-60.957 24.971,24.97 z m 23.65,-12.336 24.971,-24.971 3.532,3.531 -24.971,24.971 z m 16.166,52.151 -24.97,-24.97 60.957,-60.957 24.97,24.97 z"
     id="path15780" /><g
     style="fill:url(#linearGradient15847);fill-opacity:1"
     id="g15782">
	</g><g
     style="fill:url(#linearGradient15849);fill-opacity:1"
     id="g15784">
	</g><g
     style="fill:url(#linearGradient15851);fill-opacity:1"
     id="g15786">
	</g><g
     style="fill:url(#linearGradient15853);fill-opacity:1"
     id="g15788">
	</g><g
     style="fill:url(#linearGradient15855);fill-opacity:1"
     id="g15790">
	</g><g
     style="fill:url(#linearGradient15857);fill-opacity:1"
     id="g15792">
	</g><g
     style="fill:url(#linearGradient15859);fill-opacity:1"
     id="g15794">
	</g><g
     style="fill:url(#linearGradient15861);fill-opacity:1"
     id="g15796">
	</g><g
     style="fill:url(#linearGradient15863);fill-opacity:1"
     id="g15798">
	</g><g
     style="fill:url(#linearGradient15865);fill-opacity:1"
     id="g15800">
	</g><g
     style="fill:url(#linearGradient15867);fill-opacity:1"
     id="g15802">
	</g><g
     style="fill:url(#linearGradient15869);fill-opacity:1"
     id="g15804">
	</g><g
     style="fill:url(#linearGradient15871);fill-opacity:1"
     id="g15806">
	</g><g
     style="fill:url(#linearGradient15873);fill-opacity:1"
     id="g15808">
	</g><g
     style="fill:url(#linearGradient15875);fill-opacity:1"
     id="g15810">
	</g></g><g
   style="fill-opacity:1.0;fill:url(#linearGradient16113)"
   transform="matrix(0.83648256,0,0,0.8506137,5.0146304,6.1977466)"
   id="g16105"><g
     style="fill-opacity:1.0;fill:url(#linearGradient16113)"
     id="g16048">
		<path
   style="fill:url(#linearGradient16113);fill-opacity:1.0"
   d="m 210.891,386.4 c 10.216,0 18.528,-8.312 18.528,-18.528 0,-10.216 -8.312,-18.528 -18.528,-18.528 -10.216,0 -18.528,8.312 -18.528,18.528 0,10.216 8.311,18.528 18.528,18.528 z m 0,-29.056 c 5.805,0 10.528,4.723 10.528,10.528 0,5.805 -4.723,10.528 -10.528,10.528 -5.805,0 -10.528,-4.723 -10.528,-10.528 0,-5.805 4.722,-10.528 10.528,-10.528 z"
   id="path16044" />
		<path
   style="fill:url(#linearGradient16113);fill-opacity:1.0"
   d="M 259.493,20.298 C 246.541,7.234 229.321,0.031 210.997,0.003 c -0.007,0 -0.013,0 -0.02,0 -0.029,0 -0.058,-0.002 -0.087,-0.002 -0.052,0 -0.103,0.004 -0.155,0.004 -0.025,0.001 -0.05,0.001 -0.075,0.002 -37.781,0.126 -68.481,31.155 -68.481,69.283 v 33.907 c 0,0.056 64.879,217.396 64.879,217.396 0.002,0.007 0.004,0.014 0.006,0.02 0.26,0.852 -0.319,1.722 -1.21,1.722 h -23.186 c -6.925,0 -12.953,4.735 -14.593,11.463 l -14.665,60.163 c -1.174,4.814 0.825,9.864 4.977,12.567 0.557,0.361 1.063,0.685 1.449,0.92 15.383,9.378 33.036,14.334 51.05,14.334 18.558,0 36.66,-5.235 52.295,-15.107 0.034,-0.021 0.068,-0.041 0.102,-0.063 4.229,-2.682 6.272,-7.76 5.083,-12.636 l -14.669,-60.179 c -1.64,-6.728 -7.667,-11.462 -14.592,-11.462 h -23.183 c -0.891,0 -1.47,-0.87 -1.21,-1.722 0.002,-0.007 0.004,-0.014 0.006,-0.02 0,0 64.879,-217.339 64.879,-217.396 V 69.289 c 0.005,-18.512 -7.137,-35.91 -20.104,-48.991 z m 0.424,372.783 h -11.52 l -6.623,-47.884 h 6.471 z m -26.224,-47.884 6.623,47.884 h -58.849 l 6.623,-47.884 z m -60.307,47.884 h -11.525 l 11.672,-47.884 h 6.476 z m -8.592,8 h 92.188 c -13.943,8.31 -29.826,12.7 -46.093,12.7 -16.239,0 -32.154,-4.395 -46.095,-12.7 z m 81.134,-65.39 0.367,1.506 h -70.813 l 0.367,-1.506 c 0.769,-3.154 3.573,-5.357 6.819,-5.357 h 56.44 c 3.247,0 6.052,2.203 6.82,5.357 z M 271.602,69.289 v 20.833 c -6.134,-4.291 -15.331,-7.571 -25.945,-9.786 v -20.88 c 0,-19.17 -7.735,-37.001 -21.195,-49.91 11.029,2.529 21.157,8.122 29.35,16.385 11.472,11.572 17.79,26.97 17.79,43.358 z M 210.841,8.778 c 16.836,11.437 26.815,30.194 26.815,50.677 v 19.449 c -8.581,-1.295 -17.748,-1.961 -26.766,-1.961 -9.053,0 -18.255,0.671 -26.865,1.975 V 59.455 c 0.001,-20.483 9.98,-39.24 26.816,-50.677 z m 60.06,96.175 c -2.766,4.768 -13.744,10.119 -31.008,13.093 l 3.844,-30.073 c 17.708,3.608 27.822,9.759 27.862,14.647 z m -60.01,15.404 c -7.539,0 -14.484,-0.42 -20.787,-1.142 l -4.167,-32.599 c 7.36,-1.048 15.716,-1.673 24.954,-1.673 9.238,0 17.595,0.625 24.954,1.673 l -4.167,32.599 c -6.304,0.723 -13.248,1.142 -20.787,1.142 z m 19.753,6.944 -19.754,154.534 -19.754,-154.534 c 6.473,0.697 13.153,1.057 19.754,1.057 6.601,0 13.281,-0.36 19.754,-1.057 z m -52.599,-39.327 3.844,30.073 c -17.264,-2.974 -28.242,-8.325 -31.008,-13.093 l -0.698,-2.333 c 0.04,-4.888 10.154,-11.039 27.862,-14.647 z m 4.888,38.243 19.157,149.867 -47.329,-158.163 c 7.31,3.772 17.221,6.558 28.172,8.296 z m 55.915,0 c 10.951,-1.738 20.862,-4.524 28.172,-8.296 L 219.691,276.084 Z M 197.165,9.599 C 183.74,22.503 176.026,40.311 176.026,59.455 v 20.901 c -10.572,2.215 -19.731,5.488 -25.846,9.766 V 69.289 c 0,-29.029 20.101,-53.391 46.985,-59.69 z"
   id="path16046" />
	</g><g
     style="fill-opacity:1.0;fill:url(#linearGradient16113)"
     id="g16050">
	</g><g
     style="fill-opacity:1.0;fill:url(#linearGradient16113)"
     id="g16052">
	</g><g
     style="fill-opacity:1.0;fill:url(#linearGradient16113)"
     id="g16054">
	</g><g
     style="fill-opacity:1.0;fill:url(#linearGradient16113)"
     id="g16056">
	</g><g
     style="fill-opacity:1.0;fill:url(#linearGradient16113)"
     id="g16058">
	</g><g
     style="fill-opacity:1.0;fill:url(#linearGradient16113)"
     id="g16060">
	</g><g
     style="fill-opacity:1.0;fill:url(#linearGradient16113)"
     id="g16062">
	</g><g
     style="fill-opacity:1.0;fill:url(#linearGradient16113)"
     id="g16064">
	</g><g
     style="fill-opacity:1.0;fill:url(#linearGradient16113)"
     id="g16066">
	</g><g
     style="fill-opacity:1.0;fill:url(#linearGradient16113)"
     id="g16068">
	</g><g
     style="fill-opacity:1.0;fill:url(#linearGradient16113)"
     id="g16070">
	</g><g
     style="fill-opacity:1.0;fill:url(#linearGradient16113)"
     id="g16072">
	</g><g
     style="fill-opacity:1.0;fill:url(#linearGradient16113)"
     id="g16074">
	</g><g
     style="fill-opacity:1.0;fill:url(#linearGradient16113)"
     id="g16076">
	</g><g
     style="fill-opacity:1.0;fill:url(#linearGradient16113)"
     id="g16078">
	</g></g></svg>