<?xml version="1.0" encoding="UTF-8" standalone="no"?>
<svg
   xmlns:dc="http://purl.org/dc/elements/1.1/"
   xmlns:cc="http://creativecommons.org/ns#"
   xmlns:rdf="http://www.w3.org/1999/02/22-rdf-syntax-ns#"
   xmlns:svg="http://www.w3.org/2000/svg"
   xmlns="http://www.w3.org/2000/svg"
   xmlns:xlink="http://www.w3.org/1999/xlink"
   xml:space="preserve"
   style="enable-background:new 0 0 368.258 368.258;"
   viewBox="0 0 368.258 368.258"
   y="0px"
   x="0px"
   id="Capa_1"
   version="1.1"><metadata
   id="metadata4962"><rdf:RDF><cc:Work
       rdf:about=""><dc:format>image/svg+xml</dc:format><dc:type
         rdf:resource="http://purl.org/dc/dcmitype/StillImage" /><dc:title></dc:title></cc:Work></rdf:RDF></metadata><defs
   id="defs4960"><linearGradient
     id="lapkin"><stop
       id="stop4972"
       offset="0"
       style="stop-color:#2351ee;stop-opacity:1" /><stop
       id="stop4974"
       offset="1"
       style="stop-color:#00ff00;stop-opacity:1" /></linearGradient><linearGradient
     gradientUnits="userSpaceOnUse"
     y2="200.6465"
     x2="401.29599"
     y1="200.6465"
     x1="0"
     id="linearGradient15575"
     xlink:href="#lapkin" /><linearGradient
     y2="200.6465"
     x2="401.29599"
     y1="200.6465"
     x1="0"
     gradientUnits="userSpaceOnUse"
     id="linearGradient15577"
     xlink:href="#lapkin" /><linearGradient
     y2="200.6465"
     x2="401.29599"
     y1="200.6465"
     x1="0"
     gradientUnits="userSpaceOnUse"
     id="linearGradient15579"
     xlink:href="#lapkin" /><linearGradient
     y2="200.6465"
     x2="401.29599"
     y1="200.6465"
     x1="0"
     gradientUnits="userSpaceOnUse"
     id="linearGradient15581"
     xlink:href="#lapkin" /><linearGradient
     y2="200.6465"
     x2="401.29599"
     y1="200.6465"
     x1="0"
     gradientUnits="userSpaceOnUse"
     id="linearGradient15583"
     xlink:href="#lapkin" /><linearGradient
     y2="200.6465"
     x2="401.29599"
     y1="200.6465"
     x1="0"
     gradientUnits="userSpaceOnUse"
     id="linearGradient15585"
     xlink:href="#lapkin" /><linearGradient
     y2="200.6465"
     x2="401.29599"
     y1="200.6465"
     x1="0"
     gradientUnits="userSpaceOnUse"
     id="linearGradient15587"
     xlink:href="#lapkin" /><linearGradient
     y2="200.6465"
     x2="401.29599"
     y1="200.6465"
     x1="0"
     gradientUnits="userSpaceOnUse"
     id="linearGradient15589"
     xlink:href="#lapkin" /><linearGradient
     y2="200.6465"
     x2="401.29599"
     y1="200.6465"
     x1="0"
     gradientUnits="userSpaceOnUse"
     id="linearGradient15591"
     xlink:href="#lapkin" /><linearGradient
     y2="200.6465"
     x2="401.29599"
     y1="200.6465"
     x1="0"
     gradientUnits="userSpaceOnUse"
     id="linearGradient15593"
     xlink:href="#lapkin" /><linearGradient
     y2="200.6465"
     x2="401.29599"
     y1="200.6465"
     x1="0"
     gradientUnits="userSpaceOnUse"
     id="linearGradient15595"
     xlink:href="#lapkin" /><linearGradient
     y2="200.6465"
     x2="401.29599"
     y1="200.6465"
     x1="0"
     gradientUnits="userSpaceOnUse"
     id="linearGradient15597"
     xlink:href="#lapkin" /><linearGradient
     y2="200.6465"
     x2="401.29599"
     y1="200.6465"
     x1="0"
     gradientUnits="userSpaceOnUse"
     id="linearGradient15599"
     xlink:href="#lapkin" /><linearGradient
     y2="200.6465"
     x2="401.29599"
     y1="200.6465"
     x1="0"
     gradientUnits="userSpaceOnUse"
     id="linearGradient15601"
     xlink:href="#lapkin" /><linearGradient
     y2="200.6465"
     x2="401.29599"
     y1="200.6465"
     x1="0"
     gradientUnits="userSpaceOnUse"
     id="linearGradient15603"
     xlink:href="#lapkin" /><linearGradient
     y2="200.6465"
     x2="401.29599"
     y1="200.6465"
     x1="0"
     gradientUnits="userSpaceOnUse"
     id="linearGradient15605"
     xlink:href="#lapkin" /><linearGradient
     y2="200.6465"
     x2="401.29599"
     y1="200.6465"
     x1="0"
     gradientUnits="userSpaceOnUse"
     id="linearGradient15607"
     xlink:href="#lapkin" /><linearGradient
     y2="200.6465"
     x2="401.29599"
     y1="200.6465"
     x1="0"
     gradientUnits="userSpaceOnUse"
     id="linearGradient15609"
     xlink:href="#lapkin" /><linearGradient
     y2="200.6465"
     x2="401.29599"
     y1="200.6465"
     x1="0"
     gradientUnits="userSpaceOnUse"
     id="linearGradient15611"
     xlink:href="#lapkin" /><linearGradient
     gradientUnits="userSpaceOnUse"
     y2="200.11137"
     x2="400.22626"
     y1="200.11137"
     x1="0"
     id="linearGradient15843"
     xlink:href="#lapkin" /><linearGradient
     y2="200.11137"
     x2="400.22626"
     y1="200.11137"
     x1="0"
     gradientUnits="userSpaceOnUse"
     id="linearGradient15845"
     xlink:href="#lapkin" /><linearGradient
     y2="200.11137"
     x2="400.22626"
     y1="200.11137"
     x1="0"
     gradientUnits="userSpaceOnUse"
     id="linearGradient15847"
     xlink:href="#lapkin" /><linearGradient
     y2="200.11137"
     x2="400.22626"
     y1="200.11137"
     x1="0"
     gradientUnits="userSpaceOnUse"
     id="linearGradient15849"
     xlink:href="#lapkin" /><linearGradient
     y2="200.11137"
     x2="400.22626"
     y1="200.11137"
     x1="0"
     gradientUnits="userSpaceOnUse"
     id="linearGradient15851"
     xlink:href="#lapkin" /><linearGradient
     y2="200.11137"
     x2="400.22626"
     y1="200.11137"
     x1="0"
     gradientUnits="userSpaceOnUse"
     id="linearGradient15853"
     xlink:href="#lapkin" /><linearGradient
     y2="200.11137"
     x2="400.22626"
     y1="200.11137"
     x1="0"
     gradientUnits="userSpaceOnUse"
     id="linearGradient15855"
     xlink:href="#lapkin" /><linearGradient
     y2="200.11137"
     x2="400.22626"
     y1="200.11137"
     x1="0"
     gradientUnits="userSpaceOnUse"
     id="linearGradient15857"
     xlink:href="#lapkin" /><linearGradient
     y2="200.11137"
     x2="400.22626"
     y1="200.11137"
     x1="0"
     gradientUnits="userSpaceOnUse"
     id="linearGradient15859"
     xlink:href="#lapkin" /><linearGradient
     y2="200.11137"
     x2="400.22626"
     y1="200.11137"
     x1="0"
     gradientUnits="userSpaceOnUse"
     id="linearGradient15861"
     xlink:href="#lapkin" /><linearGradient
     y2="200.11137"
     x2="400.22626"
     y1="200.11137"
     x1="0"
     gradientUnits="userSpaceOnUse"
     id="linearGradient15863"
     xlink:href="#lapkin" /><linearGradient
     y2="200.11137"
     x2="400.22626"
     y1="200.11137"
     x1="0"
     gradientUnits="userSpaceOnUse"
     id="linearGradient15865"
     xlink:href="#lapkin" /><linearGradient
     y2="200.11137"
     x2="400.22626"
     y1="200.11137"
     x1="0"
     gradientUnits="userSpaceOnUse"
     id="linearGradient15867"
     xlink:href="#lapkin" /><linearGradient
     y2="200.11137"
     x2="400.22626"
     y1="200.11137"
     x1="0"
     gradientUnits="userSpaceOnUse"
     id="linearGradient15869"
     xlink:href="#lapkin" /><linearGradient
     y2="200.11137"
     x2="400.22626"
     y1="200.11137"
     x1="0"
     gradientUnits="userSpaceOnUse"
     id="linearGradient15871"
     xlink:href="#lapkin" /><linearGradient
     y2="200.11137"
     x2="400.22626"
     y1="200.11137"
     x1="0"
     gradientUnits="userSpaceOnUse"
     id="linearGradient15873"
     xlink:href="#lapkin" /><linearGradient
     y2="200.11137"
     x2="400.22626"
     y1="200.11137"
     x1="0"
     gradientUnits="userSpaceOnUse"
     id="linearGradient15875"
     xlink:href="#lapkin" /></defs>
	
	<g
   id="g4927">
	</g>
	<g
   id="g4929">
	</g>
	<g
   id="g4931">
	</g>
	<g
   id="g4933">
	</g>
	<g
   id="g4935">
	</g>
	<g
   id="g4937">
	</g>
	<g
   id="g4939">
	</g>
	<g
   id="g4941">
	</g>
	<g
   id="g4943">
	</g>
	<g
   id="g4945">
	</g>
	<g
   id="g4947">
	</g>
	<g
   id="g4949">
	</g>
	<g
   id="g4951">
	</g>
	<g
   id="g4953">
	</g>
	<g
   id="g4955">
	</g>
<g
   style="fill:url(#linearGradient15575);fill-opacity:1"
   transform="matrix(0.88754543,0,0,0.88754543,-517.80324,-32.218958)"
   id="g15567"><g
     style="fill:url(#linearGradient15581);fill-opacity:1"
     id="g15510">
		<path
   style="fill:url(#linearGradient15577);fill-opacity:1"
   d="m 115.342,188.015 c -7.025,0 -12.741,5.716 -12.741,12.741 0,7.025 5.716,12.741 12.741,12.741 7.026,0 12.742,-5.716 12.742,-12.741 0,-7.025 -5.716,-12.741 -12.742,-12.741 z m 0,17.482 c -2.614,0 -4.741,-2.127 -4.741,-4.741 0,-2.614 2.127,-4.741 4.741,-4.741 2.615,0 4.742,2.127 4.742,4.741 0,2.614 -2.127,4.741 -4.742,4.741 z"
   id="path15506" />
		<path
   style="fill:url(#linearGradient15579);fill-opacity:1"
   d="m 397.294,164.141 c 2.209,0 4,-1.791 4,-4 V 89.215 c 0,-2.209 -1.791,-4 -4,-4 h -33.219 c -2.209,0 -4,1.791 -4,4 v 70.926 c 0,2.209 1.791,4 4,4 h 12.61 v 8.999 H 340.48 c -6.008,-4.585 -13.401,-7.094 -20.986,-7.094 -17.762,0 -32.434,13.455 -34.376,30.706 h -3.421 v -9.79 c 0,-2.209 -1.791,-4 -4,-4 h -28.993 l -6.173,-11.125 c -0.705,-1.271 -2.044,-2.059 -3.498,-2.059 H 199.52 v -6.524 h 16.196 c 2.209,0 4,-1.791 4,-4 V 73.281 c 0,-2.209 -1.791,-4 -4,-4 H 175.45 c -2.209,0 -4,1.791 -4,4 v 85.972 c 0,2.209 1.791,4 4,4 h 16.069 v 6.524 h -38.468 c -2.209,0 -4,1.791 -4,4 v 22.974 h -4.52 c -1.97,-15.047 -14.865,-26.705 -30.44,-26.705 -10.313,0 -19.703,5.125 -25.326,13.331 -5.623,-8.206 -15.012,-13.331 -25.326,-13.331 H 44.653 v -5.905 h 6.324 c 2.209,0 4,-1.791 4,-4 V 89.215 c 0,-2.209 -1.791,-4 -4,-4 H 17.758 c -2.209,0 -4,1.791 -4,4 v 70.926 c 0,2.209 1.791,4 4,4 h 6.325 v 5.905 H 4 c -2.209,0 -4,1.791 -4,4 v 53.419 c 0,2.209 1.791,4 4,4 h 20.083 v 5.905 h -6.325 c -2.209,0 -4,1.791 -4,4 v 70.927 c 0,2.209 1.791,4 4,4 h 33.219 c 2.209,0 4,-1.791 4,-4 V 241.37 c 0,-2.209 -1.791,-4 -4,-4 h -6.325 v -5.905 h 18.789 c 10.313,0 19.703,-5.125 25.326,-13.331 5.624,8.205 15.013,13.331 25.326,13.331 15.578,0 28.476,-11.663 30.441,-26.714 h 4.518 v 22.765 c 0,2.209 1.791,4 4,4 h 38.468 v 6.524 h -16.069 c -2.209,0 -4,1.791 -4,4 v 85.972 c 0,2.209 1.791,4 4,4 h 40.266 c 2.209,0 4,-1.791 4,-4 V 242.04 c 0,-2.209 -1.791,-4 -4,-4 h -16.196 v -6.524 h 39.513 c 1.454,0 2.792,-0.789 3.498,-2.059 l 6.173,-11.125 h 28.993 c 2.209,0 4,-1.791 4,-4 v -9.581 h 3.447 c 2.037,17.151 16.66,30.497 34.35,30.497 7.581,0 14.972,-2.507 20.978,-7.087 h 36.214 v 9.209 h -12.61 c -2.209,0 -4,1.791 -4,4 v 70.927 c 0,2.209 1.791,4 4,4 h 33.219 c 2.209,0 4,-1.791 4,-4 V 241.37 c 0,-2.209 -1.791,-4 -4,-4 h -12.609 v -9.209 h 12.435 c 2.209,0 4,-1.791 4,-4 V 177.14 c 0,-2.209 -1.791,-4 -4,-4 h -12.435 v -8.999 z m -197.773,-8.888 v -13.221 h 12.196 v 13.221 z m -8,-42.986 H 179.452 V 98.502 h 12.069 z m 8,-13.765 h 12.196 v 13.765 h -12.196 z m -8,21.765 v 13.765 h -12.069 v -13.765 z m 8,0 h 12.196 v 13.765 H 199.521 Z M 211.717,90.502 H 199.521 V 77.281 h 12.196 z M 191.521,77.281 V 90.502 H 179.452 V 77.281 Z m -12.07,77.972 v -13.221 h 12.069 v 13.221 z M 24.689,223.466 v -45.419 h 22.038 v 45.419 z m 30.038,-45.42 h 6.641 v 45.419 h -6.641 z m -7.75,-49.368 v 9.956 H 21.758 v -9.956 z m -25.219,-8 v -9.957 h 25.219 v 9.957 z M 46.977,93.215 v 9.507 H 21.758 v -9.507 z m -25.219,53.419 h 25.219 v 9.507 H 21.758 Z m 10.325,17.507 h 4.569 v 5.905 H 32.083 Z M 8,178.046 h 8.689 v 45.419 H 8 Z m 13.758,94.788 v -9.956 h 25.219 v 9.956 z m 25.219,8 v 9.956 H 21.758 v -9.956 z m -25.219,27.464 v -9.507 h 25.219 v 9.507 z m 25.219,-53.42 H 21.758 v -9.507 H 46.977 Z M 36.652,237.371 h -4.569 v -5.905 h 4.569 z m 32.716,-14.704 v -43.822 c 6.952,1.876 12.703,6.983 15.31,13.918 v 15.987 c -2.607,6.934 -8.358,12.041 -15.31,13.917 z m 44.725,0.799 c -9.664,0 -18.222,-6.091 -21.415,-15.184 v -15.05 c 3.193,-9.094 11.751,-15.185 21.415,-15.185 12.522,0 22.709,10.188 22.709,22.71 0,12.521 -10.187,22.709 -22.709,22.709 z m 77.428,22.574 v 13.221 H 179.452 V 246.04 Z m 8,42.987 h 12.196 v 13.765 h -12.196 z m -8,13.765 h -12.069 v -13.765 h 12.069 z m 8,-21.765 v -13.765 h 12.196 v 13.765 z m -8,0 h -12.069 v -13.765 h 12.069 z m -12.07,29.765 h 12.069 v 13.221 h -12.069 z m 20.07,13.22 v -13.221 h 12.196 v 13.221 z m 12.196,-77.972 v 13.221 H 199.521 V 246.04 Z m -54.665,-68.262 h 11.046 v 45.739 h -11.046 z m 79.626,45.738 h -60.58 v -45.739 h 60.58 l 5.311,9.571 v 26.596 z m 37.018,-13.184 h -23.707 v -19.371 h 23.707 z m 94.379,62.502 v -9.956 h 25.219 v 9.956 z m 25.219,8 v 9.956 h -25.219 v -9.956 z m -25.219,27.464 v -9.507 h 25.219 v 9.507 z m 25.219,-53.42 h -25.219 v -9.507 h 25.219 z M 292.892,200.647 c 0,-8.817 4.315,-16.641 10.94,-21.484 v 42.968 c -6.625,-4.843 -10.94,-12.668 -10.94,-21.484 z m 26.601,26.601 c -2.663,0 -5.234,-0.398 -7.661,-1.129 v -50.944 c 2.428,-0.731 4.998,-1.129 7.661,-1.129 6.217,0 12.267,2.193 17.036,6.175 0.248,0.208 0.521,0.368 0.803,0.506 v 39.849 c -0.29,0.141 -0.57,0.304 -0.821,0.513 -4.764,3.972 -10.808,6.159 -17.018,6.159 z m 73.626,-7.087 H 345.332 V 181.14 h 47.787 z m 0.175,-91.483 v 9.956 h -25.219 v -9.956 z m -25.219,-8 v -9.957 h 25.219 v 9.957 z m 25.219,-27.463 v 9.507 h -25.219 v -9.507 z m -25.219,53.419 h 25.219 v 9.507 h -25.219 z"
   id="path15508" />
	</g><g
     style="fill:url(#linearGradient15583);fill-opacity:1"
     id="g15512">
	</g><g
     style="fill:url(#linearGradient15585);fill-opacity:1"
     id="g15514">
	</g><g
     style="fill:url(#linearGradient15587);fill-opacity:1"
     id="g15516">
	</g><g
     style="fill:url(#linearGradient15589);fill-opacity:1"
     id="g15518">
	</g><g
     style="fill:url(#linearGradient15591);fill-opacity:1"
     id="g15520">
	</g><g
     style="fill:url(#linearGradient15593);fill-opacity:1"
     id="g15522">
	</g><g
     style="fill:url(#linearGradient15595);fill-opacity:1"
     id="g15524">
	</g><g
     style="fill:url(#linearGradient15597);fill-opacity:1"
     id="g15526">
	</g><g
     style="fill:url(#linearGradient15599);fill-opacity:1"
     id="g15528">
	</g><g
     style="fill:url(#linearGradient15601);fill-opacity:1"
     id="g15530">
	</g><g
     style="fill:url(#linearGradient15603);fill-opacity:1"
     id="g15532">
	</g><g
     style="fill:url(#linearGradient15605);fill-opacity:1"
     id="g15534">
	</g><g
     style="fill:url(#linearGradient15607);fill-opacity:1"
     id="g15536">
	</g><g
     style="fill:url(#linearGradient15609);fill-opacity:1"
     id="g15538">
	</g><g
     style="fill:url(#linearGradient15611);fill-opacity:1"
     id="g15540">
	</g></g><g
   style="fill:url(#linearGradient15843);fill-opacity:1"
   transform="matrix(0.90000967,0,0,0.90000967,4.6787854,4.2057429)"
   id="g15835"><path
     style="fill:url(#linearGradient15845);fill-opacity:1"
     d="m 399.054,326.783 -30.627,-30.627 c -0.75,-0.75 -1.768,-1.172 -2.829,-1.172 -1.061,0 -2.078,0.422 -2.829,1.172 l -15.165,15.165 -3.532,-3.531 15.166,-15.166 c 0.75,-0.75 1.171,-1.768 1.171,-2.828 0,-1.06 -0.421,-2.078 -1.171,-2.828 l -30.627,-30.627 c -1.562,-1.562 -4.094,-1.562 -5.657,0 l -15.165,15.165 -3.531,-3.531 15.165,-15.165 c 1.562,-1.562 1.562,-4.095 0,-5.656 l -30.627,-30.628 c -0.75,-0.75 -1.768,-1.172 -2.829,-1.172 -1.061,0 -2.078,0.422 -2.829,1.172 l -15.165,15.165 -7.145,-7.146 54.792,-54.792 c 0.611,-0.61 1.007,-1.402 1.13,-2.258 l 8.921,-61.916 c 0.18,-1.248 -0.239,-2.507 -1.13,-3.398 L 298.043,75.684 c -0.892,-0.892 -2.149,-1.31 -3.399,-1.131 l -61.916,8.921 c -0.855,0.123 -1.647,0.52 -2.258,1.131 l -54.792,54.792 -7.146,-7.146 15.165,-15.166 c 1.562,-1.562 1.562,-4.095 0,-5.656 L 153.07,80.802 c -0.75,-0.75 -1.768,-1.172 -2.829,-1.172 -1.061,0 -2.078,0.422 -2.829,1.172 l -15.165,15.165 -3.531,-3.531 15.165,-15.165 c 1.562,-1.562 1.562,-4.095 0,-5.656 L 113.254,40.987 c -0.75,-0.75 -1.768,-1.172 -2.829,-1.172 -1.061,0 -2.078,0.422 -2.829,1.172 L 92.435,56.152 88.904,52.621 104.069,37.456 c 0.75,-0.75 1.171,-1.768 1.171,-2.828 0,-1.06 -0.421,-2.078 -1.171,-2.828 L 73.442,1.172 c -1.563,-1.563 -4.095,-1.563 -5.657,0 L 52.621,16.336 45.496,9.211 c -1.563,-1.563 -4.095,-1.563 -5.657,0 -1.562,1.562 -1.562,4.095 0,5.656 l 7.126,7.126 -24.97,24.97 -7.125,-7.125 c -1.563,-1.563 -4.095,-1.563 -5.657,0 -1.562,1.562 -1.562,4.095 0,5.656 L 16.339,52.62 1.171,67.785 C 0.421,68.535 0,69.553 0,70.613 c 0,1.06 0.421,2.078 1.171,2.828 l 30.627,30.627 c 0.781,0.781 1.805,1.172 2.829,1.172 1.023,0 2.047,-0.391 2.829,-1.172 l 15.164,-15.164 3.531,3.532 -15.165,15.165 c -1.562,1.562 -1.562,4.095 0,5.656 l 30.627,30.627 c 0.781,0.781 1.805,1.172 2.829,1.172 1.023,0 2.047,-0.391 2.829,-1.172 l 15.165,-15.165 3.531,3.532 -15.165,15.165 c -1.562,1.562 -1.562,4.095 0,5.656 l 30.627,30.627 c 0.75,0.75 1.768,1.172 2.829,1.172 1.061,0 2.078,-0.422 2.829,-1.172 l 15.165,-15.165 7.145,7.145 -15.165,15.165 c -1.562,1.562 -1.562,4.095 0,5.656 l 18.113,18.113 -29.578,8.318 c -1.367,0.385 -2.428,1.465 -2.787,2.839 -0.359,1.374 0.038,2.836 1.042,3.84 l 59.593,59.593 c 0.76,0.76 1.781,1.172 2.829,1.172 0.337,0 0.677,-0.043 1.011,-0.13 1.374,-0.358 2.455,-1.419 2.839,-2.786 l 8.325,-29.573 18.107,18.107 c 0.75,0.75 1.768,1.172 2.829,1.172 1.061,0 2.078,-0.422 2.829,-1.172 l 15.165,-15.165 7.145,7.146 -15.165,15.165 c -1.562,1.562 -1.562,4.095 0,5.656 l 30.627,30.627 c 0.781,0.781 1.805,1.172 2.829,1.172 1.023,0 2.047,-0.391 2.829,-1.172 l 15.165,-15.165 3.531,3.531 -15.165,15.165 c -1.562,1.562 -1.562,4.095 0,5.656 l 30.627,30.627 c 0.781,0.781 1.805,1.172 2.829,1.172 1.024,0 2.047,-0.391 2.829,-1.172 l 15.165,-15.165 3.532,3.531 -15.166,15.166 c -1.562,1.562 -1.562,4.095 0,5.656 l 30.627,30.627 c 0.75,0.75 1.768,1.172 2.829,1.172 1.061,0 2.078,-0.422 2.829,-1.172 l 15.165,-15.165 7.125,7.125 c 0.781,0.781 1.805,1.172 2.829,1.172 1.024,0 2.047,-0.391 2.829,-1.172 1.562,-1.562 1.562,-4.095 0,-5.656 l -7.126,-7.125 24.97,-24.971 7.125,7.125 c 0.781,0.781 1.805,1.172 2.829,1.172 1.023,0 2.047,-0.391 2.828,-1.172 1.563,-1.562 1.563,-4.095 0,-5.656 l -7.125,-7.126 15.165,-15.165 c 1.556,-1.559 1.556,-4.092 -0.006,-5.654 z m -181.205,-70.571 -18.01,-18.01 47.138,-47.139 c 5.051,-5.05 7.832,-11.765 7.832,-18.907 0,-7.142 -2.781,-13.857 -7.832,-18.907 -5.05,-5.051 -11.765,-7.833 -18.908,-7.833 -7.142,0 -13.857,2.782 -18.908,7.833 l -47.138,47.138 -18.01,-18.01 77.802,-77.802 73.835,73.835 z m -49.972,-50.366 46.941,-46.94 c 3.54,-3.539 8.245,-5.489 13.25,-5.489 5.005,0 9.711,1.95 13.251,5.489 3.539,3.54 5.488,8.245 5.488,13.251 0,5.006 -1.949,9.711 -5.489,13.251 l -46.94,46.94 z m 139.259,-38.921 -5.829,5.829 -73.835,-73.835 5.829,-5.829 z m 10.333,-60.504 -7.496,52.027 -68.196,-68.195 52.027,-7.496 z M 34.627,95.583 9.657,70.613 70.614,9.657 l 24.97,24.97 z m 23.65,-12.336 24.97,-24.97 3.531,3.531 -24.97,24.97 z m 16.165,52.151 -24.97,-24.97 60.957,-60.957 24.97,24.971 z m 23.65,-12.335 24.971,-24.97 3.531,3.531 -24.971,24.971 z m 16.165,52.151 -24.97,-24.97 60.957,-60.957 24.97,24.97 z m 23.65,-12.336 24.97,-24.97 7.146,7.146 -24.97,24.97 z m 33.535,115.841 -49.935,-49.935 27.323,-7.684 30.301,30.301 z m 35.11,-11.21 -73.836,-73.836 5.64,-5.64 73.836,73.836 z m 23.651,-12.337 24.97,-24.97 7.145,7.146 -24.97,24.97 z m 19.778,55.766 -24.97,-24.97 60.957,-60.957 24.97,24.971 z m 23.65,-12.336 24.971,-24.971 3.531,3.531 -24.971,24.971 z m 16.165,52.151 -24.97,-24.97 60.957,-60.957 24.971,24.97 z m 23.65,-12.336 24.971,-24.971 3.532,3.531 -24.971,24.971 z m 16.166,52.151 -24.97,-24.97 60.957,-60.957 24.97,24.97 z"
     id="path15780" /><g
     style="fill:url(#linearGradient15847);fill-opacity:1"
     id="g15782">
	</g><g
     style="fill:url(#linearGradient15849);fill-opacity:1"
     id="g15784">
	</g><g
     style="fill:url(#linearGradient15851);fill-opacity:1"
     id="g15786">
	</g><g
     style="fill:url(#linearGradient15853);fill-opacity:1"
     id="g15788">
	</g><g
     style="fill:url(#linearGradient15855);fill-opacity:1"
     id="g15790">
	</g><g
     style="fill:url(#linearGradient15857);fill-opacity:1"
     id="g15792">
	</g><g
     style="fill:url(#linearGradient15859);fill-opacity:1"
     id="g15794">
	</g><g
     style="fill:url(#linearGradient15861);fill-opacity:1"
     id="g15796">
	</g><g
     style="fill:url(#linearGradient15863);fill-opacity:1"
     id="g15798">
	</g><g
     style="fill:url(#linearGradient15865);fill-opacity:1"
     id="g15800">
	</g><g
     style="fill:url(#linearGradient15867);fill-opacity:1"
     id="g15802">
	</g><g
     style="fill:url(#linearGradient15869);fill-opacity:1"
     id="g15804">
	</g><g
     style="fill:url(#linearGradient15871);fill-opacity:1"
     id="g15806">
	</g><g
     style="fill:url(#linearGradient15873);fill-opacity:1"
     id="g15808">
	</g><g
     style="fill:url(#linearGradient15875);fill-opacity:1"
     id="g15810">
	</g></g></svg>