<?xml version="1.0" encoding="UTF-8" standalone="no"?>
<svg
   xmlns:dc="http://purl.org/dc/elements/1.1/"
   xmlns:cc="http://creativecommons.org/ns#"
   xmlns:rdf="http://www.w3.org/1999/02/22-rdf-syntax-ns#"
   xmlns:svg="http://www.w3.org/2000/svg"
   xmlns="http://www.w3.org/2000/svg"
   xmlns:xlink="http://www.w3.org/1999/xlink"
   xml:space="preserve"
   style="enable-background:new 0 0 368.258 368.258;"
   viewBox="0 0 368.258 368.258"
   y="0px"
   x="0px"
   id="Capa_1"
   version="1.1"><metadata
   id="metadata4962"><rdf:RDF><cc:Work
       rdf:about=""><dc:format>image/svg+xml</dc:format><dc:type
         rdf:resource="http://purl.org/dc/dcmitype/StillImage" /><dc:title></dc:title></cc:Work></rdf:RDF></metadata><defs
   id="defs4960"><linearGradient
     id="lapkin"><stop
       id="stop4972"
       offset="0"
       style="stop-color:#2351ee;stop-opacity:1" /><stop
       id="stop4974"
       offset="1"
       style="stop-color:#00ff00;stop-opacity:1" /></linearGradient><linearGradient
     gradientUnits="userSpaceOnUse"
     y2="201.29401"
     x2="402.58615"
     y1="201.29401"
     x1="0"
     id="linearGradient14432"
     xlink:href="#lapkin" /><linearGradient
     y2="201.29401"
     x2="402.58615"
     y1="201.29401"
     x1="0"
     gradientUnits="userSpaceOnUse"
     id="linearGradient14434"
     xlink:href="#lapkin" /><linearGradient
     y2="201.29401"
     x2="402.58615"
     y1="201.29401"
     x1="0"
     gradientUnits="userSpaceOnUse"
     id="linearGradient14436"
     xlink:href="#lapkin" /><linearGradient
     y2="201.29401"
     x2="402.58615"
     y1="201.29401"
     x1="0"
     gradientUnits="userSpaceOnUse"
     id="linearGradient14438"
     xlink:href="#lapkin" /><linearGradient
     y2="201.29401"
     x2="402.58615"
     y1="201.29401"
     x1="0"
     gradientUnits="userSpaceOnUse"
     id="linearGradient14440"
     xlink:href="#lapkin" /><linearGradient
     y2="201.29401"
     x2="402.58615"
     y1="201.29401"
     x1="0"
     gradientUnits="userSpaceOnUse"
     id="linearGradient14442"
     xlink:href="#lapkin" /><linearGradient
     y2="201.29401"
     x2="402.58615"
     y1="201.29401"
     x1="0"
     gradientUnits="userSpaceOnUse"
     id="linearGradient14444"
     xlink:href="#lapkin" /><linearGradient
     y2="201.29401"
     x2="402.58615"
     y1="201.29401"
     x1="0"
     gradientUnits="userSpaceOnUse"
     id="linearGradient14446"
     xlink:href="#lapkin" /><linearGradient
     y2="201.29401"
     x2="402.58615"
     y1="201.29401"
     x1="0"
     gradientUnits="userSpaceOnUse"
     id="linearGradient14448"
     xlink:href="#lapkin" /><linearGradient
     y2="201.29401"
     x2="402.58615"
     y1="201.29401"
     x1="0"
     gradientUnits="userSpaceOnUse"
     id="linearGradient14450"
     xlink:href="#lapkin" /><linearGradient
     y2="201.29401"
     x2="402.58615"
     y1="201.29401"
     x1="0"
     gradientUnits="userSpaceOnUse"
     id="linearGradient14452"
     xlink:href="#lapkin" /><linearGradient
     y2="201.29401"
     x2="402.58615"
     y1="201.29401"
     x1="0"
     gradientUnits="userSpaceOnUse"
     id="linearGradient14454"
     xlink:href="#lapkin" /><linearGradient
     y2="201.29401"
     x2="402.58615"
     y1="201.29401"
     x1="0"
     gradientUnits="userSpaceOnUse"
     id="linearGradient14456"
     xlink:href="#lapkin" /><linearGradient
     y2="201.29401"
     x2="402.58615"
     y1="201.29401"
     x1="0"
     gradientUnits="userSpaceOnUse"
     id="linearGradient14458"
     xlink:href="#lapkin" /><linearGradient
     y2="201.29401"
     x2="402.58615"
     y1="201.29401"
     x1="0"
     gradientUnits="userSpaceOnUse"
     id="linearGradient14460"
     xlink:href="#lapkin" /><linearGradient
     y2="201.29401"
     x2="402.58615"
     y1="201.29401"
     x1="0"
     gradientUnits="userSpaceOnUse"
     id="linearGradient14462"
     xlink:href="#lapkin" /><linearGradient
     y2="201.29401"
     x2="402.58615"
     y1="201.29401"
     x1="0"
     gradientUnits="userSpaceOnUse"
     id="linearGradient14464"
     xlink:href="#lapkin" /><linearGradient
     y2="201.29401"
     x2="402.58615"
     y1="201.29401"
     x1="0"
     gradientUnits="userSpaceOnUse"
     id="linearGradient14466"
     xlink:href="#lapkin" /><linearGradient
     y2="201.29401"
     x2="402.58615"
     y1="201.29401"
     x1="0"
     gradientUnits="userSpaceOnUse"
     id="linearGradient14468"
     xlink:href="#lapkin" /><linearGradient
     y2="201.29401"
     x2="402.58615"
     y1="201.29401"
     x1="0"
     gradientUnits="userSpaceOnUse"
     id="linearGradient14470"
     xlink:href="#lapkin" /><linearGradient
     y2="201.29401"
     x2="402.58615"
     y1="201.29401"
     x1="0"
     gradientUnits="userSpaceOnUse"
     id="linearGradient14472"
     xlink:href="#lapkin" /><linearGradient
     y2="201.29401"
     x2="402.58615"
     y1="201.29401"
     x1="0"
     gradientUnits="userSpaceOnUse"
     id="linearGradient14474"
     xlink:href="#lapkin" /><linearGradient
     y2="201.29401"
     x2="402.58615"
     y1="201.29401"
     x1="0"
     gradientUnits="userSpaceOnUse"
     id="linearGradient14476"
     xlink:href="#lapkin" /><linearGradient
     y2="201.29401"
     x2="402.58615"
     y1="201.29401"
     x1="0"
     gradientUnits="userSpaceOnUse"
     id="linearGradient14478"
     xlink:href="#lapkin" /><linearGradient
     gradientUnits="userSpaceOnUse"
     y2="215.97701"
     x2="431.95499"
     y1="215.97701"
     x1="0.00050000002"
     id="linearGradient14990"
     xlink:href="#lapkin" /><linearGradient
     y2="215.97701"
     x2="431.95499"
     y1="215.97701"
     x1="0.00050000002"
     gradientUnits="userSpaceOnUse"
     id="linearGradient14992"
     xlink:href="#lapkin" /><linearGradient
     y2="215.97701"
     x2="431.95499"
     y1="215.97701"
     x1="0.00050000002"
     gradientUnits="userSpaceOnUse"
     id="linearGradient14994"
     xlink:href="#lapkin" /><linearGradient
     y2="215.97701"
     x2="431.95499"
     y1="215.97701"
     x1="0.00050000002"
     gradientUnits="userSpaceOnUse"
     id="linearGradient14996"
     xlink:href="#lapkin" /><linearGradient
     y2="215.97701"
     x2="431.95499"
     y1="215.97701"
     x1="0.00050000002"
     gradientUnits="userSpaceOnUse"
     id="linearGradient14998"
     xlink:href="#lapkin" /><linearGradient
     y2="215.97701"
     x2="431.95499"
     y1="215.97701"
     x1="0.00050000002"
     gradientUnits="userSpaceOnUse"
     id="linearGradient15000"
     xlink:href="#lapkin" /><linearGradient
     y2="215.97701"
     x2="431.95499"
     y1="215.97701"
     x1="0.00050000002"
     gradientUnits="userSpaceOnUse"
     id="linearGradient15002"
     xlink:href="#lapkin" /><linearGradient
     y2="215.97701"
     x2="431.95499"
     y1="215.97701"
     x1="0.00050000002"
     gradientUnits="userSpaceOnUse"
     id="linearGradient15004"
     xlink:href="#lapkin" /><linearGradient
     y2="215.97701"
     x2="431.95499"
     y1="215.97701"
     x1="0.00050000002"
     gradientUnits="userSpaceOnUse"
     id="linearGradient15006"
     xlink:href="#lapkin" /><linearGradient
     y2="215.97701"
     x2="431.95499"
     y1="215.97701"
     x1="0.00050000002"
     gradientUnits="userSpaceOnUse"
     id="linearGradient15008"
     xlink:href="#lapkin" /><linearGradient
     y2="215.97701"
     x2="431.95499"
     y1="215.97701"
     x1="0.00050000002"
     gradientUnits="userSpaceOnUse"
     id="linearGradient15010"
     xlink:href="#lapkin" /><linearGradient
     y2="215.97701"
     x2="431.95499"
     y1="215.97701"
     x1="0.00050000002"
     gradientUnits="userSpaceOnUse"
     id="linearGradient15012"
     xlink:href="#lapkin" /><linearGradient
     y2="215.97701"
     x2="431.95499"
     y1="215.97701"
     x1="0.00050000002"
     gradientUnits="userSpaceOnUse"
     id="linearGradient15014"
     xlink:href="#lapkin" /><linearGradient
     y2="215.97701"
     x2="431.95499"
     y1="215.97701"
     x1="0.00050000002"
     gradientUnits="userSpaceOnUse"
     id="linearGradient15016"
     xlink:href="#lapkin" /><linearGradient
     y2="215.97701"
     x2="431.95499"
     y1="215.97701"
     x1="0.00050000002"
     gradientUnits="userSpaceOnUse"
     id="linearGradient15018"
     xlink:href="#lapkin" /><linearGradient
     y2="215.97701"
     x2="431.95499"
     y1="215.97701"
     x1="0.00050000002"
     gradientUnits="userSpaceOnUse"
     id="linearGradient15020"
     xlink:href="#lapkin" /><linearGradient
     y2="215.97701"
     x2="431.95499"
     y1="215.97701"
     x1="0.00050000002"
     gradientUnits="userSpaceOnUse"
     id="linearGradient15022"
     xlink:href="#lapkin" /><linearGradient
     y2="215.97701"
     x2="431.95499"
     y1="215.97701"
     x1="0.00050000002"
     gradientUnits="userSpaceOnUse"
     id="linearGradient15024"
     xlink:href="#lapkin" /><linearGradient
     y2="215.97701"
     x2="431.95499"
     y1="215.97701"
     x1="0.00050000002"
     gradientUnits="userSpaceOnUse"
     id="linearGradient15026"
     xlink:href="#lapkin" /><linearGradient
     y2="215.97701"
     x2="431.95499"
     y1="215.97701"
     x1="0.00050000002"
     gradientUnits="userSpaceOnUse"
     id="linearGradient15028"
     xlink:href="#lapkin" /><linearGradient
     y2="215.97701"
     x2="431.95499"
     y1="215.97701"
     x1="0.00050000002"
     gradientUnits="userSpaceOnUse"
     id="linearGradient15030"
     xlink:href="#lapkin" /><linearGradient
     y2="215.97701"
     x2="431.95499"
     y1="215.97701"
     x1="0.00050000002"
     gradientUnits="userSpaceOnUse"
     id="linearGradient15032"
     xlink:href="#lapkin" /><linearGradient
     y2="215.97701"
     x2="431.95499"
     y1="215.97701"
     x1="0.00050000002"
     gradientUnits="userSpaceOnUse"
     id="linearGradient15034"
     xlink:href="#lapkin" /><linearGradient
     y2="215.97701"
     x2="431.95499"
     y1="215.97701"
     x1="0.00050000002"
     gradientUnits="userSpaceOnUse"
     id="linearGradient15036"
     xlink:href="#lapkin" /><linearGradient
     gradientUnits="userSpaceOnUse"
     y2="223.24651"
     x2="321.961"
     y1="223.24651"
     x1="124.538"
     id="linearGradient15293"
     xlink:href="#lapkin" /></defs>
	
	<g
   id="g4927">
	</g>
	<g
   id="g4929">
	</g>
	<g
   id="g4931">
	</g>
	<g
   id="g4933">
	</g>
	<g
   id="g4935">
	</g>
	<g
   id="g4937">
	</g>
	<g
   id="g4939">
	</g>
	<g
   id="g4941">
	</g>
	<g
   id="g4943">
	</g>
	<g
   id="g4945">
	</g>
	<g
   id="g4947">
	</g>
	<g
   id="g4949">
	</g>
	<g
   id="g4951">
	</g>
	<g
   id="g4953">
	</g>
	<g
   id="g4955">
	</g>
<g
   style="fill:url(#linearGradient14432);fill-opacity:1"
   transform="matrix(0.89366351,0,0,0.89366351,-480.13245,0.67596367)"
   id="g14424"><g
     style="fill:url(#linearGradient14448);fill-opacity:1"
     id="g14362">
		<path
   style="fill:url(#linearGradient14434);fill-opacity:1"
   d="m 115.108,279.739 c -1.9,-0.776 -3.898,-1.17 -5.938,-1.17 -6.42,0 -12.136,3.841 -14.562,9.785 -1.588,3.888 -1.565,8.162 0.062,12.034 1.627,3.872 4.664,6.879 8.553,8.466 1.9,0.776 3.898,1.17 5.938,1.17 6.42,0 12.136,-3.841 14.562,-9.785 3.277,-8.026 -0.587,-17.222 -8.615,-20.5 z m 1.208,17.477 c -1.192,2.921 -4.001,4.809 -7.155,4.809 -0.998,0 -1.979,-0.194 -2.915,-0.576 -1.91,-0.78 -3.401,-2.257 -4.201,-4.159 -0.799,-1.901 -0.81,-4.001 -0.03,-5.911 1.192,-2.921 4.001,-4.809 7.155,-4.809 0.998,0 1.979,0.194 2.915,0.576 3.942,1.61 5.841,6.127 4.231,10.07 z"
   id="path14348" />
		<path
   style="fill:url(#linearGradient14436);fill-opacity:1"
   d="m 398.619,255.066 -0.934,-0.008 c -0.464,-2.287 -1.342,-4.457 -2.597,-6.423 l 0.663,-0.652 c 1.575,-1.55 1.597,-4.082 0.048,-5.657 -1.55,-1.575 -4.082,-1.597 -5.657,-0.048 l -0.663,0.652 c -1.945,-1.289 -4.1,-2.202 -6.378,-2.705 l 0.008,-0.933 c 0.019,-2.209 -1.757,-4.016 -3.966,-4.034 -0.012,0 -0.023,0 -0.035,0 -2.193,0 -3.98,1.769 -3.999,3.966 l -0.008,0.931 c -2.375,0.489 -4.587,1.429 -6.557,2.715 l -9.198,-9.198 c -0.75,-0.75 -1.768,-1.172 -2.828,-1.172 h -8.308 l 9.538,-75.646 h 10.684 c 1.735,0 3.273,-1.119 3.807,-2.771 0.533,-1.651 -0.06,-3.459 -1.468,-4.474 -39.333,-28.342 -97.929,-44.597 -160.764,-44.597 -40.653,0 -79.523,6.812 -112.558,19.292 v -21.362 c 0,-2.209 -1.791,-4 -4,-4 H 87.33 V 84.007 h 17.633 v 9.491 c 0,2.209 1.791,4 4,4 2.209,0 4,-1.791 4,-4 v -9.491 h 6.839 v 9.491 c 0,2.209 1.791,4 4,4 2.209,0 4,-1.791 4,-4 v -9.491 h 6.84 v 9.491 c 0,2.209 1.791,4 4,4 2.209,0 4,-1.791 4,-4 v -9.491 h 6.84 v 9.491 c 0,2.209 1.791,4 4,4 2.209,0 4,-1.791 4,-4 v -9.491 h 6.84 v 9.491 c 0,2.209 1.791,4 4,4 2.209,0 4,-1.791 4,-4 v -9.491 h 6.84 v 9.491 c 0,2.209 1.791,4 4,4 2.209,0 4,-1.791 4,-4 v -9.491 h 6.84 v 9.491 c 0,2.209 1.791,4 4,4 2.209,0 4,-1.791 4,-4 v -9.491 h 6.84 v 9.491 c 0,2.209 1.791,4 4,4 2.209,0 4,-1.791 4,-4 v -9.491 h 6.84 v 9.491 c 0,2.209 1.791,4 4,4 2.209,0 4,-1.791 4,-4 v -9.491 h 6.84 v 9.491 c 0,2.209 1.791,4 4,4 2.209,0 4,-1.791 4,-4 V 65.167 c 0,-2.209 -1.791,-4 -4,-4 -2.209,0 -4,1.791 -4,4 v 10.84 h -6.84 v -10.84 c 0,-2.209 -1.791,-4 -4,-4 -2.209,0 -4,1.791 -4,4 v 10.84 h -6.84 v -10.84 c 0,-2.209 -1.791,-4 -4,-4 -2.209,0 -4,1.791 -4,4 v 10.84 h -6.84 v -10.84 c 0,-2.209 -1.791,-4 -4,-4 -2.209,0 -4,1.791 -4,4 v 10.84 h -6.84 v -10.84 c 0,-2.209 -1.791,-4 -4,-4 -2.209,0 -4,1.791 -4,4 v 10.84 h -6.84 v -10.84 c 0,-2.209 -1.791,-4 -4,-4 -2.209,0 -4,1.791 -4,4 v 10.84 h -6.84 v -10.84 c 0,-2.209 -1.791,-4 -4,-4 -2.209,0 -4,1.791 -4,4 v 10.84 h -6.84 v -10.84 c 0,-2.209 -1.791,-4 -4,-4 -2.209,0 -4,1.791 -4,4 v 10.84 h -6.84 v -10.84 c 0,-2.209 -1.791,-4 -4,-4 -2.209,0 -4,1.791 -4,4 v 10.84 h -6.839 v -10.84 c 0,-2.209 -1.791,-4 -4,-4 -2.209,0 -4,1.791 -4,4 v 10.84 H 83.33 c -2.209,0 -4,1.791 -4,4 v 18.935 h -6.118 c -2.209,0 -4,1.791 -4,4 v 34.189 c -7.095,3.849 -13.772,8.013 -19.969,12.478 -1.408,1.015 -2.001,2.822 -1.468,4.474 0.533,1.652 2.071,2.771 3.807,2.771 h 10.683 l 4.868,38.606 -41.196,19.649 C 23.221,212.008 19.244,210.038 14.808,210.038 6.644,210.037 0,216.68 0,224.845 c 0,8.165 6.644,14.808 14.809,14.808 8.165,0 14.808,-6.643 14.808,-14.808 0,-0.86 -0.089,-1.698 -0.231,-2.518 l 38.802,-18.507 3.617,28.679 h -8.309 c -2.209,0 -4,1.791 -4,4 0,2.209 1.791,4 4,4 h 9.318 l 2.796,22.175 c -2.922,3.112 -5.432,6.658 -7.434,10.57 l -0.619,-0.253 c -2.044,-0.834 -4.38,0.146 -5.215,2.191 -0.835,2.046 0.146,4.38 2.191,5.215 l 0.626,0.255 c -2.892,9.303 -2.669,18.956 0.158,27.732 l -0.632,0.266 c -2.036,0.855 -2.994,3.2 -2.138,5.237 0.644,1.53 2.127,2.451 3.689,2.451 0.517,0 1.042,-0.101 1.548,-0.313 l 0.632,-0.266 c 4.29,8.161 11.03,15.075 19.698,19.521 l -0.255,0.625 c -0.835,2.045 0.146,4.38 2.191,5.215 0.495,0.202 1.007,0.298 1.511,0.298 1.576,0 3.071,-0.938 3.704,-2.489 l 0.253,-0.62 c 4.422,1.378 8.99,2.084 13.63,2.084 4.892,0 9.643,-0.767 14.123,-2.2 l 0.246,0.585 c 0.644,1.53 2.127,2.451 3.689,2.451 0.517,0 1.042,-0.101 1.548,-0.313 2.036,-0.855 2.994,-3.2 2.138,-5.237 l -0.241,-0.573 c 8.253,-4.341 15.107,-11.166 19.503,-19.756 l 0.619,0.253 c 0.495,0.202 1.007,0.298 1.511,0.298 1.577,0 3.071,-0.939 3.704,-2.489 0.835,-2.046 -0.146,-4.381 -2.191,-5.215 l -0.626,-0.255 c 2.891,-9.303 2.669,-18.956 -0.158,-27.731 l 0.633,-0.266 c 2.036,-0.855 2.994,-3.2 2.138,-5.237 -0.856,-2.036 -3.201,-2.995 -5.237,-2.138 l -0.633,0.266 c -0.474,-0.902 -0.979,-1.789 -1.512,-2.659 h 22.337 c -0.609,0.996 -1.183,2.019 -1.721,3.069 l -0.619,-0.253 c -2.045,-0.835 -4.38,0.146 -5.215,2.191 -0.835,2.046 0.146,4.38 2.191,5.215 l 0.626,0.255 c -2.891,9.303 -2.669,18.956 0.158,27.731 l -0.633,0.266 c -2.036,0.855 -2.994,3.2 -2.138,5.237 0.644,1.53 2.127,2.451 3.689,2.451 0.517,0 1.042,-0.101 1.548,-0.313 l 0.633,-0.266 c 4.29,8.161 11.029,15.075 19.698,19.521 l -0.255,0.625 c -0.835,2.045 0.146,4.38 2.191,5.215 0.495,0.202 1.007,0.298 1.511,0.298 1.576,0 3.071,-0.938 3.704,-2.489 l 0.253,-0.62 c 4.422,1.378 8.99,2.084 13.63,2.084 4.893,0 9.643,-0.767 14.124,-2.2 l 0.246,0.585 c 0.643,1.531 2.127,2.452 3.689,2.452 0.517,0 1.041,-0.101 1.547,-0.313 2.037,-0.855 2.994,-3.2 2.139,-5.236 l -0.241,-0.574 c 8.253,-4.341 15.107,-11.166 19.503,-19.756 l 0.619,0.253 c 0.495,0.202 1.007,0.298 1.511,0.298 1.577,0 3.071,-0.939 3.704,-2.489 0.835,-2.046 -0.146,-4.381 -2.191,-5.215 l -0.626,-0.255 c 2.891,-9.303 2.669,-18.956 -0.158,-27.731 l 0.633,-0.266 c 2.036,-0.855 2.994,-3.2 2.138,-5.237 -0.856,-2.036 -3.202,-2.995 -5.237,-2.138 l -0.633,0.266 c -0.474,-0.902 -0.979,-1.789 -1.512,-2.659 h 22.337 c -0.609,0.996 -1.183,2.019 -1.721,3.069 l -0.619,-0.253 c -2.046,-0.835 -4.38,0.146 -5.215,2.191 -0.835,2.046 0.146,4.381 2.191,5.215 l 0.626,0.255 c -2.891,9.303 -2.669,18.956 0.158,27.731 l -0.633,0.266 c -2.036,0.855 -2.994,3.2 -2.138,5.237 0.644,1.53 2.127,2.451 3.689,2.451 0.517,0 1.042,-0.101 1.548,-0.313 l 0.633,-0.266 c 4.29,8.161 11.029,15.075 19.698,19.521 l -0.255,0.625 c -0.835,2.045 0.146,4.38 2.191,5.215 0.495,0.202 1.007,0.298 1.511,0.298 1.576,0 3.071,-0.938 3.704,-2.489 l 0.253,-0.62 c 4.422,1.378 8.99,2.084 13.63,2.084 4.893,0 9.643,-0.767 14.124,-2.2 l 0.246,0.585 c 0.643,1.531 2.127,2.452 3.689,2.452 0.517,0 1.041,-0.101 1.547,-0.313 2.037,-0.855 2.994,-3.2 2.139,-5.236 l -0.241,-0.574 c 8.253,-4.341 15.107,-11.166 19.503,-19.756 l 0.619,0.253 c 0.495,0.202 1.007,0.298 1.511,0.298 1.577,0 3.071,-0.939 3.704,-2.489 0.835,-2.046 -0.146,-4.38 -2.191,-5.215 l -0.626,-0.255 c 2.891,-9.303 2.669,-18.956 -0.158,-27.731 l 0.633,-0.266 c 2.036,-0.855 2.994,-3.2 2.138,-5.237 -0.856,-2.036 -3.202,-2.995 -5.237,-2.138 l -0.633,0.266 c -1.923,-3.658 -4.342,-7.063 -7.202,-10.112 l 2.802,-22.223 h 7.659 l 8.036,8.036 c -1.217,1.873 -2.122,3.964 -2.624,6.207 l -0.938,-0.008 c -0.012,0 -0.023,0 -0.035,0 -2.193,0 -3.98,1.769 -3.999,3.966 -0.019,2.209 1.757,4.016 3.966,4.034 l 0.934,0.008 c 0.475,2.318 1.375,4.48 2.608,6.413 l -0.675,0.663 c -1.575,1.55 -1.597,4.082 -0.048,5.657 0.783,0.796 1.817,1.195 2.853,1.195 1.013,0 2.025,-0.382 2.805,-1.147 l 0.675,-0.664 c 1.912,1.265 4.058,2.201 6.367,2.715 l -0.008,0.934 c -0.019,2.209 1.757,4.016 3.966,4.034 0.012,0 0.023,0 0.035,0 2.193,0 3.98,-1.769 3.999,-3.966 l 0.008,-0.93 c 2.314,-0.476 4.47,-1.386 6.403,-2.621 l 0.673,0.684 c 0.783,0.796 1.817,1.195 2.853,1.195 1.013,0 2.025,-0.382 2.805,-1.147 1.575,-1.55 1.597,-4.082 0.048,-5.657 l -0.67,-0.681 c 1.267,-1.911 2.202,-4.057 2.718,-6.361 l 0.938,0.008 c 0.012,0 0.023,0 0.035,0 2.193,0 3.98,-1.769 3.999,-3.966 0.018,-2.214 -1.758,-4.021 -3.967,-4.04 z M 14.809,231.652 c -3.754,0 -6.809,-3.054 -6.809,-6.808 0,-3.754 3.055,-6.808 6.809,-6.808 3.754,0 6.808,3.054 6.808,6.808 0,3.754 -3.054,6.808 -6.808,6.808 z m 230.222,-82.798 v -34.092 c 18.906,1.905 37.078,5.343 54.038,10.183 v 23.909 z m 62.038,-21.496 c 17.697,5.645 33.923,12.862 48.087,21.496 h -48.087 z m -70.038,-13.306 v 34.802 h -54.05 v -34.802 c 8.881,-0.685 17.904,-1.04 27.024,-1.04 9.122,0 18.145,0.356 27.026,1.04 z m -116.099,34.802 v -23.906 c 16.963,-4.842 35.139,-8.281 54.05,-10.186 v 34.093 h -54.05 z m -43.72,-41.913 h 12.236 v 20.545 c -4.185,1.75 -8.271,3.589 -12.236,5.527 z m 35.72,20.42 v 21.492 H 64.856 c 14.161,-8.631 30.383,-15.848 48.076,-21.492 z m 236.752,29.493 -0.906,7.189 H 71.235 l -0.907,-7.189 z m -273.891,43.338 18.794,-8.964 c 1.994,-0.951 2.84,-3.339 1.889,-5.332 -0.95,-1.994 -3.338,-2.837 -5.332,-1.889 l -16.405,7.825 -2.495,-19.789 h 275.525 l -7.623,60.456 H 79.868 Z m 51.328,127.7 c -1.111,-0.927 -2.678,-1.233 -4.105,-0.632 -1.429,0.601 -2.31,1.938 -2.422,3.385 -3.636,1.138 -7.484,1.748 -11.445,1.748 -3.755,0 -7.456,-0.557 -11.044,-1.652 -0.134,-1.437 -1.025,-2.755 -2.454,-3.338 -1.426,-0.583 -2.983,-0.267 -4.084,0.663 -6.999,-3.641 -12.461,-9.238 -15.977,-15.835 0.912,-1.11 1.209,-2.665 0.614,-4.082 -0.596,-1.416 -1.914,-2.293 -3.345,-2.418 -2.25,-7.126 -2.426,-14.941 -0.132,-22.486 1.436,-0.135 2.75,-1.035 3.333,-2.462 0.581,-1.423 0.268,-2.974 -0.656,-4.075 3.597,-6.929 9.136,-12.441 15.794,-16 0.718,0.6 1.627,0.939 2.568,0.939 0.517,0 1.041,-0.101 1.547,-0.313 1.43,-0.601 2.31,-1.938 2.422,-3.385 3.637,-1.138 7.485,-1.748 11.447,-1.748 3.755,0 7.456,0.557 11.044,1.652 0.134,1.437 1.025,2.755 2.454,3.338 0.495,0.202 1.007,0.298 1.511,0.298 0.949,0 1.865,-0.345 2.585,-0.955 6.993,3.641 12.452,9.236 15.966,15.829 -0.912,1.11 -1.209,2.665 -0.613,4.082 0.596,1.417 1.914,2.302 3.347,2.426 2.249,7.126 2.423,14.942 0.127,22.487 -1.434,0.136 -2.749,1.027 -3.332,2.454 -0.581,1.423 -0.268,2.975 0.656,4.076 -3.6,6.932 -9.143,12.446 -15.806,16.004 z m 100.844,-10e-4 c -1.111,-0.927 -2.678,-1.232 -4.104,-0.632 -1.43,0.601 -2.31,1.938 -2.422,3.384 -3.637,1.138 -7.485,1.749 -11.447,1.749 -3.755,0 -7.456,-0.557 -11.044,-1.652 -0.134,-1.437 -1.025,-2.755 -2.454,-3.338 -1.425,-0.583 -2.983,-0.267 -4.084,0.663 -6.999,-3.642 -12.461,-9.238 -15.977,-15.835 0.912,-1.11 1.209,-2.665 0.613,-4.082 -0.595,-1.416 -1.914,-2.293 -3.345,-2.418 -2.251,-7.126 -2.427,-14.941 -0.132,-22.486 1.435,-0.135 2.75,-1.035 3.333,-2.462 0.581,-1.423 0.268,-2.974 -0.656,-4.075 3.597,-6.929 9.136,-12.441 15.794,-16 0.718,0.6 1.627,0.939 2.568,0.939 0.517,0 1.041,-0.101 1.547,-0.313 1.43,-0.601 2.31,-1.938 2.422,-3.385 3.637,-1.138 7.485,-1.748 11.447,-1.748 3.755,0 7.456,0.557 11.044,1.652 0.134,1.437 1.025,2.755 2.454,3.338 0.495,0.202 1.007,0.298 1.511,0.298 0.949,0 1.865,-0.345 2.585,-0.955 6.993,3.641 12.452,9.236 15.966,15.829 -0.912,1.11 -1.209,2.665 -0.613,4.082 0.596,1.417 1.914,2.302 3.347,2.426 2.249,7.126 2.423,14.942 0.127,22.487 -1.434,0.136 -2.749,1.027 -3.332,2.454 -0.581,1.423 -0.268,2.975 0.656,4.076 -3.599,6.932 -9.141,12.446 -15.804,16.004 z m 100.843,0 c -1.111,-0.927 -2.678,-1.232 -4.104,-0.632 -1.43,0.601 -2.31,1.938 -2.422,3.384 -3.637,1.138 -7.485,1.749 -11.447,1.749 -3.755,0 -7.456,-0.557 -11.044,-1.652 -0.134,-1.437 -1.025,-2.755 -2.454,-3.338 -1.426,-0.583 -2.983,-0.267 -4.084,0.663 -6.999,-3.641 -12.461,-9.238 -15.977,-15.835 0.912,-1.11 1.209,-2.665 0.613,-4.082 -0.596,-1.416 -1.914,-2.293 -3.345,-2.418 -2.251,-7.126 -2.427,-14.941 -0.132,-22.486 1.436,-0.135 2.751,-1.034 3.334,-2.462 0.581,-1.423 0.268,-2.975 -0.656,-4.076 3.597,-6.928 9.135,-12.44 15.793,-15.999 0.718,0.6 1.627,0.939 2.568,0.939 0.517,0 1.041,-0.101 1.547,-0.313 1.43,-0.601 2.31,-1.938 2.422,-3.385 3.637,-1.138 7.485,-1.748 11.447,-1.748 3.755,0 7.456,0.557 11.044,1.652 0.134,1.437 1.025,2.755 2.454,3.338 0.495,0.202 1.007,0.298 1.511,0.298 0.949,0 1.865,-0.345 2.585,-0.955 6.993,3.641 12.452,9.236 15.966,15.829 -0.912,1.11 -1.209,2.665 -0.613,4.082 0.596,1.417 1.914,2.302 3.347,2.426 2.249,7.127 2.423,14.942 0.127,22.487 -1.433,0.137 -2.748,1.028 -3.33,2.453 -0.581,1.423 -0.268,2.974 0.656,4.075 -3.6,6.934 -9.143,12.448 -15.806,16.006 z m 8.317,-71.445 c -1.652,-1.147 -3.395,-2.194 -5.224,-3.132 l 0.255,-0.625 c 0.835,-2.045 -0.146,-4.38 -2.191,-5.215 -2.043,-0.834 -4.38,0.145 -5.215,2.191 l -0.253,0.62 c -4.422,-1.378 -8.99,-2.084 -13.631,-2.084 -4.893,0 -9.643,0.767 -14.124,2.2 l -0.246,-0.585 c -0.854,-2.038 -3.2,-2.996 -5.236,-2.139 -2.037,0.855 -2.994,3.2 -2.139,5.236 l 0.241,0.574 c -4.292,2.257 -8.203,5.188 -11.59,8.687 h -34.738 c -3.411,-3.518 -7.428,-6.529 -11.977,-8.861 l 0.255,-0.625 c 0.835,-2.045 -0.146,-4.38 -2.191,-5.215 -2.044,-0.834 -4.38,0.145 -5.215,2.191 l -0.253,0.62 c -4.422,-1.378 -8.99,-2.084 -13.631,-2.084 -4.893,0 -9.643,0.767 -14.124,2.2 l -0.246,-0.585 c -0.854,-2.038 -3.2,-2.996 -5.236,-2.139 -2.037,0.855 -2.994,3.2 -2.139,5.236 l 0.241,0.574 c -4.292,2.257 -8.203,5.188 -11.59,8.687 H 142.19 c -3.411,-3.518 -7.428,-6.529 -11.977,-8.861 l 0.255,-0.625 c 0.835,-2.045 -0.146,-4.38 -2.191,-5.215 -2.042,-0.834 -4.38,0.145 -5.215,2.191 l -0.253,0.62 c -4.422,-1.378 -8.99,-2.084 -13.631,-2.084 -4.893,0 -9.643,0.767 -14.124,2.2 l -0.246,-0.585 c -0.854,-2.038 -3.199,-2.996 -5.236,-2.139 -2.037,0.855 -2.994,3.2 -2.139,5.236 l 0.241,0.574 c -1.659,0.873 -3.259,1.85 -4.796,2.917 l -2.006,-15.906 h 258.26 z m 30.681,2.361 c 0.013,-1.565 0.358,-3.052 0.96,-4.402 l 6.78,6.78 c 0.78,0.781 1.805,1.172 2.828,1.172 1.023,0 2.048,-0.391 2.828,-1.172 1.563,-1.562 1.563,-4.095 0,-5.656 l -6.775,-6.775 c 1.407,-0.63 2.964,-0.989 4.61,-0.989 2.974,0.024 5.761,1.207 7.846,3.328 2.086,2.121 3.221,4.927 3.195,7.902 -0.051,6.088 -5.045,11.042 -11.132,11.042 l -0.099,-10e-4 c -6.139,-0.052 -11.093,-5.089 -11.041,-11.229 z"
   id="path14350" />
		<path
   style="fill:url(#linearGradient14438);fill-opacity:1"
   d="m 215.951,279.739 c -1.9,-0.776 -3.898,-1.17 -5.938,-1.17 -6.42,0 -12.136,3.841 -14.562,9.785 -3.277,8.026 0.587,17.223 8.614,20.5 1.9,0.776 3.898,1.17 5.938,1.17 6.42,0 12.136,-3.841 14.562,-9.785 1.588,-3.888 1.565,-8.162 -0.062,-12.034 -1.627,-3.872 -4.663,-6.879 -8.552,-8.466 z m 1.208,17.477 c -1.192,2.921 -4.001,4.809 -7.155,4.809 -0.998,0 -1.979,-0.194 -2.915,-0.576 -3.942,-1.61 -5.841,-6.127 -4.231,-10.07 1.192,-2.921 4.001,-4.809 7.155,-4.809 0.998,0 1.979,0.194 2.915,0.576 1.91,0.78 3.401,2.257 4.201,4.159 0.799,1.901 0.809,4.001 0.03,5.911 z"
   id="path14352" />
		<path
   style="fill:url(#linearGradient14440);fill-opacity:1"
   d="m 316.794,279.739 c -1.9,-0.776 -3.898,-1.17 -5.938,-1.17 -6.42,0 -12.136,3.841 -14.562,9.785 -1.588,3.888 -1.565,8.162 0.062,12.034 1.627,3.872 4.664,6.879 8.553,8.466 1.9,0.776 3.898,1.17 5.938,1.17 6.42,0 12.136,-3.841 14.562,-9.785 3.277,-8.026 -0.588,-17.222 -8.615,-20.5 z m 1.208,17.477 c -1.192,2.921 -4.001,4.809 -7.155,4.809 -0.998,0 -1.979,-0.194 -2.915,-0.576 -1.91,-0.78 -3.401,-2.257 -4.201,-4.159 -0.799,-1.901 -0.81,-4.001 -0.03,-5.911 1.192,-2.921 4.001,-4.809 7.155,-4.809 0.998,0 1.979,0.194 2.915,0.576 3.942,1.61 5.84,6.127 4.231,10.07 z"
   id="path14354" />
		<path
   style="fill:url(#linearGradient14442);fill-opacity:1"
   d="m 210.006,184.818 c -10.482,0 -19.011,8.528 -19.011,19.011 0,10.483 8.528,19.011 19.011,19.011 10.483,0 19.011,-8.528 19.011,-19.011 0,-10.483 -8.529,-19.011 -19.011,-19.011 z m 0,30.022 c -6.071,0 -11.011,-4.939 -11.011,-11.011 0,-6.072 4.939,-11.011 11.011,-11.011 6.072,0 11.011,4.939 11.011,11.011 0,6.072 -4.94,11.011 -11.011,11.011 z"
   id="path14356" />
		<path
   style="fill:url(#linearGradient14444);fill-opacity:1"
   d="m 136.752,184.818 c -10.482,0 -19.011,8.528 -19.011,19.011 0,10.483 8.528,19.011 19.011,19.011 10.483,0 19.011,-8.528 19.011,-19.011 0,-10.483 -8.529,-19.011 -19.011,-19.011 z m 0,30.022 c -6.071,0 -11.011,-4.939 -11.011,-11.011 0,-6.072 4.939,-11.011 11.011,-11.011 6.072,0 11.011,4.939 11.011,11.011 0,6.072 -4.94,11.011 -11.011,11.011 z"
   id="path14358" />
		<path
   style="fill:url(#linearGradient14446);fill-opacity:1"
   d="m 283.26,184.818 c -10.482,0 -19.011,8.528 -19.011,19.011 0,10.483 8.528,19.011 19.011,19.011 10.483,0 19.012,-8.528 19.012,-19.011 0,-10.483 -8.529,-19.011 -19.012,-19.011 z m 0,30.022 c -6.071,0 -11.011,-4.939 -11.011,-11.011 0,-6.072 4.939,-11.011 11.011,-11.011 6.072,0 11.012,4.939 11.012,11.011 0,6.072 -4.94,11.011 -11.012,11.011 z"
   id="path14360" />
	</g><g
     style="fill:url(#linearGradient14450);fill-opacity:1"
     id="g14364">
	</g><g
     style="fill:url(#linearGradient14452);fill-opacity:1"
     id="g14366">
	</g><g
     style="fill:url(#linearGradient14454);fill-opacity:1"
     id="g14368">
	</g><g
     style="fill:url(#linearGradient14456);fill-opacity:1"
     id="g14370">
	</g><g
     style="fill:url(#linearGradient14458);fill-opacity:1"
     id="g14372">
	</g><g
     style="fill:url(#linearGradient14460);fill-opacity:1"
     id="g14374">
	</g><g
     style="fill:url(#linearGradient14462);fill-opacity:1"
     id="g14376">
	</g><g
     style="fill:url(#linearGradient14464);fill-opacity:1"
     id="g14378">
	</g><g
     style="fill:url(#linearGradient14466);fill-opacity:1"
     id="g14380">
	</g><g
     style="fill:url(#linearGradient14468);fill-opacity:1"
     id="g14382">
	</g><g
     style="fill:url(#linearGradient14470);fill-opacity:1"
     id="g14384">
	</g><g
     style="fill:url(#linearGradient14472);fill-opacity:1"
     id="g14386">
	</g><g
     style="fill:url(#linearGradient14474);fill-opacity:1"
     id="g14388">
	</g><g
     style="fill:url(#linearGradient14476);fill-opacity:1"
     id="g14390">
	</g><g
     style="fill:url(#linearGradient14478);fill-opacity:1"
     id="g14392">
	</g></g><g
   style="fill:url(#linearGradient14990);fill-opacity:1"
   transform="matrix(0.84271171,0,0,0.84271171,-485.28248,105.0667)"
   id="g14982"><g
     style="fill:url(#linearGradient15006);fill-opacity:1"
     id="g14920">
		<path
   style="fill:url(#linearGradient14992);fill-opacity:1"
   d="m 131.547,295.24 c -3.676,0.018 -7.125,1.466 -9.712,4.078 -2.586,2.611 -4.001,6.074 -3.984,9.751 0.037,7.552 6.21,13.695 13.761,13.695 h 0.068 c 3.676,-0.018 7.125,-1.466 9.712,-4.078 2.586,-2.611 4.001,-6.074 3.984,-9.751 -0.037,-7.552 -6.211,-13.695 -13.829,-13.695 z m 4.16,17.817 c -1.083,1.094 -2.527,1.7 -4.066,1.707 h -0.029 c -3.161,0 -5.746,-2.572 -5.761,-5.734 -0.007,-1.539 0.585,-2.989 1.668,-4.083 1.083,-1.094 2.527,-1.7 4.096,-1.707 3.161,0 5.746,2.572 5.761,5.734 0.007,1.539 -0.585,2.989 -1.669,4.083 z"
   id="path14906" />
		<path
   style="fill:url(#linearGradient14994);fill-opacity:1"
   d="m 246.583,295.24 c -3.676,0.018 -7.125,1.466 -9.712,4.078 -2.586,2.611 -4.001,6.074 -3.984,9.751 0.037,7.552 6.21,13.695 13.761,13.695 h 0.068 c 3.676,-0.018 7.125,-1.466 9.712,-4.078 2.586,-2.611 4.001,-6.074 3.984,-9.751 -0.037,-7.552 -6.211,-13.695 -13.829,-13.695 z m 4.16,17.817 c -1.083,1.094 -2.527,1.7 -4.066,1.707 h -0.029 c -3.161,0 -5.746,-2.572 -5.761,-5.734 -0.007,-1.539 0.585,-2.989 1.668,-4.083 1.083,-1.094 2.527,-1.7 4.096,-1.707 3.161,0 5.746,2.572 5.761,5.734 0.007,1.539 -0.585,2.989 -1.669,4.083 z"
   id="path14908" />
		<path
   style="fill:url(#linearGradient14996);fill-opacity:1"
   d="m 361.684,322.764 h 0.068 c 3.676,-0.018 7.125,-1.466 9.712,-4.078 2.586,-2.611 4.001,-6.074 3.984,-9.751 -0.037,-7.552 -6.21,-13.695 -13.829,-13.695 -3.676,0.018 -7.125,1.466 -9.712,4.078 -2.586,2.611 -4.001,6.074 -3.984,9.751 0.037,7.552 6.21,13.695 13.761,13.695 z m -4.093,-17.817 c 1.083,-1.094 2.527,-1.7 4.096,-1.707 3.161,0 5.746,2.572 5.761,5.734 0.007,1.539 -0.585,2.989 -1.668,4.083 -1.083,1.094 -2.527,1.7 -4.066,1.707 h -0.029 c -3.161,0 -5.746,-2.572 -5.761,-5.734 -0.009,-1.539 0.583,-2.989 1.667,-4.083 z"
   id="path14910" />
		<path
   style="fill:url(#linearGradient14998);fill-opacity:1"
   d="m 327.627,261.98 h 33.855 c 1.016,0 1.932,-0.391 2.638,-1.014 l 0.03,0.033 66.48,-59.788 c 0.843,-0.759 1.325,-1.84 1.325,-2.975 0,-1.135 -0.482,-2.216 -1.325,-2.975 l -33.01,-29.684 c -1.521,-1.367 -3.829,-1.368 -5.35,0.001 l -32.576,29.301 h -24.819 v -13.037 c 0,-2.209 -1.791,-4 -4,-4 h -39.05 c -2.209,0 -4,1.791 -4,4 v 13.037 h -82.053 c -1.514,-10.033 -8.435,-18.308 -17.677,-21.769 v -38.275 h 21.348 c 2.209,0 4,-1.791 4,-4 V 84.17 c 0,-2.209 -1.791,-4 -4,-4 h -62 c -2.209,0 -4,1.791 -4,4 v 46.666 c 0,2.209 1.791,4 4,4 h 21.342 v 38.278 c -9.237,3.47 -16.162,11.762 -17.669,21.766 h -19.294 c -2.209,0 -4,1.791 -4,4 v 36.248 l -35.406,21.503 -46.63,-46.63 c 4.045,-7.009 3.093,-16.135 -2.895,-22.123 L 27.099,172.086 c -1.563,-1.563 -4.095,-1.563 -5.657,0 -1.562,1.562 -1.562,4.095 0,5.656 l 15.792,15.792 c 4.029,4.029 4.029,10.585 0,14.614 -1.952,1.951 -4.546,3.026 -7.306,3.026 -2.76,0 -5.355,-1.075 -7.307,-3.026 L 6.829,192.357 c -1.563,-1.563 -4.095,-1.563 -5.657,0 -1.562,1.562 -1.562,4.095 0,5.656 l 15.792,15.792 c 3.462,3.463 8.066,5.37 12.964,5.37 3.79,0 7.397,-1.154 10.443,-3.276 l 48.609,48.609 c 0.771,0.771 1.795,1.172 2.83,1.172 0.713,0 1.432,-0.19 2.075,-0.581 l 33.938,-20.611 v 13.492 c 0,2.209 1.791,4 4,4 h 26.687 l -17.157,9.213 c -1.925,-0.498 -3.907,-0.848 -5.933,-1.046 -0.039,-2.178 -1.812,-3.929 -3.994,-3.929 -0.006,0 -0.013,0 -0.02,0 -2.19,0.011 -3.955,1.781 -3.976,3.963 -7.597,0.804 -14.711,3.791 -20.604,8.652 -1.572,-1.509 -4.068,-1.487 -5.608,0.066 -1.54,1.555 -1.537,4.051 -0.013,5.609 -4.804,5.941 -7.722,13.083 -8.453,20.688 -2.182,0.042 -3.934,1.824 -3.923,4.013 0.011,2.19 1.78,3.957 3.963,3.977 0.834,7.758 3.958,14.844 8.674,20.573 -1.535,1.572 -1.519,4.088 0.044,5.636 0.78,0.772 1.797,1.158 2.815,1.158 1.023,0 2.044,-0.392 2.824,-1.17 5.773,4.66 12.887,7.715 20.656,8.473 0.04,2.177 1.812,3.928 3.994,3.928 0.007,0 0.014,0 0.02,0 2.189,-0.011 3.954,-1.78 3.975,-3.962 7.597,-0.804 14.711,-3.792 20.605,-8.652 0.774,0.742 1.768,1.118 2.765,1.118 1.03,0 2.06,-0.396 2.842,-1.186 1.539,-1.554 1.537,-4.05 0.013,-5.607 4.804,-5.941 7.722,-13.083 8.453,-20.688 2.182,-0.042 3.934,-1.824 3.923,-4.013 -0.011,-2.19 -1.78,-3.957 -3.963,-3.977 -0.834,-7.758 -3.958,-14.844 -8.675,-20.574 1.536,-1.571 1.52,-4.089 -0.044,-5.637 -1.564,-1.549 -4.084,-1.541 -5.639,0.013 -1.608,-1.298 -3.322,-2.467 -5.123,-3.501 l 24.469,-13.139 h 105.458 l -18.568,11.278 c -3.693,-1.628 -7.678,-2.704 -11.855,-3.111 -0.039,-2.178 -1.812,-3.929 -3.994,-3.929 -0.007,0 -0.014,0 -0.02,0 -2.19,0.011 -3.955,1.781 -3.975,3.963 -7.597,0.804 -14.711,3.791 -20.604,8.652 -1.572,-1.509 -4.068,-1.487 -5.608,0.066 -1.54,1.555 -1.537,4.051 -0.013,5.609 -4.804,5.941 -7.722,13.083 -8.453,20.688 -2.182,0.042 -3.934,1.824 -3.923,4.013 0.011,2.19 1.78,3.957 3.963,3.977 0.834,7.758 3.958,14.844 8.674,20.573 -1.535,1.572 -1.519,4.088 0.044,5.636 0.78,0.772 1.797,1.158 2.815,1.158 1.023,0 2.044,-0.392 2.825,-1.17 5.773,4.66 12.887,7.715 20.656,8.473 0.04,2.177 1.812,3.928 3.994,3.928 0.007,0 0.014,0 0.02,0 2.189,-0.011 3.954,-1.78 3.975,-3.962 7.597,-0.804 14.711,-3.791 20.605,-8.652 0.773,0.742 1.768,1.118 2.765,1.118 1.03,0 2.06,-0.396 2.842,-1.186 1.539,-1.554 1.537,-4.05 0.013,-5.607 4.804,-5.941 7.722,-13.083 8.453,-20.688 2.182,-0.042 3.934,-1.824 3.923,-4.013 -0.011,-2.19 -1.78,-3.957 -3.963,-3.977 -0.834,-7.758 -3.958,-14.844 -8.675,-20.574 1.536,-1.571 1.52,-4.089 -0.044,-5.637 -1.564,-1.549 -4.084,-1.541 -5.639,0.013 -0.319,-0.258 -0.641,-0.511 -0.968,-0.759 l 21.815,-13.25 c 2.439,3.886 6.75,6.487 11.655,6.487 h 0.066 c 5.128,-0.025 9.588,-2.872 11.935,-7.053 l 22.616,13.736 c -0.451,0.34 -0.895,0.691 -1.333,1.052 -1.572,-1.509 -4.068,-1.487 -5.608,0.066 -1.54,1.555 -1.537,4.051 -0.013,5.609 -4.804,5.941 -7.722,13.083 -8.453,20.688 -2.182,0.042 -3.934,1.824 -3.923,4.013 0.011,2.19 1.78,3.957 3.963,3.977 0.834,7.758 3.958,14.844 8.674,20.573 -1.535,1.572 -1.519,4.088 0.044,5.636 0.78,0.772 1.797,1.158 2.815,1.158 1.023,0 2.044,-0.392 2.825,-1.17 5.773,4.66 12.887,7.715 20.656,8.473 0.04,2.177 1.812,3.928 3.994,3.928 0.006,0 0.013,0 0.02,0 2.19,-0.011 3.954,-1.78 3.975,-3.962 7.597,-0.804 14.711,-3.791 20.605,-8.652 0.773,0.742 1.768,1.118 2.765,1.118 1.03,0 2.06,-0.396 2.842,-1.186 1.539,-1.554 1.537,-4.05 0.013,-5.607 4.804,-5.941 7.722,-13.083 8.453,-20.688 2.182,-0.042 3.934,-1.824 3.923,-4.013 -0.011,-2.19 -1.78,-3.957 -3.963,-3.977 -0.834,-7.758 -3.958,-14.844 -8.675,-20.574 1.536,-1.571 1.52,-4.089 -0.044,-5.637 -1.564,-1.549 -4.084,-1.541 -5.639,0.013 -5.773,-4.66 -12.887,-7.715 -20.656,-8.473 -0.039,-2.178 -1.812,-3.929 -3.994,-3.929 -0.007,0 -0.014,0 -0.02,0 -2.19,0.011 -3.955,1.781 -3.975,3.963 -3.972,0.42 -7.809,1.444 -11.412,3.013 z m -175.534,26.342 c 0.78,0.772 1.797,1.158 2.814,1.158 0.25,0 0.5,-0.025 0.746,-0.072 3.682,4.506 6.127,10.058 6.807,16.132 -1.057,0.725 -1.748,1.943 -1.742,3.321 0.007,1.378 0.71,2.59 1.775,3.304 -0.598,5.948 -2.88,11.535 -6.618,16.2 -1.261,-0.237 -2.613,0.136 -3.584,1.116 -0.97,0.98 -1.33,2.336 -1.081,3.594 -4.629,3.783 -10.194,6.12 -16.137,6.775 -0.721,-1.052 -1.931,-1.743 -3.301,-1.743 -0.007,0 -0.014,0 -0.02,0 -1.379,0.007 -2.592,0.711 -3.306,1.777 -6.084,-0.621 -11.656,-3.018 -16.196,-6.656 0.223,-1.25 -0.148,-2.585 -1.119,-3.547 -0.971,-0.962 -2.311,-1.321 -3.56,-1.085 -3.682,-4.507 -6.128,-10.058 -6.808,-16.133 1.057,-0.725 1.748,-1.943 1.742,-3.321 -0.007,-1.378 -0.71,-2.59 -1.775,-3.304 0.598,-5.949 2.881,-11.536 6.62,-16.202 0.245,0.046 0.493,0.071 0.741,0.071 1.03,0 2.06,-0.396 2.842,-1.185 0.971,-0.981 1.331,-2.336 1.082,-3.595 4.629,-3.783 10.194,-6.12 16.137,-6.775 0.721,1.052 1.93,1.742 3.3,1.742 0.006,0 0.013,0 0.02,0 1.379,-0.007 2.591,-0.711 3.306,-1.776 6.084,0.621 11.656,3.018 16.197,6.656 -0.224,1.252 0.147,2.587 1.118,3.548 z m 115.037,0 c 0.78,0.772 1.797,1.158 2.814,1.158 0.25,0 0.5,-0.025 0.746,-0.072 3.682,4.506 6.127,10.058 6.807,16.132 -1.057,0.725 -1.748,1.943 -1.742,3.321 0.007,1.378 0.71,2.59 1.775,3.304 -0.598,5.948 -2.88,11.535 -6.618,16.2 -1.261,-0.237 -2.613,0.136 -3.584,1.116 -0.97,0.98 -1.33,2.336 -1.081,3.594 -4.629,3.783 -10.194,6.12 -16.136,6.775 -0.721,-1.052 -1.931,-1.743 -3.301,-1.743 -0.007,0 -0.014,0 -0.02,0 -1.379,0.007 -2.592,0.711 -3.306,1.777 -6.084,-0.621 -11.656,-3.018 -16.196,-6.656 0.223,-1.25 -0.149,-2.585 -1.119,-3.547 -0.971,-0.962 -2.311,-1.321 -3.56,-1.085 -3.682,-4.507 -6.128,-10.058 -6.808,-16.133 1.057,-0.725 1.748,-1.943 1.742,-3.321 -0.007,-1.378 -0.71,-2.59 -1.775,-3.304 0.598,-5.949 2.881,-11.536 6.62,-16.202 0.245,0.046 0.493,0.071 0.741,0.071 1.03,0 2.06,-0.396 2.842,-1.185 0.971,-0.981 1.331,-2.336 1.082,-3.595 4.63,-3.783 10.194,-6.12 16.137,-6.775 0.721,1.052 1.93,1.742 3.3,1.742 0.007,0 0.014,0 0.02,0 1.379,-0.007 2.591,-0.711 3.305,-1.776 6.084,0.621 11.656,3.018 16.196,6.656 -0.224,1.252 0.148,2.587 1.119,3.548 z m 98.352,-67.404 40.855,-36.742 3.36,3.021 -44.215,39.762 z m 0,28.123 V 237.72 l 50.197,-45.143 6.294,5.66 z m 29.464,-75.108 5.41,4.865 -34.874,31.361 v -9.724 z m -99.121,11.91 h 31.05 v 9.037 h -31.05 z m -90.382,-59.007 h -4.678 V 88.17 h 4.678 z m -54,-38.666 h 41.322 v 38.666 h -41.322 z m 25.342,46.666 h 3.31 v 36.581 c -0.55,-0.033 -1.103,-0.055 -1.661,-0.055 -0.042,0 -0.086,0 -0.128,0 -0.511,0.002 -1.018,0.021 -1.521,0.052 z m 1.558,44.527 c 0.031,0 0.061,0 0.091,0 9.402,0 17.3,6.655 19.209,15.518 h -38.398 c 1.895,-8.81 9.751,-15.475 19.098,-15.518 z m -42.521,74.617 v -14.351 l 11.496,-6.981 c 2.499,2.537 5.966,4.116 9.791,4.116 h 0.068 c 3.676,-0.018 7.125,-1.466 9.713,-4.078 2.586,-2.611 4.001,-6.075 3.983,-9.751 -0.036,-7.552 -6.209,-13.695 -13.829,-13.695 -3.676,0.018 -7.125,1.466 -9.713,4.078 -2.586,2.611 -4.001,6.075 -3.983,9.751 0.004,0.848 0.096,1.674 0.248,2.479 l -7.774,4.721 V 202.88 h 221.66 v 51.1 h -40.539 c -1.509,-5.966 -6.924,-10.407 -13.397,-10.407 -2.172,0.011 -4.219,0.54 -6.043,1.449 l -37.331,-22.68 c 0.012,-0.247 0.035,-0.49 0.034,-0.74 -0.037,-7.552 -6.211,-13.696 -13.83,-13.696 -7.588,0.037 -13.732,6.241 -13.696,13.83 0.001,0.136 0.018,0.269 0.022,0.404 l -59.295,31.84 z m 15.525,-30.95 c -0.008,-1.539 0.585,-2.989 1.668,-4.083 1.083,-1.094 2.527,-1.7 4.096,-1.707 3.161,0 5.746,2.572 5.761,5.734 0.008,1.539 -0.585,2.989 -1.668,4.083 -1.083,1.094 -2.527,1.7 -4.067,1.707 h -0.029 c -3.161,0 -5.746,-2.572 -5.761,-5.734 z m 100.859,-1.389 c 0.015,3.177 -2.558,5.774 -5.735,5.79 h -0.029 c -3.161,0 -5.746,-2.572 -5.761,-5.734 -0.015,-3.178 2.558,-5.775 5.762,-5.791 3.162,0 5.747,2.573 5.763,5.735 z m -16.842,8.151 c 2.51,3.411 6.539,5.639 11.077,5.639 h 0.068 c 4.431,-0.022 8.358,-2.155 10.861,-5.429 l 34.161,20.754 c -0.549,1.005 -0.965,2.088 -1.251,3.224 h -99.962 z m 68.277,33.306 h -0.028 c -3.163,0 -5.748,-2.573 -5.763,-5.735 -0.015,-3.177 2.558,-5.774 5.764,-5.79 3.161,0 5.746,2.572 5.761,5.734 0.016,3.178 -2.557,5.776 -5.734,5.791 z m 54.583,15.055 c 0.721,1.052 1.93,1.742 3.3,1.742 0.007,0 0.014,0 0.02,0 1.379,-0.007 2.591,-0.711 3.305,-1.776 6.084,0.621 11.656,3.018 16.196,6.656 -0.223,1.25 0.149,2.586 1.12,3.547 0.78,0.772 1.797,1.158 2.814,1.158 0.25,0 0.5,-0.025 0.746,-0.072 3.682,4.506 6.127,10.058 6.807,16.132 -1.057,0.725 -1.748,1.943 -1.742,3.321 0.007,1.378 0.71,2.59 1.775,3.304 -0.598,5.948 -2.88,11.535 -6.618,16.2 -1.261,-0.237 -2.613,0.136 -3.584,1.116 -0.97,0.98 -1.33,2.336 -1.081,3.594 -4.629,3.783 -10.194,6.12 -16.136,6.775 -0.721,-1.052 -1.931,-1.743 -3.301,-1.743 -0.006,0 -0.013,0 -0.02,0 -1.38,0.007 -2.592,0.711 -3.306,1.777 -6.084,-0.621 -11.656,-3.018 -16.196,-6.656 0.223,-1.25 -0.149,-2.585 -1.119,-3.547 -0.971,-0.962 -2.311,-1.321 -3.56,-1.085 -3.682,-4.507 -6.128,-10.058 -6.808,-16.133 1.057,-0.725 1.748,-1.943 1.742,-3.321 -0.007,-1.378 -0.71,-2.59 -1.775,-3.304 0.598,-5.949 2.881,-11.536 6.62,-16.202 0.245,0.046 0.493,0.071 0.741,0.071 1.03,0 2.06,-0.396 2.842,-1.185 0.971,-0.981 1.331,-2.336 1.082,-3.595 4.629,-3.783 10.193,-6.119 16.136,-6.774 z"
   id="path14912" />
		<path
   style="fill:url(#linearGradient15000);fill-opacity:1"
   d="m 171.71,93.063 c -7.588,0.037 -13.732,6.24 -13.696,13.829 0.037,7.552 6.211,13.696 13.763,13.696 h 0.066 c 7.588,-0.037 13.732,-6.241 13.696,-13.83 -0.037,-7.551 -6.21,-13.695 -13.829,-13.695 z m 0.095,19.525 h -0.028 c -3.163,0 -5.748,-2.573 -5.763,-5.735 -0.015,-3.177 2.558,-5.774 5.764,-5.79 3.161,0 5.746,2.572 5.761,5.734 0.015,3.178 -2.557,5.776 -5.734,5.791 z"
   id="path14914" />
		<path
   style="fill:url(#linearGradient15002);fill-opacity:1"
   d="m 313.432,220.346 h 30 c 2.209,0 4,-1.791 4,-4 0,-2.209 -1.791,-4 -4,-4 h -30 c -2.209,0 -4,1.791 -4,4 0,2.209 1.791,4 4,4 z"
   id="path14916" />
		<path
   style="fill:url(#linearGradient15004);fill-opacity:1"
   d="m 313.432,231.68 h 30 c 2.209,0 4,-1.791 4,-4 0,-2.209 -1.791,-4 -4,-4 h -30 c -2.209,0 -4,1.791 -4,4 0,2.209 1.791,4 4,4 z"
   id="path14918" />
	</g><g
     style="fill:url(#linearGradient15008);fill-opacity:1"
     id="g14922">
	</g><g
     style="fill:url(#linearGradient15010);fill-opacity:1"
     id="g14924">
	</g><g
     style="fill:url(#linearGradient15012);fill-opacity:1"
     id="g14926">
	</g><g
     style="fill:url(#linearGradient15014);fill-opacity:1"
     id="g14928">
	</g><g
     style="fill:url(#linearGradient15016);fill-opacity:1"
     id="g14930">
	</g><g
     style="fill:url(#linearGradient15018);fill-opacity:1"
     id="g14932">
	</g><g
     style="fill:url(#linearGradient15020);fill-opacity:1"
     id="g14934">
	</g><g
     style="fill:url(#linearGradient15022);fill-opacity:1"
     id="g14936">
	</g><g
     style="fill:url(#linearGradient15024);fill-opacity:1"
     id="g14938">
	</g><g
     style="fill:url(#linearGradient15026);fill-opacity:1"
     id="g14940">
	</g><g
     style="fill:url(#linearGradient15028);fill-opacity:1"
     id="g14942">
	</g><g
     style="fill:url(#linearGradient15030);fill-opacity:1"
     id="g14944">
	</g><g
     style="fill:url(#linearGradient15032);fill-opacity:1"
     id="g14946">
	</g><g
     style="fill:url(#linearGradient15034);fill-opacity:1"
     id="g14948">
	</g><g
     style="fill:url(#linearGradient15036);fill-opacity:1"
     id="g14950">
	</g></g><g
   style="fill-opacity:1.0;fill:url(#linearGradient15293)"
   transform="matrix(0.80548654,0,0,0.80548654,2.183092,4.9114288)"
   id="g15285"><g
     style="fill-opacity:1.0;fill:url(#linearGradient15293)"
     id="g15227">
		<path
   style="fill:url(#linearGradient15293);fill-opacity:1.0"
   d="M 316.238,328.324 V 120.185 l -17.58,-39.183 c -1.345,-3.01 -4.229,-4.88 -7.528,-4.88 -3.299,0 -6.184,1.87 -7.525,4.874 l -9.962,22.203 C 271.155,66.284 256.388,31.284 231.427,3.636 c -2.086,-2.312 -5.067,-3.638 -8.181,-3.637 -3.113,0 -6.094,1.326 -8.177,3.636 -24.962,27.647 -39.729,62.647 -42.217,99.563 L 162.893,81 c -1.346,-3.01 -4.23,-4.879 -7.529,-4.879 -3.298,0 -6.182,1.87 -7.525,4.874 l -17.583,39.188 v 208.136 c -3.71,5.81 -5.718,12.588 -5.718,19.579 v 17.434 c 0,1.975 1.44,3.653 3.392,3.953 l 2.326,0.358 v 24.64 l -4.067,35.282 c -0.131,1.133 0.229,2.269 0.988,3.119 0.759,0.852 1.845,1.339 2.986,1.339 h 8.206 l -0.506,8.225 c -0.067,1.102 0.323,2.183 1.079,2.986 0.756,0.803 1.811,1.26 2.914,1.26 h 27.019 c 1.104,0 2.158,-0.456 2.914,-1.26 0.756,-0.804 1.146,-1.885 1.079,-2.986 l -0.506,-8.225 h 8.208 c 1.141,0 2.227,-0.487 2.986,-1.339 0.759,-0.851 1.119,-1.986 0.988,-3.119 l -4.069,-35.303 v -16.897 l 8.389,1.29 v 37.826 c 0,2.209 1.791,4 4,4 h 22.844 c 2.209,0 4,-1.791 4,-4 v -20.946 h 7.08 v 20.946 c 0,2.209 1.791,4 4,4 h 22.844 c 2.209,0 4,-1.791 4,-4 l -0.003,-37.826 8.396,-1.291 v 16.906 l -4.068,35.295 c -0.131,1.133 0.229,2.269 0.987,3.119 0.76,0.852 1.846,1.339 2.986,1.339 h 8.207 l -0.506,8.225 c -0.068,1.102 0.322,2.183 1.078,2.986 0.756,0.803 1.811,1.26 2.914,1.26 h 27.02 c 1.104,0 2.158,-0.456 2.914,-1.26 0.756,-0.804 1.146,-1.885 1.078,-2.986 l -0.506,-8.225 h 8.207 c 1.141,0 2.227,-0.487 2.986,-1.339 0.759,-0.851 1.118,-1.986 0.987,-3.119 l -4.068,-35.295 v -24.627 l 2.327,-0.358 c 1.952,-0.3 3.393,-1.979 3.393,-3.953 v -17.434 c -0.003,-6.981 -2.012,-13.758 -5.723,-19.574 z m -58.61,42.239 V 351.9 h 56.33 v 10.002 z M 172.472,125.041 v 149.304 c -4.962,9.23 -10.995,17.93 -18.034,25.908 l -16.183,18.334 V 125.041 Z m -32.818,204.051 20.782,-23.546 c 12.675,-14.363 22.27,-30.938 28.425,-48.729 v 87.082 h -56.039 c 0.775,-5.476 3.131,-10.626 6.832,-14.807 z M 205.483,150.39 h 35.523 c 5.595,19.373 8.484,39.358 8.607,59.644 h -52.737 c 0.122,-20.286 3.012,-40.272 8.607,-59.644 z m 2.464,-8 c 1.022,-3.094 2.112,-6.172 3.275,-9.231 2.323,-6.113 7.733,-8.292 12.022,-8.292 4.288,0 9.699,2.178 12.022,8.292 1.162,3.059 2.252,6.137 3.275,9.231 z m -11.086,75.643 h 52.767 v 129.801 h -52.767 z m 60.767,125.866 v -87.073 c 6.155,17.788 15.749,34.359 28.423,48.721 l 20.792,23.546 c 3.697,4.187 6.053,9.337 6.83,14.807 h -56.045 z m 16.393,-218.858 h 34.217 v 193.547 l -16.19,-18.335 C 285.012,292.28 278.982,283.585 274.022,274.36 V 125.041 Z m 16.885,-40.775 c 0.034,-0.077 0.063,-0.144 0.224,-0.144 0.161,0 0.189,0.066 0.227,0.149 l 14.703,32.77 H 276.2 Z M 221.007,8.995 c 1.158,-1.283 3.319,-1.285 4.481,0.002 20.353,22.544 33.583,50.226 38.444,79.788 h -81.37 c 4.86,-29.563 18.09,-57.244 38.445,-79.79 z m -40.535,105.378 c 0,-5.907 0.335,-11.777 0.987,-17.588 h 83.551 v -0.239 c 0.669,5.889 1.012,11.839 1.012,17.827 v 142.172 c -5.506,-15.03 -8.396,-31.025 -8.396,-47.31 h -0.021 c -0.251,-27.058 -5.238,-53.599 -14.859,-78.919 -3.105,-8.171 -10.76,-13.45 -19.501,-13.45 -8.741,0 -16.395,5.279 -19.5,13.45 -9.621,25.32 -14.608,51.861 -14.859,78.919 h -0.024 c 0,16.276 -2.887,32.264 -8.389,47.288 V 114.373 Z M 155.139,84.266 c 0.035,-0.077 0.064,-0.144 0.224,-0.144 0.16,0 0.192,0.07 0.227,0.149 l 14.702,32.77 h -29.859 z m 9.48,354.229 h -18.511 l 0.275,-4.471 h 17.96 z m -29.969,-12.471 3.17,-27.503 h 35.09 l 3.17,27.503 z m 37.822,-35.532 h -34.217 v -19.618 l 34.217,5.262 z m -39.935,-28.591 v -10.002 h 56.323 v 18.664 z m 79.167,50.581 H 196.86 v -25.447 c 0,-9.019 6.369,-16.577 14.844,-18.417 z m 15.08,-48.291 v 23.345 h -7.08 v -23.345 c 0,-2.209 -1.791,-4 -4,-4 -7.337,0 -13.993,2.961 -18.844,7.749 v -12.106 h 52.767 v 12.106 c -4.85,-4.787 -11.507,-7.749 -18.844,-7.749 -2.208,0 -3.999,1.791 -3.999,4 z m 8,48.291 v -43.864 c 8.455,1.835 14.809,9.362 14.841,18.35 l 0.003,25.514 z m 65.601,26.013 h -18.512 l 0.275,-4.471 h 17.962 z m -29.971,-12.471 3.17,-27.503 h 35.091 l 3.17,27.503 z m 37.824,-35.532 h -34.217 v -14.357 l 34.217,-5.261 z"
   id="path15221" />
		<path
   style="fill:url(#linearGradient15293);fill-opacity:1.0"
   d="m 210.813,191.725 c 0,-5.598 4.554,-10.152 10.152,-10.152 v -8 c -10.009,0 -18.152,8.144 -18.152,18.152 z"
   id="path15223" />
		<path
   style="fill:url(#linearGradient15293);fill-opacity:1.0"
   d="m 235.676,191.725 h 8 c 0,-10.009 -8.144,-18.152 -18.152,-18.152 v 8 c 5.597,-0.001 10.152,4.554 10.152,10.152 z"
   id="path15225" />
	</g><g
     style="fill-opacity:1.0;fill:url(#linearGradient15293)"
     id="g15229">
	</g><g
     style="fill-opacity:1.0;fill:url(#linearGradient15293)"
     id="g15231">
	</g><g
     style="fill-opacity:1.0;fill:url(#linearGradient15293)"
     id="g15233">
	</g><g
     style="fill-opacity:1.0;fill:url(#linearGradient15293)"
     id="g15235">
	</g><g
     style="fill-opacity:1.0;fill:url(#linearGradient15293)"
     id="g15237">
	</g><g
     style="fill-opacity:1.0;fill:url(#linearGradient15293)"
     id="g15239">
	</g><g
     style="fill-opacity:1.0;fill:url(#linearGradient15293)"
     id="g15241">
	</g><g
     style="fill-opacity:1.0;fill:url(#linearGradient15293)"
     id="g15243">
	</g><g
     style="fill-opacity:1.0;fill:url(#linearGradient15293)"
     id="g15245">
	</g><g
     style="fill-opacity:1.0;fill:url(#linearGradient15293)"
     id="g15247">
	</g><g
     style="fill-opacity:1.0;fill:url(#linearGradient15293)"
     id="g15249">
	</g><g
     style="fill-opacity:1.0;fill:url(#linearGradient15293)"
     id="g15251">
	</g><g
     style="fill-opacity:1.0;fill:url(#linearGradient15293)"
     id="g15253">
	</g><g
     style="fill-opacity:1.0;fill:url(#linearGradient15293)"
     id="g15255">
	</g><g
     style="fill-opacity:1.0;fill:url(#linearGradient15293)"
     id="g15257">
	</g></g></svg>