<?xml version="1.0" encoding="UTF-8" standalone="no"?>
<svg
   xmlns:dc="http://purl.org/dc/elements/1.1/"
   xmlns:cc="http://creativecommons.org/ns#"
   xmlns:rdf="http://www.w3.org/1999/02/22-rdf-syntax-ns#"
   xmlns:svg="http://www.w3.org/2000/svg"
   xmlns="http://www.w3.org/2000/svg"
   xmlns:xlink="http://www.w3.org/1999/xlink"
   xml:space="preserve"
   style="enable-background:new 0 0 368.258 368.258;"
   viewBox="0 0 368.258 368.258"
   y="0px"
   x="0px"
   id="Capa_1"
   version="1.1"><metadata
   id="metadata4962"><rdf:RDF><cc:Work
       rdf:about=""><dc:format>image/svg+xml</dc:format><dc:type
         rdf:resource="http://purl.org/dc/dcmitype/StillImage" /><dc:title></dc:title></cc:Work></rdf:RDF></metadata><defs
   id="defs4960"><linearGradient
     id="lapkin"><stop
       id="stop4972"
       offset="0"
       style="stop-color:#2351ee;stop-opacity:1" /><stop
       id="stop4974"
       offset="1"
       style="stop-color:#00ff00;stop-opacity:1" /></linearGradient><linearGradient
     gradientUnits="userSpaceOnUse"
     y2="152.623"
     x2="305.24527"
     y1="152.623"
     x1="0.00010533658"
     id="linearGradient12618"
     xlink:href="#lapkin" /><linearGradient
     y2="152.623"
     x2="305.24527"
     y1="152.623"
     x1="0.00010533658"
     gradientUnits="userSpaceOnUse"
     id="linearGradient12620"
     xlink:href="#lapkin" /><linearGradient
     y2="152.623"
     x2="305.24527"
     y1="152.623"
     x1="0.00010533658"
     gradientUnits="userSpaceOnUse"
     id="linearGradient12622"
     xlink:href="#lapkin" /><linearGradient
     y2="152.623"
     x2="305.24527"
     y1="152.623"
     x1="0.00010533658"
     gradientUnits="userSpaceOnUse"
     id="linearGradient12624"
     xlink:href="#lapkin" /><linearGradient
     y2="152.623"
     x2="305.24527"
     y1="152.623"
     x1="0.00010533658"
     gradientUnits="userSpaceOnUse"
     id="linearGradient12626"
     xlink:href="#lapkin" /><linearGradient
     y2="152.623"
     x2="305.24527"
     y1="152.623"
     x1="0.00010533658"
     gradientUnits="userSpaceOnUse"
     id="linearGradient12628"
     xlink:href="#lapkin" /><linearGradient
     y2="152.623"
     x2="305.24527"
     y1="152.623"
     x1="0.00010533658"
     gradientUnits="userSpaceOnUse"
     id="linearGradient12630"
     xlink:href="#lapkin" /><linearGradient
     y2="152.623"
     x2="305.24527"
     y1="152.623"
     x1="0.00010533658"
     gradientUnits="userSpaceOnUse"
     id="linearGradient12632"
     xlink:href="#lapkin" /><linearGradient
     y2="152.623"
     x2="305.24527"
     y1="152.623"
     x1="0.00010533658"
     gradientUnits="userSpaceOnUse"
     id="linearGradient12634"
     xlink:href="#lapkin" /><linearGradient
     y2="152.623"
     x2="305.24527"
     y1="152.623"
     x1="0.00010533658"
     gradientUnits="userSpaceOnUse"
     id="linearGradient12636"
     xlink:href="#lapkin" /><linearGradient
     y2="152.623"
     x2="305.24527"
     y1="152.623"
     x1="0.00010533658"
     gradientUnits="userSpaceOnUse"
     id="linearGradient12638"
     xlink:href="#lapkin" /><linearGradient
     y2="152.623"
     x2="305.24527"
     y1="152.623"
     x1="0.00010533658"
     gradientUnits="userSpaceOnUse"
     id="linearGradient12640"
     xlink:href="#lapkin" /><linearGradient
     y2="152.623"
     x2="305.24527"
     y1="152.623"
     x1="0.00010533658"
     gradientUnits="userSpaceOnUse"
     id="linearGradient12642"
     xlink:href="#lapkin" /><linearGradient
     y2="152.623"
     x2="305.24527"
     y1="152.623"
     x1="0.00010533658"
     gradientUnits="userSpaceOnUse"
     id="linearGradient12644"
     xlink:href="#lapkin" /><linearGradient
     y2="152.623"
     x2="305.24527"
     y1="152.623"
     x1="0.00010533658"
     gradientUnits="userSpaceOnUse"
     id="linearGradient12646"
     xlink:href="#lapkin" /><linearGradient
     y2="152.623"
     x2="305.24527"
     y1="152.623"
     x1="0.00010533658"
     gradientUnits="userSpaceOnUse"
     id="linearGradient12648"
     xlink:href="#lapkin" /><linearGradient
     y2="152.623"
     x2="305.24527"
     y1="152.623"
     x1="0.00010533658"
     gradientUnits="userSpaceOnUse"
     id="linearGradient12650"
     xlink:href="#lapkin" /><linearGradient
     y2="152.623"
     x2="305.24527"
     y1="152.623"
     x1="0.00010533658"
     gradientUnits="userSpaceOnUse"
     id="linearGradient12652"
     xlink:href="#lapkin" /><linearGradient
     y2="152.623"
     x2="305.24527"
     y1="152.623"
     x1="0.00010533658"
     gradientUnits="userSpaceOnUse"
     id="linearGradient12654"
     xlink:href="#lapkin" /><linearGradient
     y2="152.623"
     x2="305.24527"
     y1="152.623"
     x1="0.00010533658"
     gradientUnits="userSpaceOnUse"
     id="linearGradient12656"
     xlink:href="#lapkin" /><linearGradient
     gradientUnits="userSpaceOnUse"
     y2="142.1723"
     x2="271.96667"
     y1="142.1723"
     x1="12.379423"
     id="linearGradient12935"
     xlink:href="#lapkin" /><linearGradient
     y2="142.1723"
     x2="271.96667"
     y1="142.1723"
     x1="12.379423"
     gradientUnits="userSpaceOnUse"
     id="linearGradient13013"
     xlink:href="#lapkin" /><linearGradient
     y2="142.1723"
     x2="271.96667"
     y1="142.1723"
     x1="12.379423"
     gradientUnits="userSpaceOnUse"
     id="linearGradient13015"
     xlink:href="#lapkin" /><linearGradient
     y2="142.1723"
     x2="271.96667"
     y1="142.1723"
     x1="12.379423"
     gradientUnits="userSpaceOnUse"
     id="linearGradient13017"
     xlink:href="#lapkin" /><linearGradient
     y2="142.1723"
     x2="271.96667"
     y1="142.1723"
     x1="12.379423"
     gradientUnits="userSpaceOnUse"
     id="linearGradient13019"
     xlink:href="#lapkin" /><linearGradient
     y2="142.1723"
     x2="271.96667"
     y1="142.1723"
     x1="12.379423"
     gradientUnits="userSpaceOnUse"
     id="linearGradient13021"
     xlink:href="#lapkin" /><linearGradient
     y2="142.1723"
     x2="271.96667"
     y1="142.1723"
     x1="12.379423"
     gradientUnits="userSpaceOnUse"
     id="linearGradient13023"
     xlink:href="#lapkin" /><linearGradient
     y2="142.1723"
     x2="271.96667"
     y1="142.1723"
     x1="12.379423"
     gradientUnits="userSpaceOnUse"
     id="linearGradient13025"
     xlink:href="#lapkin" /><linearGradient
     y2="142.1723"
     x2="271.96667"
     y1="142.1723"
     x1="12.379423"
     gradientUnits="userSpaceOnUse"
     id="linearGradient13027"
     xlink:href="#lapkin" /><linearGradient
     y2="142.1723"
     x2="271.96667"
     y1="142.1723"
     x1="12.379423"
     gradientUnits="userSpaceOnUse"
     id="linearGradient13029"
     xlink:href="#lapkin" /><linearGradient
     y2="142.1723"
     x2="271.96667"
     y1="142.1723"
     x1="12.379423"
     gradientUnits="userSpaceOnUse"
     id="linearGradient13031"
     xlink:href="#lapkin" /><linearGradient
     y2="142.1723"
     x2="271.96667"
     y1="142.1723"
     x1="12.379423"
     gradientUnits="userSpaceOnUse"
     id="linearGradient13033"
     xlink:href="#lapkin" /><linearGradient
     y2="142.1723"
     x2="271.96667"
     y1="142.1723"
     x1="12.379423"
     gradientUnits="userSpaceOnUse"
     id="linearGradient13035"
     xlink:href="#lapkin" /><linearGradient
     y2="142.1723"
     x2="271.96667"
     y1="142.1723"
     x1="12.379423"
     gradientUnits="userSpaceOnUse"
     id="linearGradient13037"
     xlink:href="#lapkin" /><linearGradient
     y2="142.1723"
     x2="271.96667"
     y1="142.1723"
     x1="12.379423"
     gradientUnits="userSpaceOnUse"
     id="linearGradient13039"
     xlink:href="#lapkin" /><linearGradient
     y2="142.1723"
     x2="271.96667"
     y1="142.1723"
     x1="12.379423"
     gradientUnits="userSpaceOnUse"
     id="linearGradient13041"
     xlink:href="#lapkin" /><linearGradient
     y2="142.1723"
     x2="271.96667"
     y1="142.1723"
     x1="12.379423"
     gradientUnits="userSpaceOnUse"
     id="linearGradient13043"
     xlink:href="#lapkin" /><linearGradient
     y2="142.1723"
     x2="271.96667"
     y1="142.1723"
     x1="12.379423"
     gradientUnits="userSpaceOnUse"
     id="linearGradient13045"
     xlink:href="#lapkin" /><linearGradient
     y2="142.1723"
     x2="271.96667"
     y1="142.1723"
     x1="12.379423"
     gradientUnits="userSpaceOnUse"
     id="linearGradient13047"
     xlink:href="#lapkin" /><linearGradient
     y2="142.1723"
     x2="271.96667"
     y1="142.1723"
     x1="12.379423"
     gradientUnits="userSpaceOnUse"
     id="linearGradient13049"
     xlink:href="#lapkin" /><linearGradient
     y2="142.1723"
     x2="271.96667"
     y1="142.1723"
     x1="12.379423"
     gradientUnits="userSpaceOnUse"
     id="linearGradient13051"
     xlink:href="#lapkin" /><linearGradient
     y2="142.1723"
     x2="271.96667"
     y1="142.1723"
     x1="12.379423"
     gradientUnits="userSpaceOnUse"
     id="linearGradient13053"
     xlink:href="#lapkin" /><linearGradient
     y2="142.1723"
     x2="271.96667"
     y1="142.1723"
     x1="12.379423"
     gradientUnits="userSpaceOnUse"
     id="linearGradient13055"
     xlink:href="#lapkin" /><linearGradient
     y2="142.1723"
     x2="271.96667"
     y1="142.1723"
     x1="12.379423"
     gradientUnits="userSpaceOnUse"
     id="linearGradient13057"
     xlink:href="#lapkin" /><linearGradient
     y2="142.1723"
     x2="271.96667"
     y1="142.1723"
     x1="12.379423"
     gradientUnits="userSpaceOnUse"
     id="linearGradient13059"
     xlink:href="#lapkin" /><linearGradient
     y2="142.1723"
     x2="271.96667"
     y1="142.1723"
     x1="12.379423"
     gradientUnits="userSpaceOnUse"
     id="linearGradient13061"
     xlink:href="#lapkin" /><linearGradient
     gradientUnits="userSpaceOnUse"
     y2="204.6335"
     x2="409.26801"
     y1="204.6335"
     x1="0"
     id="linearGradient13261"
     xlink:href="#lapkin" /></defs>
	
	<g
   id="g4927">
	</g>
	<g
   id="g4929">
	</g>
	<g
   id="g4931">
	</g>
	<g
   id="g4933">
	</g>
	<g
   id="g4935">
	</g>
	<g
   id="g4937">
	</g>
	<g
   id="g4939">
	</g>
	<g
   id="g4941">
	</g>
	<g
   id="g4943">
	</g>
	<g
   id="g4945">
	</g>
	<g
   id="g4947">
	</g>
	<g
   id="g4949">
	</g>
	<g
   id="g4951">
	</g>
	<g
   id="g4953">
	</g>
	<g
   id="g4955">
	</g>
<g
   style="fill:url(#linearGradient12618);fill-opacity:1"
   transform="matrix(1.1729454,0,0,1.1729454,-496.80825,-21.46279)"
   id="g12610"><g
     style="fill:url(#linearGradient12626);fill-opacity:1"
     id="g12552">
		<path
   style="fill:url(#linearGradient12620);fill-opacity:1"
   d="M 304.522,224.795 264.009,58.588 C 260.238,43.115 246.481,32.309 230.556,32.309 H 203.509 V 20.37 h 7.447 c 2.209,0 4,-1.791 4,-4 0,-2.209 -1.791,-4 -4,-4 H 199.509 105.72 94.274 c -2.209,0 -4,1.791 -4,4 0,2.209 1.791,4 4,4 h 7.446 V 32.309 H 74.673 c -15.925,0 -29.682,10.807 -33.453,26.279 L 0.718,224.752 c -2.534,10.396 1.78,21.299 10.735,27.129 1.585,1.031 2.875,1.852 3.835,2.436 41.377,25.226 88.863,38.559 137.326,38.559 49.918,0 98.615,-14.084 140.825,-40.729 0.003,-0.002 0.112,-0.071 0.114,-0.073 9.128,-5.787 13.536,-16.749 10.969,-27.279 z M 22.214,170.342 c 2.248,1.974 4.867,3.253 7.689,3.677 0.741,0.114 1.483,0.171 2.225,0.171 3.344,0 6.666,-1.154 9.722,-3.396 5.554,-4.077 9.624,-11.456 10.887,-19.733 1.273,-8.276 -0.4,-16.533 -4.478,-22.087 -2.739,-3.73 -6.343,-6.031 -10.414,-6.653 -1.3,-0.202 -2.609,-0.212 -3.911,-0.06 L 41.55,91.016 H 74.469 L 56.419,217.673 H 10.677 Z m 9.52,-39.06 c 1.642,-0.946 3.282,-1.306 4.895,-1.055 2.443,0.373 4.166,2.099 5.181,3.481 2.848,3.879 3.977,9.911 3.019,16.14 -0.95,6.229 -3.834,11.648 -7.714,14.496 -1.383,1.014 -3.543,2.147 -6.008,1.766 -3.416,-0.513 -5.473,-3.601 -6.482,-5.658 z M 46.348,71.327 H 258.88 l 2.849,11.688 H 43.499 Z m 36.201,19.688 h 140.145 l 18.05,126.657 H 64.499 Z M 248.825,217.672 230.775,91.015 h 32.904 l 7.615,31.243 c -1.296,-0.151 -2.599,-0.14 -3.891,0.061 -4.079,0.623 -7.683,2.924 -10.422,6.654 -4.077,5.554 -5.751,13.811 -4.479,22.082 1.265,8.283 5.335,15.662 10.89,19.738 3.056,2.244 6.379,3.398 9.717,3.398 0.737,0 1.477,-0.057 2.213,-0.17 2.827,-0.425 5.446,-1.702 7.695,-3.673 l 11.535,47.323 h -45.727 z m 31.783,-57.206 c -1.012,2.057 -3.068,5.133 -6.49,5.647 -2.45,0.375 -4.61,-0.754 -5.992,-1.769 -3.88,-2.847 -6.764,-8.267 -7.716,-14.501 -0.957,-6.224 0.172,-12.256 3.02,-16.135 1.015,-1.383 2.737,-3.108 5.188,-3.482 1.599,-0.25 3.236,0.107 4.875,1.048 z M 109.72,20.37 h 85.789 V 32.309 H 109.72 Z M 74.673,40.309 h 155.883 c 12.226,0 22.786,8.296 25.682,20.174 l 0.693,2.844 H 48.298 l 0.693,-2.844 C 51.887,48.605 62.447,40.309 74.673,40.309 Z m 214.598,205.009 -0.101,0.063 c -40.931,25.837 -88.151,39.494 -136.556,39.494 -46.993,0 -93.04,-12.929 -133.163,-37.39 -0.968,-0.59 -2.236,-1.399 -3.633,-2.31 -5.351,-3.483 -8.274,-9.619 -7.762,-15.857 0.073,-0.891 0.67,-3.647 0.67,-3.647 h 287.775 c 0,0 0.53,2.341 0.612,3.003 0.811,6.554 -2.187,13.057 -7.842,16.644 z"
   id="path12546" />
		<path
   style="fill:url(#linearGradient12622);fill-opacity:1"
   d="m 216.854,178.422 c -4.672,-18.243 -9.158,-36.818 -13.339,-55.224 -1.758,-7.631 -8.661,-12.853 -16.646,-12.407 -11.357,0.681 -22.883,1.026 -34.256,1.026 -11.373,0 -22.894,-0.346 -34.244,-1.026 -7.944,-0.449 -14.886,4.774 -16.647,12.42 -4.169,18.359 -8.655,36.935 -13.331,55.192 -1.097,4.198 -0.232,8.693 2.372,12.335 2.984,4.173 7.812,6.797 13.243,7.197 16.107,1.189 32.463,1.792 48.614,1.792 16.151,0 32.507,-0.603 48.614,-1.792 5.431,-0.401 10.257,-3.025 13.242,-7.199 2.604,-3.641 3.469,-8.136 2.378,-12.314 z m -8.885,7.661 c -1.6,2.236 -4.269,3.648 -7.324,3.874 -15.911,1.175 -32.069,1.771 -48.024,1.771 -15.955,0 -32.113,-0.596 -48.025,-1.771 -3.056,-0.226 -5.726,-1.637 -7.325,-3.873 -1.236,-1.729 -1.641,-3.738 -1.134,-5.678 4.698,-18.347 9.202,-36.994 13.384,-55.411 0.833,-3.611 4.15,-6.232 7.888,-6.232 0.162,0 0.324,0.005 0.485,0.015 11.507,0.689 23.188,1.04 34.721,1.04 11.533,0 23.219,-0.351 34.732,-1.04 3.974,-0.236 7.492,2.392 8.371,6.205 4.193,18.464 8.697,37.11 13.392,55.442 0.5,1.92 0.095,3.93 -1.141,5.658 z"
   id="path12548" />
		<path
   style="fill:url(#linearGradient12624);fill-opacity:1"
   d="m 152.62,130.606 c -14.422,0 -26.155,11.054 -26.155,24.64 0,13.586 11.733,24.64 26.155,24.64 14.422,0 26.154,-11.054 26.154,-24.64 0,-13.586 -11.732,-24.64 -26.154,-24.64 z m 0,41.279 c -10.011,0 -18.155,-7.465 -18.155,-16.64 0,-9.175 8.145,-16.64 18.155,-16.64 10.01,0 18.154,7.465 18.154,16.64 0,9.175 -8.143,16.64 -18.154,16.64 z"
   id="path12550" />
	</g><g
     style="fill:url(#linearGradient12628);fill-opacity:1"
     id="g12554">
	</g><g
     style="fill:url(#linearGradient12630);fill-opacity:1"
     id="g12556">
	</g><g
     style="fill:url(#linearGradient12632);fill-opacity:1"
     id="g12558">
	</g><g
     style="fill:url(#linearGradient12634);fill-opacity:1"
     id="g12560">
	</g><g
     style="fill:url(#linearGradient12636);fill-opacity:1"
     id="g12562">
	</g><g
     style="fill:url(#linearGradient12638);fill-opacity:1"
     id="g12564">
	</g><g
     style="fill:url(#linearGradient12640);fill-opacity:1"
     id="g12566">
	</g><g
     style="fill:url(#linearGradient12642);fill-opacity:1"
     id="g12568">
	</g><g
     style="fill:url(#linearGradient12644);fill-opacity:1"
     id="g12570">
	</g><g
     style="fill:url(#linearGradient12646);fill-opacity:1"
     id="g12572">
	</g><g
     style="fill:url(#linearGradient12648);fill-opacity:1"
     id="g12574">
	</g><g
     style="fill:url(#linearGradient12650);fill-opacity:1"
     id="g12576">
	</g><g
     style="fill:url(#linearGradient12652);fill-opacity:1"
     id="g12578">
	</g><g
     style="fill:url(#linearGradient12654);fill-opacity:1"
     id="g12580">
	</g><g
     style="fill:url(#linearGradient12656);fill-opacity:1"
     id="g12582">
	</g></g><g
   style="fill:url(#linearGradient12935);fill-opacity:1"
   transform="matrix(0,-1.221591,1.221591,0,-536.77093,442.63155)"
   id="g12927"><g
     style="fill:url(#linearGradient13031);fill-opacity:1"
     id="g12863">
		<path
   style="fill:url(#linearGradient13013);fill-opacity:1"
   d="m 271.771,255.494 c -0.471,-1.448 -1.723,-2.503 -3.229,-2.723 l -11.8,-1.715 -5.276,-10.692 c -0.674,-1.365 -2.064,-2.23 -3.587,-2.23 -1.523,0 -2.913,0.864 -3.587,2.229 l -5.277,10.692 -11.8,1.715 c -1.507,0.219 -2.759,1.274 -3.229,2.722 -0.47,1.448 -0.078,3.038 1.013,4.101 l 8.538,8.323 -2.016,11.752 c -0.258,1.501 0.359,3.018 1.591,3.912 1.233,0.896 2.866,1.014 4.213,0.305 l 10.555,-5.548 10.554,5.548 c 0.585,0.308 1.225,0.459 1.861,0.459 0.829,0 1.654,-0.258 2.352,-0.764 1.231,-0.895 1.849,-2.411 1.591,-3.912 l -2.016,-11.752 8.538,-8.323 c 1.089,-1.061 1.481,-2.651 1.011,-4.099 z m -16.64,8.162 c -0.942,0.919 -1.373,2.243 -1.15,3.541 l 1.001,5.836 -5.241,-2.755 c -1.166,-0.612 -2.557,-0.612 -3.723,0 l -5.242,2.756 1.001,-5.837 c 0.223,-1.298 -0.208,-2.622 -1.15,-3.541 l -4.24,-4.133 5.86,-0.852 c 1.303,-0.189 2.429,-1.008 3.012,-2.188 l 2.621,-5.31 2.62,5.31 c 0.582,1.181 1.709,1.999 3.012,2.188 l 5.86,0.852 z"
   id="path12845" />
		<path
   style="fill:url(#linearGradient13015);fill-opacity:1"
   d="m 34.371,32.236 c 3.995,2.345 8.01,4.775 11.933,7.221 0.659,0.411 1.39,0.606 2.113,0.606 1.335,0 2.64,-0.668 3.398,-1.884 1.169,-1.875 0.597,-4.342 -1.277,-5.511 -3.984,-2.484 -8.061,-4.951 -12.117,-7.333 -1.906,-1.119 -4.356,-0.48 -5.475,1.425 -1.118,1.906 -0.48,4.357 1.425,5.476 z"
   id="path12847" />
		<path
   style="fill:url(#linearGradient13017);fill-opacity:1"
   d="M 110.263,75.975 C 96.364,64.333 81.703,53.29 66.687,43.152 c -1.83,-1.236 -4.317,-0.754 -5.553,1.077 -1.236,1.831 -0.754,4.317 1.077,5.553 14.788,9.984 29.227,20.86 42.916,32.326 24.133,20.213 46.532,42.744 66.573,66.965 20.086,24.275 38.032,50.528 53.339,78.028 0.731,1.314 2.094,2.056 3.499,2.056 0.658,0 1.325,-0.163 1.941,-0.506 1.931,-1.074 2.624,-3.51 1.55,-5.44 C 216.484,195.284 198.26,168.625 177.864,143.974 157.512,119.377 134.768,96.5 110.263,75.975 Z"
   id="path12849" />
		<path
   style="fill:url(#linearGradient13019);fill-opacity:1"
   d="M 91.035,93.832 C 70.855,77.905 47.024,63.099 18.18,48.567 c -1.973,-0.993 -4.377,-0.201 -5.372,1.772 -0.994,1.973 -0.2,4.378 1.772,5.372 28.358,14.287 51.746,28.81 71.499,44.399 0.734,0.58 1.607,0.86 2.476,0.86 1.182,0 2.353,-0.522 3.142,-1.522 1.368,-1.733 1.072,-4.248 -0.662,-5.616 z"
   id="path12851" />
		<path
   style="fill:url(#linearGradient13021);fill-opacity:1"
   d="m 108.985,107.743 c -1.715,-1.391 -4.235,-1.128 -5.626,0.589 -1.391,1.716 -1.127,4.235 0.589,5.626 2.831,2.295 5.682,4.656 8.473,7.018 0.751,0.636 1.669,0.946 2.582,0.946 1.136,0 2.264,-0.481 3.056,-1.416 1.427,-1.687 1.216,-4.21 -0.47,-5.638 -2.835,-2.397 -5.729,-4.795 -8.604,-7.125 z"
   id="path12853" />
		<path
   style="fill:url(#linearGradient13023);fill-opacity:1"
   d="m 154.343,149.108 c -6.998,-7.172 -14.284,-14.225 -21.655,-20.96 -1.631,-1.49 -4.16,-1.376 -5.651,0.255 -1.49,1.631 -1.376,4.161 0.255,5.651 7.259,6.633 14.434,13.577 21.325,20.641 24.177,24.781 45.974,52.129 64.784,81.284 0.766,1.186 2.052,1.832 3.365,1.832 0.742,0 1.494,-0.207 2.165,-0.639 1.856,-1.198 2.39,-3.674 1.192,-5.53 -19.1,-29.602 -41.232,-57.371 -65.78,-82.534 z"
   id="path12855" />
		<path
   style="fill:url(#linearGradient13025);fill-opacity:1"
   d="m 52.349,7.367 c 40.877,26.235 78.917,60.094 113.063,100.636 0.791,0.939 1.923,1.423 3.062,1.423 0.91,0 1.824,-0.309 2.575,-0.94 1.689,-1.423 1.905,-3.947 0.482,-5.636 C 136.867,61.693 98.222,27.303 56.67,0.634 54.811,-0.559 52.336,-0.02 51.143,1.84 49.95,3.699 50.49,6.173 52.349,7.367 Z"
   id="path12857" />
		<path
   style="fill:url(#linearGradient13027);fill-opacity:1"
   d="m 229.794,204.21 c 0.707,1.386 2.11,2.184 3.566,2.184 0.611,0 1.232,-0.141 1.813,-0.438 1.969,-1.003 2.751,-3.412 1.747,-5.38 -14.82,-29.073 -32.82,-57.027 -53.499,-83.086 -1.374,-1.731 -3.89,-2.02 -5.62,-0.647 -1.73,1.373 -2.021,3.889 -0.647,5.62 20.35,25.643 38.06,53.146 52.64,81.747 z"
   id="path12859" />
		<path
   style="fill:url(#linearGradient13029);fill-opacity:1"
   d="m 236.567,217.949 c 1.032,2.179 2.048,4.366 3.048,6.559 0.671,1.473 2.123,2.342 3.642,2.342 0.556,0 1.119,-0.116 1.657,-0.361 2.01,-0.916 2.896,-3.288 1.98,-5.298 -1.016,-2.229 -2.049,-4.452 -3.097,-6.666 -0.945,-1.997 -3.33,-2.85 -5.327,-1.903 -1.997,0.946 -2.848,3.331 -1.903,5.327 z"
   id="path12861" />
	</g><g
     style="fill:url(#linearGradient13033);fill-opacity:1"
     id="g12865">
	</g><g
     style="fill:url(#linearGradient13035);fill-opacity:1"
     id="g12867">
	</g><g
     style="fill:url(#linearGradient13037);fill-opacity:1"
     id="g12869">
	</g><g
     style="fill:url(#linearGradient13039);fill-opacity:1"
     id="g12871">
	</g><g
     style="fill:url(#linearGradient13041);fill-opacity:1"
     id="g12873">
	</g><g
     style="fill:url(#linearGradient13043);fill-opacity:1"
     id="g12875">
	</g><g
     style="fill:url(#linearGradient13045);fill-opacity:1"
     id="g12877">
	</g><g
     style="fill:url(#linearGradient13047);fill-opacity:1"
     id="g12879">
	</g><g
     style="fill:url(#linearGradient13049);fill-opacity:1"
     id="g12881">
	</g><g
     style="fill:url(#linearGradient13051);fill-opacity:1"
     id="g12883">
	</g><g
     style="fill:url(#linearGradient13053);fill-opacity:1"
     id="g12885">
	</g><g
     style="fill:url(#linearGradient13055);fill-opacity:1"
     id="g12887">
	</g><g
     style="fill:url(#linearGradient13057);fill-opacity:1"
     id="g12889">
	</g><g
     style="fill:url(#linearGradient13059);fill-opacity:1"
     id="g12891">
	</g><g
     style="fill:url(#linearGradient13061);fill-opacity:1"
     id="g12893">
	</g></g><g
   style="fill-opacity:1.0;fill:url(#linearGradient13261)"
   transform="matrix(0.88467011,0,0,0.88467011,3.9006231,4.241059)"
   id="g13253"><g
     style="fill-opacity:1.0;fill:url(#linearGradient13261)"
     id="g13192">
		<path
   style="fill:url(#linearGradient13261);fill-opacity:1.0"
   d="m 191.851,283.893 c -2.209,0 -4,1.791 -4,4 v 23.519 c 0,2.209 1.791,4 4,4 2.209,0 4,-1.791 4,-4 v -23.519 c 0,-2.209 -1.791,-4 -4,-4 z"
   id="path13180" />
		<path
   style="fill:url(#linearGradient13261);fill-opacity:1.0"
   d="m 221.427,313.176 v -24.693 c 0,-2.209 -1.791,-4 -4,-4 -2.209,0 -4,1.791 -4,4 v 24.693 c 0,2.209 1.791,4 4,4 2.209,0 4,-1.791 4,-4 z"
   id="path13182" />
		<path
   style="fill:url(#linearGradient13261);fill-opacity:1.0"
   d="m 220.888,339.219 c -0.58,0.156 -1.155,0.235 -1.708,0.235 -2.209,0 -4,1.791 -4,4 0,2.209 1.791,4 4,4 1.255,0 2.529,-0.172 3.788,-0.511 2.133,-0.574 3.396,-2.769 2.822,-4.902 -0.575,-2.133 -2.769,-3.394 -4.902,-2.822 z"
   id="path13184" />
		<path
   style="fill:url(#linearGradient13261);fill-opacity:1.0"
   d="m 409.268,356.096 c 0,-7.738 -3.633,-14.807 -9.704,-19.28 1.741,-3.592 2.648,-7.531 2.648,-11.588 0,-9.37 -4.868,-17.619 -12.203,-22.368 0.103,-0.961 0.157,-1.933 0.157,-2.91 0,-15.015 -12.212,-27.23 -27.222,-27.23 -14.286,0 -26.028,11.069 -27.128,25.082 -12.559,2.138 -22.154,13.092 -22.154,26.251 0,2.251 0.277,4.461 0.828,6.608 -3.481,1.901 -6.06,5.164 -7.093,9.016 -1.176,-0.147 -2.361,-0.222 -3.552,-0.222 -12.41,0 -23.178,8.059 -26.956,19.458 -3.151,-1.125 -6.515,-1.527 -10.035,-1.02 -2.271,-8.326 -9.81,-14.322 -18.865,-14.322 -0.375,0 -0.749,0.011 -1.12,0.031 0.081,-0.627 0.123,-1.265 0.123,-1.911 0,-7.988 -6.457,-14.497 -14.426,-14.582 -2.255,-5.224 -7.466,-8.82 -13.387,-8.82 -2.209,0 -4,1.791 -4,4 0,2.209 1.791,4 4,4 3.286,0 6.087,2.456 6.516,5.714 0.15,1.143 0.785,2.164 1.743,2.805 0.96,0.641 2.145,0.838 3.259,0.537 0.585,-0.156 1.161,-0.236 1.712,-0.236 3.63,0 6.583,2.953 6.583,6.583 0,2.729 -1.648,5.135 -4.2,6.128 -1.131,0.44 -2.026,1.363 -2.364,2.528 -0.585,2.018 0.87,4.053 0.87,4.053 0.634,1.083 1.738,1.805 2.983,1.952 1.254,0.149 2.489,-0.3 3.356,-1.204 2.211,-2.307 5.177,-3.577 8.352,-3.577 6.334,0 11.413,4.965 11.563,11.304 0.03,1.293 0.685,2.491 1.756,3.217 1.071,0.727 2.429,0.887 3.639,0.438 0.546,-0.203 2.594,-0.848 4.798,-0.848 2.731,0 5.364,0.828 7.612,2.396 1.151,0.8 2.635,0.941 3.914,0.372 1.279,-0.57 2.168,-1.768 2.342,-3.157 1.273,-10.169 9.972,-17.837 20.233,-17.837 2.02,0 4.02,0.297 5.944,0.883 1.277,0.389 2.666,0.114 3.7,-0.733 1.033,-0.848 1.575,-2.155 1.444,-3.485 -0.021,-0.219 -0.034,-0.439 -0.034,-0.664 0,-2.21 1.115,-4.184 2.838,-5.383 3.324,4.813 8.73,8.035 14.823,8.435 0.09,0.006 0.179,0.009 0.267,0.009 2.09,0 3.849,-1.623 3.987,-3.737 0.145,-2.205 -1.524,-4.109 -3.729,-4.254 -4.4,-0.29 -8.119,-3.097 -9.872,-7.005 -0.434,-0.967 -1.552,-3.592 -1.552,-7.467 0,-10.275 8.36,-18.636 18.636,-18.636 5.031,0 9.709,1.971 13.187,5.472 -5.125,8.939 -3.899,20.556 3.729,28.183 0.78,0.781 1.805,1.172 2.828,1.172 1.023,0 2.048,-0.391 2.828,-1.172 1.563,-1.562 1.563,-4.095 0,-5.656 -5.883,-5.884 -6.002,-15.382 -0.358,-21.413 0.117,-0.125 0.403,-0.429 0.429,-0.456 3.428,-3.167 7.924,-4.954 12.635,-4.954 10.276,0 18.637,8.36 18.637,18.636 0,3.836 -1.159,7.521 -3.352,10.657 -0.668,0.955 -0.886,2.153 -0.597,3.283 0.288,1.129 1.055,2.076 2.1,2.593 5.492,2.722 8.904,8.214 8.904,14.335 0,7.27 -4.905,13.63 -11.928,15.468 -1.044,0.273 -1.933,0.957 -2.466,1.895 -0.532,0.938 -0.664,2.052 -0.363,3.088 0.429,1.48 0.646,3.007 0.646,4.538 0,0.116 -10e-4,0.231 -0.004,0.348 H 22.115 c -0.002,-0.116 0.011,-1.16 0.042,-1.565 0.084,-1.121 0.285,-2.233 0.6,-3.321 0.3,-1.036 0.169,-2.149 -0.364,-3.088 -0.533,-0.938 -1.421,-1.621 -2.465,-1.895 C 12.905,369.726 8,363.366 8,356.096 c 0,-4.764 2.074,-9.14 5.579,-12.133 0.264,-0.225 1.375,-1.05 1.559,-1.17 5.725,-3.737 13.838,-3.688 18.959,1.432 0.781,0.781 1.804,1.172 2.828,1.172 1.024,0 2.047,-0.391 2.829,-1.172 1.562,-1.562 1.562,-4.095 0,-5.656 -6.196,-6.197 -15.128,-8.003 -22.941,-5.459 -1.15,-2.452 -1.757,-5.126 -1.757,-7.882 0,-10.275 8.36,-18.636 18.636,-18.636 4.524,0 8.839,1.663 12.211,4.598 -1.564,3.173 -2.396,6.684 -2.396,10.323 0,6.248 2.436,12.125 6.859,16.548 0.781,0.781 1.804,1.172 2.828,1.172 1.024,0 2.047,-0.391 2.829,-1.172 1.562,-1.562 1.562,-4.095 0,-5.656 -2.912,-2.912 -4.516,-6.78 -4.516,-10.892 0,-3.975 1.511,-7.714 4.242,-10.59 3.481,-3.523 8.173,-5.506 13.22,-5.506 10.276,0 18.636,8.36 18.636,18.636 0,2.572 -0.517,5.067 -1.537,7.414 -0.485,1.117 -0.435,2.395 0.136,3.47 0.571,1.076 1.601,1.832 2.798,2.056 2.56,0.479 4.519,2.415 5.138,4.848 -8.568,4.068 -14.158,13.151 -13.304,23.143 0.188,2.201 2.125,3.833 4.326,3.645 2.201,-0.188 3.833,-2.125 3.645,-4.326 -0.62,-7.256 3.928,-13.771 10.57,-15.941 2.372,-0.746 5.243,-0.906 6.044,-0.906 10.261,0 18.959,7.668 20.233,17.837 0.174,1.39 1.063,2.588 2.342,3.157 1.279,0.569 2.765,0.428 3.913,-0.372 2.325,-1.621 5.282,-2.425 8.215,-2.361 1.812,0 3.68,0.514 4.603,0.867 0.004,10e-4 0.008,0.002 0.012,0.004 3.393,1.458 5.776,4.832 5.776,8.752 0,2.209 1.791,4 4,4 2.209,0 4,-1.791 4,-4 0,-6.341 -3.397,-11.89 -8.456,-14.966 1.26,-5.034 5.84,-8.803 11.217,-8.803 3.175,0 6.142,1.271 8.353,3.577 0.868,0.904 2.11,1.349 3.355,1.204 1.246,-0.147 2.35,-0.869 2.984,-1.952 0,0 1.634,-2.233 0.87,-4.053 -0.47,-1.118 -1.233,-2.088 -2.364,-2.528 -2.552,-0.993 -4.2,-3.399 -4.2,-6.128 0,-3.63 2.953,-6.583 6.583,-6.583 0.55,0 1.126,0.079 1.711,0.236 1.113,0.3 2.3,0.103 3.258,-0.537 0.958,-0.64 1.594,-1.662 1.744,-2.804 0.429,-3.258 3.23,-5.715 6.516,-5.715 2.209,0 4,-1.791 4,-4 0,-2.209 -1.791,-4 -4,-4 -5.92,0 -11.13,3.597 -13.386,8.82 -7.969,0.085 -14.426,6.594 -14.426,14.582 0,0.646 0.042,1.284 0.123,1.911 -0.372,-0.021 -0.745,-0.031 -1.121,-0.031 -8.894,0 -16.514,6.087 -18.84,14.313 -3.396,-0.474 -6.879,-0.107 -10.06,1.028 -3.778,-11.4 -14.546,-19.458 -26.956,-19.458 -1.191,0 -2.376,0.074 -3.552,0.222 -1.034,-3.851 -3.612,-7.114 -7.093,-9.016 0.55,-2.146 0.828,-4.357 0.828,-6.608 0,-14.687 -11.949,-26.636 -26.636,-26.636 -6.935,0 -13.405,2.61 -18.313,7.283 -4.741,-3.921 -10.723,-6.107 -16.964,-6.107 -14.688,0 -26.636,11.949 -26.636,26.636 0,4.057 0.907,7.996 2.648,11.588 C 3.633,341.29 0,348.358 0,356.096 c 0,9.615 5.723,18.172 14.302,21.953 -0.127,1.006 -0.191,2.02 -0.191,3.035 0,1.737 0.19,3.487 0.564,5.201 0.401,1.837 2.027,3.146 3.908,3.146 h 372.102 c 1.881,0 3.508,-1.311 3.908,-3.147 0.374,-1.715 0.563,-3.464 0.563,-5.2 0,-1.016 -0.063,-2.029 -0.191,-3.035 8.579,-3.781 14.303,-12.337 14.303,-21.953 z M 358.612,304.7 c -4.053,-3.859 -9.173,-6.306 -14.738,-7.043 1.138,-9.524 9.249,-16.937 19.071,-16.937 10.417,0 18.906,8.339 19.194,18.693 -2.1,-0.534 -4.299,-0.82 -6.564,-0.82 -6.241,0 -12.222,2.185 -16.963,6.107 z"
   id="path13186" />
		<path
   style="fill:url(#linearGradient13261);fill-opacity:1.0"
   d="m 186.813,373.23 c -0.372,2.177 1.091,4.244 3.269,4.616 0.228,0.039 0.455,0.059 0.679,0.059 1.913,0 3.604,-1.377 3.938,-3.326 1.076,-6.294 6.044,-11.173 12.361,-12.142 5.9,-0.903 11.735,1.795 14.866,6.876 1.158,1.88 3.622,2.466 5.504,1.307 1.881,-1.159 2.466,-3.623 1.307,-5.504 -4.821,-7.824 -13.805,-11.97 -22.89,-10.587 -0.365,0.056 -0.721,0.137 -1.08,0.21 -2.276,-7.815 -9.263,-13.504 -17.499,-14.047 -2.205,-0.155 -4.109,1.524 -4.254,3.729 -0.146,2.204 1.524,4.109 3.729,4.254 5.12,0.337 9.419,4.039 10.525,9.025 -5.432,3.369 -9.328,8.943 -10.455,15.53 z"
   id="path13188" />
		<path
   style="fill:url(#linearGradient13261);fill-opacity:1.0"
   d="m 177.299,281.31 h 54.68 c 2.209,0 4,-1.791 4,-4 v -59.089 c 0,-0.744 -0.207,-1.473 -0.599,-2.105 L 221.427,193.579 V 58.861 c 0,-0.468 -0.082,-0.933 -0.242,-1.372 L 208.397,22.464 c -0.576,-1.578 -2.078,-2.628 -3.758,-2.628 -1.68,0 -3.181,1.05 -3.757,2.628 l -12.788,35.025 c -0.161,0.439 -0.243,0.904 -0.243,1.372 V 193.58 l -13.953,22.536 c -0.392,0.633 -0.599,1.361 -0.599,2.105 v 59.089 c 0,2.209 1.791,4 4,4 z M 213.427,62.861 V 68.09 H 195.851 V 62.861 Z M 195.851,273.31 V 76.09 h 17.576 v 197.22 z m 32.128,-53.951 v 53.951 h -6.552 v -64.533 z m -23.34,-183.86 7.069,19.362 H 197.57 Z m -23.34,183.86 6.552,-10.582 v 64.533 h -6.552 z"
   id="path13190" />
	</g><g
     style="fill-opacity:1.0;fill:url(#linearGradient13261)"
     id="g13194">
	</g><g
     style="fill-opacity:1.0;fill:url(#linearGradient13261)"
     id="g13196">
	</g><g
     style="fill-opacity:1.0;fill:url(#linearGradient13261)"
     id="g13198">
	</g><g
     style="fill-opacity:1.0;fill:url(#linearGradient13261)"
     id="g13200">
	</g><g
     style="fill-opacity:1.0;fill:url(#linearGradient13261)"
     id="g13202">
	</g><g
     style="fill-opacity:1.0;fill:url(#linearGradient13261)"
     id="g13204">
	</g><g
     style="fill-opacity:1.0;fill:url(#linearGradient13261)"
     id="g13206">
	</g><g
     style="fill-opacity:1.0;fill:url(#linearGradient13261)"
     id="g13208">
	</g><g
     style="fill-opacity:1.0;fill:url(#linearGradient13261)"
     id="g13210">
	</g><g
     style="fill-opacity:1.0;fill:url(#linearGradient13261)"
     id="g13212">
	</g><g
     style="fill-opacity:1.0;fill:url(#linearGradient13261)"
     id="g13214">
	</g><g
     style="fill-opacity:1.0;fill:url(#linearGradient13261)"
     id="g13216">
	</g><g
     style="fill-opacity:1.0;fill:url(#linearGradient13261)"
     id="g13218">
	</g><g
     style="fill-opacity:1.0;fill:url(#linearGradient13261)"
     id="g13220">
	</g><g
     style="fill-opacity:1.0;fill:url(#linearGradient13261)"
     id="g13222">
	</g></g></svg>