<?xml version="1.0" encoding="UTF-8" standalone="no"?>
<svg
   xmlns:dc="http://purl.org/dc/elements/1.1/"
   xmlns:cc="http://creativecommons.org/ns#"
   xmlns:rdf="http://www.w3.org/1999/02/22-rdf-syntax-ns#"
   xmlns:svg="http://www.w3.org/2000/svg"
   xmlns="http://www.w3.org/2000/svg"
   xmlns:xlink="http://www.w3.org/1999/xlink"
   xml:space="preserve"
   style="enable-background:new 0 0 368.258 368.258;"
   viewBox="0 0 368.258 368.258"
   y="0px"
   x="0px"
   id="Capa_1"
   version="1.1"><metadata
   id="metadata4962"><rdf:RDF><cc:Work
       rdf:about=""><dc:format>image/svg+xml</dc:format><dc:type
         rdf:resource="http://purl.org/dc/dcmitype/StillImage" /><dc:title></dc:title></cc:Work></rdf:RDF></metadata><defs
   id="defs4960"><linearGradient
     id="lapkin"><stop
       id="stop4972"
       offset="0"
       style="stop-color:#2351ee;stop-opacity:1" /><stop
       id="stop4974"
       offset="1"
       style="stop-color:#00ff00;stop-opacity:1" /></linearGradient><linearGradient
     gradientUnits="userSpaceOnUse"
     y2="204.6335"
     x2="409.26801"
     y1="204.6335"
     x1="0"
     id="linearGradient13261"
     xlink:href="#lapkin" /><linearGradient
     y2="204.6335"
     x2="409.26801"
     y1="204.6335"
     x1="0"
     gradientUnits="userSpaceOnUse"
     id="linearGradient13333"
     xlink:href="#lapkin" /><linearGradient
     y2="204.6335"
     x2="409.26801"
     y1="204.6335"
     x1="0"
     gradientUnits="userSpaceOnUse"
     id="linearGradient13335"
     xlink:href="#lapkin" /><linearGradient
     y2="204.6335"
     x2="409.26801"
     y1="204.6335"
     x1="0"
     gradientUnits="userSpaceOnUse"
     id="linearGradient13337"
     xlink:href="#lapkin" /><linearGradient
     y2="204.6335"
     x2="409.26801"
     y1="204.6335"
     x1="0"
     gradientUnits="userSpaceOnUse"
     id="linearGradient13339"
     xlink:href="#lapkin" /><linearGradient
     y2="204.6335"
     x2="409.26801"
     y1="204.6335"
     x1="0"
     gradientUnits="userSpaceOnUse"
     id="linearGradient13341"
     xlink:href="#lapkin" /><linearGradient
     y2="204.6335"
     x2="409.26801"
     y1="204.6335"
     x1="0"
     gradientUnits="userSpaceOnUse"
     id="linearGradient13343"
     xlink:href="#lapkin" /><linearGradient
     y2="204.6335"
     x2="409.26801"
     y1="204.6335"
     x1="0"
     gradientUnits="userSpaceOnUse"
     id="linearGradient13345"
     xlink:href="#lapkin" /><linearGradient
     y2="204.6335"
     x2="409.26801"
     y1="204.6335"
     x1="0"
     gradientUnits="userSpaceOnUse"
     id="linearGradient13347"
     xlink:href="#lapkin" /><linearGradient
     y2="204.6335"
     x2="409.26801"
     y1="204.6335"
     x1="0"
     gradientUnits="userSpaceOnUse"
     id="linearGradient13349"
     xlink:href="#lapkin" /><linearGradient
     y2="204.6335"
     x2="409.26801"
     y1="204.6335"
     x1="0"
     gradientUnits="userSpaceOnUse"
     id="linearGradient13351"
     xlink:href="#lapkin" /><linearGradient
     y2="204.6335"
     x2="409.26801"
     y1="204.6335"
     x1="0"
     gradientUnits="userSpaceOnUse"
     id="linearGradient13353"
     xlink:href="#lapkin" /><linearGradient
     y2="204.6335"
     x2="409.26801"
     y1="204.6335"
     x1="0"
     gradientUnits="userSpaceOnUse"
     id="linearGradient13355"
     xlink:href="#lapkin" /><linearGradient
     y2="204.6335"
     x2="409.26801"
     y1="204.6335"
     x1="0"
     gradientUnits="userSpaceOnUse"
     id="linearGradient13357"
     xlink:href="#lapkin" /><linearGradient
     y2="204.6335"
     x2="409.26801"
     y1="204.6335"
     x1="0"
     gradientUnits="userSpaceOnUse"
     id="linearGradient13359"
     xlink:href="#lapkin" /><linearGradient
     y2="204.6335"
     x2="409.26801"
     y1="204.6335"
     x1="0"
     gradientUnits="userSpaceOnUse"
     id="linearGradient13361"
     xlink:href="#lapkin" /><linearGradient
     y2="204.6335"
     x2="409.26801"
     y1="204.6335"
     x1="0"
     gradientUnits="userSpaceOnUse"
     id="linearGradient13363"
     xlink:href="#lapkin" /><linearGradient
     y2="204.6335"
     x2="409.26801"
     y1="204.6335"
     x1="0"
     gradientUnits="userSpaceOnUse"
     id="linearGradient13365"
     xlink:href="#lapkin" /><linearGradient
     y2="204.6335"
     x2="409.26801"
     y1="204.6335"
     x1="0"
     gradientUnits="userSpaceOnUse"
     id="linearGradient13367"
     xlink:href="#lapkin" /><linearGradient
     y2="204.6335"
     x2="409.26801"
     y1="204.6335"
     x1="0"
     gradientUnits="userSpaceOnUse"
     id="linearGradient13369"
     xlink:href="#lapkin" /><linearGradient
     y2="204.6335"
     x2="409.26801"
     y1="204.6335"
     x1="0"
     gradientUnits="userSpaceOnUse"
     id="linearGradient13371"
     xlink:href="#lapkin" /><linearGradient
     y2="204.6335"
     x2="409.26801"
     y1="204.6335"
     x1="0"
     gradientUnits="userSpaceOnUse"
     id="linearGradient13373"
     xlink:href="#lapkin" /><linearGradient
     y2="204.6335"
     x2="409.26801"
     y1="204.6335"
     x1="0"
     gradientUnits="userSpaceOnUse"
     id="linearGradient13375"
     xlink:href="#lapkin" /><linearGradient
     gradientUnits="userSpaceOnUse"
     y2="132.71155"
     x2="265.41992"
     y1="132.71155"
     x1="0.0020000001"
     id="linearGradient13570"
     xlink:href="#lapkin" /></defs>
	
	<g
   id="g4927">
	</g>
	<g
   id="g4929">
	</g>
	<g
   id="g4931">
	</g>
	<g
   id="g4933">
	</g>
	<g
   id="g4935">
	</g>
	<g
   id="g4937">
	</g>
	<g
   id="g4939">
	</g>
	<g
   id="g4941">
	</g>
	<g
   id="g4943">
	</g>
	<g
   id="g4945">
	</g>
	<g
   id="g4947">
	</g>
	<g
   id="g4949">
	</g>
	<g
   id="g4951">
	</g>
	<g
   id="g4953">
	</g>
	<g
   id="g4955">
	</g>
<g
   style="fill:url(#linearGradient13261);fill-opacity:1"
   transform="matrix(0.88467011,0,0,0.88467011,-471.21606,1.6866683)"
   id="g13253"><g
     style="fill:url(#linearGradient13345);fill-opacity:1"
     id="g13192">
		<path
   style="fill:url(#linearGradient13333);fill-opacity:1"
   d="m 191.851,283.893 c -2.209,0 -4,1.791 -4,4 v 23.519 c 0,2.209 1.791,4 4,4 2.209,0 4,-1.791 4,-4 v -23.519 c 0,-2.209 -1.791,-4 -4,-4 z"
   id="path13180" />
		<path
   style="fill:url(#linearGradient13335);fill-opacity:1"
   d="m 221.427,313.176 v -24.693 c 0,-2.209 -1.791,-4 -4,-4 -2.209,0 -4,1.791 -4,4 v 24.693 c 0,2.209 1.791,4 4,4 2.209,0 4,-1.791 4,-4 z"
   id="path13182" />
		<path
   style="fill:url(#linearGradient13337);fill-opacity:1"
   d="m 220.888,339.219 c -0.58,0.156 -1.155,0.235 -1.708,0.235 -2.209,0 -4,1.791 -4,4 0,2.209 1.791,4 4,4 1.255,0 2.529,-0.172 3.788,-0.511 2.133,-0.574 3.396,-2.769 2.822,-4.902 -0.575,-2.133 -2.769,-3.394 -4.902,-2.822 z"
   id="path13184" />
		<path
   style="fill:url(#linearGradient13339);fill-opacity:1"
   d="m 409.268,356.096 c 0,-7.738 -3.633,-14.807 -9.704,-19.28 1.741,-3.592 2.648,-7.531 2.648,-11.588 0,-9.37 -4.868,-17.619 -12.203,-22.368 0.103,-0.961 0.157,-1.933 0.157,-2.91 0,-15.015 -12.212,-27.23 -27.222,-27.23 -14.286,0 -26.028,11.069 -27.128,25.082 -12.559,2.138 -22.154,13.092 -22.154,26.251 0,2.251 0.277,4.461 0.828,6.608 -3.481,1.901 -6.06,5.164 -7.093,9.016 -1.176,-0.147 -2.361,-0.222 -3.552,-0.222 -12.41,0 -23.178,8.059 -26.956,19.458 -3.151,-1.125 -6.515,-1.527 -10.035,-1.02 -2.271,-8.326 -9.81,-14.322 -18.865,-14.322 -0.375,0 -0.749,0.011 -1.12,0.031 0.081,-0.627 0.123,-1.265 0.123,-1.911 0,-7.988 -6.457,-14.497 -14.426,-14.582 -2.255,-5.224 -7.466,-8.82 -13.387,-8.82 -2.209,0 -4,1.791 -4,4 0,2.209 1.791,4 4,4 3.286,0 6.087,2.456 6.516,5.714 0.15,1.143 0.785,2.164 1.743,2.805 0.96,0.641 2.145,0.838 3.259,0.537 0.585,-0.156 1.161,-0.236 1.712,-0.236 3.63,0 6.583,2.953 6.583,6.583 0,2.729 -1.648,5.135 -4.2,6.128 -1.131,0.44 -2.026,1.363 -2.364,2.528 -0.585,2.018 0.87,4.053 0.87,4.053 0.634,1.083 1.738,1.805 2.983,1.952 1.254,0.149 2.489,-0.3 3.356,-1.204 2.211,-2.307 5.177,-3.577 8.352,-3.577 6.334,0 11.413,4.965 11.563,11.304 0.03,1.293 0.685,2.491 1.756,3.217 1.071,0.727 2.429,0.887 3.639,0.438 0.546,-0.203 2.594,-0.848 4.798,-0.848 2.731,0 5.364,0.828 7.612,2.396 1.151,0.8 2.635,0.941 3.914,0.372 1.279,-0.57 2.168,-1.768 2.342,-3.157 1.273,-10.169 9.972,-17.837 20.233,-17.837 2.02,0 4.02,0.297 5.944,0.883 1.277,0.389 2.666,0.114 3.7,-0.733 1.033,-0.848 1.575,-2.155 1.444,-3.485 -0.021,-0.219 -0.034,-0.439 -0.034,-0.664 0,-2.21 1.115,-4.184 2.838,-5.383 3.324,4.813 8.73,8.035 14.823,8.435 0.09,0.006 0.179,0.009 0.267,0.009 2.09,0 3.849,-1.623 3.987,-3.737 0.145,-2.205 -1.524,-4.109 -3.729,-4.254 -4.4,-0.29 -8.119,-3.097 -9.872,-7.005 -0.434,-0.967 -1.552,-3.592 -1.552,-7.467 0,-10.275 8.36,-18.636 18.636,-18.636 5.031,0 9.709,1.971 13.187,5.472 -5.125,8.939 -3.899,20.556 3.729,28.183 0.78,0.781 1.805,1.172 2.828,1.172 1.023,0 2.048,-0.391 2.828,-1.172 1.563,-1.562 1.563,-4.095 0,-5.656 -5.883,-5.884 -6.002,-15.382 -0.358,-21.413 0.117,-0.125 0.403,-0.429 0.429,-0.456 3.428,-3.167 7.924,-4.954 12.635,-4.954 10.276,0 18.637,8.36 18.637,18.636 0,3.836 -1.159,7.521 -3.352,10.657 -0.668,0.955 -0.886,2.153 -0.597,3.283 0.288,1.129 1.055,2.076 2.1,2.593 5.492,2.722 8.904,8.214 8.904,14.335 0,7.27 -4.905,13.63 -11.928,15.468 -1.044,0.273 -1.933,0.957 -2.466,1.895 -0.532,0.938 -0.664,2.052 -0.363,3.088 0.429,1.48 0.646,3.007 0.646,4.538 0,0.116 -10e-4,0.231 -0.004,0.348 H 22.115 c -0.002,-0.116 0.011,-1.16 0.042,-1.565 0.084,-1.121 0.285,-2.233 0.6,-3.321 0.3,-1.036 0.169,-2.149 -0.364,-3.088 -0.533,-0.938 -1.421,-1.621 -2.465,-1.895 C 12.905,369.726 8,363.366 8,356.096 c 0,-4.764 2.074,-9.14 5.579,-12.133 0.264,-0.225 1.375,-1.05 1.559,-1.17 5.725,-3.737 13.838,-3.688 18.959,1.432 0.781,0.781 1.804,1.172 2.828,1.172 1.024,0 2.047,-0.391 2.829,-1.172 1.562,-1.562 1.562,-4.095 0,-5.656 -6.196,-6.197 -15.128,-8.003 -22.941,-5.459 -1.15,-2.452 -1.757,-5.126 -1.757,-7.882 0,-10.275 8.36,-18.636 18.636,-18.636 4.524,0 8.839,1.663 12.211,4.598 -1.564,3.173 -2.396,6.684 -2.396,10.323 0,6.248 2.436,12.125 6.859,16.548 0.781,0.781 1.804,1.172 2.828,1.172 1.024,0 2.047,-0.391 2.829,-1.172 1.562,-1.562 1.562,-4.095 0,-5.656 -2.912,-2.912 -4.516,-6.78 -4.516,-10.892 0,-3.975 1.511,-7.714 4.242,-10.59 3.481,-3.523 8.173,-5.506 13.22,-5.506 10.276,0 18.636,8.36 18.636,18.636 0,2.572 -0.517,5.067 -1.537,7.414 -0.485,1.117 -0.435,2.395 0.136,3.47 0.571,1.076 1.601,1.832 2.798,2.056 2.56,0.479 4.519,2.415 5.138,4.848 -8.568,4.068 -14.158,13.151 -13.304,23.143 0.188,2.201 2.125,3.833 4.326,3.645 2.201,-0.188 3.833,-2.125 3.645,-4.326 -0.62,-7.256 3.928,-13.771 10.57,-15.941 2.372,-0.746 5.243,-0.906 6.044,-0.906 10.261,0 18.959,7.668 20.233,17.837 0.174,1.39 1.063,2.588 2.342,3.157 1.279,0.569 2.765,0.428 3.913,-0.372 2.325,-1.621 5.282,-2.425 8.215,-2.361 1.812,0 3.68,0.514 4.603,0.867 0.004,10e-4 0.008,0.002 0.012,0.004 3.393,1.458 5.776,4.832 5.776,8.752 0,2.209 1.791,4 4,4 2.209,0 4,-1.791 4,-4 0,-6.341 -3.397,-11.89 -8.456,-14.966 1.26,-5.034 5.84,-8.803 11.217,-8.803 3.175,0 6.142,1.271 8.353,3.577 0.868,0.904 2.11,1.349 3.355,1.204 1.246,-0.147 2.35,-0.869 2.984,-1.952 0,0 1.634,-2.233 0.87,-4.053 -0.47,-1.118 -1.233,-2.088 -2.364,-2.528 -2.552,-0.993 -4.2,-3.399 -4.2,-6.128 0,-3.63 2.953,-6.583 6.583,-6.583 0.55,0 1.126,0.079 1.711,0.236 1.113,0.3 2.3,0.103 3.258,-0.537 0.958,-0.64 1.594,-1.662 1.744,-2.804 0.429,-3.258 3.23,-5.715 6.516,-5.715 2.209,0 4,-1.791 4,-4 0,-2.209 -1.791,-4 -4,-4 -5.92,0 -11.13,3.597 -13.386,8.82 -7.969,0.085 -14.426,6.594 -14.426,14.582 0,0.646 0.042,1.284 0.123,1.911 -0.372,-0.021 -0.745,-0.031 -1.121,-0.031 -8.894,0 -16.514,6.087 -18.84,14.313 -3.396,-0.474 -6.879,-0.107 -10.06,1.028 -3.778,-11.4 -14.546,-19.458 -26.956,-19.458 -1.191,0 -2.376,0.074 -3.552,0.222 -1.034,-3.851 -3.612,-7.114 -7.093,-9.016 0.55,-2.146 0.828,-4.357 0.828,-6.608 0,-14.687 -11.949,-26.636 -26.636,-26.636 -6.935,0 -13.405,2.61 -18.313,7.283 -4.741,-3.921 -10.723,-6.107 -16.964,-6.107 -14.688,0 -26.636,11.949 -26.636,26.636 0,4.057 0.907,7.996 2.648,11.588 C 3.633,341.29 0,348.358 0,356.096 c 0,9.615 5.723,18.172 14.302,21.953 -0.127,1.006 -0.191,2.02 -0.191,3.035 0,1.737 0.19,3.487 0.564,5.201 0.401,1.837 2.027,3.146 3.908,3.146 h 372.102 c 1.881,0 3.508,-1.311 3.908,-3.147 0.374,-1.715 0.563,-3.464 0.563,-5.2 0,-1.016 -0.063,-2.029 -0.191,-3.035 8.579,-3.781 14.303,-12.337 14.303,-21.953 z M 358.612,304.7 c -4.053,-3.859 -9.173,-6.306 -14.738,-7.043 1.138,-9.524 9.249,-16.937 19.071,-16.937 10.417,0 18.906,8.339 19.194,18.693 -2.1,-0.534 -4.299,-0.82 -6.564,-0.82 -6.241,0 -12.222,2.185 -16.963,6.107 z"
   id="path13186" />
		<path
   style="fill:url(#linearGradient13341);fill-opacity:1"
   d="m 186.813,373.23 c -0.372,2.177 1.091,4.244 3.269,4.616 0.228,0.039 0.455,0.059 0.679,0.059 1.913,0 3.604,-1.377 3.938,-3.326 1.076,-6.294 6.044,-11.173 12.361,-12.142 5.9,-0.903 11.735,1.795 14.866,6.876 1.158,1.88 3.622,2.466 5.504,1.307 1.881,-1.159 2.466,-3.623 1.307,-5.504 -4.821,-7.824 -13.805,-11.97 -22.89,-10.587 -0.365,0.056 -0.721,0.137 -1.08,0.21 -2.276,-7.815 -9.263,-13.504 -17.499,-14.047 -2.205,-0.155 -4.109,1.524 -4.254,3.729 -0.146,2.204 1.524,4.109 3.729,4.254 5.12,0.337 9.419,4.039 10.525,9.025 -5.432,3.369 -9.328,8.943 -10.455,15.53 z"
   id="path13188" />
		<path
   style="fill:url(#linearGradient13343);fill-opacity:1"
   d="m 177.299,281.31 h 54.68 c 2.209,0 4,-1.791 4,-4 v -59.089 c 0,-0.744 -0.207,-1.473 -0.599,-2.105 L 221.427,193.579 V 58.861 c 0,-0.468 -0.082,-0.933 -0.242,-1.372 L 208.397,22.464 c -0.576,-1.578 -2.078,-2.628 -3.758,-2.628 -1.68,0 -3.181,1.05 -3.757,2.628 l -12.788,35.025 c -0.161,0.439 -0.243,0.904 -0.243,1.372 V 193.58 l -13.953,22.536 c -0.392,0.633 -0.599,1.361 -0.599,2.105 v 59.089 c 0,2.209 1.791,4 4,4 z M 213.427,62.861 V 68.09 H 195.851 V 62.861 Z M 195.851,273.31 V 76.09 h 17.576 v 197.22 z m 32.128,-53.951 v 53.951 h -6.552 v -64.533 z m -23.34,-183.86 7.069,19.362 H 197.57 Z m -23.34,183.86 6.552,-10.582 v 64.533 h -6.552 z"
   id="path13190" />
	</g><g
     style="fill:url(#linearGradient13347);fill-opacity:1"
     id="g13194">
	</g><g
     style="fill:url(#linearGradient13349);fill-opacity:1"
     id="g13196">
	</g><g
     style="fill:url(#linearGradient13351);fill-opacity:1"
     id="g13198">
	</g><g
     style="fill:url(#linearGradient13353);fill-opacity:1"
     id="g13200">
	</g><g
     style="fill:url(#linearGradient13355);fill-opacity:1"
     id="g13202">
	</g><g
     style="fill:url(#linearGradient13357);fill-opacity:1"
     id="g13204">
	</g><g
     style="fill:url(#linearGradient13359);fill-opacity:1"
     id="g13206">
	</g><g
     style="fill:url(#linearGradient13361);fill-opacity:1"
     id="g13208">
	</g><g
     style="fill:url(#linearGradient13363);fill-opacity:1"
     id="g13210">
	</g><g
     style="fill:url(#linearGradient13365);fill-opacity:1"
     id="g13212">
	</g><g
     style="fill:url(#linearGradient13367);fill-opacity:1"
     id="g13214">
	</g><g
     style="fill:url(#linearGradient13369);fill-opacity:1"
     id="g13216">
	</g><g
     style="fill:url(#linearGradient13371);fill-opacity:1"
     id="g13218">
	</g><g
     style="fill:url(#linearGradient13373);fill-opacity:1"
     id="g13220">
	</g><g
     style="fill:url(#linearGradient13375);fill-opacity:1"
     id="g13222">
	</g></g><g
   style="fill-opacity:1.0;fill:url(#linearGradient13570)"
   transform="matrix(1.2983417,0,0,1.2983417,11.627264,14.556913)"
   id="g13562"><g
     style="fill-opacity:1.0;fill:url(#linearGradient13570)"
     id="g13502">
		<path
   style="fill:url(#linearGradient13570);fill-opacity:1.0"
   d="M 178.689,144.714 C 231.399,92.004 264.821,6.299 265.152,5.44 c 0.569,-1.477 0.215,-3.149 -0.903,-4.268 -1.118,-1.119 -2.792,-1.473 -4.268,-0.904 -0.86,0.332 -86.565,33.754 -139.275,86.464 -8.581,8.581 -15.959,16.57 -22.168,24.013 L 88.38,108.456 C 95.428,90.65 98.809,75.948 99.042,74.915 c 0.348,-1.543 -0.245,-3.146 -1.515,-4.091 -1.27,-0.942 -2.976,-1.051 -4.354,-0.273 -1.579,0.892 -38.902,22.154 -60.387,51.041 -11.011,14.805 -16.817,26.156 -17.75,34.704 -0.154,1.41 0.451,2.797 1.589,3.644 l 18.829,14.003 c 0.702,0.521 1.541,0.79 2.388,0.79 0.527,0 1.058,-0.104 1.559,-0.316 6.105,-2.584 12.977,-8.438 20.85,-17.764 l 12.899,2.908 c -0.044,0.909 -0.057,1.807 -0.027,2.69 l -14.11,14.11 c -1.562,1.562 -1.562,4.095 0,5.656 l 24.395,24.396 c 0.781,0.781 1.805,1.172 2.829,1.172 1.023,0 2.047,-0.391 2.829,-1.172 l 14.12,-14.119 c 0.362,0.012 0.724,0.025 1.091,0.025 0.522,0 1.05,-0.016 1.581,-0.041 l 2.91,12.893 c -9.325,7.873 -15.179,14.745 -17.762,20.849 -0.553,1.307 -0.373,2.809 0.474,3.946 l 14.003,18.828 c 0.759,1.021 1.953,1.613 3.209,1.613 0.144,0 0.289,-0.008 0.434,-0.023 8.547,-0.933 19.898,-6.738 34.704,-17.749 28.887,-21.485 50.15,-58.809 51.042,-60.387 0.778,-1.378 0.67,-3.085 -0.274,-4.354 -0.945,-1.27 -2.55,-1.865 -4.091,-1.515 -1.032,0.232 -15.736,3.614 -33.544,10.663 l -2.286,-10.138 c 7.428,-6.211 15.407,-13.586 24.012,-22.19 z m 41.988,-68.44 C 208.16,68.054 197.37,57.264 189.15,44.747 216.094,28.446 241.221,16.91 254.023,11.399 c -5.508,12.8 -17.041,37.926 -33.346,64.875 z m -94.314,16.113 c 16.565,-16.565 36.509,-31.196 55.974,-43.438 8.876,13.571 20.565,25.261 34.137,34.138 -12.24,19.459 -26.872,39.4 -43.443,55.971 -30.455,30.455 -52.945,45.26 -68.755,45.26 -6.154,0 -11.269,-2.249 -16.097,-7.076 -7.308,-7.308 -8.891,-15.574 -5.132,-26.806 4.916,-14.692 19.489,-34.221 43.316,-58.049 z m -88.09,73.679 -14.916,-11.093 c 1.527,-6.898 6.847,-16.506 15.849,-28.609 14.469,-19.453 37.249,-35.72 49.478,-43.65 -4.078,13.993 -13.103,40.49 -27.571,59.944 -9.003,12.104 -16.673,19.962 -22.84,23.408 z m 27.542,-16.362 c 0.568,-0.744 1.138,-1.495 1.716,-2.272 7.214,-9.7 13.09,-20.861 17.73,-31.478 l 7.704,1.736 c -8.757,11.369 -14.55,21.378 -17.504,30.208 -0.425,1.27 -0.772,2.51 -1.083,3.737 z m 20.422,48.222 -18.738,-18.738 7.511,-7.511 c 1.554,4.026 4.049,7.758 7.512,11.221 3.483,3.483 7.203,5.977 11.222,7.521 z m 52.818,28.288 c -12.104,9.002 -21.709,14.322 -28.608,15.849 L 99.354,227.148 c 3.447,-6.167 11.305,-13.837 23.409,-22.839 19.454,-14.47 45.951,-23.494 59.944,-27.571 -7.932,12.227 -24.198,35.007 -43.652,49.476 z m 10.41,-46.054 c -10.616,4.64 -21.778,10.515 -31.477,17.729 -0.778,0.579 -1.53,1.149 -2.275,1.718 l -1.928,-8.543 c 9.786,-2.453 20.97,-8.558 33.95,-18.573 z"
   id="path13492" />
		<path
   style="fill:url(#linearGradient13570);fill-opacity:1.0"
   d="m 172.264,113.241 c 5.209,0 10.105,-2.028 13.789,-5.712 3.684,-3.683 5.712,-8.579 5.712,-13.788 0,-5.209 -2.028,-10.105 -5.711,-13.788 -3.683,-3.684 -8.58,-5.712 -13.789,-5.712 -5.208,0 -10.105,2.028 -13.788,5.712 -3.684,3.683 -5.712,8.579 -5.712,13.788 0,5.209 2.028,10.105 5.712,13.788 3.682,3.684 8.578,5.712 13.787,5.712 z m -8.132,-27.632 c 2.172,-2.172 5.06,-3.368 8.131,-3.368 3.072,0 5.96,1.196 8.132,3.368 2.172,2.172 3.368,5.061 3.368,8.132 0,3.071 -1.196,5.96 -3.368,8.132 -2.172,2.172 -5.06,3.368 -8.132,3.368 -3.072,0 -5.959,-1.196 -8.132,-3.368 -2.172,-2.172 -3.368,-5.061 -3.368,-8.132 0,-3.071 1.197,-5.96 3.369,-8.132 z"
   id="path13494" />
		<path
   style="fill:url(#linearGradient13570);fill-opacity:1.0"
   d="m 35.502,194.423 c -19.575,0 -35.5,15.925 -35.5,35.5 v 31.5 c 0,2.209 1.791,4 4,4 h 31.5 c 19.575,0 35.5,-15.925 35.5,-35.5 0,-19.575 -15.925,-35.5 -35.5,-35.5 z M 46.16,207.12 c 6.697,0 12.145,5.448 12.145,12.146 0,6.696 -5.448,12.145 -12.145,12.145 H 34.015 v -12.145 c 0,-6.698 5.448,-12.146 12.145,-12.146 z m -10.658,50.303 h -27.5 v -27.5 c 0,-15.036 12.132,-27.285 27.12,-27.49 -5.478,3.604 -9.108,9.799 -9.108,16.833 v 16.145 c 0,2.209 1.791,4 4,4 H 46.16 c 7.034,0 13.229,-3.63 16.833,-9.108 -0.205,14.987 -12.454,27.12 -27.491,27.12 z"
   id="path13496" />
		<path
   style="fill:url(#linearGradient13570);fill-opacity:1.0"
   d="m 215.69,68.984 c 0.702,0.497 1.509,0.735 2.309,0.735 1.253,0 2.488,-0.588 3.268,-1.688 2.309,-3.259 6.74,-11.083 13.172,-23.255 1.032,-1.953 0.285,-4.374 -1.668,-5.405 -1.952,-1.033 -4.373,-0.285 -5.405,1.667 -7.81,14.78 -11.178,20.323 -12.627,22.37 -1.278,1.803 -0.852,4.299 0.951,5.576 z"
   id="path13498" />
		<path
   style="fill:url(#linearGradient13570);fill-opacity:1.0"
   d="m 234.237,36.556 c 0.588,0.304 1.215,0.448 1.834,0.448 1.448,0 2.846,-0.789 3.557,-2.164 2.243,-4.338 3.743,-7.294 3.743,-7.294 1,-1.971 0.213,-4.378 -1.757,-5.378 -1.969,-0.997 -4.377,-0.213 -5.377,1.757 -0.003,0.007 -1.492,2.939 -3.716,7.241 -1.014,1.963 -0.246,4.376 1.716,5.39 z"
   id="path13500" />
	</g><g
     style="fill-opacity:1.0;fill:url(#linearGradient13570)"
     id="g13504">
	</g><g
     style="fill-opacity:1.0;fill:url(#linearGradient13570)"
     id="g13506">
	</g><g
     style="fill-opacity:1.0;fill:url(#linearGradient13570)"
     id="g13508">
	</g><g
     style="fill-opacity:1.0;fill:url(#linearGradient13570)"
     id="g13510">
	</g><g
     style="fill-opacity:1.0;fill:url(#linearGradient13570)"
     id="g13512">
	</g><g
     style="fill-opacity:1.0;fill:url(#linearGradient13570)"
     id="g13514">
	</g><g
     style="fill-opacity:1.0;fill:url(#linearGradient13570)"
     id="g13516">
	</g><g
     style="fill-opacity:1.0;fill:url(#linearGradient13570)"
     id="g13518">
	</g><g
     style="fill-opacity:1.0;fill:url(#linearGradient13570)"
     id="g13520">
	</g><g
     style="fill-opacity:1.0;fill:url(#linearGradient13570)"
     id="g13522">
	</g><g
     style="fill-opacity:1.0;fill:url(#linearGradient13570)"
     id="g13524">
	</g><g
     style="fill-opacity:1.0;fill:url(#linearGradient13570)"
     id="g13526">
	</g><g
     style="fill-opacity:1.0;fill:url(#linearGradient13570)"
     id="g13528">
	</g><g
     style="fill-opacity:1.0;fill:url(#linearGradient13570)"
     id="g13530">
	</g><g
     style="fill-opacity:1.0;fill:url(#linearGradient13570)"
     id="g13532">
	</g></g></svg>