<?xml version="1.0" encoding="UTF-8" standalone="no"?>
<svg
   xmlns:dc="http://purl.org/dc/elements/1.1/"
   xmlns:cc="http://creativecommons.org/ns#"
   xmlns:rdf="http://www.w3.org/1999/02/22-rdf-syntax-ns#"
   xmlns:svg="http://www.w3.org/2000/svg"
   xmlns="http://www.w3.org/2000/svg"
   xmlns:xlink="http://www.w3.org/1999/xlink"
   xml:space="preserve"
   style="enable-background:new 0 0 368.258 368.258;"
   viewBox="0 0 368.258 368.258"
   y="0px"
   x="0px"
   id="Capa_1"
   version="1.1"><metadata
   id="metadata4962"><rdf:RDF><cc:Work
       rdf:about=""><dc:format>image/svg+xml</dc:format><dc:type
         rdf:resource="http://purl.org/dc/dcmitype/StillImage" /><dc:title></dc:title></cc:Work></rdf:RDF></metadata><defs
   id="defs4960"><linearGradient
     id="lapkin"><stop
       id="stop4972"
       offset="0"
       style="stop-color:#2351ee;stop-opacity:1" /><stop
       id="stop4974"
       offset="1"
       style="stop-color:#00ff00;stop-opacity:1" /></linearGradient><linearGradient
     gradientUnits="userSpaceOnUse"
     y2="152.623"
     x2="305.24527"
     y1="152.623"
     x1="0.00010533658"
     id="linearGradient12618"
     xlink:href="#lapkin" /><linearGradient
     y2="152.623"
     x2="305.24527"
     y1="152.623"
     x1="0.00010533658"
     gradientUnits="userSpaceOnUse"
     id="linearGradient12620"
     xlink:href="#lapkin" /><linearGradient
     y2="152.623"
     x2="305.24527"
     y1="152.623"
     x1="0.00010533658"
     gradientUnits="userSpaceOnUse"
     id="linearGradient12622"
     xlink:href="#lapkin" /><linearGradient
     y2="152.623"
     x2="305.24527"
     y1="152.623"
     x1="0.00010533658"
     gradientUnits="userSpaceOnUse"
     id="linearGradient12624"
     xlink:href="#lapkin" /><linearGradient
     y2="152.623"
     x2="305.24527"
     y1="152.623"
     x1="0.00010533658"
     gradientUnits="userSpaceOnUse"
     id="linearGradient12626"
     xlink:href="#lapkin" /><linearGradient
     y2="152.623"
     x2="305.24527"
     y1="152.623"
     x1="0.00010533658"
     gradientUnits="userSpaceOnUse"
     id="linearGradient12628"
     xlink:href="#lapkin" /><linearGradient
     y2="152.623"
     x2="305.24527"
     y1="152.623"
     x1="0.00010533658"
     gradientUnits="userSpaceOnUse"
     id="linearGradient12630"
     xlink:href="#lapkin" /><linearGradient
     y2="152.623"
     x2="305.24527"
     y1="152.623"
     x1="0.00010533658"
     gradientUnits="userSpaceOnUse"
     id="linearGradient12632"
     xlink:href="#lapkin" /><linearGradient
     y2="152.623"
     x2="305.24527"
     y1="152.623"
     x1="0.00010533658"
     gradientUnits="userSpaceOnUse"
     id="linearGradient12634"
     xlink:href="#lapkin" /><linearGradient
     y2="152.623"
     x2="305.24527"
     y1="152.623"
     x1="0.00010533658"
     gradientUnits="userSpaceOnUse"
     id="linearGradient12636"
     xlink:href="#lapkin" /><linearGradient
     y2="152.623"
     x2="305.24527"
     y1="152.623"
     x1="0.00010533658"
     gradientUnits="userSpaceOnUse"
     id="linearGradient12638"
     xlink:href="#lapkin" /><linearGradient
     y2="152.623"
     x2="305.24527"
     y1="152.623"
     x1="0.00010533658"
     gradientUnits="userSpaceOnUse"
     id="linearGradient12640"
     xlink:href="#lapkin" /><linearGradient
     y2="152.623"
     x2="305.24527"
     y1="152.623"
     x1="0.00010533658"
     gradientUnits="userSpaceOnUse"
     id="linearGradient12642"
     xlink:href="#lapkin" /><linearGradient
     y2="152.623"
     x2="305.24527"
     y1="152.623"
     x1="0.00010533658"
     gradientUnits="userSpaceOnUse"
     id="linearGradient12644"
     xlink:href="#lapkin" /><linearGradient
     y2="152.623"
     x2="305.24527"
     y1="152.623"
     x1="0.00010533658"
     gradientUnits="userSpaceOnUse"
     id="linearGradient12646"
     xlink:href="#lapkin" /><linearGradient
     y2="152.623"
     x2="305.24527"
     y1="152.623"
     x1="0.00010533658"
     gradientUnits="userSpaceOnUse"
     id="linearGradient12648"
     xlink:href="#lapkin" /><linearGradient
     y2="152.623"
     x2="305.24527"
     y1="152.623"
     x1="0.00010533658"
     gradientUnits="userSpaceOnUse"
     id="linearGradient12650"
     xlink:href="#lapkin" /><linearGradient
     y2="152.623"
     x2="305.24527"
     y1="152.623"
     x1="0.00010533658"
     gradientUnits="userSpaceOnUse"
     id="linearGradient12652"
     xlink:href="#lapkin" /><linearGradient
     y2="152.623"
     x2="305.24527"
     y1="152.623"
     x1="0.00010533658"
     gradientUnits="userSpaceOnUse"
     id="linearGradient12654"
     xlink:href="#lapkin" /><linearGradient
     y2="152.623"
     x2="305.24527"
     y1="152.623"
     x1="0.00010533658"
     gradientUnits="userSpaceOnUse"
     id="linearGradient12656"
     xlink:href="#lapkin" /><linearGradient
     gradientUnits="userSpaceOnUse"
     y2="142.1723"
     x2="271.96667"
     y1="142.1723"
     x1="12.379423"
     id="linearGradient12935"
     xlink:href="#lapkin" /></defs>
	
	<g
   id="g4927">
	</g>
	<g
   id="g4929">
	</g>
	<g
   id="g4931">
	</g>
	<g
   id="g4933">
	</g>
	<g
   id="g4935">
	</g>
	<g
   id="g4937">
	</g>
	<g
   id="g4939">
	</g>
	<g
   id="g4941">
	</g>
	<g
   id="g4943">
	</g>
	<g
   id="g4945">
	</g>
	<g
   id="g4947">
	</g>
	<g
   id="g4949">
	</g>
	<g
   id="g4951">
	</g>
	<g
   id="g4953">
	</g>
	<g
   id="g4955">
	</g>
<g
   style="fill:url(#linearGradient12618);fill-opacity:1"
   transform="matrix(1.1729454,0,0,1.1729454,-496.80825,-21.46279)"
   id="g12610"><g
     style="fill:url(#linearGradient12626);fill-opacity:1"
     id="g12552">
		<path
   style="fill:url(#linearGradient12620);fill-opacity:1"
   d="M 304.522,224.795 264.009,58.588 C 260.238,43.115 246.481,32.309 230.556,32.309 H 203.509 V 20.37 h 7.447 c 2.209,0 4,-1.791 4,-4 0,-2.209 -1.791,-4 -4,-4 H 199.509 105.72 94.274 c -2.209,0 -4,1.791 -4,4 0,2.209 1.791,4 4,4 h 7.446 V 32.309 H 74.673 c -15.925,0 -29.682,10.807 -33.453,26.279 L 0.718,224.752 c -2.534,10.396 1.78,21.299 10.735,27.129 1.585,1.031 2.875,1.852 3.835,2.436 41.377,25.226 88.863,38.559 137.326,38.559 49.918,0 98.615,-14.084 140.825,-40.729 0.003,-0.002 0.112,-0.071 0.114,-0.073 9.128,-5.787 13.536,-16.749 10.969,-27.279 z M 22.214,170.342 c 2.248,1.974 4.867,3.253 7.689,3.677 0.741,0.114 1.483,0.171 2.225,0.171 3.344,0 6.666,-1.154 9.722,-3.396 5.554,-4.077 9.624,-11.456 10.887,-19.733 1.273,-8.276 -0.4,-16.533 -4.478,-22.087 -2.739,-3.73 -6.343,-6.031 -10.414,-6.653 -1.3,-0.202 -2.609,-0.212 -3.911,-0.06 L 41.55,91.016 H 74.469 L 56.419,217.673 H 10.677 Z m 9.52,-39.06 c 1.642,-0.946 3.282,-1.306 4.895,-1.055 2.443,0.373 4.166,2.099 5.181,3.481 2.848,3.879 3.977,9.911 3.019,16.14 -0.95,6.229 -3.834,11.648 -7.714,14.496 -1.383,1.014 -3.543,2.147 -6.008,1.766 -3.416,-0.513 -5.473,-3.601 -6.482,-5.658 z M 46.348,71.327 H 258.88 l 2.849,11.688 H 43.499 Z m 36.201,19.688 h 140.145 l 18.05,126.657 H 64.499 Z M 248.825,217.672 230.775,91.015 h 32.904 l 7.615,31.243 c -1.296,-0.151 -2.599,-0.14 -3.891,0.061 -4.079,0.623 -7.683,2.924 -10.422,6.654 -4.077,5.554 -5.751,13.811 -4.479,22.082 1.265,8.283 5.335,15.662 10.89,19.738 3.056,2.244 6.379,3.398 9.717,3.398 0.737,0 1.477,-0.057 2.213,-0.17 2.827,-0.425 5.446,-1.702 7.695,-3.673 l 11.535,47.323 h -45.727 z m 31.783,-57.206 c -1.012,2.057 -3.068,5.133 -6.49,5.647 -2.45,0.375 -4.61,-0.754 -5.992,-1.769 -3.88,-2.847 -6.764,-8.267 -7.716,-14.501 -0.957,-6.224 0.172,-12.256 3.02,-16.135 1.015,-1.383 2.737,-3.108 5.188,-3.482 1.599,-0.25 3.236,0.107 4.875,1.048 z M 109.72,20.37 h 85.789 V 32.309 H 109.72 Z M 74.673,40.309 h 155.883 c 12.226,0 22.786,8.296 25.682,20.174 l 0.693,2.844 H 48.298 l 0.693,-2.844 C 51.887,48.605 62.447,40.309 74.673,40.309 Z m 214.598,205.009 -0.101,0.063 c -40.931,25.837 -88.151,39.494 -136.556,39.494 -46.993,0 -93.04,-12.929 -133.163,-37.39 -0.968,-0.59 -2.236,-1.399 -3.633,-2.31 -5.351,-3.483 -8.274,-9.619 -7.762,-15.857 0.073,-0.891 0.67,-3.647 0.67,-3.647 h 287.775 c 0,0 0.53,2.341 0.612,3.003 0.811,6.554 -2.187,13.057 -7.842,16.644 z"
   id="path12546" />
		<path
   style="fill:url(#linearGradient12622);fill-opacity:1"
   d="m 216.854,178.422 c -4.672,-18.243 -9.158,-36.818 -13.339,-55.224 -1.758,-7.631 -8.661,-12.853 -16.646,-12.407 -11.357,0.681 -22.883,1.026 -34.256,1.026 -11.373,0 -22.894,-0.346 -34.244,-1.026 -7.944,-0.449 -14.886,4.774 -16.647,12.42 -4.169,18.359 -8.655,36.935 -13.331,55.192 -1.097,4.198 -0.232,8.693 2.372,12.335 2.984,4.173 7.812,6.797 13.243,7.197 16.107,1.189 32.463,1.792 48.614,1.792 16.151,0 32.507,-0.603 48.614,-1.792 5.431,-0.401 10.257,-3.025 13.242,-7.199 2.604,-3.641 3.469,-8.136 2.378,-12.314 z m -8.885,7.661 c -1.6,2.236 -4.269,3.648 -7.324,3.874 -15.911,1.175 -32.069,1.771 -48.024,1.771 -15.955,0 -32.113,-0.596 -48.025,-1.771 -3.056,-0.226 -5.726,-1.637 -7.325,-3.873 -1.236,-1.729 -1.641,-3.738 -1.134,-5.678 4.698,-18.347 9.202,-36.994 13.384,-55.411 0.833,-3.611 4.15,-6.232 7.888,-6.232 0.162,0 0.324,0.005 0.485,0.015 11.507,0.689 23.188,1.04 34.721,1.04 11.533,0 23.219,-0.351 34.732,-1.04 3.974,-0.236 7.492,2.392 8.371,6.205 4.193,18.464 8.697,37.11 13.392,55.442 0.5,1.92 0.095,3.93 -1.141,5.658 z"
   id="path12548" />
		<path
   style="fill:url(#linearGradient12624);fill-opacity:1"
   d="m 152.62,130.606 c -14.422,0 -26.155,11.054 -26.155,24.64 0,13.586 11.733,24.64 26.155,24.64 14.422,0 26.154,-11.054 26.154,-24.64 0,-13.586 -11.732,-24.64 -26.154,-24.64 z m 0,41.279 c -10.011,0 -18.155,-7.465 -18.155,-16.64 0,-9.175 8.145,-16.64 18.155,-16.64 10.01,0 18.154,7.465 18.154,16.64 0,9.175 -8.143,16.64 -18.154,16.64 z"
   id="path12550" />
	</g><g
     style="fill:url(#linearGradient12628);fill-opacity:1"
     id="g12554">
	</g><g
     style="fill:url(#linearGradient12630);fill-opacity:1"
     id="g12556">
	</g><g
     style="fill:url(#linearGradient12632);fill-opacity:1"
     id="g12558">
	</g><g
     style="fill:url(#linearGradient12634);fill-opacity:1"
     id="g12560">
	</g><g
     style="fill:url(#linearGradient12636);fill-opacity:1"
     id="g12562">
	</g><g
     style="fill:url(#linearGradient12638);fill-opacity:1"
     id="g12564">
	</g><g
     style="fill:url(#linearGradient12640);fill-opacity:1"
     id="g12566">
	</g><g
     style="fill:url(#linearGradient12642);fill-opacity:1"
     id="g12568">
	</g><g
     style="fill:url(#linearGradient12644);fill-opacity:1"
     id="g12570">
	</g><g
     style="fill:url(#linearGradient12646);fill-opacity:1"
     id="g12572">
	</g><g
     style="fill:url(#linearGradient12648);fill-opacity:1"
     id="g12574">
	</g><g
     style="fill:url(#linearGradient12650);fill-opacity:1"
     id="g12576">
	</g><g
     style="fill:url(#linearGradient12652);fill-opacity:1"
     id="g12578">
	</g><g
     style="fill:url(#linearGradient12654);fill-opacity:1"
     id="g12580">
	</g><g
     style="fill:url(#linearGradient12656);fill-opacity:1"
     id="g12582">
	</g></g><g
   style="fill-opacity:1.0;fill:url(#linearGradient12935)"
   transform="matrix(0,-1.221591,1.221591,0,7.3143013,354.9308)"
   id="g12927"><g
     style="fill-opacity:1.0;fill:url(#linearGradient12935)"
     id="g12863">
		<path
   style="fill:url(#linearGradient12935);fill-opacity:1.0"
   d="m 271.771,255.494 c -0.471,-1.448 -1.723,-2.503 -3.229,-2.723 l -11.8,-1.715 -5.276,-10.692 c -0.674,-1.365 -2.064,-2.23 -3.587,-2.23 -1.523,0 -2.913,0.864 -3.587,2.229 l -5.277,10.692 -11.8,1.715 c -1.507,0.219 -2.759,1.274 -3.229,2.722 -0.47,1.448 -0.078,3.038 1.013,4.101 l 8.538,8.323 -2.016,11.752 c -0.258,1.501 0.359,3.018 1.591,3.912 1.233,0.896 2.866,1.014 4.213,0.305 l 10.555,-5.548 10.554,5.548 c 0.585,0.308 1.225,0.459 1.861,0.459 0.829,0 1.654,-0.258 2.352,-0.764 1.231,-0.895 1.849,-2.411 1.591,-3.912 l -2.016,-11.752 8.538,-8.323 c 1.089,-1.061 1.481,-2.651 1.011,-4.099 z m -16.64,8.162 c -0.942,0.919 -1.373,2.243 -1.15,3.541 l 1.001,5.836 -5.241,-2.755 c -1.166,-0.612 -2.557,-0.612 -3.723,0 l -5.242,2.756 1.001,-5.837 c 0.223,-1.298 -0.208,-2.622 -1.15,-3.541 l -4.24,-4.133 5.86,-0.852 c 1.303,-0.189 2.429,-1.008 3.012,-2.188 l 2.621,-5.31 2.62,5.31 c 0.582,1.181 1.709,1.999 3.012,2.188 l 5.86,0.852 z"
   id="path12845" />
		<path
   style="fill:url(#linearGradient12935);fill-opacity:1.0"
   d="m 34.371,32.236 c 3.995,2.345 8.01,4.775 11.933,7.221 0.659,0.411 1.39,0.606 2.113,0.606 1.335,0 2.64,-0.668 3.398,-1.884 1.169,-1.875 0.597,-4.342 -1.277,-5.511 -3.984,-2.484 -8.061,-4.951 -12.117,-7.333 -1.906,-1.119 -4.356,-0.48 -5.475,1.425 -1.118,1.906 -0.48,4.357 1.425,5.476 z"
   id="path12847" />
		<path
   style="fill:url(#linearGradient12935);fill-opacity:1.0"
   d="M 110.263,75.975 C 96.364,64.333 81.703,53.29 66.687,43.152 c -1.83,-1.236 -4.317,-0.754 -5.553,1.077 -1.236,1.831 -0.754,4.317 1.077,5.553 14.788,9.984 29.227,20.86 42.916,32.326 24.133,20.213 46.532,42.744 66.573,66.965 20.086,24.275 38.032,50.528 53.339,78.028 0.731,1.314 2.094,2.056 3.499,2.056 0.658,0 1.325,-0.163 1.941,-0.506 1.931,-1.074 2.624,-3.51 1.55,-5.44 C 216.484,195.284 198.26,168.625 177.864,143.974 157.512,119.377 134.768,96.5 110.263,75.975 Z"
   id="path12849" />
		<path
   style="fill:url(#linearGradient12935);fill-opacity:1.0"
   d="M 91.035,93.832 C 70.855,77.905 47.024,63.099 18.18,48.567 c -1.973,-0.993 -4.377,-0.201 -5.372,1.772 -0.994,1.973 -0.2,4.378 1.772,5.372 28.358,14.287 51.746,28.81 71.499,44.399 0.734,0.58 1.607,0.86 2.476,0.86 1.182,0 2.353,-0.522 3.142,-1.522 1.368,-1.733 1.072,-4.248 -0.662,-5.616 z"
   id="path12851" />
		<path
   style="fill:url(#linearGradient12935);fill-opacity:1.0"
   d="m 108.985,107.743 c -1.715,-1.391 -4.235,-1.128 -5.626,0.589 -1.391,1.716 -1.127,4.235 0.589,5.626 2.831,2.295 5.682,4.656 8.473,7.018 0.751,0.636 1.669,0.946 2.582,0.946 1.136,0 2.264,-0.481 3.056,-1.416 1.427,-1.687 1.216,-4.21 -0.47,-5.638 -2.835,-2.397 -5.729,-4.795 -8.604,-7.125 z"
   id="path12853" />
		<path
   style="fill:url(#linearGradient12935);fill-opacity:1.0"
   d="m 154.343,149.108 c -6.998,-7.172 -14.284,-14.225 -21.655,-20.96 -1.631,-1.49 -4.16,-1.376 -5.651,0.255 -1.49,1.631 -1.376,4.161 0.255,5.651 7.259,6.633 14.434,13.577 21.325,20.641 24.177,24.781 45.974,52.129 64.784,81.284 0.766,1.186 2.052,1.832 3.365,1.832 0.742,0 1.494,-0.207 2.165,-0.639 1.856,-1.198 2.39,-3.674 1.192,-5.53 -19.1,-29.602 -41.232,-57.371 -65.78,-82.534 z"
   id="path12855" />
		<path
   style="fill:url(#linearGradient12935);fill-opacity:1.0"
   d="m 52.349,7.367 c 40.877,26.235 78.917,60.094 113.063,100.636 0.791,0.939 1.923,1.423 3.062,1.423 0.91,0 1.824,-0.309 2.575,-0.94 1.689,-1.423 1.905,-3.947 0.482,-5.636 C 136.867,61.693 98.222,27.303 56.67,0.634 54.811,-0.559 52.336,-0.02 51.143,1.84 49.95,3.699 50.49,6.173 52.349,7.367 Z"
   id="path12857" />
		<path
   style="fill:url(#linearGradient12935);fill-opacity:1.0"
   d="m 229.794,204.21 c 0.707,1.386 2.11,2.184 3.566,2.184 0.611,0 1.232,-0.141 1.813,-0.438 1.969,-1.003 2.751,-3.412 1.747,-5.38 -14.82,-29.073 -32.82,-57.027 -53.499,-83.086 -1.374,-1.731 -3.89,-2.02 -5.62,-0.647 -1.73,1.373 -2.021,3.889 -0.647,5.62 20.35,25.643 38.06,53.146 52.64,81.747 z"
   id="path12859" />
		<path
   style="fill:url(#linearGradient12935);fill-opacity:1.0"
   d="m 236.567,217.949 c 1.032,2.179 2.048,4.366 3.048,6.559 0.671,1.473 2.123,2.342 3.642,2.342 0.556,0 1.119,-0.116 1.657,-0.361 2.01,-0.916 2.896,-3.288 1.98,-5.298 -1.016,-2.229 -2.049,-4.452 -3.097,-6.666 -0.945,-1.997 -3.33,-2.85 -5.327,-1.903 -1.997,0.946 -2.848,3.331 -1.903,5.327 z"
   id="path12861" />
	</g><g
     style="fill-opacity:1.0;fill:url(#linearGradient12935)"
     id="g12865">
	</g><g
     style="fill-opacity:1.0;fill:url(#linearGradient12935)"
     id="g12867">
	</g><g
     style="fill-opacity:1.0;fill:url(#linearGradient12935)"
     id="g12869">
	</g><g
     style="fill-opacity:1.0;fill:url(#linearGradient12935)"
     id="g12871">
	</g><g
     style="fill-opacity:1.0;fill:url(#linearGradient12935)"
     id="g12873">
	</g><g
     style="fill-opacity:1.0;fill:url(#linearGradient12935)"
     id="g12875">
	</g><g
     style="fill-opacity:1.0;fill:url(#linearGradient12935)"
     id="g12877">
	</g><g
     style="fill-opacity:1.0;fill:url(#linearGradient12935)"
     id="g12879">
	</g><g
     style="fill-opacity:1.0;fill:url(#linearGradient12935)"
     id="g12881">
	</g><g
     style="fill-opacity:1.0;fill:url(#linearGradient12935)"
     id="g12883">
	</g><g
     style="fill-opacity:1.0;fill:url(#linearGradient12935)"
     id="g12885">
	</g><g
     style="fill-opacity:1.0;fill:url(#linearGradient12935)"
     id="g12887">
	</g><g
     style="fill-opacity:1.0;fill:url(#linearGradient12935)"
     id="g12889">
	</g><g
     style="fill-opacity:1.0;fill:url(#linearGradient12935)"
     id="g12891">
	</g><g
     style="fill-opacity:1.0;fill:url(#linearGradient12935)"
     id="g12893">
	</g></g></svg>