<?xml version="1.0" encoding="UTF-8" standalone="no"?>
<svg
   xmlns:dc="http://purl.org/dc/elements/1.1/"
   xmlns:cc="http://creativecommons.org/ns#"
   xmlns:rdf="http://www.w3.org/1999/02/22-rdf-syntax-ns#"
   xmlns:svg="http://www.w3.org/2000/svg"
   xmlns="http://www.w3.org/2000/svg"
   xmlns:xlink="http://www.w3.org/1999/xlink"
   xml:space="preserve"
   style="enable-background:new 0 0 368.258 368.258;"
   viewBox="0 0 368.258 368.258"
   y="0px"
   x="0px"
   id="Capa_1"
   version="1.1"><metadata
   id="metadata4962"><rdf:RDF><cc:Work
       rdf:about=""><dc:format>image/svg+xml</dc:format><dc:type
         rdf:resource="http://purl.org/dc/dcmitype/StillImage" /><dc:title></dc:title></cc:Work></rdf:RDF></metadata><defs
   id="defs4960"><linearGradient
     id="lapkin"><stop
       id="stop4972"
       offset="0"
       style="stop-color:#2351ee;stop-opacity:1" /><stop
       id="stop4974"
       offset="1"
       style="stop-color:#00ff00;stop-opacity:1" /></linearGradient><linearGradient
     gradientUnits="userSpaceOnUse"
     y2="187.2285"
     x2="374.457"
     y1="187.2285"
     x1="-0.00025000001"
     id="linearGradient11784"
     xlink:href="#lapkin" /><linearGradient
     y2="187.2285"
     x2="374.457"
     y1="187.2285"
     x1="-0.00025000001"
     gradientUnits="userSpaceOnUse"
     id="linearGradient11786"
     xlink:href="#lapkin" /><linearGradient
     y2="187.2285"
     x2="374.457"
     y1="187.2285"
     x1="-0.00025000001"
     gradientUnits="userSpaceOnUse"
     id="linearGradient11788"
     xlink:href="#lapkin" /><linearGradient
     y2="187.2285"
     x2="374.457"
     y1="187.2285"
     x1="-0.00025000001"
     gradientUnits="userSpaceOnUse"
     id="linearGradient11790"
     xlink:href="#lapkin" /><linearGradient
     y2="187.2285"
     x2="374.457"
     y1="187.2285"
     x1="-0.00025000001"
     gradientUnits="userSpaceOnUse"
     id="linearGradient11792"
     xlink:href="#lapkin" /><linearGradient
     y2="187.2285"
     x2="374.457"
     y1="187.2285"
     x1="-0.00025000001"
     gradientUnits="userSpaceOnUse"
     id="linearGradient11794"
     xlink:href="#lapkin" /><linearGradient
     y2="187.2285"
     x2="374.457"
     y1="187.2285"
     x1="-0.00025000001"
     gradientUnits="userSpaceOnUse"
     id="linearGradient11796"
     xlink:href="#lapkin" /><linearGradient
     y2="187.2285"
     x2="374.457"
     y1="187.2285"
     x1="-0.00025000001"
     gradientUnits="userSpaceOnUse"
     id="linearGradient11798"
     xlink:href="#lapkin" /><linearGradient
     y2="187.2285"
     x2="374.457"
     y1="187.2285"
     x1="-0.00025000001"
     gradientUnits="userSpaceOnUse"
     id="linearGradient11800"
     xlink:href="#lapkin" /><linearGradient
     y2="187.2285"
     x2="374.457"
     y1="187.2285"
     x1="-0.00025000001"
     gradientUnits="userSpaceOnUse"
     id="linearGradient11802"
     xlink:href="#lapkin" /><linearGradient
     y2="187.2285"
     x2="374.457"
     y1="187.2285"
     x1="-0.00025000001"
     gradientUnits="userSpaceOnUse"
     id="linearGradient11804"
     xlink:href="#lapkin" /><linearGradient
     y2="187.2285"
     x2="374.457"
     y1="187.2285"
     x1="-0.00025000001"
     gradientUnits="userSpaceOnUse"
     id="linearGradient11806"
     xlink:href="#lapkin" /><linearGradient
     y2="187.2285"
     x2="374.457"
     y1="187.2285"
     x1="-0.00025000001"
     gradientUnits="userSpaceOnUse"
     id="linearGradient11808"
     xlink:href="#lapkin" /><linearGradient
     y2="187.2285"
     x2="374.457"
     y1="187.2285"
     x1="-0.00025000001"
     gradientUnits="userSpaceOnUse"
     id="linearGradient11810"
     xlink:href="#lapkin" /><linearGradient
     y2="187.2285"
     x2="374.457"
     y1="187.2285"
     x1="-0.00025000001"
     gradientUnits="userSpaceOnUse"
     id="linearGradient11812"
     xlink:href="#lapkin" /><linearGradient
     y2="187.2285"
     x2="374.457"
     y1="187.2285"
     x1="-0.00025000001"
     gradientUnits="userSpaceOnUse"
     id="linearGradient11814"
     xlink:href="#lapkin" /><linearGradient
     y2="187.2285"
     x2="374.457"
     y1="187.2285"
     x1="-0.00025000001"
     gradientUnits="userSpaceOnUse"
     id="linearGradient11816"
     xlink:href="#lapkin" /><linearGradient
     y2="187.2285"
     x2="374.457"
     y1="187.2285"
     x1="-0.00025000001"
     gradientUnits="userSpaceOnUse"
     id="linearGradient11818"
     xlink:href="#lapkin" /><linearGradient
     y2="187.2285"
     x2="374.457"
     y1="187.2285"
     x1="-0.00025000001"
     gradientUnits="userSpaceOnUse"
     id="linearGradient11820"
     xlink:href="#lapkin" /><linearGradient
     y2="187.2285"
     x2="374.457"
     y1="187.2285"
     x1="-0.00025000001"
     gradientUnits="userSpaceOnUse"
     id="linearGradient11822"
     xlink:href="#lapkin" /><linearGradient
     gradientUnits="userSpaceOnUse"
     y2="198"
     x2="396.00101"
     y1="198"
     x1="0"
     id="linearGradient12071"
     xlink:href="#lapkin" /><linearGradient
     y2="198"
     x2="396.00101"
     y1="198"
     x1="0"
     gradientUnits="userSpaceOnUse"
     id="linearGradient12073"
     xlink:href="#lapkin" /><linearGradient
     y2="198"
     x2="396.00101"
     y1="198"
     x1="0"
     gradientUnits="userSpaceOnUse"
     id="linearGradient12075"
     xlink:href="#lapkin" /><linearGradient
     y2="198"
     x2="396.00101"
     y1="198"
     x1="0"
     gradientUnits="userSpaceOnUse"
     id="linearGradient12077"
     xlink:href="#lapkin" /><linearGradient
     y2="198"
     x2="396.00101"
     y1="198"
     x1="0"
     gradientUnits="userSpaceOnUse"
     id="linearGradient12079"
     xlink:href="#lapkin" /><linearGradient
     y2="198"
     x2="396.00101"
     y1="198"
     x1="0"
     gradientUnits="userSpaceOnUse"
     id="linearGradient12081"
     xlink:href="#lapkin" /><linearGradient
     y2="198"
     x2="396.00101"
     y1="198"
     x1="0"
     gradientUnits="userSpaceOnUse"
     id="linearGradient12083"
     xlink:href="#lapkin" /><linearGradient
     y2="198"
     x2="396.00101"
     y1="198"
     x1="0"
     gradientUnits="userSpaceOnUse"
     id="linearGradient12085"
     xlink:href="#lapkin" /><linearGradient
     y2="198"
     x2="396.00101"
     y1="198"
     x1="0"
     gradientUnits="userSpaceOnUse"
     id="linearGradient12087"
     xlink:href="#lapkin" /><linearGradient
     y2="198"
     x2="396.00101"
     y1="198"
     x1="0"
     gradientUnits="userSpaceOnUse"
     id="linearGradient12089"
     xlink:href="#lapkin" /><linearGradient
     y2="198"
     x2="396.00101"
     y1="198"
     x1="0"
     gradientUnits="userSpaceOnUse"
     id="linearGradient12091"
     xlink:href="#lapkin" /><linearGradient
     y2="198"
     x2="396.00101"
     y1="198"
     x1="0"
     gradientUnits="userSpaceOnUse"
     id="linearGradient12093"
     xlink:href="#lapkin" /><linearGradient
     y2="198"
     x2="396.00101"
     y1="198"
     x1="0"
     gradientUnits="userSpaceOnUse"
     id="linearGradient12095"
     xlink:href="#lapkin" /><linearGradient
     y2="198"
     x2="396.00101"
     y1="198"
     x1="0"
     gradientUnits="userSpaceOnUse"
     id="linearGradient12097"
     xlink:href="#lapkin" /><linearGradient
     y2="198"
     x2="396.00101"
     y1="198"
     x1="0"
     gradientUnits="userSpaceOnUse"
     id="linearGradient12099"
     xlink:href="#lapkin" /><linearGradient
     y2="198"
     x2="396.00101"
     y1="198"
     x1="0"
     gradientUnits="userSpaceOnUse"
     id="linearGradient12101"
     xlink:href="#lapkin" /><linearGradient
     y2="198"
     x2="396.00101"
     y1="198"
     x1="0"
     gradientUnits="userSpaceOnUse"
     id="linearGradient12103"
     xlink:href="#lapkin" /><linearGradient
     y2="198"
     x2="396.00101"
     y1="198"
     x1="0"
     gradientUnits="userSpaceOnUse"
     id="linearGradient12105"
     xlink:href="#lapkin" /><linearGradient
     y2="198"
     x2="396.00101"
     y1="198"
     x1="0"
     gradientUnits="userSpaceOnUse"
     id="linearGradient12107"
     xlink:href="#lapkin" /><linearGradient
     y2="198"
     x2="396.00101"
     y1="198"
     x1="0"
     gradientUnits="userSpaceOnUse"
     id="linearGradient12109"
     xlink:href="#lapkin" /><linearGradient
     gradientUnits="userSpaceOnUse"
     y2="224.908"
     x2="349.836"
     y1="224.908"
     x1="99.983002"
     id="linearGradient12343"
     xlink:href="#lapkin" /><linearGradient
     y2="224.908"
     x2="349.836"
     y1="224.908"
     x1="99.983002"
     gradientUnits="userSpaceOnUse"
     id="linearGradient12403"
     xlink:href="#lapkin" /><linearGradient
     y2="224.908"
     x2="349.836"
     y1="224.908"
     x1="99.983002"
     gradientUnits="userSpaceOnUse"
     id="linearGradient12405"
     xlink:href="#lapkin" /><linearGradient
     y2="224.908"
     x2="349.836"
     y1="224.908"
     x1="99.983002"
     gradientUnits="userSpaceOnUse"
     id="linearGradient12407"
     xlink:href="#lapkin" /><linearGradient
     y2="224.908"
     x2="349.836"
     y1="224.908"
     x1="99.983002"
     gradientUnits="userSpaceOnUse"
     id="linearGradient12409"
     xlink:href="#lapkin" /><linearGradient
     y2="224.908"
     x2="349.836"
     y1="224.908"
     x1="99.983002"
     gradientUnits="userSpaceOnUse"
     id="linearGradient12411"
     xlink:href="#lapkin" /><linearGradient
     y2="224.908"
     x2="349.836"
     y1="224.908"
     x1="99.983002"
     gradientUnits="userSpaceOnUse"
     id="linearGradient12413"
     xlink:href="#lapkin" /><linearGradient
     y2="224.908"
     x2="349.836"
     y1="224.908"
     x1="99.983002"
     gradientUnits="userSpaceOnUse"
     id="linearGradient12415"
     xlink:href="#lapkin" /><linearGradient
     y2="224.908"
     x2="349.836"
     y1="224.908"
     x1="99.983002"
     gradientUnits="userSpaceOnUse"
     id="linearGradient12417"
     xlink:href="#lapkin" /><linearGradient
     y2="224.908"
     x2="349.836"
     y1="224.908"
     x1="99.983002"
     gradientUnits="userSpaceOnUse"
     id="linearGradient12419"
     xlink:href="#lapkin" /><linearGradient
     y2="224.908"
     x2="349.836"
     y1="224.908"
     x1="99.983002"
     gradientUnits="userSpaceOnUse"
     id="linearGradient12421"
     xlink:href="#lapkin" /><linearGradient
     y2="224.908"
     x2="349.836"
     y1="224.908"
     x1="99.983002"
     gradientUnits="userSpaceOnUse"
     id="linearGradient12423"
     xlink:href="#lapkin" /><linearGradient
     y2="224.908"
     x2="349.836"
     y1="224.908"
     x1="99.983002"
     gradientUnits="userSpaceOnUse"
     id="linearGradient12425"
     xlink:href="#lapkin" /><linearGradient
     y2="224.908"
     x2="349.836"
     y1="224.908"
     x1="99.983002"
     gradientUnits="userSpaceOnUse"
     id="linearGradient12427"
     xlink:href="#lapkin" /><linearGradient
     y2="224.908"
     x2="349.836"
     y1="224.908"
     x1="99.983002"
     gradientUnits="userSpaceOnUse"
     id="linearGradient12429"
     xlink:href="#lapkin" /><linearGradient
     y2="224.908"
     x2="349.836"
     y1="224.908"
     x1="99.983002"
     gradientUnits="userSpaceOnUse"
     id="linearGradient12431"
     xlink:href="#lapkin" /><linearGradient
     y2="224.908"
     x2="349.836"
     y1="224.908"
     x1="99.983002"
     gradientUnits="userSpaceOnUse"
     id="linearGradient12433"
     xlink:href="#lapkin" /><linearGradient
     gradientUnits="userSpaceOnUse"
     y2="152.623"
     x2="305.24527"
     y1="152.623"
     x1="0.00010533658"
     id="linearGradient12618"
     xlink:href="#lapkin" /><linearGradient
     y2="152.623"
     x2="305.24527"
     y1="152.623"
     x1="0.00010533658"
     gradientUnits="userSpaceOnUse"
     id="linearGradient12620"
     xlink:href="#lapkin" /><linearGradient
     y2="152.623"
     x2="305.24527"
     y1="152.623"
     x1="0.00010533658"
     gradientUnits="userSpaceOnUse"
     id="linearGradient12622"
     xlink:href="#lapkin" /><linearGradient
     y2="152.623"
     x2="305.24527"
     y1="152.623"
     x1="0.00010533658"
     gradientUnits="userSpaceOnUse"
     id="linearGradient12624"
     xlink:href="#lapkin" /><linearGradient
     y2="152.623"
     x2="305.24527"
     y1="152.623"
     x1="0.00010533658"
     gradientUnits="userSpaceOnUse"
     id="linearGradient12626"
     xlink:href="#lapkin" /><linearGradient
     y2="152.623"
     x2="305.24527"
     y1="152.623"
     x1="0.00010533658"
     gradientUnits="userSpaceOnUse"
     id="linearGradient12628"
     xlink:href="#lapkin" /><linearGradient
     y2="152.623"
     x2="305.24527"
     y1="152.623"
     x1="0.00010533658"
     gradientUnits="userSpaceOnUse"
     id="linearGradient12630"
     xlink:href="#lapkin" /><linearGradient
     y2="152.623"
     x2="305.24527"
     y1="152.623"
     x1="0.00010533658"
     gradientUnits="userSpaceOnUse"
     id="linearGradient12632"
     xlink:href="#lapkin" /><linearGradient
     y2="152.623"
     x2="305.24527"
     y1="152.623"
     x1="0.00010533658"
     gradientUnits="userSpaceOnUse"
     id="linearGradient12634"
     xlink:href="#lapkin" /><linearGradient
     y2="152.623"
     x2="305.24527"
     y1="152.623"
     x1="0.00010533658"
     gradientUnits="userSpaceOnUse"
     id="linearGradient12636"
     xlink:href="#lapkin" /><linearGradient
     y2="152.623"
     x2="305.24527"
     y1="152.623"
     x1="0.00010533658"
     gradientUnits="userSpaceOnUse"
     id="linearGradient12638"
     xlink:href="#lapkin" /><linearGradient
     y2="152.623"
     x2="305.24527"
     y1="152.623"
     x1="0.00010533658"
     gradientUnits="userSpaceOnUse"
     id="linearGradient12640"
     xlink:href="#lapkin" /><linearGradient
     y2="152.623"
     x2="305.24527"
     y1="152.623"
     x1="0.00010533658"
     gradientUnits="userSpaceOnUse"
     id="linearGradient12642"
     xlink:href="#lapkin" /><linearGradient
     y2="152.623"
     x2="305.24527"
     y1="152.623"
     x1="0.00010533658"
     gradientUnits="userSpaceOnUse"
     id="linearGradient12644"
     xlink:href="#lapkin" /><linearGradient
     y2="152.623"
     x2="305.24527"
     y1="152.623"
     x1="0.00010533658"
     gradientUnits="userSpaceOnUse"
     id="linearGradient12646"
     xlink:href="#lapkin" /><linearGradient
     y2="152.623"
     x2="305.24527"
     y1="152.623"
     x1="0.00010533658"
     gradientUnits="userSpaceOnUse"
     id="linearGradient12648"
     xlink:href="#lapkin" /><linearGradient
     y2="152.623"
     x2="305.24527"
     y1="152.623"
     x1="0.00010533658"
     gradientUnits="userSpaceOnUse"
     id="linearGradient12650"
     xlink:href="#lapkin" /><linearGradient
     y2="152.623"
     x2="305.24527"
     y1="152.623"
     x1="0.00010533658"
     gradientUnits="userSpaceOnUse"
     id="linearGradient12652"
     xlink:href="#lapkin" /><linearGradient
     y2="152.623"
     x2="305.24527"
     y1="152.623"
     x1="0.00010533658"
     gradientUnits="userSpaceOnUse"
     id="linearGradient12654"
     xlink:href="#lapkin" /><linearGradient
     y2="152.623"
     x2="305.24527"
     y1="152.623"
     x1="0.00010533658"
     gradientUnits="userSpaceOnUse"
     id="linearGradient12656"
     xlink:href="#lapkin" /></defs>
	
	<g
   id="g4927">
	</g>
	<g
   id="g4929">
	</g>
	<g
   id="g4931">
	</g>
	<g
   id="g4933">
	</g>
	<g
   id="g4935">
	</g>
	<g
   id="g4937">
	</g>
	<g
   id="g4939">
	</g>
	<g
   id="g4941">
	</g>
	<g
   id="g4943">
	</g>
	<g
   id="g4945">
	</g>
	<g
   id="g4947">
	</g>
	<g
   id="g4949">
	</g>
	<g
   id="g4951">
	</g>
	<g
   id="g4953">
	</g>
	<g
   id="g4955">
	</g>
<g
   style="fill:url(#linearGradient11784);fill-opacity:1"
   transform="matrix(0.98408297,0,0,0.98408297,-451.89264,-88.145938)"
   id="g11776"><g
     style="fill:url(#linearGradient11792);fill-opacity:1"
     id="g11718">
		<path
   style="fill:url(#linearGradient11786);fill-opacity:1"
   d="m 295.032,101.74 c 5.961,0 11.564,-2.321 15.779,-6.536 8.701,-8.701 8.701,-22.858 0,-31.558 -4.214,-4.215 -9.818,-6.537 -15.779,-6.537 -5.96,0 -11.564,2.321 -15.779,6.536 -8.701,8.701 -8.701,22.858 0,31.559 4.215,4.214 9.819,6.536 15.779,6.536 z M 284.909,69.302 c 2.704,-2.704 6.3,-4.193 10.123,-4.193 3.824,0 7.419,1.489 10.123,4.193 5.581,5.581 5.581,14.663 0,20.245 -2.704,2.704 -6.299,4.193 -10.123,4.193 -3.823,0 -7.419,-1.489 -10.123,-4.192 -5.581,-5.583 -5.581,-14.665 0,-20.246 z"
   id="path11712" />
		<path
   style="fill:url(#linearGradient11788);fill-opacity:1"
   d="m 205.317,169.14 c -3.504,-3.504 -8.163,-5.435 -13.119,-5.435 -4.956,0 -9.615,1.93 -13.119,5.435 -7.233,7.233 -7.233,19.004 0,26.238 3.504,3.504 8.163,5.434 13.119,5.434 4.956,0 9.614,-1.93 13.118,-5.434 3.505,-3.504 5.435,-8.163 5.435,-13.119 0,-4.956 -1.93,-9.615 -5.434,-13.119 z m -5.657,20.581 c -1.993,1.993 -4.644,3.09 -7.462,3.09 -2.819,0 -5.47,-1.098 -7.463,-3.09 -4.114,-4.115 -4.114,-10.81 0,-14.924 1.993,-1.994 4.644,-3.091 7.463,-3.091 2.818,0 5.469,1.098 7.462,3.091 1.993,1.993 3.091,4.643 3.091,7.462 0,2.819 -1.098,5.469 -3.091,7.462 z"
   id="path11714" />
		<path
   style="fill:url(#linearGradient11790);fill-opacity:1"
   d="M 373.285,318.413 268.203,213.331 c -1.561,-1.562 -4.094,-1.562 -5.656,0 l -12.469,12.469 -8.31,-8.31 30.934,-30.934 c 15.946,-15.946 21.417,-39.169 14.869,-60.187 5.746,1.775 11.77,2.696 17.796,2.696 16.01,0 31.06,-6.234 42.378,-17.552 11.326,-11.326 17.563,-26.384 17.563,-42.4 0,-7.711 -1.459,-15.194 -4.223,-22.151 l 10.536,-10.536 c 0.75,-0.75 1.172,-1.768 1.172,-2.829 0,-1.061 -0.422,-2.078 -1.172,-2.829 L 343.688,2.834 c -1.563,-1.562 -4.096,-1.562 -5.656,0 L 327.496,13.37 c -6.957,-2.763 -14.44,-4.222 -22.151,-4.222 -16.017,0 -31.074,6.237 -42.399,17.563 -15.947,15.946 -21.419,39.168 -14.87,60.188 -5.745,-1.775 -11.77,-2.696 -17.796,-2.696 -16.009,0 -31.06,6.233 -42.378,17.552 l -30.935,30.935 -8.31,-8.31 12.468,-12.468 c 1.563,-1.563 1.563,-4.095 0,-5.657 L 56.043,1.171 C 55.293,0.421 54.275,0 53.215,0 52.155,0 51.137,0.421 50.387,1.171 L 1.172,50.387 c -1.563,1.563 -1.563,4.095 0,5.657 l 105.082,105.082 c 0.75,0.75 1.768,1.171 2.828,1.171 1.06,0 2.078,-0.421 2.828,-1.171 l 12.468,-12.468 8.31,8.31 -8.124,8.124 c -10e-4,0 -10e-4,10e-4 -0.002,10e-4 0,0 -10e-4,0.001 -10e-4,0.002 l -24.724,24.724 c -1.563,1.563 -1.563,4.095 0,5.657 l 79.144,79.144 c 0.75,0.75 1.768,1.171 2.828,1.171 1.06,0 2.078,-0.421 2.828,-1.171 l 32.852,-32.852 8.31,8.31 -12.468,12.468 c -0.75,0.75 -1.172,1.768 -1.172,2.829 0,1.061 0.422,2.078 1.172,2.829 l 105.082,105.082 c 0.78,0.781 1.805,1.171 2.828,1.171 1.023,0 2.048,-0.391 2.828,-1.171 l 49.216,-49.215 c 0.75,-0.75 1.172,-1.768 1.172,-2.829 0,-1.061 -0.422,-2.078 -1.172,-2.829 z m -98.928,-0.497 43.559,-43.559 20.946,20.947 -43.559,43.558 z m -26.603,-26.603 43.559,-43.558 20.946,20.946 -43.559,43.558 z m -41.219,-49.904 -73.487,-73.487 43.269,-43.269 73.487,73.487 z M 342.089,32.368 c 9.296,9.296 14.628,21.494 15.166,34.551 L 307.538,17.202 c 13.057,0.538 25.255,5.87 34.551,15.166 z m -1.229,-21.048 22.276,22.276 -5.735,5.736 c -2.617,-4.557 -5.84,-8.805 -9.656,-12.621 -3.816,-3.816 -8.063,-7.039 -12.62,-9.656 z m -72.258,21.048 c 7.786,-7.786 17.61,-12.783 28.266,-14.522 l 59.743,59.743 c -1.739,10.656 -6.737,20.481 -14.522,28.266 -9.808,9.808 -22.849,15.209 -36.722,15.209 -8.007,0 -16.006,-1.874 -23.137,-5.417 L 258.807,92.224 C 248.869,72.216 252.8,48.169 268.602,32.368 Z m -16.166,64.799 24.877,24.877 c 8.168,17.35 6.07,37.543 -5.026,52.731 l -72.606,-72.606 c 8.831,-6.467 19.445,-9.966 30.599,-9.966 7.644,0 15.274,1.725 22.156,4.964 z m -58.878,10.245 c 0.009,-0.009 0.018,-0.017 0.027,-0.026 l 73.486,73.487 c -0.009,0.009 -0.016,0.017 -0.025,0.026 l -11.585,11.585 -73.488,-73.488 z m -131.36,-1.655 43.558,-43.559 20.947,20.947 -43.559,43.558 z M 35.595,79.153 79.153,35.595 100.099,56.542 56.541,100.1 Z M 53.215,9.657 73.496,29.938 29.938,73.497 9.657,53.216 Z m 55.867,142.984 -20.281,-20.281 43.559,-43.558 20.281,20.281 -31.087,31.088 c -0.001,0.001 -0.002,0.001 -0.003,0.002 -0.001,0.001 -0.001,0.002 -0.002,0.003 z m 20.953,-9.64 12.966,-12.966 8.31,8.31 -12.966,12.966 z m 51.774,123.134 -73.486,-73.487 19.069,-19.069 73.487,73.487 z m 41.337,-30.023 12.965,-12.965 8.31,8.31 -12.966,12.965 z m 42.229,-14.296 20.281,20.281 -43.559,43.558 -20.281,-20.281 z M 321.241,364.8 300.96,344.519 344.519,300.961 364.8,321.242 Z"
   id="path11716" />
	</g><g
     style="fill:url(#linearGradient11794);fill-opacity:1"
     id="g11720">
	</g><g
     style="fill:url(#linearGradient11796);fill-opacity:1"
     id="g11722">
	</g><g
     style="fill:url(#linearGradient11798);fill-opacity:1"
     id="g11724">
	</g><g
     style="fill:url(#linearGradient11800);fill-opacity:1"
     id="g11726">
	</g><g
     style="fill:url(#linearGradient11802);fill-opacity:1"
     id="g11728">
	</g><g
     style="fill:url(#linearGradient11804);fill-opacity:1"
     id="g11730">
	</g><g
     style="fill:url(#linearGradient11806);fill-opacity:1"
     id="g11732">
	</g><g
     style="fill:url(#linearGradient11808);fill-opacity:1"
     id="g11734">
	</g><g
     style="fill:url(#linearGradient11810);fill-opacity:1"
     id="g11736">
	</g><g
     style="fill:url(#linearGradient11812);fill-opacity:1"
     id="g11738">
	</g><g
     style="fill:url(#linearGradient11814);fill-opacity:1"
     id="g11740">
	</g><g
     style="fill:url(#linearGradient11816);fill-opacity:1"
     id="g11742">
	</g><g
     style="fill:url(#linearGradient11818);fill-opacity:1"
     id="g11744">
	</g><g
     style="fill:url(#linearGradient11820);fill-opacity:1"
     id="g11746">
	</g><g
     style="fill:url(#linearGradient11822);fill-opacity:1"
     id="g11748">
	</g></g><g
   style="fill:url(#linearGradient12071);fill-opacity:1"
   transform="matrix(0.92971878,0,0,0.92971878,-664.35717,114.77722)"
   id="g12063"><g
     style="fill:url(#linearGradient12079);fill-opacity:1"
     id="g12005">
		<path
   style="fill:url(#linearGradient12073);fill-opacity:1"
   d="M 392,336.957 H 373.364 L 331.265,234.36 c -0.397,-0.967 -1.157,-1.74 -2.116,-2.154 l -32.92,-14.2 v -0.834 c 0,-2.209 -1.791,-4 -4,-4 h -26.173 l -2.046,-8.628 h 0.851 c 1.324,0 2.563,-0.655 3.307,-1.75 0.744,-1.095 0.9,-2.487 0.414,-3.719 l -15.589,-39.493 c -0.603,-1.527 -2.079,-2.531 -3.721,-2.531 h -5.21 c 11.111,-11.732 17.524,-27.462 17.524,-43.808 0,-11.216 -2.963,-22.241 -8.567,-31.893 L 240.804,57.245 C 232.584,41.026 216.183,30.95 198,30.95 c -18.183,0 -34.584,10.076 -42.804,26.295 L 142.981,81.35 c -5.604,9.652 -8.567,20.677 -8.567,31.893 0,4.752 0.558,9.449 1.599,14.015 h -23.234 c -2.209,0 -4,1.791 -4,4 v 8.066 C 101.27,146.121 97,155.698 97,165.9 c 0,10.202 4.27,19.781 11.779,26.577 v 8.066 c 0,2.209 1.791,4 4,4 h 19.211 l -2.046,8.628 h -26.173 c -2.209,0 -4,1.791 -4,4 v 0.834 l -32.92,14.2 c -0.959,0.414 -1.719,1.188 -2.116,2.154 L 22.636,336.957 H 4 c -2.209,0 -4,1.791 -4,4 0,13.285 10.808,24.093 24.093,24.093 h 2.079 c 13.285,0 24.093,-10.808 24.093,-24.093 0,-2.209 -1.791,-4 -4,-4 H 31.283 L 40.252,315.1 72.511,305.008 h 98.407 l -2.165,14.822 c -0.168,1.149 0.172,2.315 0.932,3.194 0.76,0.879 1.864,1.384 3.026,1.384 H 194 v 12.549 h -17.479 c -2.209,0 -4,1.791 -4,4 0,13.285 10.808,24.093 24.093,24.093 h 2.079 c 13.285,0 24.093,-10.808 24.093,-24.093 0,-2.209 -1.791,-4 -4,-4 H 202 v -12.549 h 21.289 c 1.162,0 2.266,-0.505 3.026,-1.384 0.76,-0.879 1.1,-2.045 0.932,-3.194 l -2.165,-14.822 h 98.407 l 32.259,10.092 8.969,21.857 h -14.981 c -2.209,0 -4,1.791 -4,4 0,13.285 10.808,24.093 24.093,24.093 h 2.079 c 13.285,0 24.093,-10.808 24.093,-24.093 -10e-4,-2.209 -1.792,-4 -4.001,-4 z M 26.171,357.05 h -2.079 c -7.493,0 -13.807,-5.148 -15.59,-12.093 H 41.76 c -1.782,6.944 -8.095,12.093 -15.589,12.093 z m 172.522,0 h -2.079 c -7.493,0 -13.807,-5.148 -15.59,-12.093 h 33.258 c -1.782,6.944 -8.096,12.093 -15.589,12.093 z M 321.174,237.479 296.228,268.786 V 226.719 Z M 198,230.312 l -17.225,-9.14 h 34.45 z m -34.292,-9.14 28.772,15.267 -34.611,60.569 H 126.132 V 221.172 Z M 194,249.902 v 47.105 h -26.917 z m 8,0 26.917,47.105 H 202 Z m 1.521,-13.464 28.772,-15.267 h 37.576 v 75.836 h -31.737 z m 55.46,-39.894 h -7.456 l -6.163,-31.493 h 1.188 z m -121.962,0 12.431,-31.493 h 1.188 l -6.163,31.493 z m 7.883,-66.753 30.18,27.26 H 163.81 c -9.109,-7.112 -15.609,-16.579 -18.908,-27.26 z m -2.488,-16.548 c 0,-7.971 1.711,-15.83 4.98,-23.021 h 31.017 v 7.93 l -35.98,15.669 c -0.002,-0.194 -0.017,-0.384 -0.017,-0.578 z M 194,54.193 v 28.028 h -21.141 l 10.09,-28.028 H 194 Z m 19.051,0 10.09,28.028 H 202 V 54.193 Z m 40.535,59.05 c 0,0.193 -0.015,0.384 -0.017,0.577 l -35.98,-15.669 v -7.93 h 31.017 c 3.269,7.192 4.98,15.051 4.98,23.022 z m -75.175,36.033 -31.672,-28.606 31.672,-13.793 z m 8,7.775 V 90.222 h 23.179 v 66.829 z m 31.178,-50.174 31.672,13.793 -31.672,28.606 z m -58.799,58.174 h 21.061 l -2.641,31.493 h -24.583 z m 29.089,0 h 20.243 l 2.641,31.493 h -25.526 z m 30.912,31.493 -2.641,-31.493 h 21.061 l 6.163,31.493 z m 2.126,-39.493 30.18,-27.26 c -3.298,10.681 -9.799,20.148 -18.908,27.26 z m 12.751,-96.189 10.824,21.359 h -12.849 l -10.09,-28.028 h 7.856 c 1.611,2.054 3.046,4.277 4.259,6.669 z M 220.993,46.193 H 175.007 C 181.6,41.557 189.568,38.95 198,38.95 c 8.432,0 16.4,2.607 22.993,7.243 z m -58.661,14.669 c 1.213,-2.393 2.648,-4.615 4.259,-6.669 h 7.856 l -10.09,28.028 H 151.508 Z M 105,165.9 c 0,-5.008 1.333,-9.817 3.779,-14.016 v 28.032 C 106.333,175.719 105,170.909 105,165.9 Z m 11.779,-30.642 h 21.609 c 2.99,8.067 7.595,15.504 13.551,21.793 h -5.21 c -1.642,0 -3.118,1.004 -3.721,2.531 l -14.59,36.962 h -11.639 z m 23.433,69.286 h 115.576 l 2.046,8.628 H 138.166 Z M 99.771,268.786 74.825,237.479 99.771,226.719 Z M 71.9,297.008 c -0.405,0 -0.808,0.062 -1.194,0.183 l -26.507,8.293 25.353,-61.785 30.221,37.926 v 15.384 H 71.9 Z m 35.871,-75.836 h 10.361 v 75.836 h -10.361 z m 69.566,95.236 1.665,-11.4 H 194 v 11.4 z m 41.326,0 H 202 v -11.4 h 14.997 z m 69.566,-19.4 h -10.361 v -75.836 h 10.361 z m 37.065,0.182 c -0.387,-0.121 -0.789,-0.183 -1.194,-0.183 h -27.872 v -15.384 l 30.221,-37.926 25.353,61.785 z m 46.613,59.86 h -2.079 c -7.493,0 -13.807,-5.148 -15.59,-12.093 h 33.258 c -1.782,6.944 -8.096,12.093 -15.589,12.093 z"
   id="path11999" />
		<path
   style="fill:url(#linearGradient12075);fill-opacity:1"
   d="m 149.333,265.716 c 8.822,0 16,-7.178 16,-16 0,-8.822 -7.178,-16 -16,-16 -8.822,0 -16,7.178 -16,16 0,8.822 7.178,16 16,16 z m 0,-24 c 4.411,0 8,3.589 8,8 0,4.411 -3.589,8 -8,8 -4.411,0 -8,-3.589 -8,-8 0,-4.411 3.589,-8 8,-8 z"
   id="path12001" />
		<path
   style="fill:url(#linearGradient12077);fill-opacity:1"
   d="m 248,233.716 c -8.822,0 -16,7.178 -16,16 0,8.822 7.178,16 16,16 8.822,0 16,-7.178 16,-16 0,-8.822 -7.178,-16 -16,-16 z m 0,24 c -4.411,0 -8,-3.589 -8,-8 0,-4.411 3.589,-8 8,-8 4.411,0 8,3.589 8,8 0,4.411 -3.589,8 -8,8 z"
   id="path12003" />
	</g><g
     style="fill:url(#linearGradient12081);fill-opacity:1"
     id="g12007">
	</g><g
     style="fill:url(#linearGradient12083);fill-opacity:1"
     id="g12009">
	</g><g
     style="fill:url(#linearGradient12085);fill-opacity:1"
     id="g12011">
	</g><g
     style="fill:url(#linearGradient12087);fill-opacity:1"
     id="g12013">
	</g><g
     style="fill:url(#linearGradient12089);fill-opacity:1"
     id="g12015">
	</g><g
     style="fill:url(#linearGradient12091);fill-opacity:1"
     id="g12017">
	</g><g
     style="fill:url(#linearGradient12093);fill-opacity:1"
     id="g12019">
	</g><g
     style="fill:url(#linearGradient12095);fill-opacity:1"
     id="g12021">
	</g><g
     style="fill:url(#linearGradient12097);fill-opacity:1"
     id="g12023">
	</g><g
     style="fill:url(#linearGradient12099);fill-opacity:1"
     id="g12025">
	</g><g
     style="fill:url(#linearGradient12101);fill-opacity:1"
     id="g12027">
	</g><g
     style="fill:url(#linearGradient12103);fill-opacity:1"
     id="g12029">
	</g><g
     style="fill:url(#linearGradient12105);fill-opacity:1"
     id="g12031">
	</g><g
     style="fill:url(#linearGradient12107);fill-opacity:1"
     id="g12033">
	</g><g
     style="fill:url(#linearGradient12109);fill-opacity:1"
     id="g12035">
	</g></g><g
   style="fill:url(#linearGradient12343);fill-opacity:1"
   transform="matrix(0.81260139,0,0,0.81260139,-505.1545,74.604302)"
   id="g12335"><path
     style="fill:url(#linearGradient12403);fill-opacity:1"
     d="m 345.835,441.818 h -7.07 l 0.082,-0.036 -27.126,-61.205 c -0.315,-0.711 -0.831,-1.314 -1.483,-1.736 l -20.853,-13.5 v -0.048 c 0,-2.209 -1.791,-4 -4,-4 h -15.283 l -8.407,-33.006 c -0.451,-1.772 -2.047,-3.013 -3.876,-3.013 h -0.196 c 6.071,-7.473 9.528,-16.91 9.528,-26.684 0,-7.153 -1.819,-14.187 -5.26,-20.415 -0.122,-0.22 -8.233,-16.173 -8.233,-16.173 -3.354,-6.616 -8.741,-11.697 -15.186,-14.677 l 46.205,-53.705 c 0.624,-0.726 0.968,-1.651 0.968,-2.608 V 54.545 c 0,-2.209 -1.791,-4 -4,-4 H 250.526 L 261.539,4.939 C 261.826,3.748 261.552,2.49 260.793,1.526 260.038,0.563 258.879,0 257.653,0 H 188.86 c -1.226,0 -2.384,0.563 -3.143,1.525 -0.758,0.964 -1.033,2.222 -0.745,3.414 l 11.014,45.605 h -27.814 c -2.209,0 -4,1.791 -4,4 v 136.467 c 0,0.957 0.343,1.883 0.968,2.608 l 46.205,53.705 c -6.445,2.98 -11.832,8.061 -15.185,14.678 0,0 -8.013,15.775 -8.092,15.916 -3.532,6.289 -5.401,13.419 -5.401,20.671 0,2.553 0.24,5.083 0.696,7.562 h -0.666 c -8.703,0 -15.784,7.081 -15.784,15.784 v 20.9 c 0,7.936 5.892,14.503 13.528,15.604 l -0.726,2.852 h -15.283 c -2.209,0 -4,1.791 -4,4 v 0.048 l -20.852,13.5 c -0.653,0.422 -1.168,1.025 -1.483,1.736 l -27.125,61.205 0.082,0.036 h -7.071 c -2.209,0 -4,1.791 -4,4 0,2.209 1.791,4 4,4 h 22.934 c 2.209,0 4,-1.791 4,-4 0,-2.209 -1.791,-4 -4,-4 h -7.21 l 5.627,-12.697 19.255,-6.024 h 76.32 v 18.721 h -7.467 c -2.209,0 -4,1.791 -4,4 0,2.209 1.791,4 4,4 h 22.935 c 2.209,0 4,-1.791 4,-4 0,-2.209 -1.791,-4 -4,-4 h -7.467 v -18.721 h 76.319 l 19.256,6.024 5.627,12.696 h -7.211 c -2.209,0 -4,1.791 -4,4 0,2.209 1.791,4 4,4 h 22.935 c 2.209,0 4,-1.791 4,-4 0,-2.209 -1.792,-3.997 -4.001,-3.997 z m -44.023,-58.903 -12.427,12.868 V 374.87 Z m -45.364,-97.667 c 1.775,4.2 2.704,8.74 2.704,13.342 0,10.497 -4.654,20.145 -12.798,26.684 h -7.44 v -40.025 h 17.534 z m -31.539,-32.906 c 5.988,0 11.585,2.175 15.911,5.952 h -31.823 c 4.326,-3.777 9.924,-5.952 15.912,-5.952 z m 4.001,24.906 v -10.954 h 4.82 l 4.832,10.954 z m -8.001,-10.954 v 10.954 h -9.652 l 4.831,-10.954 z m 10.006,18.954 v 40.025 h -12.011 v -40.025 z m 16.391,-8 -4.832,-10.954 h 4.392 l 5.551,10.954 z m -75.135,-90.236 v -15.88 h 105.476 v 15.88 z m 0,-23.88 v -5.205 h 105.476 v 5.205 z m 0,-13.205 v -5.204 h 105.476 v 5.204 z m 100.757,45.085 -26.39,30.668 h -43.264 l -26.385,-30.668 z m -33.267,38.668 -8.663,10.069 H 218.822 L 210.159,233.68 Z M 277.647,104.059 H 255.884 V 72.444 h 21.763 z M 196.918,20.325 h 52.677 l -1.088,4.503 h -50.502 z m 3.019,12.503 h 46.639 l -1.09,4.513 H 201.027 Z M 252.572,8 251.528,12.325 H 194.987 L 193.941,8 Z m -49.613,37.341 h 40.595 l -1.257,5.204 h -38.081 z m 74.688,13.204 v 5.899 h -25.763 c -2.209,0 -4,1.791 -4,4 v 39.614 c 0,2.209 1.791,4 4,4 h 25.763 v 24.664 H 172.171 v -24.664 h 25.759 c 2.209,0 4,-1.791 4,-4 V 68.444 c 0,-2.209 -1.791,-4 -4,-4 H 172.171 V 58.545 Z M 172.171,104.059 V 72.444 h 21.759 v 31.614 h -21.759 z m 30.782,162.235 h 4.392 l -4.831,10.954 h -5.111 z m 7.951,18.954 v 40.025 h -7.44 c -8.143,-6.539 -12.797,-16.187 -12.797,-26.684 0,-4.603 0.929,-9.143 2.703,-13.342 h 17.534 z m -35.99,57.588 v -20.9 c 0,-4.292 3.492,-7.784 7.784,-7.784 h 2.982 c 1.594,4.006 3.786,7.763 6.515,11.122 h -0.196 c -1.829,0 -3.425,1.24 -3.876,3.013 l -5.685,22.321 c -4.172,-0.14 -7.524,-3.568 -7.524,-7.772 z m 20.193,-9.563 h 59.603 l 7.137,28.019 h -73.876 z m 29.802,43.245 -9.565,-7.226 h 19.129 z m -64.476,19.264 -12.426,-12.867 12.426,-8.045 z m -16.455,19.316 c -0.405,0 -0.808,0.062 -1.194,0.183 l -13.137,4.11 13.358,-30.14 17.428,18.047 v 7.8 z m 24.455,-45.806 h 33.641 l 17.457,13.189 -21.098,32.616 h -30 z m 39.527,45.806 12.949,-20.018 v 20.018 z m 20.95,-20.017 12.948,20.017 H 228.91 Z m 52.475,20.017 h -30 l -21.098,-32.616 17.457,-13.189 h 33.64 v 45.805 z m 25.65,0.182 c -0.387,-0.121 -0.789,-0.183 -1.194,-0.183 h -16.455 v -7.8 l 17.429,-18.048 13.358,30.141 z"
     id="path12280" /><g
     style="fill:url(#linearGradient12405);fill-opacity:1"
     id="g12282">
	</g><g
     style="fill:url(#linearGradient12407);fill-opacity:1"
     id="g12284">
	</g><g
     style="fill:url(#linearGradient12409);fill-opacity:1"
     id="g12286">
	</g><g
     style="fill:url(#linearGradient12411);fill-opacity:1"
     id="g12288">
	</g><g
     style="fill:url(#linearGradient12413);fill-opacity:1"
     id="g12290">
	</g><g
     style="fill:url(#linearGradient12415);fill-opacity:1"
     id="g12292">
	</g><g
     style="fill:url(#linearGradient12417);fill-opacity:1"
     id="g12294">
	</g><g
     style="fill:url(#linearGradient12419);fill-opacity:1"
     id="g12296">
	</g><g
     style="fill:url(#linearGradient12421);fill-opacity:1"
     id="g12298">
	</g><g
     style="fill:url(#linearGradient12423);fill-opacity:1"
     id="g12300">
	</g><g
     style="fill:url(#linearGradient12425);fill-opacity:1"
     id="g12302">
	</g><g
     style="fill:url(#linearGradient12427);fill-opacity:1"
     id="g12304">
	</g><g
     style="fill:url(#linearGradient12429);fill-opacity:1"
     id="g12306">
	</g><g
     style="fill:url(#linearGradient12431);fill-opacity:1"
     id="g12308">
	</g><g
     style="fill:url(#linearGradient12433);fill-opacity:1"
     id="g12310">
	</g></g><g
   style="fill:url(#linearGradient12618);fill-opacity:1"
   transform="matrix(1.1729454,0,0,1.1729454,4.7037957,10.041363)"
   id="g12610"><g
     style="fill:url(#linearGradient12626);fill-opacity:1"
     id="g12552">
		<path
   style="fill:url(#linearGradient12620);fill-opacity:1"
   d="M 304.522,224.795 264.009,58.588 C 260.238,43.115 246.481,32.309 230.556,32.309 H 203.509 V 20.37 h 7.447 c 2.209,0 4,-1.791 4,-4 0,-2.209 -1.791,-4 -4,-4 H 199.509 105.72 94.274 c -2.209,0 -4,1.791 -4,4 0,2.209 1.791,4 4,4 h 7.446 V 32.309 H 74.673 c -15.925,0 -29.682,10.807 -33.453,26.279 L 0.718,224.752 c -2.534,10.396 1.78,21.299 10.735,27.129 1.585,1.031 2.875,1.852 3.835,2.436 41.377,25.226 88.863,38.559 137.326,38.559 49.918,0 98.615,-14.084 140.825,-40.729 0.003,-0.002 0.112,-0.071 0.114,-0.073 9.128,-5.787 13.536,-16.749 10.969,-27.279 z M 22.214,170.342 c 2.248,1.974 4.867,3.253 7.689,3.677 0.741,0.114 1.483,0.171 2.225,0.171 3.344,0 6.666,-1.154 9.722,-3.396 5.554,-4.077 9.624,-11.456 10.887,-19.733 1.273,-8.276 -0.4,-16.533 -4.478,-22.087 -2.739,-3.73 -6.343,-6.031 -10.414,-6.653 -1.3,-0.202 -2.609,-0.212 -3.911,-0.06 L 41.55,91.016 H 74.469 L 56.419,217.673 H 10.677 Z m 9.52,-39.06 c 1.642,-0.946 3.282,-1.306 4.895,-1.055 2.443,0.373 4.166,2.099 5.181,3.481 2.848,3.879 3.977,9.911 3.019,16.14 -0.95,6.229 -3.834,11.648 -7.714,14.496 -1.383,1.014 -3.543,2.147 -6.008,1.766 -3.416,-0.513 -5.473,-3.601 -6.482,-5.658 z M 46.348,71.327 H 258.88 l 2.849,11.688 H 43.499 Z m 36.201,19.688 h 140.145 l 18.05,126.657 H 64.499 Z M 248.825,217.672 230.775,91.015 h 32.904 l 7.615,31.243 c -1.296,-0.151 -2.599,-0.14 -3.891,0.061 -4.079,0.623 -7.683,2.924 -10.422,6.654 -4.077,5.554 -5.751,13.811 -4.479,22.082 1.265,8.283 5.335,15.662 10.89,19.738 3.056,2.244 6.379,3.398 9.717,3.398 0.737,0 1.477,-0.057 2.213,-0.17 2.827,-0.425 5.446,-1.702 7.695,-3.673 l 11.535,47.323 h -45.727 z m 31.783,-57.206 c -1.012,2.057 -3.068,5.133 -6.49,5.647 -2.45,0.375 -4.61,-0.754 -5.992,-1.769 -3.88,-2.847 -6.764,-8.267 -7.716,-14.501 -0.957,-6.224 0.172,-12.256 3.02,-16.135 1.015,-1.383 2.737,-3.108 5.188,-3.482 1.599,-0.25 3.236,0.107 4.875,1.048 z M 109.72,20.37 h 85.789 V 32.309 H 109.72 Z M 74.673,40.309 h 155.883 c 12.226,0 22.786,8.296 25.682,20.174 l 0.693,2.844 H 48.298 l 0.693,-2.844 C 51.887,48.605 62.447,40.309 74.673,40.309 Z m 214.598,205.009 -0.101,0.063 c -40.931,25.837 -88.151,39.494 -136.556,39.494 -46.993,0 -93.04,-12.929 -133.163,-37.39 -0.968,-0.59 -2.236,-1.399 -3.633,-2.31 -5.351,-3.483 -8.274,-9.619 -7.762,-15.857 0.073,-0.891 0.67,-3.647 0.67,-3.647 h 287.775 c 0,0 0.53,2.341 0.612,3.003 0.811,6.554 -2.187,13.057 -7.842,16.644 z"
   id="path12546" />
		<path
   style="fill:url(#linearGradient12622);fill-opacity:1"
   d="m 216.854,178.422 c -4.672,-18.243 -9.158,-36.818 -13.339,-55.224 -1.758,-7.631 -8.661,-12.853 -16.646,-12.407 -11.357,0.681 -22.883,1.026 -34.256,1.026 -11.373,0 -22.894,-0.346 -34.244,-1.026 -7.944,-0.449 -14.886,4.774 -16.647,12.42 -4.169,18.359 -8.655,36.935 -13.331,55.192 -1.097,4.198 -0.232,8.693 2.372,12.335 2.984,4.173 7.812,6.797 13.243,7.197 16.107,1.189 32.463,1.792 48.614,1.792 16.151,0 32.507,-0.603 48.614,-1.792 5.431,-0.401 10.257,-3.025 13.242,-7.199 2.604,-3.641 3.469,-8.136 2.378,-12.314 z m -8.885,7.661 c -1.6,2.236 -4.269,3.648 -7.324,3.874 -15.911,1.175 -32.069,1.771 -48.024,1.771 -15.955,0 -32.113,-0.596 -48.025,-1.771 -3.056,-0.226 -5.726,-1.637 -7.325,-3.873 -1.236,-1.729 -1.641,-3.738 -1.134,-5.678 4.698,-18.347 9.202,-36.994 13.384,-55.411 0.833,-3.611 4.15,-6.232 7.888,-6.232 0.162,0 0.324,0.005 0.485,0.015 11.507,0.689 23.188,1.04 34.721,1.04 11.533,0 23.219,-0.351 34.732,-1.04 3.974,-0.236 7.492,2.392 8.371,6.205 4.193,18.464 8.697,37.11 13.392,55.442 0.5,1.92 0.095,3.93 -1.141,5.658 z"
   id="path12548" />
		<path
   style="fill:url(#linearGradient12624);fill-opacity:1"
   d="m 152.62,130.606 c -14.422,0 -26.155,11.054 -26.155,24.64 0,13.586 11.733,24.64 26.155,24.64 14.422,0 26.154,-11.054 26.154,-24.64 0,-13.586 -11.732,-24.64 -26.154,-24.64 z m 0,41.279 c -10.011,0 -18.155,-7.465 -18.155,-16.64 0,-9.175 8.145,-16.64 18.155,-16.64 10.01,0 18.154,7.465 18.154,16.64 0,9.175 -8.143,16.64 -18.154,16.64 z"
   id="path12550" />
	</g><g
     style="fill:url(#linearGradient12628);fill-opacity:1"
     id="g12554">
	</g><g
     style="fill:url(#linearGradient12630);fill-opacity:1"
     id="g12556">
	</g><g
     style="fill:url(#linearGradient12632);fill-opacity:1"
     id="g12558">
	</g><g
     style="fill:url(#linearGradient12634);fill-opacity:1"
     id="g12560">
	</g><g
     style="fill:url(#linearGradient12636);fill-opacity:1"
     id="g12562">
	</g><g
     style="fill:url(#linearGradient12638);fill-opacity:1"
     id="g12564">
	</g><g
     style="fill:url(#linearGradient12640);fill-opacity:1"
     id="g12566">
	</g><g
     style="fill:url(#linearGradient12642);fill-opacity:1"
     id="g12568">
	</g><g
     style="fill:url(#linearGradient12644);fill-opacity:1"
     id="g12570">
	</g><g
     style="fill:url(#linearGradient12646);fill-opacity:1"
     id="g12572">
	</g><g
     style="fill:url(#linearGradient12648);fill-opacity:1"
     id="g12574">
	</g><g
     style="fill:url(#linearGradient12650);fill-opacity:1"
     id="g12576">
	</g><g
     style="fill:url(#linearGradient12652);fill-opacity:1"
     id="g12578">
	</g><g
     style="fill:url(#linearGradient12654);fill-opacity:1"
     id="g12580">
	</g><g
     style="fill:url(#linearGradient12656);fill-opacity:1"
     id="g12582">
	</g></g></svg>