<?xml version="1.0" encoding="UTF-8" standalone="no"?>
<svg
   xmlns:dc="http://purl.org/dc/elements/1.1/"
   xmlns:cc="http://creativecommons.org/ns#"
   xmlns:rdf="http://www.w3.org/1999/02/22-rdf-syntax-ns#"
   xmlns:svg="http://www.w3.org/2000/svg"
   xmlns="http://www.w3.org/2000/svg"
   xmlns:xlink="http://www.w3.org/1999/xlink"
   xml:space="preserve"
   style="enable-background:new 0 0 368.258 368.258;"
   viewBox="0 0 368.258 368.258"
   y="0px"
   x="0px"
   id="Capa_1"
   version="1.1"><metadata
   id="metadata4962"><rdf:RDF><cc:Work
       rdf:about=""><dc:format>image/svg+xml</dc:format><dc:type
         rdf:resource="http://purl.org/dc/dcmitype/StillImage" /><dc:title></dc:title></cc:Work></rdf:RDF></metadata><defs
   id="defs4960"><linearGradient
     id="lapkin"><stop
       id="stop4972"
       offset="0"
       style="stop-color:#2351ee;stop-opacity:1" /><stop
       id="stop4974"
       offset="1"
       style="stop-color:#00ff00;stop-opacity:1" /></linearGradient><linearGradient
     gradientUnits="userSpaceOnUse"
     y2="187.2285"
     x2="374.457"
     y1="187.2285"
     x1="-0.00025000001"
     id="linearGradient11784"
     xlink:href="#lapkin" /><linearGradient
     y2="187.2285"
     x2="374.457"
     y1="187.2285"
     x1="-0.00025000001"
     gradientUnits="userSpaceOnUse"
     id="linearGradient11786"
     xlink:href="#lapkin" /><linearGradient
     y2="187.2285"
     x2="374.457"
     y1="187.2285"
     x1="-0.00025000001"
     gradientUnits="userSpaceOnUse"
     id="linearGradient11788"
     xlink:href="#lapkin" /><linearGradient
     y2="187.2285"
     x2="374.457"
     y1="187.2285"
     x1="-0.00025000001"
     gradientUnits="userSpaceOnUse"
     id="linearGradient11790"
     xlink:href="#lapkin" /><linearGradient
     y2="187.2285"
     x2="374.457"
     y1="187.2285"
     x1="-0.00025000001"
     gradientUnits="userSpaceOnUse"
     id="linearGradient11792"
     xlink:href="#lapkin" /><linearGradient
     y2="187.2285"
     x2="374.457"
     y1="187.2285"
     x1="-0.00025000001"
     gradientUnits="userSpaceOnUse"
     id="linearGradient11794"
     xlink:href="#lapkin" /><linearGradient
     y2="187.2285"
     x2="374.457"
     y1="187.2285"
     x1="-0.00025000001"
     gradientUnits="userSpaceOnUse"
     id="linearGradient11796"
     xlink:href="#lapkin" /><linearGradient
     y2="187.2285"
     x2="374.457"
     y1="187.2285"
     x1="-0.00025000001"
     gradientUnits="userSpaceOnUse"
     id="linearGradient11798"
     xlink:href="#lapkin" /><linearGradient
     y2="187.2285"
     x2="374.457"
     y1="187.2285"
     x1="-0.00025000001"
     gradientUnits="userSpaceOnUse"
     id="linearGradient11800"
     xlink:href="#lapkin" /><linearGradient
     y2="187.2285"
     x2="374.457"
     y1="187.2285"
     x1="-0.00025000001"
     gradientUnits="userSpaceOnUse"
     id="linearGradient11802"
     xlink:href="#lapkin" /><linearGradient
     y2="187.2285"
     x2="374.457"
     y1="187.2285"
     x1="-0.00025000001"
     gradientUnits="userSpaceOnUse"
     id="linearGradient11804"
     xlink:href="#lapkin" /><linearGradient
     y2="187.2285"
     x2="374.457"
     y1="187.2285"
     x1="-0.00025000001"
     gradientUnits="userSpaceOnUse"
     id="linearGradient11806"
     xlink:href="#lapkin" /><linearGradient
     y2="187.2285"
     x2="374.457"
     y1="187.2285"
     x1="-0.00025000001"
     gradientUnits="userSpaceOnUse"
     id="linearGradient11808"
     xlink:href="#lapkin" /><linearGradient
     y2="187.2285"
     x2="374.457"
     y1="187.2285"
     x1="-0.00025000001"
     gradientUnits="userSpaceOnUse"
     id="linearGradient11810"
     xlink:href="#lapkin" /><linearGradient
     y2="187.2285"
     x2="374.457"
     y1="187.2285"
     x1="-0.00025000001"
     gradientUnits="userSpaceOnUse"
     id="linearGradient11812"
     xlink:href="#lapkin" /><linearGradient
     y2="187.2285"
     x2="374.457"
     y1="187.2285"
     x1="-0.00025000001"
     gradientUnits="userSpaceOnUse"
     id="linearGradient11814"
     xlink:href="#lapkin" /><linearGradient
     y2="187.2285"
     x2="374.457"
     y1="187.2285"
     x1="-0.00025000001"
     gradientUnits="userSpaceOnUse"
     id="linearGradient11816"
     xlink:href="#lapkin" /><linearGradient
     y2="187.2285"
     x2="374.457"
     y1="187.2285"
     x1="-0.00025000001"
     gradientUnits="userSpaceOnUse"
     id="linearGradient11818"
     xlink:href="#lapkin" /><linearGradient
     y2="187.2285"
     x2="374.457"
     y1="187.2285"
     x1="-0.00025000001"
     gradientUnits="userSpaceOnUse"
     id="linearGradient11820"
     xlink:href="#lapkin" /><linearGradient
     y2="187.2285"
     x2="374.457"
     y1="187.2285"
     x1="-0.00025000001"
     gradientUnits="userSpaceOnUse"
     id="linearGradient11822"
     xlink:href="#lapkin" /><linearGradient
     gradientUnits="userSpaceOnUse"
     y2="198"
     x2="396.00101"
     y1="198"
     x1="0"
     id="linearGradient12071"
     xlink:href="#lapkin" /><linearGradient
     y2="198"
     x2="396.00101"
     y1="198"
     x1="0"
     gradientUnits="userSpaceOnUse"
     id="linearGradient12073"
     xlink:href="#lapkin" /><linearGradient
     y2="198"
     x2="396.00101"
     y1="198"
     x1="0"
     gradientUnits="userSpaceOnUse"
     id="linearGradient12075"
     xlink:href="#lapkin" /><linearGradient
     y2="198"
     x2="396.00101"
     y1="198"
     x1="0"
     gradientUnits="userSpaceOnUse"
     id="linearGradient12077"
     xlink:href="#lapkin" /><linearGradient
     y2="198"
     x2="396.00101"
     y1="198"
     x1="0"
     gradientUnits="userSpaceOnUse"
     id="linearGradient12079"
     xlink:href="#lapkin" /><linearGradient
     y2="198"
     x2="396.00101"
     y1="198"
     x1="0"
     gradientUnits="userSpaceOnUse"
     id="linearGradient12081"
     xlink:href="#lapkin" /><linearGradient
     y2="198"
     x2="396.00101"
     y1="198"
     x1="0"
     gradientUnits="userSpaceOnUse"
     id="linearGradient12083"
     xlink:href="#lapkin" /><linearGradient
     y2="198"
     x2="396.00101"
     y1="198"
     x1="0"
     gradientUnits="userSpaceOnUse"
     id="linearGradient12085"
     xlink:href="#lapkin" /><linearGradient
     y2="198"
     x2="396.00101"
     y1="198"
     x1="0"
     gradientUnits="userSpaceOnUse"
     id="linearGradient12087"
     xlink:href="#lapkin" /><linearGradient
     y2="198"
     x2="396.00101"
     y1="198"
     x1="0"
     gradientUnits="userSpaceOnUse"
     id="linearGradient12089"
     xlink:href="#lapkin" /><linearGradient
     y2="198"
     x2="396.00101"
     y1="198"
     x1="0"
     gradientUnits="userSpaceOnUse"
     id="linearGradient12091"
     xlink:href="#lapkin" /><linearGradient
     y2="198"
     x2="396.00101"
     y1="198"
     x1="0"
     gradientUnits="userSpaceOnUse"
     id="linearGradient12093"
     xlink:href="#lapkin" /><linearGradient
     y2="198"
     x2="396.00101"
     y1="198"
     x1="0"
     gradientUnits="userSpaceOnUse"
     id="linearGradient12095"
     xlink:href="#lapkin" /><linearGradient
     y2="198"
     x2="396.00101"
     y1="198"
     x1="0"
     gradientUnits="userSpaceOnUse"
     id="linearGradient12097"
     xlink:href="#lapkin" /><linearGradient
     y2="198"
     x2="396.00101"
     y1="198"
     x1="0"
     gradientUnits="userSpaceOnUse"
     id="linearGradient12099"
     xlink:href="#lapkin" /><linearGradient
     y2="198"
     x2="396.00101"
     y1="198"
     x1="0"
     gradientUnits="userSpaceOnUse"
     id="linearGradient12101"
     xlink:href="#lapkin" /><linearGradient
     y2="198"
     x2="396.00101"
     y1="198"
     x1="0"
     gradientUnits="userSpaceOnUse"
     id="linearGradient12103"
     xlink:href="#lapkin" /><linearGradient
     y2="198"
     x2="396.00101"
     y1="198"
     x1="0"
     gradientUnits="userSpaceOnUse"
     id="linearGradient12105"
     xlink:href="#lapkin" /><linearGradient
     y2="198"
     x2="396.00101"
     y1="198"
     x1="0"
     gradientUnits="userSpaceOnUse"
     id="linearGradient12107"
     xlink:href="#lapkin" /><linearGradient
     y2="198"
     x2="396.00101"
     y1="198"
     x1="0"
     gradientUnits="userSpaceOnUse"
     id="linearGradient12109"
     xlink:href="#lapkin" /></defs>
	
	<g
   id="g4927">
	</g>
	<g
   id="g4929">
	</g>
	<g
   id="g4931">
	</g>
	<g
   id="g4933">
	</g>
	<g
   id="g4935">
	</g>
	<g
   id="g4937">
	</g>
	<g
   id="g4939">
	</g>
	<g
   id="g4941">
	</g>
	<g
   id="g4943">
	</g>
	<g
   id="g4945">
	</g>
	<g
   id="g4947">
	</g>
	<g
   id="g4949">
	</g>
	<g
   id="g4951">
	</g>
	<g
   id="g4953">
	</g>
	<g
   id="g4955">
	</g>
<g
   style="fill:url(#linearGradient11784);fill-opacity:1"
   transform="matrix(0.98408297,0,0,0.98408297,-451.89264,-88.145938)"
   id="g11776"><g
     style="fill:url(#linearGradient11792);fill-opacity:1"
     id="g11718">
		<path
   style="fill:url(#linearGradient11786);fill-opacity:1"
   d="m 295.032,101.74 c 5.961,0 11.564,-2.321 15.779,-6.536 8.701,-8.701 8.701,-22.858 0,-31.558 -4.214,-4.215 -9.818,-6.537 -15.779,-6.537 -5.96,0 -11.564,2.321 -15.779,6.536 -8.701,8.701 -8.701,22.858 0,31.559 4.215,4.214 9.819,6.536 15.779,6.536 z M 284.909,69.302 c 2.704,-2.704 6.3,-4.193 10.123,-4.193 3.824,0 7.419,1.489 10.123,4.193 5.581,5.581 5.581,14.663 0,20.245 -2.704,2.704 -6.299,4.193 -10.123,4.193 -3.823,0 -7.419,-1.489 -10.123,-4.192 -5.581,-5.583 -5.581,-14.665 0,-20.246 z"
   id="path11712" />
		<path
   style="fill:url(#linearGradient11788);fill-opacity:1"
   d="m 205.317,169.14 c -3.504,-3.504 -8.163,-5.435 -13.119,-5.435 -4.956,0 -9.615,1.93 -13.119,5.435 -7.233,7.233 -7.233,19.004 0,26.238 3.504,3.504 8.163,5.434 13.119,5.434 4.956,0 9.614,-1.93 13.118,-5.434 3.505,-3.504 5.435,-8.163 5.435,-13.119 0,-4.956 -1.93,-9.615 -5.434,-13.119 z m -5.657,20.581 c -1.993,1.993 -4.644,3.09 -7.462,3.09 -2.819,0 -5.47,-1.098 -7.463,-3.09 -4.114,-4.115 -4.114,-10.81 0,-14.924 1.993,-1.994 4.644,-3.091 7.463,-3.091 2.818,0 5.469,1.098 7.462,3.091 1.993,1.993 3.091,4.643 3.091,7.462 0,2.819 -1.098,5.469 -3.091,7.462 z"
   id="path11714" />
		<path
   style="fill:url(#linearGradient11790);fill-opacity:1"
   d="M 373.285,318.413 268.203,213.331 c -1.561,-1.562 -4.094,-1.562 -5.656,0 l -12.469,12.469 -8.31,-8.31 30.934,-30.934 c 15.946,-15.946 21.417,-39.169 14.869,-60.187 5.746,1.775 11.77,2.696 17.796,2.696 16.01,0 31.06,-6.234 42.378,-17.552 11.326,-11.326 17.563,-26.384 17.563,-42.4 0,-7.711 -1.459,-15.194 -4.223,-22.151 l 10.536,-10.536 c 0.75,-0.75 1.172,-1.768 1.172,-2.829 0,-1.061 -0.422,-2.078 -1.172,-2.829 L 343.688,2.834 c -1.563,-1.562 -4.096,-1.562 -5.656,0 L 327.496,13.37 c -6.957,-2.763 -14.44,-4.222 -22.151,-4.222 -16.017,0 -31.074,6.237 -42.399,17.563 -15.947,15.946 -21.419,39.168 -14.87,60.188 -5.745,-1.775 -11.77,-2.696 -17.796,-2.696 -16.009,0 -31.06,6.233 -42.378,17.552 l -30.935,30.935 -8.31,-8.31 12.468,-12.468 c 1.563,-1.563 1.563,-4.095 0,-5.657 L 56.043,1.171 C 55.293,0.421 54.275,0 53.215,0 52.155,0 51.137,0.421 50.387,1.171 L 1.172,50.387 c -1.563,1.563 -1.563,4.095 0,5.657 l 105.082,105.082 c 0.75,0.75 1.768,1.171 2.828,1.171 1.06,0 2.078,-0.421 2.828,-1.171 l 12.468,-12.468 8.31,8.31 -8.124,8.124 c -10e-4,0 -10e-4,10e-4 -0.002,10e-4 0,0 -10e-4,0.001 -10e-4,0.002 l -24.724,24.724 c -1.563,1.563 -1.563,4.095 0,5.657 l 79.144,79.144 c 0.75,0.75 1.768,1.171 2.828,1.171 1.06,0 2.078,-0.421 2.828,-1.171 l 32.852,-32.852 8.31,8.31 -12.468,12.468 c -0.75,0.75 -1.172,1.768 -1.172,2.829 0,1.061 0.422,2.078 1.172,2.829 l 105.082,105.082 c 0.78,0.781 1.805,1.171 2.828,1.171 1.023,0 2.048,-0.391 2.828,-1.171 l 49.216,-49.215 c 0.75,-0.75 1.172,-1.768 1.172,-2.829 0,-1.061 -0.422,-2.078 -1.172,-2.829 z m -98.928,-0.497 43.559,-43.559 20.946,20.947 -43.559,43.558 z m -26.603,-26.603 43.559,-43.558 20.946,20.946 -43.559,43.558 z m -41.219,-49.904 -73.487,-73.487 43.269,-43.269 73.487,73.487 z M 342.089,32.368 c 9.296,9.296 14.628,21.494 15.166,34.551 L 307.538,17.202 c 13.057,0.538 25.255,5.87 34.551,15.166 z m -1.229,-21.048 22.276,22.276 -5.735,5.736 c -2.617,-4.557 -5.84,-8.805 -9.656,-12.621 -3.816,-3.816 -8.063,-7.039 -12.62,-9.656 z m -72.258,21.048 c 7.786,-7.786 17.61,-12.783 28.266,-14.522 l 59.743,59.743 c -1.739,10.656 -6.737,20.481 -14.522,28.266 -9.808,9.808 -22.849,15.209 -36.722,15.209 -8.007,0 -16.006,-1.874 -23.137,-5.417 L 258.807,92.224 C 248.869,72.216 252.8,48.169 268.602,32.368 Z m -16.166,64.799 24.877,24.877 c 8.168,17.35 6.07,37.543 -5.026,52.731 l -72.606,-72.606 c 8.831,-6.467 19.445,-9.966 30.599,-9.966 7.644,0 15.274,1.725 22.156,4.964 z m -58.878,10.245 c 0.009,-0.009 0.018,-0.017 0.027,-0.026 l 73.486,73.487 c -0.009,0.009 -0.016,0.017 -0.025,0.026 l -11.585,11.585 -73.488,-73.488 z m -131.36,-1.655 43.558,-43.559 20.947,20.947 -43.559,43.558 z M 35.595,79.153 79.153,35.595 100.099,56.542 56.541,100.1 Z M 53.215,9.657 73.496,29.938 29.938,73.497 9.657,53.216 Z m 55.867,142.984 -20.281,-20.281 43.559,-43.558 20.281,20.281 -31.087,31.088 c -0.001,0.001 -0.002,0.001 -0.003,0.002 -0.001,0.001 -0.001,0.002 -0.002,0.003 z m 20.953,-9.64 12.966,-12.966 8.31,8.31 -12.966,12.966 z m 51.774,123.134 -73.486,-73.487 19.069,-19.069 73.487,73.487 z m 41.337,-30.023 12.965,-12.965 8.31,8.31 -12.966,12.965 z m 42.229,-14.296 20.281,20.281 -43.559,43.558 -20.281,-20.281 z M 321.241,364.8 300.96,344.519 344.519,300.961 364.8,321.242 Z"
   id="path11716" />
	</g><g
     style="fill:url(#linearGradient11794);fill-opacity:1"
     id="g11720">
	</g><g
     style="fill:url(#linearGradient11796);fill-opacity:1"
     id="g11722">
	</g><g
     style="fill:url(#linearGradient11798);fill-opacity:1"
     id="g11724">
	</g><g
     style="fill:url(#linearGradient11800);fill-opacity:1"
     id="g11726">
	</g><g
     style="fill:url(#linearGradient11802);fill-opacity:1"
     id="g11728">
	</g><g
     style="fill:url(#linearGradient11804);fill-opacity:1"
     id="g11730">
	</g><g
     style="fill:url(#linearGradient11806);fill-opacity:1"
     id="g11732">
	</g><g
     style="fill:url(#linearGradient11808);fill-opacity:1"
     id="g11734">
	</g><g
     style="fill:url(#linearGradient11810);fill-opacity:1"
     id="g11736">
	</g><g
     style="fill:url(#linearGradient11812);fill-opacity:1"
     id="g11738">
	</g><g
     style="fill:url(#linearGradient11814);fill-opacity:1"
     id="g11740">
	</g><g
     style="fill:url(#linearGradient11816);fill-opacity:1"
     id="g11742">
	</g><g
     style="fill:url(#linearGradient11818);fill-opacity:1"
     id="g11744">
	</g><g
     style="fill:url(#linearGradient11820);fill-opacity:1"
     id="g11746">
	</g><g
     style="fill:url(#linearGradient11822);fill-opacity:1"
     id="g11748">
	</g></g><g
   style="fill:url(#linearGradient12071);fill-opacity:1"
   transform="matrix(0.92971878,0,0,0.92971878,0.33437087,-4.4337658)"
   id="g12063"><g
     style="fill:url(#linearGradient12079);fill-opacity:1"
     id="g12005">
		<path
   style="fill:url(#linearGradient12073);fill-opacity:1"
   d="M 392,336.957 H 373.364 L 331.265,234.36 c -0.397,-0.967 -1.157,-1.74 -2.116,-2.154 l -32.92,-14.2 v -0.834 c 0,-2.209 -1.791,-4 -4,-4 h -26.173 l -2.046,-8.628 h 0.851 c 1.324,0 2.563,-0.655 3.307,-1.75 0.744,-1.095 0.9,-2.487 0.414,-3.719 l -15.589,-39.493 c -0.603,-1.527 -2.079,-2.531 -3.721,-2.531 h -5.21 c 11.111,-11.732 17.524,-27.462 17.524,-43.808 0,-11.216 -2.963,-22.241 -8.567,-31.893 L 240.804,57.245 C 232.584,41.026 216.183,30.95 198,30.95 c -18.183,0 -34.584,10.076 -42.804,26.295 L 142.981,81.35 c -5.604,9.652 -8.567,20.677 -8.567,31.893 0,4.752 0.558,9.449 1.599,14.015 h -23.234 c -2.209,0 -4,1.791 -4,4 v 8.066 C 101.27,146.121 97,155.698 97,165.9 c 0,10.202 4.27,19.781 11.779,26.577 v 8.066 c 0,2.209 1.791,4 4,4 h 19.211 l -2.046,8.628 h -26.173 c -2.209,0 -4,1.791 -4,4 v 0.834 l -32.92,14.2 c -0.959,0.414 -1.719,1.188 -2.116,2.154 L 22.636,336.957 H 4 c -2.209,0 -4,1.791 -4,4 0,13.285 10.808,24.093 24.093,24.093 h 2.079 c 13.285,0 24.093,-10.808 24.093,-24.093 0,-2.209 -1.791,-4 -4,-4 H 31.283 L 40.252,315.1 72.511,305.008 h 98.407 l -2.165,14.822 c -0.168,1.149 0.172,2.315 0.932,3.194 0.76,0.879 1.864,1.384 3.026,1.384 H 194 v 12.549 h -17.479 c -2.209,0 -4,1.791 -4,4 0,13.285 10.808,24.093 24.093,24.093 h 2.079 c 13.285,0 24.093,-10.808 24.093,-24.093 0,-2.209 -1.791,-4 -4,-4 H 202 v -12.549 h 21.289 c 1.162,0 2.266,-0.505 3.026,-1.384 0.76,-0.879 1.1,-2.045 0.932,-3.194 l -2.165,-14.822 h 98.407 l 32.259,10.092 8.969,21.857 h -14.981 c -2.209,0 -4,1.791 -4,4 0,13.285 10.808,24.093 24.093,24.093 h 2.079 c 13.285,0 24.093,-10.808 24.093,-24.093 -10e-4,-2.209 -1.792,-4 -4.001,-4 z M 26.171,357.05 h -2.079 c -7.493,0 -13.807,-5.148 -15.59,-12.093 H 41.76 c -1.782,6.944 -8.095,12.093 -15.589,12.093 z m 172.522,0 h -2.079 c -7.493,0 -13.807,-5.148 -15.59,-12.093 h 33.258 c -1.782,6.944 -8.096,12.093 -15.589,12.093 z M 321.174,237.479 296.228,268.786 V 226.719 Z M 198,230.312 l -17.225,-9.14 h 34.45 z m -34.292,-9.14 28.772,15.267 -34.611,60.569 H 126.132 V 221.172 Z M 194,249.902 v 47.105 h -26.917 z m 8,0 26.917,47.105 H 202 Z m 1.521,-13.464 28.772,-15.267 h 37.576 v 75.836 h -31.737 z m 55.46,-39.894 h -7.456 l -6.163,-31.493 h 1.188 z m -121.962,0 12.431,-31.493 h 1.188 l -6.163,31.493 z m 7.883,-66.753 30.18,27.26 H 163.81 c -9.109,-7.112 -15.609,-16.579 -18.908,-27.26 z m -2.488,-16.548 c 0,-7.971 1.711,-15.83 4.98,-23.021 h 31.017 v 7.93 l -35.98,15.669 c -0.002,-0.194 -0.017,-0.384 -0.017,-0.578 z M 194,54.193 v 28.028 h -21.141 l 10.09,-28.028 H 194 Z m 19.051,0 10.09,28.028 H 202 V 54.193 Z m 40.535,59.05 c 0,0.193 -0.015,0.384 -0.017,0.577 l -35.98,-15.669 v -7.93 h 31.017 c 3.269,7.192 4.98,15.051 4.98,23.022 z m -75.175,36.033 -31.672,-28.606 31.672,-13.793 z m 8,7.775 V 90.222 h 23.179 v 66.829 z m 31.178,-50.174 31.672,13.793 -31.672,28.606 z m -58.799,58.174 h 21.061 l -2.641,31.493 h -24.583 z m 29.089,0 h 20.243 l 2.641,31.493 h -25.526 z m 30.912,31.493 -2.641,-31.493 h 21.061 l 6.163,31.493 z m 2.126,-39.493 30.18,-27.26 c -3.298,10.681 -9.799,20.148 -18.908,27.26 z m 12.751,-96.189 10.824,21.359 h -12.849 l -10.09,-28.028 h 7.856 c 1.611,2.054 3.046,4.277 4.259,6.669 z M 220.993,46.193 H 175.007 C 181.6,41.557 189.568,38.95 198,38.95 c 8.432,0 16.4,2.607 22.993,7.243 z m -58.661,14.669 c 1.213,-2.393 2.648,-4.615 4.259,-6.669 h 7.856 l -10.09,28.028 H 151.508 Z M 105,165.9 c 0,-5.008 1.333,-9.817 3.779,-14.016 v 28.032 C 106.333,175.719 105,170.909 105,165.9 Z m 11.779,-30.642 h 21.609 c 2.99,8.067 7.595,15.504 13.551,21.793 h -5.21 c -1.642,0 -3.118,1.004 -3.721,2.531 l -14.59,36.962 h -11.639 z m 23.433,69.286 h 115.576 l 2.046,8.628 H 138.166 Z M 99.771,268.786 74.825,237.479 99.771,226.719 Z M 71.9,297.008 c -0.405,0 -0.808,0.062 -1.194,0.183 l -26.507,8.293 25.353,-61.785 30.221,37.926 v 15.384 H 71.9 Z m 35.871,-75.836 h 10.361 v 75.836 h -10.361 z m 69.566,95.236 1.665,-11.4 H 194 v 11.4 z m 41.326,0 H 202 v -11.4 h 14.997 z m 69.566,-19.4 h -10.361 v -75.836 h 10.361 z m 37.065,0.182 c -0.387,-0.121 -0.789,-0.183 -1.194,-0.183 h -27.872 v -15.384 l 30.221,-37.926 25.353,61.785 z m 46.613,59.86 h -2.079 c -7.493,0 -13.807,-5.148 -15.59,-12.093 h 33.258 c -1.782,6.944 -8.096,12.093 -15.589,12.093 z"
   id="path11999" />
		<path
   style="fill:url(#linearGradient12075);fill-opacity:1"
   d="m 149.333,265.716 c 8.822,0 16,-7.178 16,-16 0,-8.822 -7.178,-16 -16,-16 -8.822,0 -16,7.178 -16,16 0,8.822 7.178,16 16,16 z m 0,-24 c 4.411,0 8,3.589 8,8 0,4.411 -3.589,8 -8,8 -4.411,0 -8,-3.589 -8,-8 0,-4.411 3.589,-8 8,-8 z"
   id="path12001" />
		<path
   style="fill:url(#linearGradient12077);fill-opacity:1"
   d="m 248,233.716 c -8.822,0 -16,7.178 -16,16 0,8.822 7.178,16 16,16 8.822,0 16,-7.178 16,-16 0,-8.822 -7.178,-16 -16,-16 z m 0,24 c -4.411,0 -8,-3.589 -8,-8 0,-4.411 3.589,-8 8,-8 4.411,0 8,3.589 8,8 0,4.411 -3.589,8 -8,8 z"
   id="path12003" />
	</g><g
     style="fill:url(#linearGradient12081);fill-opacity:1"
     id="g12007">
	</g><g
     style="fill:url(#linearGradient12083);fill-opacity:1"
     id="g12009">
	</g><g
     style="fill:url(#linearGradient12085);fill-opacity:1"
     id="g12011">
	</g><g
     style="fill:url(#linearGradient12087);fill-opacity:1"
     id="g12013">
	</g><g
     style="fill:url(#linearGradient12089);fill-opacity:1"
     id="g12015">
	</g><g
     style="fill:url(#linearGradient12091);fill-opacity:1"
     id="g12017">
	</g><g
     style="fill:url(#linearGradient12093);fill-opacity:1"
     id="g12019">
	</g><g
     style="fill:url(#linearGradient12095);fill-opacity:1"
     id="g12021">
	</g><g
     style="fill:url(#linearGradient12097);fill-opacity:1"
     id="g12023">
	</g><g
     style="fill:url(#linearGradient12099);fill-opacity:1"
     id="g12025">
	</g><g
     style="fill:url(#linearGradient12101);fill-opacity:1"
     id="g12027">
	</g><g
     style="fill:url(#linearGradient12103);fill-opacity:1"
     id="g12029">
	</g><g
     style="fill:url(#linearGradient12105);fill-opacity:1"
     id="g12031">
	</g><g
     style="fill:url(#linearGradient12107);fill-opacity:1"
     id="g12033">
	</g><g
     style="fill:url(#linearGradient12109);fill-opacity:1"
     id="g12035">
	</g></g></svg>