<?xml version="1.0" encoding="UTF-8" standalone="no"?>
<svg
   xmlns:dc="http://purl.org/dc/elements/1.1/"
   xmlns:cc="http://creativecommons.org/ns#"
   xmlns:rdf="http://www.w3.org/1999/02/22-rdf-syntax-ns#"
   xmlns:svg="http://www.w3.org/2000/svg"
   xmlns="http://www.w3.org/2000/svg"
   xmlns:xlink="http://www.w3.org/1999/xlink"
   xml:space="preserve"
   style="enable-background:new 0 0 368.258 368.258;"
   viewBox="0 0 368.258 368.258"
   y="0px"
   x="0px"
   id="Capa_1"
   version="1.1"><metadata
   id="metadata4962"><rdf:RDF><cc:Work
       rdf:about=""><dc:format>image/svg+xml</dc:format><dc:type
         rdf:resource="http://purl.org/dc/dcmitype/StillImage" /><dc:title></dc:title></cc:Work></rdf:RDF></metadata><defs
   id="defs4960"><linearGradient
     id="lapkin"><stop
       id="stop4972"
       offset="0"
       style="stop-color:#2351ee;stop-opacity:1" /><stop
       id="stop4974"
       offset="1"
       style="stop-color:#00ff00;stop-opacity:1" /></linearGradient><linearGradient
     gradientUnits="userSpaceOnUse"
     y2="188.44341"
     x2="376.87701"
     y1="188.44341"
     x1="0.0093700709"
     id="linearGradient9729"
     xlink:href="#lapkin" /><linearGradient
     y2="188.44341"
     x2="376.87701"
     y1="188.44341"
     x1="0.0093700709"
     gradientUnits="userSpaceOnUse"
     id="linearGradient9775"
     xlink:href="#lapkin" /><linearGradient
     y2="188.44341"
     x2="376.87701"
     y1="188.44341"
     x1="0.0093700709"
     gradientUnits="userSpaceOnUse"
     id="linearGradient9777"
     xlink:href="#lapkin" /><linearGradient
     y2="188.44341"
     x2="376.87701"
     y1="188.44341"
     x1="0.0093700709"
     gradientUnits="userSpaceOnUse"
     id="linearGradient9779"
     xlink:href="#lapkin" /><linearGradient
     y2="188.44341"
     x2="376.87701"
     y1="188.44341"
     x1="0.0093700709"
     gradientUnits="userSpaceOnUse"
     id="linearGradient9781"
     xlink:href="#lapkin" /><linearGradient
     y2="188.44341"
     x2="376.87701"
     y1="188.44341"
     x1="0.0093700709"
     gradientUnits="userSpaceOnUse"
     id="linearGradient9783"
     xlink:href="#lapkin" /><linearGradient
     y2="188.44341"
     x2="376.87701"
     y1="188.44341"
     x1="0.0093700709"
     gradientUnits="userSpaceOnUse"
     id="linearGradient9785"
     xlink:href="#lapkin" /><linearGradient
     y2="188.44341"
     x2="376.87701"
     y1="188.44341"
     x1="0.0093700709"
     gradientUnits="userSpaceOnUse"
     id="linearGradient9787"
     xlink:href="#lapkin" /><linearGradient
     y2="188.44341"
     x2="376.87701"
     y1="188.44341"
     x1="0.0093700709"
     gradientUnits="userSpaceOnUse"
     id="linearGradient9789"
     xlink:href="#lapkin" /><linearGradient
     y2="188.44341"
     x2="376.87701"
     y1="188.44341"
     x1="0.0093700709"
     gradientUnits="userSpaceOnUse"
     id="linearGradient9791"
     xlink:href="#lapkin" /><linearGradient
     y2="188.44341"
     x2="376.87701"
     y1="188.44341"
     x1="0.0093700709"
     gradientUnits="userSpaceOnUse"
     id="linearGradient9793"
     xlink:href="#lapkin" /><linearGradient
     y2="188.44341"
     x2="376.87701"
     y1="188.44341"
     x1="0.0093700709"
     gradientUnits="userSpaceOnUse"
     id="linearGradient9795"
     xlink:href="#lapkin" /><linearGradient
     y2="188.44341"
     x2="376.87701"
     y1="188.44341"
     x1="0.0093700709"
     gradientUnits="userSpaceOnUse"
     id="linearGradient9797"
     xlink:href="#lapkin" /><linearGradient
     y2="188.44341"
     x2="376.87701"
     y1="188.44341"
     x1="0.0093700709"
     gradientUnits="userSpaceOnUse"
     id="linearGradient9799"
     xlink:href="#lapkin" /><linearGradient
     y2="188.44341"
     x2="376.87701"
     y1="188.44341"
     x1="0.0093700709"
     gradientUnits="userSpaceOnUse"
     id="linearGradient9801"
     xlink:href="#lapkin" /><linearGradient
     y2="188.44341"
     x2="376.87701"
     y1="188.44341"
     x1="0.0093700709"
     gradientUnits="userSpaceOnUse"
     id="linearGradient9803"
     xlink:href="#lapkin" /><linearGradient
     y2="188.44341"
     x2="376.87701"
     y1="188.44341"
     x1="0.0093700709"
     gradientUnits="userSpaceOnUse"
     id="linearGradient9805"
     xlink:href="#lapkin" /><linearGradient
     y2="188.44341"
     x2="376.87701"
     y1="188.44341"
     x1="0.0093700709"
     gradientUnits="userSpaceOnUse"
     id="linearGradient9807"
     xlink:href="#lapkin" /><linearGradient
     y2="188.44341"
     x2="376.87701"
     y1="188.44341"
     x1="0.0093700709"
     gradientUnits="userSpaceOnUse"
     id="linearGradient9809"
     xlink:href="#lapkin" /><linearGradient
     y2="188.44341"
     x2="376.87701"
     y1="188.44341"
     x1="0.0093700709"
     gradientUnits="userSpaceOnUse"
     id="linearGradient9811"
     xlink:href="#lapkin" /><linearGradient
     y2="188.44341"
     x2="376.87701"
     y1="188.44341"
     x1="0.0093700709"
     gradientUnits="userSpaceOnUse"
     id="linearGradient9813"
     xlink:href="#lapkin" /><linearGradient
     y2="188.44341"
     x2="376.87701"
     y1="188.44341"
     x1="0.0093700709"
     gradientUnits="userSpaceOnUse"
     id="linearGradient9815"
     xlink:href="#lapkin" /><linearGradient
     y2="188.44341"
     x2="376.87701"
     y1="188.44341"
     x1="0.0093700709"
     gradientUnits="userSpaceOnUse"
     id="linearGradient9817"
     xlink:href="#lapkin" /><linearGradient
     gradientUnits="userSpaceOnUse"
     y2="184.106"
     x2="368.21262"
     y1="184.106"
     x1="0.00050000002"
     id="linearGradient10247"
     xlink:href="#lapkin" /><linearGradient
     y2="184.106"
     x2="368.21262"
     y1="184.106"
     x1="0.00050000002"
     gradientUnits="userSpaceOnUse"
     id="linearGradient10249"
     xlink:href="#lapkin" /><linearGradient
     y2="184.106"
     x2="368.21262"
     y1="184.106"
     x1="0.00050000002"
     gradientUnits="userSpaceOnUse"
     id="linearGradient10251"
     xlink:href="#lapkin" /><linearGradient
     y2="184.106"
     x2="368.21262"
     y1="184.106"
     x1="0.00050000002"
     gradientUnits="userSpaceOnUse"
     id="linearGradient10253"
     xlink:href="#lapkin" /><linearGradient
     y2="184.106"
     x2="368.21262"
     y1="184.106"
     x1="0.00050000002"
     gradientUnits="userSpaceOnUse"
     id="linearGradient10255"
     xlink:href="#lapkin" /><linearGradient
     y2="184.106"
     x2="368.21262"
     y1="184.106"
     x1="0.00050000002"
     gradientUnits="userSpaceOnUse"
     id="linearGradient10257"
     xlink:href="#lapkin" /><linearGradient
     y2="184.106"
     x2="368.21262"
     y1="184.106"
     x1="0.00050000002"
     gradientUnits="userSpaceOnUse"
     id="linearGradient10259"
     xlink:href="#lapkin" /><linearGradient
     y2="184.106"
     x2="368.21262"
     y1="184.106"
     x1="0.00050000002"
     gradientUnits="userSpaceOnUse"
     id="linearGradient10261"
     xlink:href="#lapkin" /><linearGradient
     y2="184.106"
     x2="368.21262"
     y1="184.106"
     x1="0.00050000002"
     gradientUnits="userSpaceOnUse"
     id="linearGradient10263"
     xlink:href="#lapkin" /><linearGradient
     y2="184.106"
     x2="368.21262"
     y1="184.106"
     x1="0.00050000002"
     gradientUnits="userSpaceOnUse"
     id="linearGradient10265"
     xlink:href="#lapkin" /><linearGradient
     y2="184.106"
     x2="368.21262"
     y1="184.106"
     x1="0.00050000002"
     gradientUnits="userSpaceOnUse"
     id="linearGradient10267"
     xlink:href="#lapkin" /><linearGradient
     y2="184.106"
     x2="368.21262"
     y1="184.106"
     x1="0.00050000002"
     gradientUnits="userSpaceOnUse"
     id="linearGradient10269"
     xlink:href="#lapkin" /><linearGradient
     y2="184.106"
     x2="368.21262"
     y1="184.106"
     x1="0.00050000002"
     gradientUnits="userSpaceOnUse"
     id="linearGradient10271"
     xlink:href="#lapkin" /><linearGradient
     y2="184.106"
     x2="368.21262"
     y1="184.106"
     x1="0.00050000002"
     gradientUnits="userSpaceOnUse"
     id="linearGradient10273"
     xlink:href="#lapkin" /><linearGradient
     y2="184.106"
     x2="368.21262"
     y1="184.106"
     x1="0.00050000002"
     gradientUnits="userSpaceOnUse"
     id="linearGradient10275"
     xlink:href="#lapkin" /><linearGradient
     y2="184.106"
     x2="368.21262"
     y1="184.106"
     x1="0.00050000002"
     gradientUnits="userSpaceOnUse"
     id="linearGradient10277"
     xlink:href="#lapkin" /><linearGradient
     y2="184.106"
     x2="368.21262"
     y1="184.106"
     x1="0.00050000002"
     gradientUnits="userSpaceOnUse"
     id="linearGradient10279"
     xlink:href="#lapkin" /><linearGradient
     y2="184.106"
     x2="368.21262"
     y1="184.106"
     x1="0.00050000002"
     gradientUnits="userSpaceOnUse"
     id="linearGradient10281"
     xlink:href="#lapkin" /><linearGradient
     y2="184.106"
     x2="368.21262"
     y1="184.106"
     x1="0.00050000002"
     gradientUnits="userSpaceOnUse"
     id="linearGradient10283"
     xlink:href="#lapkin" /><linearGradient
     gradientUnits="userSpaceOnUse"
     y2="215.8015"
     x2="355.517"
     y1="215.8015"
     x1="76.085999"
     id="linearGradient10843"
     xlink:href="#lapkin" /><linearGradient
     y2="215.8015"
     x2="355.517"
     y1="215.8015"
     x1="76.085999"
     gradientUnits="userSpaceOnUse"
     id="linearGradient10845"
     xlink:href="#lapkin" /><linearGradient
     y2="215.8015"
     x2="355.517"
     y1="215.8015"
     x1="76.085999"
     gradientUnits="userSpaceOnUse"
     id="linearGradient10847"
     xlink:href="#lapkin" /><linearGradient
     y2="215.8015"
     x2="355.517"
     y1="215.8015"
     x1="76.085999"
     gradientUnits="userSpaceOnUse"
     id="linearGradient10849"
     xlink:href="#lapkin" /><linearGradient
     y2="215.8015"
     x2="355.517"
     y1="215.8015"
     x1="76.085999"
     gradientUnits="userSpaceOnUse"
     id="linearGradient10851"
     xlink:href="#lapkin" /><linearGradient
     y2="215.8015"
     x2="355.517"
     y1="215.8015"
     x1="76.085999"
     gradientUnits="userSpaceOnUse"
     id="linearGradient10853"
     xlink:href="#lapkin" /><linearGradient
     y2="215.8015"
     x2="355.517"
     y1="215.8015"
     x1="76.085999"
     gradientUnits="userSpaceOnUse"
     id="linearGradient10855"
     xlink:href="#lapkin" /><linearGradient
     y2="215.8015"
     x2="355.517"
     y1="215.8015"
     x1="76.085999"
     gradientUnits="userSpaceOnUse"
     id="linearGradient10857"
     xlink:href="#lapkin" /><linearGradient
     y2="215.8015"
     x2="355.517"
     y1="215.8015"
     x1="76.085999"
     gradientUnits="userSpaceOnUse"
     id="linearGradient10859"
     xlink:href="#lapkin" /><linearGradient
     y2="215.8015"
     x2="355.517"
     y1="215.8015"
     x1="76.085999"
     gradientUnits="userSpaceOnUse"
     id="linearGradient10861"
     xlink:href="#lapkin" /><linearGradient
     y2="215.8015"
     x2="355.517"
     y1="215.8015"
     x1="76.085999"
     gradientUnits="userSpaceOnUse"
     id="linearGradient10863"
     xlink:href="#lapkin" /><linearGradient
     y2="215.8015"
     x2="355.517"
     y1="215.8015"
     x1="76.085999"
     gradientUnits="userSpaceOnUse"
     id="linearGradient10865"
     xlink:href="#lapkin" /><linearGradient
     y2="215.8015"
     x2="355.517"
     y1="215.8015"
     x1="76.085999"
     gradientUnits="userSpaceOnUse"
     id="linearGradient10867"
     xlink:href="#lapkin" /><linearGradient
     y2="215.8015"
     x2="355.517"
     y1="215.8015"
     x1="76.085999"
     gradientUnits="userSpaceOnUse"
     id="linearGradient10869"
     xlink:href="#lapkin" /><linearGradient
     y2="215.8015"
     x2="355.517"
     y1="215.8015"
     x1="76.085999"
     gradientUnits="userSpaceOnUse"
     id="linearGradient10871"
     xlink:href="#lapkin" /><linearGradient
     y2="215.8015"
     x2="355.517"
     y1="215.8015"
     x1="76.085999"
     gradientUnits="userSpaceOnUse"
     id="linearGradient10873"
     xlink:href="#lapkin" /><linearGradient
     y2="215.8015"
     x2="355.517"
     y1="215.8015"
     x1="76.085999"
     gradientUnits="userSpaceOnUse"
     id="linearGradient10875"
     xlink:href="#lapkin" /><linearGradient
     y2="215.8015"
     x2="355.517"
     y1="215.8015"
     x1="76.085999"
     gradientUnits="userSpaceOnUse"
     id="linearGradient10877"
     xlink:href="#lapkin" /><linearGradient
     y2="215.8015"
     x2="355.517"
     y1="215.8015"
     x1="76.085999"
     gradientUnits="userSpaceOnUse"
     id="linearGradient10879"
     xlink:href="#lapkin" /><linearGradient
     y2="215.8015"
     x2="355.517"
     y1="215.8015"
     x1="76.085999"
     gradientUnits="userSpaceOnUse"
     id="linearGradient10881"
     xlink:href="#lapkin" /><linearGradient
     y2="215.8015"
     x2="355.517"
     y1="215.8015"
     x1="76.085999"
     gradientUnits="userSpaceOnUse"
     id="linearGradient10883"
     xlink:href="#lapkin" /><linearGradient
     y2="215.8015"
     x2="355.517"
     y1="215.8015"
     x1="76.085999"
     gradientUnits="userSpaceOnUse"
     id="linearGradient10885"
     xlink:href="#lapkin" /><linearGradient
     y2="215.8015"
     x2="355.517"
     y1="215.8015"
     x1="76.085999"
     gradientUnits="userSpaceOnUse"
     id="linearGradient10887"
     xlink:href="#lapkin" /><linearGradient
     gradientUnits="userSpaceOnUse"
     y2="231.1545"
     x2="304.48199"
     y1="231.1545"
     x1="157.82899"
     id="linearGradient11137"
     xlink:href="#lapkin" /><linearGradient
     y2="231.1545"
     x2="304.48199"
     y1="231.1545"
     x1="157.82899"
     gradientUnits="userSpaceOnUse"
     id="linearGradient11211"
     xlink:href="#lapkin" /><linearGradient
     y2="231.1545"
     x2="304.48199"
     y1="231.1545"
     x1="157.82899"
     gradientUnits="userSpaceOnUse"
     id="linearGradient11213"
     xlink:href="#lapkin" /><linearGradient
     y2="231.1545"
     x2="304.48199"
     y1="231.1545"
     x1="157.82899"
     gradientUnits="userSpaceOnUse"
     id="linearGradient11215"
     xlink:href="#lapkin" /><linearGradient
     y2="231.1545"
     x2="304.48199"
     y1="231.1545"
     x1="157.82899"
     gradientUnits="userSpaceOnUse"
     id="linearGradient11217"
     xlink:href="#lapkin" /><linearGradient
     y2="231.1545"
     x2="304.48199"
     y1="231.1545"
     x1="157.82899"
     gradientUnits="userSpaceOnUse"
     id="linearGradient11219"
     xlink:href="#lapkin" /><linearGradient
     y2="231.1545"
     x2="304.48199"
     y1="231.1545"
     x1="157.82899"
     gradientUnits="userSpaceOnUse"
     id="linearGradient11221"
     xlink:href="#lapkin" /><linearGradient
     y2="231.1545"
     x2="304.48199"
     y1="231.1545"
     x1="157.82899"
     gradientUnits="userSpaceOnUse"
     id="linearGradient11223"
     xlink:href="#lapkin" /><linearGradient
     y2="231.1545"
     x2="304.48199"
     y1="231.1545"
     x1="157.82899"
     gradientUnits="userSpaceOnUse"
     id="linearGradient11225"
     xlink:href="#lapkin" /><linearGradient
     y2="231.1545"
     x2="304.48199"
     y1="231.1545"
     x1="157.82899"
     gradientUnits="userSpaceOnUse"
     id="linearGradient11227"
     xlink:href="#lapkin" /><linearGradient
     y2="231.1545"
     x2="304.48199"
     y1="231.1545"
     x1="157.82899"
     gradientUnits="userSpaceOnUse"
     id="linearGradient11229"
     xlink:href="#lapkin" /><linearGradient
     y2="231.1545"
     x2="304.48199"
     y1="231.1545"
     x1="157.82899"
     gradientUnits="userSpaceOnUse"
     id="linearGradient11231"
     xlink:href="#lapkin" /><linearGradient
     y2="231.1545"
     x2="304.48199"
     y1="231.1545"
     x1="157.82899"
     gradientUnits="userSpaceOnUse"
     id="linearGradient11233"
     xlink:href="#lapkin" /><linearGradient
     y2="231.1545"
     x2="304.48199"
     y1="231.1545"
     x1="157.82899"
     gradientUnits="userSpaceOnUse"
     id="linearGradient11235"
     xlink:href="#lapkin" /><linearGradient
     y2="231.1545"
     x2="304.48199"
     y1="231.1545"
     x1="157.82899"
     gradientUnits="userSpaceOnUse"
     id="linearGradient11237"
     xlink:href="#lapkin" /><linearGradient
     y2="231.1545"
     x2="304.48199"
     y1="231.1545"
     x1="157.82899"
     gradientUnits="userSpaceOnUse"
     id="linearGradient11239"
     xlink:href="#lapkin" /><linearGradient
     y2="231.1545"
     x2="304.48199"
     y1="231.1545"
     x1="157.82899"
     gradientUnits="userSpaceOnUse"
     id="linearGradient11241"
     xlink:href="#lapkin" /><linearGradient
     y2="231.1545"
     x2="304.48199"
     y1="231.1545"
     x1="157.82899"
     gradientUnits="userSpaceOnUse"
     id="linearGradient11243"
     xlink:href="#lapkin" /><linearGradient
     y2="231.1545"
     x2="304.48199"
     y1="231.1545"
     x1="157.82899"
     gradientUnits="userSpaceOnUse"
     id="linearGradient11245"
     xlink:href="#lapkin" /><linearGradient
     gradientUnits="userSpaceOnUse"
     y2="227.0195"
     x2="454.04001"
     y1="227.0195"
     x1="0"
     id="linearGradient11477"
     xlink:href="#lapkin" /><linearGradient
     y2="227.0195"
     x2="454.04001"
     y1="227.0195"
     x1="0"
     gradientUnits="userSpaceOnUse"
     id="linearGradient11511"
     xlink:href="#lapkin" /><linearGradient
     y2="227.0195"
     x2="454.04001"
     y1="227.0195"
     x1="0"
     gradientUnits="userSpaceOnUse"
     id="linearGradient11513"
     xlink:href="#lapkin" /><linearGradient
     y2="227.0195"
     x2="454.04001"
     y1="227.0195"
     x1="0"
     gradientUnits="userSpaceOnUse"
     id="linearGradient11515"
     xlink:href="#lapkin" /><linearGradient
     y2="227.0195"
     x2="454.04001"
     y1="227.0195"
     x1="0"
     gradientUnits="userSpaceOnUse"
     id="linearGradient11517"
     xlink:href="#lapkin" /><linearGradient
     y2="227.0195"
     x2="454.04001"
     y1="227.0195"
     x1="0"
     gradientUnits="userSpaceOnUse"
     id="linearGradient11519"
     xlink:href="#lapkin" /><linearGradient
     y2="227.0195"
     x2="454.04001"
     y1="227.0195"
     x1="0"
     gradientUnits="userSpaceOnUse"
     id="linearGradient11521"
     xlink:href="#lapkin" /><linearGradient
     y2="227.0195"
     x2="454.04001"
     y1="227.0195"
     x1="0"
     gradientUnits="userSpaceOnUse"
     id="linearGradient11523"
     xlink:href="#lapkin" /><linearGradient
     y2="227.0195"
     x2="454.04001"
     y1="227.0195"
     x1="0"
     gradientUnits="userSpaceOnUse"
     id="linearGradient11525"
     xlink:href="#lapkin" /><linearGradient
     y2="227.0195"
     x2="454.04001"
     y1="227.0195"
     x1="0"
     gradientUnits="userSpaceOnUse"
     id="linearGradient11527"
     xlink:href="#lapkin" /><linearGradient
     y2="227.0195"
     x2="454.04001"
     y1="227.0195"
     x1="0"
     gradientUnits="userSpaceOnUse"
     id="linearGradient11529"
     xlink:href="#lapkin" /><linearGradient
     y2="227.0195"
     x2="454.04001"
     y1="227.0195"
     x1="0"
     gradientUnits="userSpaceOnUse"
     id="linearGradient11531"
     xlink:href="#lapkin" /><linearGradient
     y2="227.0195"
     x2="454.04001"
     y1="227.0195"
     x1="0"
     gradientUnits="userSpaceOnUse"
     id="linearGradient11533"
     xlink:href="#lapkin" /><linearGradient
     y2="227.0195"
     x2="454.04001"
     y1="227.0195"
     x1="0"
     gradientUnits="userSpaceOnUse"
     id="linearGradient11535"
     xlink:href="#lapkin" /><linearGradient
     y2="227.0195"
     x2="454.04001"
     y1="227.0195"
     x1="0"
     gradientUnits="userSpaceOnUse"
     id="linearGradient11537"
     xlink:href="#lapkin" /><linearGradient
     y2="227.0195"
     x2="454.04001"
     y1="227.0195"
     x1="0"
     gradientUnits="userSpaceOnUse"
     id="linearGradient11539"
     xlink:href="#lapkin" /><linearGradient
     y2="227.0195"
     x2="454.04001"
     y1="227.0195"
     x1="0"
     gradientUnits="userSpaceOnUse"
     id="linearGradient11541"
     xlink:href="#lapkin" /><linearGradient
     gradientUnits="userSpaceOnUse"
     y2="187.2285"
     x2="374.457"
     y1="187.2285"
     x1="-0.00025000001"
     id="linearGradient11784"
     xlink:href="#lapkin" /><linearGradient
     y2="187.2285"
     x2="374.457"
     y1="187.2285"
     x1="-0.00025000001"
     gradientUnits="userSpaceOnUse"
     id="linearGradient11786"
     xlink:href="#lapkin" /><linearGradient
     y2="187.2285"
     x2="374.457"
     y1="187.2285"
     x1="-0.00025000001"
     gradientUnits="userSpaceOnUse"
     id="linearGradient11788"
     xlink:href="#lapkin" /><linearGradient
     y2="187.2285"
     x2="374.457"
     y1="187.2285"
     x1="-0.00025000001"
     gradientUnits="userSpaceOnUse"
     id="linearGradient11790"
     xlink:href="#lapkin" /><linearGradient
     y2="187.2285"
     x2="374.457"
     y1="187.2285"
     x1="-0.00025000001"
     gradientUnits="userSpaceOnUse"
     id="linearGradient11792"
     xlink:href="#lapkin" /><linearGradient
     y2="187.2285"
     x2="374.457"
     y1="187.2285"
     x1="-0.00025000001"
     gradientUnits="userSpaceOnUse"
     id="linearGradient11794"
     xlink:href="#lapkin" /><linearGradient
     y2="187.2285"
     x2="374.457"
     y1="187.2285"
     x1="-0.00025000001"
     gradientUnits="userSpaceOnUse"
     id="linearGradient11796"
     xlink:href="#lapkin" /><linearGradient
     y2="187.2285"
     x2="374.457"
     y1="187.2285"
     x1="-0.00025000001"
     gradientUnits="userSpaceOnUse"
     id="linearGradient11798"
     xlink:href="#lapkin" /><linearGradient
     y2="187.2285"
     x2="374.457"
     y1="187.2285"
     x1="-0.00025000001"
     gradientUnits="userSpaceOnUse"
     id="linearGradient11800"
     xlink:href="#lapkin" /><linearGradient
     y2="187.2285"
     x2="374.457"
     y1="187.2285"
     x1="-0.00025000001"
     gradientUnits="userSpaceOnUse"
     id="linearGradient11802"
     xlink:href="#lapkin" /><linearGradient
     y2="187.2285"
     x2="374.457"
     y1="187.2285"
     x1="-0.00025000001"
     gradientUnits="userSpaceOnUse"
     id="linearGradient11804"
     xlink:href="#lapkin" /><linearGradient
     y2="187.2285"
     x2="374.457"
     y1="187.2285"
     x1="-0.00025000001"
     gradientUnits="userSpaceOnUse"
     id="linearGradient11806"
     xlink:href="#lapkin" /><linearGradient
     y2="187.2285"
     x2="374.457"
     y1="187.2285"
     x1="-0.00025000001"
     gradientUnits="userSpaceOnUse"
     id="linearGradient11808"
     xlink:href="#lapkin" /><linearGradient
     y2="187.2285"
     x2="374.457"
     y1="187.2285"
     x1="-0.00025000001"
     gradientUnits="userSpaceOnUse"
     id="linearGradient11810"
     xlink:href="#lapkin" /><linearGradient
     y2="187.2285"
     x2="374.457"
     y1="187.2285"
     x1="-0.00025000001"
     gradientUnits="userSpaceOnUse"
     id="linearGradient11812"
     xlink:href="#lapkin" /><linearGradient
     y2="187.2285"
     x2="374.457"
     y1="187.2285"
     x1="-0.00025000001"
     gradientUnits="userSpaceOnUse"
     id="linearGradient11814"
     xlink:href="#lapkin" /><linearGradient
     y2="187.2285"
     x2="374.457"
     y1="187.2285"
     x1="-0.00025000001"
     gradientUnits="userSpaceOnUse"
     id="linearGradient11816"
     xlink:href="#lapkin" /><linearGradient
     y2="187.2285"
     x2="374.457"
     y1="187.2285"
     x1="-0.00025000001"
     gradientUnits="userSpaceOnUse"
     id="linearGradient11818"
     xlink:href="#lapkin" /><linearGradient
     y2="187.2285"
     x2="374.457"
     y1="187.2285"
     x1="-0.00025000001"
     gradientUnits="userSpaceOnUse"
     id="linearGradient11820"
     xlink:href="#lapkin" /><linearGradient
     y2="187.2285"
     x2="374.457"
     y1="187.2285"
     x1="-0.00025000001"
     gradientUnits="userSpaceOnUse"
     id="linearGradient11822"
     xlink:href="#lapkin" /></defs>
	
	<g
   id="g4927">
	</g>
	<g
   id="g4929">
	</g>
	<g
   id="g4931">
	</g>
	<g
   id="g4933">
	</g>
	<g
   id="g4935">
	</g>
	<g
   id="g4937">
	</g>
	<g
   id="g4939">
	</g>
	<g
   id="g4941">
	</g>
	<g
   id="g4943">
	</g>
	<g
   id="g4945">
	</g>
	<g
   id="g4947">
	</g>
	<g
   id="g4949">
	</g>
	<g
   id="g4951">
	</g>
	<g
   id="g4953">
	</g>
	<g
   id="g4955">
	</g>
<g
   style="fill:url(#linearGradient9729);fill-opacity:1"
   transform="matrix(0,-0.96836956,0.9638528,0,-430.89767,398.1158)"
   id="g9721"><g
     style="fill:url(#linearGradient9787);fill-opacity:1"
     id="g9660">
		<path
   style="fill:url(#linearGradient9775);fill-opacity:1"
   d="m 268.822,345.886 c 10.294,10.293 23.98,15.963 38.537,15.963 14.558,0 28.244,-5.669 38.538,-15.963 10.293,-10.294 15.962,-23.98 15.962,-38.538 0,-14.557 -5.669,-28.244 -15.962,-38.538 -7.011,-7.011 -15.598,-11.871 -24.961,-14.261 L 186.439,2.119 C 185.4,0.17 182.98,-0.568 181.028,0.47 c -1.95,1.039 -2.688,3.461 -1.649,5.411 l 131.66,247.104 c -1.22,-0.081 -2.445,-0.136 -3.679,-0.136 -4.792,0 -9.486,0.626 -13.999,1.818 L 167.329,81.051 c -1.297,-1.788 -3.798,-2.186 -5.586,-0.887 -1.788,1.297 -2.185,3.799 -0.887,5.586 l 124.619,171.67 c -6.131,2.69 -11.776,6.514 -16.653,11.39 -4.877,4.877 -8.701,10.521 -11.39,16.653 L 85.761,160.845 c -1.787,-1.299 -4.29,-0.9 -5.586,0.887 -1.298,1.788 -0.901,4.289 0.887,5.586 L 254.677,293.35 c -1.191,4.513 -1.818,9.207 -1.818,13.999 0,1.234 0.056,2.458 0.136,3.678 L 5.891,179.368 c -1.949,-1.038 -4.373,-0.301 -5.411,1.649 -1.039,1.95 -0.3,4.372 1.649,5.411 L 254.56,320.925 c 2.391,9.363 7.251,17.95 14.262,24.961 z m -7.962,-38.537 c 0,-12.42 4.836,-24.098 13.62,-32.88 8.782,-8.783 20.459,-13.62 32.88,-13.62 2.802,0 5.562,0.259 8.263,0.741 l 7.299,13.699 c 0.72,1.351 2.103,2.12 3.534,2.12 0.634,0 1.278,-0.152 1.877,-0.471 1.95,-1.039 2.688,-3.461 1.649,-5.411 l -3.506,-6.58 c 5.06,2.284 9.721,5.479 13.764,9.522 8.783,8.783 13.62,20.46 13.62,32.88 0,12.421 -4.836,24.098 -13.62,32.88 -8.782,8.783 -20.459,13.62 -32.88,13.62 -12.42,0 -24.098,-4.837 -32.88,-13.62 -4.043,-4.043 -7.238,-8.704 -9.522,-13.764 l 6.58,3.506 c 0.599,0.319 1.243,0.471 1.877,0.471 1.43,0 2.814,-0.77 3.534,-2.12 1.039,-1.95 0.3,-4.372 -1.649,-5.411 l -13.699,-7.299 c -0.482,-2.702 -0.741,-5.462 -0.741,-8.263 z"
   id="path9648" />
		<path
   style="fill:url(#linearGradient9777);fill-opacity:1"
   d="m 271.606,357.464 c -2.779,-1.983 -5.397,-4.197 -7.782,-6.582 -1.563,-1.562 -4.095,-1.561 -5.657,10e-4 -1.562,1.563 -1.561,4.095 0.001,5.657 2.696,2.695 5.654,5.197 8.791,7.435 0.705,0.503 1.516,0.745 2.32,0.745 1.249,0 2.479,-0.583 3.259,-1.677 1.283,-1.797 0.866,-4.295 -0.932,-5.579 z"
   id="path9650" />
		<path
   style="fill:url(#linearGradient9779);fill-opacity:1"
   d="m 371.337,279.981 c -0.867,-2.032 -3.217,-2.977 -5.249,-2.108 -2.032,0.867 -2.976,3.217 -2.108,5.249 7.495,17.562 6.152,38.774 -3.505,55.358 -9.454,16.234 -26.411,27.409 -45.359,29.891 -10.808,1.418 -21.823,-0.094 -31.856,-4.369 -2.033,-0.865 -4.382,0.08 -5.248,2.113 -0.866,2.032 0.08,4.382 2.113,5.248 8.583,3.656 17.803,5.524 27.076,5.524 2.985,0 5.977,-0.194 8.954,-0.583 21.389,-2.802 40.542,-15.437 51.233,-33.798 11.069,-19.009 12.545,-42.383 3.949,-62.525 z"
   id="path9652" />
		<path
   style="fill:url(#linearGradient9781);fill-opacity:1"
   d="m 356.265,269.937 c 0.788,1.026 1.975,1.563 3.175,1.563 0.85,0 1.707,-0.27 2.434,-0.828 1.752,-1.346 2.082,-3.857 0.736,-5.609 -1.854,-2.414 -3.892,-4.737 -6.058,-6.905 -1.562,-1.564 -4.095,-1.564 -5.657,-0.003 -1.563,1.561 -1.564,4.094 -0.003,5.657 1.922,1.924 3.73,3.985 5.373,6.125 z"
   id="path9654" />
		<path
   style="fill:url(#linearGradient9783);fill-opacity:1"
   d="m 288.861,343.649 c 1.97,0.988 4.041,1.825 6.157,2.486 0.397,0.124 0.799,0.183 1.194,0.183 1.703,0 3.282,-1.096 3.817,-2.808 0.659,-2.108 -0.516,-4.352 -2.625,-5.011 -1.704,-0.533 -3.372,-1.206 -4.956,-2.001 -1.973,-0.991 -4.378,-0.194 -5.369,1.781 -0.99,1.975 -0.193,4.379 1.782,5.37 z"
   id="path9656" />
		<path
   style="fill:url(#linearGradient9785);fill-opacity:1"
   d="m 308.939,347.889 c 0.076,0 0.152,-0.002 0.229,-0.006 14.382,-0.812 27.329,-9.298 33.788,-22.148 0.992,-1.974 0.197,-4.378 -1.777,-5.37 -1.974,-0.994 -4.378,-0.197 -5.37,1.777 -5.178,10.3 -15.558,17.103 -27.091,17.753 -2.206,0.125 -3.893,2.013 -3.769,4.219 0.12,2.13 1.883,3.775 3.99,3.775 z"
   id="path9658" />
	</g><g
     style="fill:url(#linearGradient9789);fill-opacity:1"
     id="g9662">
	</g><g
     style="fill:url(#linearGradient9791);fill-opacity:1"
     id="g9664">
	</g><g
     style="fill:url(#linearGradient9793);fill-opacity:1"
     id="g9666">
	</g><g
     style="fill:url(#linearGradient9795);fill-opacity:1"
     id="g9668">
	</g><g
     style="fill:url(#linearGradient9797);fill-opacity:1"
     id="g9670">
	</g><g
     style="fill:url(#linearGradient9799);fill-opacity:1"
     id="g9672">
	</g><g
     style="fill:url(#linearGradient9801);fill-opacity:1"
     id="g9674">
	</g><g
     style="fill:url(#linearGradient9803);fill-opacity:1"
     id="g9676">
	</g><g
     style="fill:url(#linearGradient9805);fill-opacity:1"
     id="g9678">
	</g><g
     style="fill:url(#linearGradient9807);fill-opacity:1"
     id="g9680">
	</g><g
     style="fill:url(#linearGradient9809);fill-opacity:1"
     id="g9682">
	</g><g
     style="fill:url(#linearGradient9811);fill-opacity:1"
     id="g9684">
	</g><g
     style="fill:url(#linearGradient9813);fill-opacity:1"
     id="g9686">
	</g><g
     style="fill:url(#linearGradient9815);fill-opacity:1"
     id="g9688">
	</g><g
     style="fill:url(#linearGradient9817);fill-opacity:1"
     id="g9690">
	</g></g><g
   style="fill:url(#linearGradient10247);fill-opacity:1"
   transform="matrix(0.98855407,0,0,0.98855407,-561.94098,-211.41791)"
   id="g10239"><g
     style="fill:url(#linearGradient10253);fill-opacity:1"
     id="g10182">
		<path
   style="fill:url(#linearGradient10249);fill-opacity:1"
   d="M 367.041,309.778 255.273,198.011 c -0.75,-0.75 -1.768,-1.171 -2.828,-1.171 -1.06,0 -2.078,0.421 -2.828,1.171 l -22.9,22.9 -8.456,-8.456 34.22,-34.22 8.113,8.113 c 0.757,0.757 1.777,1.171 2.828,1.171 0.26,0 0.522,-0.025 0.782,-0.077 1.311,-0.262 2.404,-1.161 2.915,-2.396 l 10.912,-26.419 c 0.617,-1.494 0.274,-3.212 -0.869,-4.355 L 248.38,125.49 262.521,111.35 c 1.563,-1.562 1.563,-4.095 0,-5.657 -1.563,-1.562 -4.096,-1.562 -5.656,0 L 242.724,119.834 213.941,91.05 c -1.142,-1.143 -2.86,-1.484 -4.355,-0.869 l -26.419,10.912 c -1.235,0.51 -2.134,1.604 -2.396,2.915 -0.261,1.311 0.149,2.666 1.094,3.611 l 8.114,8.114 -34.22,34.219 -8.456,-8.456 22.9,-22.9 c 1.562,-1.563 1.562,-4.095 0,-5.657 L 58.435,1.171 C 57.684,0.421 56.667,0 55.606,0 54.545,0 53.528,0.421 52.777,1.171 L 1.172,52.778 c -1.562,1.563 -1.562,4.095 0,5.657 L 112.94,170.203 c 0.781,0.781 1.805,1.171 2.829,1.171 1.023,0 2.047,-0.391 2.829,-1.171 l 23.049,-23.049 8.456,8.456 -45.533,45.533 c -1.562,1.563 -1.562,4.095 0,5.657 l 8.2,8.2 -19.231,19.231 c -1.562,1.563 -1.562,4.095 0,5.657 l 34.786,34.786 c 0.781,0.781 1.805,1.171 2.829,1.171 1.024,0 2.047,-0.391 2.829,-1.171 l 19.231,-19.231 8.201,8.201 c 0.781,0.781 1.805,1.171 2.829,1.171 1.024,0 2.047,-0.391 2.829,-1.171 l 45.533,-45.533 8.456,8.456 -23.049,23.049 c -1.563,1.563 -1.563,4.095 0,5.657 l 111.768,111.768 c 0.75,0.75 1.768,1.171 2.828,1.171 1.06,0 2.078,-0.421 2.828,-1.171 l 51.605,-51.606 c 1.561,-1.562 1.561,-4.094 -10e-4,-5.657 z M 87.363,41.413 97.584,51.634 51.634,97.583 41.413,87.363 Z M 35.756,81.705 25.535,71.485 71.484,25.536 81.705,35.757 Z M 103.241,57.292 113.462,67.513 67.513,113.462 57.292,103.241 Z M 119.119,73.169 129.34,83.39 83.39,129.34 73.169,119.119 Z m 15.878,15.879 10.221,10.221 -45.949,45.949 -10.221,-10.221 z M 55.606,9.657 65.827,19.878 19.878,65.827 9.657,55.606 Z m 60.162,152.06 -10.843,-10.843 45.949,-45.949 10.842,10.842 z m 61.202,80.716 -51.189,-51.189 57.976,-57.976 51.189,51.188 z m 33.203,-143.838 59.446,59.446 -7.605,18.413 L 191.76,106.2 Z m 36.652,73.983 -6.221,6.221 -51.189,-51.189 6.221,-6.221 z m -115.671,93.611 -29.129,-29.129 16.403,-16.402 29.129,29.129 z m 33.089,-11.029 -51.189,-51.189 7.07,-7.07 51.189,51.189 z m 120.58,-16.286 10.222,10.222 -45.949,45.949 -10.221,-10.221 z m -51.606,40.292 -10.221,-10.221 45.948,-45.949 10.221,10.221 z m 67.484,-24.414 10.221,10.222 -45.949,45.948 -10.221,-10.221 z M 316.579,270.63 326.8,280.851 280.851,326.8 270.63,316.579 Z m 15.878,15.878 10.221,10.221 -45.949,45.948 -10.221,-10.221 z m -80.012,-80.012 10.843,10.843 -45.948,45.949 -10.843,-10.843 z m 60.162,152.06 -10.221,-10.221 45.949,-45.948 10.221,10.221 z"
   id="path10178" />
		<path
   style="fill:url(#linearGradient10251);fill-opacity:1"
   d="m 180.504,153.205 -33.089,33.089 c -1.562,1.563 -1.562,4.095 0,5.657 l 28.847,28.847 c 0.781,0.781 1.805,1.171 2.829,1.171 1.023,0 2.047,-0.391 2.829,-1.171 l 33.089,-33.089 c 0.75,-0.75 1.172,-1.768 1.172,-2.829 0,-1.061 -0.422,-2.078 -1.172,-2.829 l -28.848,-28.847 c -1.562,-1.56 -4.093,-1.56 -5.657,0.001 z m -1.413,59.108 -23.19,-23.19 27.433,-27.433 23.19,23.19 z"
   id="path10180" />
	</g><g
     style="fill:url(#linearGradient10255);fill-opacity:1"
     id="g10184">
	</g><g
     style="fill:url(#linearGradient10257);fill-opacity:1"
     id="g10186">
	</g><g
     style="fill:url(#linearGradient10259);fill-opacity:1"
     id="g10188">
	</g><g
     style="fill:url(#linearGradient10261);fill-opacity:1"
     id="g10190">
	</g><g
     style="fill:url(#linearGradient10263);fill-opacity:1"
     id="g10192">
	</g><g
     style="fill:url(#linearGradient10265);fill-opacity:1"
     id="g10194">
	</g><g
     style="fill:url(#linearGradient10267);fill-opacity:1"
     id="g10196">
	</g><g
     style="fill:url(#linearGradient10269);fill-opacity:1"
     id="g10198">
	</g><g
     style="fill:url(#linearGradient10271);fill-opacity:1"
     id="g10200">
	</g><g
     style="fill:url(#linearGradient10273);fill-opacity:1"
     id="g10202">
	</g><g
     style="fill:url(#linearGradient10275);fill-opacity:1"
     id="g10204">
	</g><g
     style="fill:url(#linearGradient10277);fill-opacity:1"
     id="g10206">
	</g><g
     style="fill:url(#linearGradient10279);fill-opacity:1"
     id="g10208">
	</g><g
     style="fill:url(#linearGradient10281);fill-opacity:1"
     id="g10210">
	</g><g
     style="fill:url(#linearGradient10283);fill-opacity:1"
     id="g10212">
	</g></g><g
   style="fill:url(#linearGradient10843);fill-opacity:1"
   transform="matrix(0.85373759,0,0,0.85598607,-650.27725,-62.553255)"
   id="g10835"><g
     style="fill:url(#linearGradient10857);fill-opacity:1"
     id="g10774">
		<path
   style="fill:url(#linearGradient10845);fill-opacity:1"
   d="m 355.517,357.74 v -28.411 c 0,-12.308 -4.486,-24.165 -12.631,-33.388 l -29.789,-33.739 c -2.401,-2.722 -4.738,-5.548 -6.991,-8.401 v -86.542 c 0,-2.209 -1.791,-4 -4,-4 H 263.338 V 133.702 C 263.338,94.074 256.201,55.2 242.125,18.157 237.868,6.957 227.781,0 215.8,0 203.819,0 193.732,6.957 189.476,18.157 175.4,55.201 168.263,94.076 168.263,133.702 v 29.557 h -38.768 c -2.209,0 -4,1.791 -4,4 v 86.537 c -2.248,2.847 -4.586,5.674 -6.997,8.406 L 88.72,295.938 c -8.147,9.212 -12.634,21.07 -12.634,33.391 v 28.411 l 92.18,14.17 -0.005,55.693 c 0,2.209 1.791,4 4,4 h 32.734 c 2.209,0 4,-1.791 4,-4 v -31.747 h 13.608 v 31.747 c 0,2.209 1.791,4 4,4 h 32.734 c 2.209,0 4,-1.791 4,-4 l -10e-4,-55.693 z m -116.22,-44.481 h -47 v -16 h 47 z m 4,-24 h -55 c -2.209,0 -4,1.791 -4,4 v 20 h -8.035 v -89 h 79.076 v 89 h -8.041 v -20 c 0,-2.209 -1.791,-4 -4,-4 z m -75.035,4 h -34.768 v -13.8 h 34.768 z m 0,-21.8 h -34.768 v -13.8 h 34.768 z m 0,-65.4 h -34.768 v -13.8 h 34.768 z m 0,8 v 13.801 h -34.768 v -13.801 z m 0,21.8 v 13.8 h -34.768 v -13.8 z m -34.768,65.4 h 34.768 v 12 H 133.494 Z M 255.335,133.504 h -79.071 c 0.019,-30.263 4.323,-60.073 12.786,-88.93 h 53.5 c 8.462,28.857 12.767,58.665 12.785,88.93 z m 8.003,58.755 h 34.768 v 13.8 h -34.768 z m 0,109 h 34.768 v 12 h -34.768 z m 0,-87.2 h 34.768 v 13.801 h -34.768 z m 0,21.8 h 34.768 v 13.8 h -34.768 z m 0,21.8 h 34.768 v 13.8 h -34.768 z m 0,21.8 h 34.768 v 13.8 h -34.768 z m -87.076,-108.2 h 79.076 v 45 h -79.076 z m 79.076,-29.755 v 21.755 h -79.076 v -21.755 z m 8,222.313 v -23.49 h 84.179 v 10.55 z m 43.76,-96.321 29.791,33.74 c 6.854,7.761 10.628,17.737 10.628,28.093 v 2.998 h -84.179 v -11.068 h 38.768 c 2.209,0 4,-1.791 4,-4 v -50.924 c 0.333,0.384 0.657,0.781 0.992,1.161 z m -8.992,-96.237 v 13 h -34.768 v -13 z M 196.954,20.999 C 200.596,11.414 209.077,8 215.8,8 c 6.723,0 15.204,3.414 18.846,12.999 1.959,5.155 3.764,10.35 5.447,15.575 h -48.585 c 1.682,-5.224 3.487,-10.42 5.446,-15.575 z m -28.692,150.26 v 13 h -34.768 v -13 z m -73.546,129.976 29.781,-33.74 c 0.338,-0.383 0.662,-0.781 0.998,-1.167 v 50.931 c 0,2.209 1.791,4 4,4 h 38.768 v 11.068 H 84.087 v -2.998 c 0,-10.366 3.774,-20.342 10.629,-28.094 z m -10.629,39.092 h 84.175 v 23.489 L 84.087,350.877 Z m 116.909,83.277 h -24.734 l 0.005,-38.408 c 0.104,-14.392 10.839,-26.303 24.729,-28.245 z m 21.608,-70.931 v 35.184 h -13.608 v -35.184 c 0,-2.209 -1.791,-4 -4,-4 -11.625,0 -21.998,5.434 -28.734,13.888 v -41.302 h 79.076 v 41.302 c -6.736,-8.454 -17.109,-13.888 -28.734,-13.888 -2.209,0 -4,1.791 -4,4 z m 8,70.931 V 356.95 c 13.944,1.95 24.712,13.946 24.733,28.414 l 0.001,38.239 h -24.734 z"
   id="path10762" />
		<path
   style="fill:url(#linearGradient10847);fill-opacity:1"
   d="m 186.588,105.537 h 8 c 0,-8.977 7.303,-16.279 16.28,-16.279 v -8 c -13.388,0 -24.28,10.891 -24.28,24.279 z"
   id="path10764" />
		<path
   style="fill:url(#linearGradient10849);fill-opacity:1"
   d="m 237.011,105.537 h 8 c 0,-13.388 -10.892,-24.279 -24.28,-24.279 v 8 c 8.977,0 16.28,7.303 16.28,16.279 z"
   id="path10766" />
		<path
   style="fill:url(#linearGradient10851);fill-opacity:1"
   d="m 215.8,177.259 c -9.649,0 -17.5,7.851 -17.5,17.5 0,9.649 7.851,17.5 17.5,17.5 9.649,0 17.5,-7.851 17.5,-17.5 0,-9.649 -7.851,-17.5 -17.5,-17.5 z m 0,27 c -5.238,0 -9.5,-4.262 -9.5,-9.5 0,-5.238 4.262,-9.5 9.5,-9.5 5.238,0 9.5,4.262 9.5,9.5 0,5.238 -4.262,9.5 -9.5,9.5 z"
   id="path10768" />
		<path
   style="fill:url(#linearGradient10853);fill-opacity:1"
   d="m 215.8,232.259 c -14.612,0 -26.5,11.888 -26.5,26.5 0,14.612 11.888,26.5 26.5,26.5 14.612,0 26.5,-11.888 26.5,-26.5 0,-14.612 -11.888,-26.5 -26.5,-26.5 z m 0,45 c -10.201,0 -18.5,-8.299 -18.5,-18.5 0,-10.201 8.299,-18.5 18.5,-18.5 10.201,0 18.5,8.299 18.5,18.5 0,10.201 -8.299,18.5 -18.5,18.5 z"
   id="path10770" />
		<circle
   style="fill:url(#linearGradient10855);fill-opacity:1"
   cx="215.8"
   cy="258.759"
   r="9.342"
   id="circle10772" />
	</g><g
     style="fill:url(#linearGradient10859);fill-opacity:1"
     id="g10776">
	</g><g
     style="fill:url(#linearGradient10861);fill-opacity:1"
     id="g10778">
	</g><g
     style="fill:url(#linearGradient10863);fill-opacity:1"
     id="g10780">
	</g><g
     style="fill:url(#linearGradient10865);fill-opacity:1"
     id="g10782">
	</g><g
     style="fill:url(#linearGradient10867);fill-opacity:1"
     id="g10784">
	</g><g
     style="fill:url(#linearGradient10869);fill-opacity:1"
     id="g10786">
	</g><g
     style="fill:url(#linearGradient10871);fill-opacity:1"
     id="g10788">
	</g><g
     style="fill:url(#linearGradient10873);fill-opacity:1"
     id="g10790">
	</g><g
     style="fill:url(#linearGradient10875);fill-opacity:1"
     id="g10792">
	</g><g
     style="fill:url(#linearGradient10877);fill-opacity:1"
     id="g10794">
	</g><g
     style="fill:url(#linearGradient10879);fill-opacity:1"
     id="g10796">
	</g><g
     style="fill:url(#linearGradient10881);fill-opacity:1"
     id="g10798">
	</g><g
     style="fill:url(#linearGradient10883);fill-opacity:1"
     id="g10800">
	</g><g
     style="fill:url(#linearGradient10885);fill-opacity:1"
     id="g10802">
	</g><g
     style="fill:url(#linearGradient10887);fill-opacity:1"
     id="g10804">
	</g></g><g
   style="fill:url(#linearGradient11137);fill-opacity:1"
   transform="matrix(0.79188169,0,0,0.7955652,-557.43748,99.089754)"
   id="g11129"><g
     style="fill:url(#linearGradient11215);fill-opacity:1"
     id="g11072">
		<path
   style="fill:url(#linearGradient11211);fill-opacity:1"
   d="m 304.48,240.914 v -35.686 c 0,-6.382 -3.556,-11.947 -8.788,-14.827 v -1.994 c 0,-0.777 -0.227,-1.538 -0.652,-2.189 l -16.599,-25.387 c -0.738,-1.13 -1.998,-1.811 -3.348,-1.811 h -9.67 V 70.282 c 0,-26.614 -11.535,-51.875 -31.649,-69.305 -1.502,-1.305 -3.736,-1.303 -5.238,0 -20.114,17.43 -31.65,42.69 -31.65,69.305 v 88.739 h -9.67 c -1.35,0 -2.609,0.681 -3.348,1.811 l -16.599,25.387 c -0.426,0.651 -0.652,1.412 -0.652,2.189 v 1.994 c -5.232,2.879 -8.788,8.444 -8.788,14.827 v 35.686 c 0,6.382 3.556,11.947 8.788,14.827 v 75.739 c -1.536,-0.384 -3.135,-0.61 -4.788,-0.61 -2.209,0 -4,1.791 -4,4 v 81.84 c 0,6.845 3.493,12.888 8.788,16.446 v 11.073 c 0,2.209 1.791,4 4,4 h 3.519 v 10.08 c 0,2.209 1.791,4 4,4 h 15.135 c 2.209,0 4,-1.791 4,-4 v -10.08 h 3.615 c 2.209,0 4,-1.791 4,-4 V 428.7 h 3.629 v 10.092 c 0,2.209 1.791,4 4,4 h 7.806 v 15.517 c 0,2.209 1.791,4 4,4 h 15.134 c 2.209,0 4,-1.791 4,-4 v -15.517 h 6.341 c 2.209,0 4,-1.791 4,-4 V 428.7 h 3.629 v 15.528 c 0,2.209 1.791,4 4,4 h 3.616 v 10.08 c 0,2.209 1.791,4 4,4 h 15.134 c 2.209,0 4,-1.791 4,-4 v -10.08 h 3.519 c 2.209,0 4,-1.791 4,-4 v -11.073 c 5.295,-3.558 8.788,-9.601 8.788,-16.446 v -81.84 c 0,-2.209 -1.791,-4 -4,-4 -1.654,0 -3.252,0.226 -4.788,0.61 V 255.74 c 5.23,-2.878 8.786,-8.443 8.786,-14.826 z m -8,0 c 0,4.915 -3.999,8.914 -8.914,8.914 h -5.544 v -53.514 h 5.544 c 4.915,0 8.914,3.999 8.914,8.914 z m -23.551,-73.892 13.922,21.293 h -8.83 c -2.209,0 -4,1.791 -4,4 v 8.205 h -8.599 v -33.498 z m -84.642,41.498 h 8.599 v 5.182 h -8.599 z m 16.598,-79.578 h 52.538 v 37.403 h -52.538 z m 52.538,-8 H 204.885 V 88.421 h 52.538 z m -52.538,53.403 h 52.538 v 8.216 h -52.538 z m 60.538,34.175 h 8.599 v 5.182 h -8.599 z M 231.155,9.392 c 16.737,15.784 26.269,37.778 26.269,60.891 v 10.139 h -52.538 v -10.14 c -0.001,-23.112 9.532,-45.107 26.269,-60.89 z m -41.775,157.63 h 7.506 v 33.498 h -8.599 v -8.205 c 0,-2.209 -1.791,-4 -4,-4 h -8.83 z m -23.551,38.207 c 0,-4.915 3.999,-8.914 8.914,-8.914 h 5.544 v 53.514 h -5.544 c -4.915,0 -8.914,-3.999 -8.914,-8.914 z m 8.788,52.599 c 0.042,0 9.67,0 9.67,0 2.209,0 4,-1.791 4,-4 v -32.127 h 8.599 v 187.282 h -8.599 v -31.33 c 0,-4.461 -2.756,-8.291 -6.655,-9.876 v -17.104 c 0,-6.045 -2.73,-11.459 -7.015,-15.094 z m -8.788,81.74 c 4.545,1.643 7.803,6.001 7.803,11.105 v 20.325 c 0,2.209 1.791,4 4,4 1.464,0 2.655,1.191 2.655,2.655 v 50.858 h -2.655 c -6.508,0 -11.803,-5.294 -11.803,-11.802 z m 11.802,96.944 h 6.655 c 2.209,0 4,-1.791 4,-4 v -15.528 h 8.599 v 23.245 h -22.269 v -3.971 c 0.986,0.151 1.988,0.254 3.015,0.254 z m 11.639,17.797 h -7.135 v -6.08 h 7.135 z m 46.184,0 h -7.134 v -11.517 h 7.134 z m 10.341,-19.517 h -29.28 V 428.7 h 29.28 z M 204.885,420.7 V 190.56 h 52.538 V 420.7 Z m 75.288,33.609 h -7.134 v -6.08 h 7.134 z m 7.519,-14.08 h -22.269 v -23.245 h 8.599 v 15.528 c 0,2.209 1.791,4 4,4 h 6.656 c 1.027,0 2.028,-0.103 3.014,-0.254 z m 8.788,-23.519 c 0,6.508 -5.294,11.802 -11.802,11.802 h -2.656 v -50.858 c 0,-1.464 1.191,-2.655 2.656,-2.655 2.209,0 4,-1.791 4,-4 v -20.325 c 0,-5.104 3.257,-9.463 7.802,-11.104 z m -8.788,-81.131 c -4.283,3.635 -7.014,9.049 -7.014,15.094 v 17.104 c -3.899,1.584 -6.656,5.414 -6.656,9.876 v 31.33 h -8.599 V 221.701 h 8.599 v 32.127 c 0,2.209 1.791,4 4,4 0,0 9.627,0 9.67,0 z"
   id="path11068" />
		<path
   style="fill:url(#linearGradient11213);fill-opacity:1"
   d="m 212.602,104.043 h 37.104 c 2.209,0 4,-1.791 4,-4 0,-2.209 -1.791,-4 -4,-4 h -37.104 c -2.209,0 -4,1.791 -4,4 0,2.209 1.791,4 4,4 z"
   id="path11070" />
	</g><g
     style="fill:url(#linearGradient11217);fill-opacity:1"
     id="g11074">
	</g><g
     style="fill:url(#linearGradient11219);fill-opacity:1"
     id="g11076">
	</g><g
     style="fill:url(#linearGradient11221);fill-opacity:1"
     id="g11078">
	</g><g
     style="fill:url(#linearGradient11223);fill-opacity:1"
     id="g11080">
	</g><g
     style="fill:url(#linearGradient11225);fill-opacity:1"
     id="g11082">
	</g><g
     style="fill:url(#linearGradient11227);fill-opacity:1"
     id="g11084">
	</g><g
     style="fill:url(#linearGradient11229);fill-opacity:1"
     id="g11086">
	</g><g
     style="fill:url(#linearGradient11231);fill-opacity:1"
     id="g11088">
	</g><g
     style="fill:url(#linearGradient11233);fill-opacity:1"
     id="g11090">
	</g><g
     style="fill:url(#linearGradient11235);fill-opacity:1"
     id="g11092">
	</g><g
     style="fill:url(#linearGradient11237);fill-opacity:1"
     id="g11094">
	</g><g
     style="fill:url(#linearGradient11239);fill-opacity:1"
     id="g11096">
	</g><g
     style="fill:url(#linearGradient11241);fill-opacity:1"
     id="g11098">
	</g><g
     style="fill:url(#linearGradient11243);fill-opacity:1"
     id="g11100">
	</g><g
     style="fill:url(#linearGradient11245);fill-opacity:1"
     id="g11102">
	</g></g><g
   style="fill:url(#linearGradient11477);fill-opacity:1"
   transform="matrix(0.80897399,0,0,0.80897399,-474.88957,-282.00401)"
   id="g11469"><path
     style="fill:url(#linearGradient11511);fill-opacity:1"
     d="m 452.869,160.233 -25.236,-25.236 c -1.562,-1.562 -4.095,-1.562 -5.657,0 v 0 c -1.562,1.562 -1.562,4.095 0,5.657 l 8.843,8.843 -5.165,5.165 -8.843,-8.843 c -1.562,-1.562 -4.095,-1.562 -5.657,0 v 0 c -1.562,1.562 -1.562,4.095 0,5.657 l 8.843,8.843 -5.165,5.165 -8.843,-8.843 c -1.562,-1.562 -4.095,-1.562 -5.657,0 v 0 c -1.562,1.562 -1.562,4.095 0,5.657 l 8.843,8.843 -5.165,5.165 -8.843,-8.843 c -1.562,-1.562 -4.095,-1.562 -5.657,0 v 0 c -1.562,1.562 -1.562,4.095 0,5.657 l 8.843,8.843 -5.165,5.165 -8.843,-8.843 c -1.562,-1.562 -4.095,-1.562 -5.657,0 v 0 c -1.562,1.562 -1.562,4.095 0,5.657 l 8.843,8.843 -5.165,5.165 -8.843,-8.843 c -1.562,-1.562 -4.095,-1.562 -5.657,0 v 0 c -1.562,1.562 -1.562,4.095 0,5.657 l 8.843,8.843 -5.165,5.165 -8.843,-8.843 c -1.562,-1.562 -4.095,-1.562 -5.657,0 v 0 c -1.562,1.562 -1.562,4.095 0,5.657 l 8.842,8.842 -5.165,5.165 -8.842,-8.842 c -1.562,-1.562 -4.095,-1.562 -5.657,0 v 0 c -1.562,1.562 -1.562,4.095 0,5.657 l 8.842,8.842 -5.165,5.165 -8.842,-8.843 c -1.562,-1.562 -4.095,-1.562 -5.657,0 v 0 c -1.562,1.562 -1.562,4.095 0,5.657 l 8.842,8.843 -61.561,61.561 -41.115,-33.581 V 145.609 c 0,-21.993 -3.594,-43.703 -10.709,-64.607 -0.547,-1.625 -2.084,-2.675 -3.799,-2.678 h -0.006 c -1.701,0 -3.229,1.074 -3.777,2.684 -7.106,20.849 -10.708,42.584 -10.708,64.602 v 118.358 l -41.215,33.663 -61.561,-61.561 8.842,-8.843 c 1.562,-1.562 1.562,-4.095 0,-5.657 v 0 c -1.562,-1.562 -4.095,-1.562 -5.657,0 l -8.842,8.842 -5.165,-5.165 8.842,-8.842 c 1.562,-1.562 1.562,-4.095 0,-5.657 v 0 c -1.562,-1.562 -4.095,-1.562 -5.657,0 l -8.842,8.842 -5.165,-5.165 8.843,-8.843 c 1.562,-1.562 1.562,-4.095 0,-5.657 v 0 c -1.562,-1.562 -4.095,-1.562 -5.657,0 l -8.843,8.843 -5.165,-5.165 8.843,-8.843 c 1.562,-1.562 1.562,-4.095 0,-5.657 v 0 c -1.562,-1.562 -4.095,-1.562 -5.657,0 l -8.843,8.843 -5.165,-5.165 8.843,-8.843 c 1.562,-1.562 1.562,-4.095 0,-5.657 v 0 c -1.562,-1.562 -4.095,-1.562 -5.657,0 l -8.843,8.843 -5.165,-5.165 8.843,-8.843 c 1.562,-1.562 1.562,-4.095 0,-5.657 v 0 c -1.562,-1.562 -4.095,-1.562 -5.657,0 l -8.843,8.843 -5.165,-5.165 8.843,-8.843 c 1.562,-1.562 1.562,-4.095 0,-5.657 v 0 c -1.562,-1.562 -4.095,-1.562 -5.657,0 l -8.843,8.843 -5.165,-5.165 8.843,-8.843 c 1.562,-1.562 1.562,-4.095 0,-5.657 v 0 c -1.562,-1.562 -4.095,-1.562 -5.657,0 l -8.843,8.843 -5.165,-5.165 8.843,-8.843 c 1.562,-1.562 1.562,-4.095 0,-5.657 v 0 c -1.562,-1.562 -4.095,-1.562 -5.657,0 l -25.23,25.24 C 0.421,160.983 0,162 0,163.061 c 0,1.061 0.421,2.078 1.171,2.829 l 108.673,108.673 27.476,63.363 c 0.322,0.743 0.863,1.371 1.55,1.8 l 25.078,15.673 v 16.316 c 0,2.209 1.791,4 4,4 h 118.145 c 2.209,0 4,-1.791 4,-4 V 355.4 l 25.078,-15.673 c 0.687,-0.429 1.227,-1.057 1.55,-1.8 L 344.197,274.564 452.869,165.89 c 0.75,-0.75 1.171,-1.768 1.171,-2.829 0,-1.061 -0.421,-2.078 -1.171,-2.828 z m -274.044,156.18 -7.908,7.908 -30.059,-30.059 7.908,-7.908 z M 9.657,163.061 l 7.908,-7.908 125.545,125.544 -7.908,7.908 z m 134.508,170.54 -18.925,-43.643 42.848,42.848 c 0.781,0.781 1.805,1.171 2.829,1.171 1.024,0 2.047,-0.391 2.829,-1.171 l 8.415,-8.415 22.742,24.792 H 169.096 Z M 210,367.716 H 171.948 V 357.183 H 210 Z m 2.57,-22.01 -17,-18.531 17,-24.297 z m 0,-56.783 -22.539,32.214 -2.257,-2.46 c 0.455,-0.662 0.708,-1.448 0.708,-2.263 0,-1.061 -0.421,-2.078 -1.171,-2.829 l -0.601,-0.601 25.861,-26.189 v 2.128 z m 0,-13.515 -31.518,31.918 -4.011,-4.011 35.529,-29.019 z m 92.704,10.946 7.908,7.908 -30.059,30.059 -7.908,-7.908 z m -63.704,-11.976 35.43,28.937 -4.011,4.011 -31.418,-31.817 v -1.131 z m 0,12.517 25.761,26.088 -0.601,0.601 c -0.75,0.75 -1.171,1.768 -1.171,2.829 0,0.815 0.253,1.601 0.708,2.263 l -2.257,2.46 -22.44,-32.072 z M 227.07,96.037 c 1.157,4.329 2.148,8.694 2.997,13.083 h -5.994 c 0.849,-4.389 1.84,-8.754 2.997,-13.083 z m 6.5,271.679 h -13 v -17.557 h 13 z m 0,-25.557 h -13 v -103.5 h 13 z m 0,-111.5 h -13 v -8 h 13 z m 0,-16 h -13 v -69.05 c 0,-9.571 0.734,-19.082 2.143,-28.488 h 8.713 c 1.409,9.406 2.143,18.918 2.143,28.488 v 69.05 z m 8,88.361 16.9,24.155 -16.9,18.423 z m 40.522,64.696 H 244.04 v -10.533 h 38.052 z m 27.783,-34.115 -24.93,15.582 h -35.807 l 22.742,-24.792 8.415,8.415 c 0.781,0.781 1.805,1.171 2.829,1.171 1.024,0 2.047,-0.391 2.829,-1.171 l 42.848,-42.848 z m 8.964,-44.996 -7.908,-7.908 125.545,-125.544 7.908,7.908 z"
     id="path11414" /><g
     style="fill:url(#linearGradient11513);fill-opacity:1"
     id="g11416">
	</g><g
     style="fill:url(#linearGradient11515);fill-opacity:1"
     id="g11418">
	</g><g
     style="fill:url(#linearGradient11517);fill-opacity:1"
     id="g11420">
	</g><g
     style="fill:url(#linearGradient11519);fill-opacity:1"
     id="g11422">
	</g><g
     style="fill:url(#linearGradient11521);fill-opacity:1"
     id="g11424">
	</g><g
     style="fill:url(#linearGradient11523);fill-opacity:1"
     id="g11426">
	</g><g
     style="fill:url(#linearGradient11525);fill-opacity:1"
     id="g11428">
	</g><g
     style="fill:url(#linearGradient11527);fill-opacity:1"
     id="g11430">
	</g><g
     style="fill:url(#linearGradient11529);fill-opacity:1"
     id="g11432">
	</g><g
     style="fill:url(#linearGradient11531);fill-opacity:1"
     id="g11434">
	</g><g
     style="fill:url(#linearGradient11533);fill-opacity:1"
     id="g11436">
	</g><g
     style="fill:url(#linearGradient11535);fill-opacity:1"
     id="g11438">
	</g><g
     style="fill:url(#linearGradient11537);fill-opacity:1"
     id="g11440">
	</g><g
     style="fill:url(#linearGradient11539);fill-opacity:1"
     id="g11442">
	</g><g
     style="fill:url(#linearGradient11541);fill-opacity:1"
     id="g11444">
	</g></g><g
   style="fill:url(#linearGradient11784);fill-opacity:1"
   transform="matrix(0.98408297,0,0,0.98408297,-0.61694165,0.40627485)"
   id="g11776"><g
     style="fill:url(#linearGradient11792);fill-opacity:1"
     id="g11718">
		<path
   style="fill:url(#linearGradient11786);fill-opacity:1"
   d="m 295.032,101.74 c 5.961,0 11.564,-2.321 15.779,-6.536 8.701,-8.701 8.701,-22.858 0,-31.558 -4.214,-4.215 -9.818,-6.537 -15.779,-6.537 -5.96,0 -11.564,2.321 -15.779,6.536 -8.701,8.701 -8.701,22.858 0,31.559 4.215,4.214 9.819,6.536 15.779,6.536 z M 284.909,69.302 c 2.704,-2.704 6.3,-4.193 10.123,-4.193 3.824,0 7.419,1.489 10.123,4.193 5.581,5.581 5.581,14.663 0,20.245 -2.704,2.704 -6.299,4.193 -10.123,4.193 -3.823,0 -7.419,-1.489 -10.123,-4.192 -5.581,-5.583 -5.581,-14.665 0,-20.246 z"
   id="path11712" />
		<path
   style="fill:url(#linearGradient11788);fill-opacity:1"
   d="m 205.317,169.14 c -3.504,-3.504 -8.163,-5.435 -13.119,-5.435 -4.956,0 -9.615,1.93 -13.119,5.435 -7.233,7.233 -7.233,19.004 0,26.238 3.504,3.504 8.163,5.434 13.119,5.434 4.956,0 9.614,-1.93 13.118,-5.434 3.505,-3.504 5.435,-8.163 5.435,-13.119 0,-4.956 -1.93,-9.615 -5.434,-13.119 z m -5.657,20.581 c -1.993,1.993 -4.644,3.09 -7.462,3.09 -2.819,0 -5.47,-1.098 -7.463,-3.09 -4.114,-4.115 -4.114,-10.81 0,-14.924 1.993,-1.994 4.644,-3.091 7.463,-3.091 2.818,0 5.469,1.098 7.462,3.091 1.993,1.993 3.091,4.643 3.091,7.462 0,2.819 -1.098,5.469 -3.091,7.462 z"
   id="path11714" />
		<path
   style="fill:url(#linearGradient11790);fill-opacity:1"
   d="M 373.285,318.413 268.203,213.331 c -1.561,-1.562 -4.094,-1.562 -5.656,0 l -12.469,12.469 -8.31,-8.31 30.934,-30.934 c 15.946,-15.946 21.417,-39.169 14.869,-60.187 5.746,1.775 11.77,2.696 17.796,2.696 16.01,0 31.06,-6.234 42.378,-17.552 11.326,-11.326 17.563,-26.384 17.563,-42.4 0,-7.711 -1.459,-15.194 -4.223,-22.151 l 10.536,-10.536 c 0.75,-0.75 1.172,-1.768 1.172,-2.829 0,-1.061 -0.422,-2.078 -1.172,-2.829 L 343.688,2.834 c -1.563,-1.562 -4.096,-1.562 -5.656,0 L 327.496,13.37 c -6.957,-2.763 -14.44,-4.222 -22.151,-4.222 -16.017,0 -31.074,6.237 -42.399,17.563 -15.947,15.946 -21.419,39.168 -14.87,60.188 -5.745,-1.775 -11.77,-2.696 -17.796,-2.696 -16.009,0 -31.06,6.233 -42.378,17.552 l -30.935,30.935 -8.31,-8.31 12.468,-12.468 c 1.563,-1.563 1.563,-4.095 0,-5.657 L 56.043,1.171 C 55.293,0.421 54.275,0 53.215,0 52.155,0 51.137,0.421 50.387,1.171 L 1.172,50.387 c -1.563,1.563 -1.563,4.095 0,5.657 l 105.082,105.082 c 0.75,0.75 1.768,1.171 2.828,1.171 1.06,0 2.078,-0.421 2.828,-1.171 l 12.468,-12.468 8.31,8.31 -8.124,8.124 c -10e-4,0 -10e-4,10e-4 -0.002,10e-4 0,0 -10e-4,0.001 -10e-4,0.002 l -24.724,24.724 c -1.563,1.563 -1.563,4.095 0,5.657 l 79.144,79.144 c 0.75,0.75 1.768,1.171 2.828,1.171 1.06,0 2.078,-0.421 2.828,-1.171 l 32.852,-32.852 8.31,8.31 -12.468,12.468 c -0.75,0.75 -1.172,1.768 -1.172,2.829 0,1.061 0.422,2.078 1.172,2.829 l 105.082,105.082 c 0.78,0.781 1.805,1.171 2.828,1.171 1.023,0 2.048,-0.391 2.828,-1.171 l 49.216,-49.215 c 0.75,-0.75 1.172,-1.768 1.172,-2.829 0,-1.061 -0.422,-2.078 -1.172,-2.829 z m -98.928,-0.497 43.559,-43.559 20.946,20.947 -43.559,43.558 z m -26.603,-26.603 43.559,-43.558 20.946,20.946 -43.559,43.558 z m -41.219,-49.904 -73.487,-73.487 43.269,-43.269 73.487,73.487 z M 342.089,32.368 c 9.296,9.296 14.628,21.494 15.166,34.551 L 307.538,17.202 c 13.057,0.538 25.255,5.87 34.551,15.166 z m -1.229,-21.048 22.276,22.276 -5.735,5.736 c -2.617,-4.557 -5.84,-8.805 -9.656,-12.621 -3.816,-3.816 -8.063,-7.039 -12.62,-9.656 z m -72.258,21.048 c 7.786,-7.786 17.61,-12.783 28.266,-14.522 l 59.743,59.743 c -1.739,10.656 -6.737,20.481 -14.522,28.266 -9.808,9.808 -22.849,15.209 -36.722,15.209 -8.007,0 -16.006,-1.874 -23.137,-5.417 L 258.807,92.224 C 248.869,72.216 252.8,48.169 268.602,32.368 Z m -16.166,64.799 24.877,24.877 c 8.168,17.35 6.07,37.543 -5.026,52.731 l -72.606,-72.606 c 8.831,-6.467 19.445,-9.966 30.599,-9.966 7.644,0 15.274,1.725 22.156,4.964 z m -58.878,10.245 c 0.009,-0.009 0.018,-0.017 0.027,-0.026 l 73.486,73.487 c -0.009,0.009 -0.016,0.017 -0.025,0.026 l -11.585,11.585 -73.488,-73.488 z m -131.36,-1.655 43.558,-43.559 20.947,20.947 -43.559,43.558 z M 35.595,79.153 79.153,35.595 100.099,56.542 56.541,100.1 Z M 53.215,9.657 73.496,29.938 29.938,73.497 9.657,53.216 Z m 55.867,142.984 -20.281,-20.281 43.559,-43.558 20.281,20.281 -31.087,31.088 c -0.001,0.001 -0.002,0.001 -0.003,0.002 -0.001,0.001 -0.001,0.002 -0.002,0.003 z m 20.953,-9.64 12.966,-12.966 8.31,8.31 -12.966,12.966 z m 51.774,123.134 -73.486,-73.487 19.069,-19.069 73.487,73.487 z m 41.337,-30.023 12.965,-12.965 8.31,8.31 -12.966,12.965 z m 42.229,-14.296 20.281,20.281 -43.559,43.558 -20.281,-20.281 z M 321.241,364.8 300.96,344.519 344.519,300.961 364.8,321.242 Z"
   id="path11716" />
	</g><g
     style="fill:url(#linearGradient11794);fill-opacity:1"
     id="g11720">
	</g><g
     style="fill:url(#linearGradient11796);fill-opacity:1"
     id="g11722">
	</g><g
     style="fill:url(#linearGradient11798);fill-opacity:1"
     id="g11724">
	</g><g
     style="fill:url(#linearGradient11800);fill-opacity:1"
     id="g11726">
	</g><g
     style="fill:url(#linearGradient11802);fill-opacity:1"
     id="g11728">
	</g><g
     style="fill:url(#linearGradient11804);fill-opacity:1"
     id="g11730">
	</g><g
     style="fill:url(#linearGradient11806);fill-opacity:1"
     id="g11732">
	</g><g
     style="fill:url(#linearGradient11808);fill-opacity:1"
     id="g11734">
	</g><g
     style="fill:url(#linearGradient11810);fill-opacity:1"
     id="g11736">
	</g><g
     style="fill:url(#linearGradient11812);fill-opacity:1"
     id="g11738">
	</g><g
     style="fill:url(#linearGradient11814);fill-opacity:1"
     id="g11740">
	</g><g
     style="fill:url(#linearGradient11816);fill-opacity:1"
     id="g11742">
	</g><g
     style="fill:url(#linearGradient11818);fill-opacity:1"
     id="g11744">
	</g><g
     style="fill:url(#linearGradient11820);fill-opacity:1"
     id="g11746">
	</g><g
     style="fill:url(#linearGradient11822);fill-opacity:1"
     id="g11748">
	</g></g></svg>