<?xml version="1.0" encoding="UTF-8" standalone="no"?>
<svg
   xmlns:dc="http://purl.org/dc/elements/1.1/"
   xmlns:cc="http://creativecommons.org/ns#"
   xmlns:rdf="http://www.w3.org/1999/02/22-rdf-syntax-ns#"
   xmlns:svg="http://www.w3.org/2000/svg"
   xmlns="http://www.w3.org/2000/svg"
   xmlns:xlink="http://www.w3.org/1999/xlink"
   xml:space="preserve"
   style="enable-background:new 0 0 368.258 368.258;"
   viewBox="0 0 368.258 368.258"
   y="0px"
   x="0px"
   id="Capa_1"
   version="1.1"><metadata
   id="metadata4962"><rdf:RDF><cc:Work
       rdf:about=""><dc:format>image/svg+xml</dc:format><dc:type
         rdf:resource="http://purl.org/dc/dcmitype/StillImage" /><dc:title></dc:title></cc:Work></rdf:RDF></metadata><defs
   id="defs4960"><linearGradient
     id="lapkin"><stop
       id="stop4972"
       offset="0"
       style="stop-color:#2351ee;stop-opacity:1" /><stop
       id="stop4974"
       offset="1"
       style="stop-color:#00ff00;stop-opacity:1" /></linearGradient><linearGradient
     gradientTransform="translate(-406.99959,-83.443431)"
     gradientUnits="userSpaceOnUse"
     y2="184.12909"
     x2="343.61395"
     y1="184.12909"
     x1="24.64686"
     id="linearGradient4978"
     xlink:href="#lapkin" /><linearGradient
     gradientUnits="userSpaceOnUse"
     y2="188.44341"
     x2="376.87701"
     y1="188.44341"
     x1="0.0093700709"
     id="linearGradient9729"
     xlink:href="#lapkin" /><linearGradient
     y2="188.44341"
     x2="376.87701"
     y1="188.44341"
     x1="0.0093700709"
     gradientUnits="userSpaceOnUse"
     id="linearGradient9775"
     xlink:href="#lapkin" /><linearGradient
     y2="188.44341"
     x2="376.87701"
     y1="188.44341"
     x1="0.0093700709"
     gradientUnits="userSpaceOnUse"
     id="linearGradient9777"
     xlink:href="#lapkin" /><linearGradient
     y2="188.44341"
     x2="376.87701"
     y1="188.44341"
     x1="0.0093700709"
     gradientUnits="userSpaceOnUse"
     id="linearGradient9779"
     xlink:href="#lapkin" /><linearGradient
     y2="188.44341"
     x2="376.87701"
     y1="188.44341"
     x1="0.0093700709"
     gradientUnits="userSpaceOnUse"
     id="linearGradient9781"
     xlink:href="#lapkin" /><linearGradient
     y2="188.44341"
     x2="376.87701"
     y1="188.44341"
     x1="0.0093700709"
     gradientUnits="userSpaceOnUse"
     id="linearGradient9783"
     xlink:href="#lapkin" /><linearGradient
     y2="188.44341"
     x2="376.87701"
     y1="188.44341"
     x1="0.0093700709"
     gradientUnits="userSpaceOnUse"
     id="linearGradient9785"
     xlink:href="#lapkin" /><linearGradient
     y2="188.44341"
     x2="376.87701"
     y1="188.44341"
     x1="0.0093700709"
     gradientUnits="userSpaceOnUse"
     id="linearGradient9787"
     xlink:href="#lapkin" /><linearGradient
     y2="188.44341"
     x2="376.87701"
     y1="188.44341"
     x1="0.0093700709"
     gradientUnits="userSpaceOnUse"
     id="linearGradient9789"
     xlink:href="#lapkin" /><linearGradient
     y2="188.44341"
     x2="376.87701"
     y1="188.44341"
     x1="0.0093700709"
     gradientUnits="userSpaceOnUse"
     id="linearGradient9791"
     xlink:href="#lapkin" /><linearGradient
     y2="188.44341"
     x2="376.87701"
     y1="188.44341"
     x1="0.0093700709"
     gradientUnits="userSpaceOnUse"
     id="linearGradient9793"
     xlink:href="#lapkin" /><linearGradient
     y2="188.44341"
     x2="376.87701"
     y1="188.44341"
     x1="0.0093700709"
     gradientUnits="userSpaceOnUse"
     id="linearGradient9795"
     xlink:href="#lapkin" /><linearGradient
     y2="188.44341"
     x2="376.87701"
     y1="188.44341"
     x1="0.0093700709"
     gradientUnits="userSpaceOnUse"
     id="linearGradient9797"
     xlink:href="#lapkin" /><linearGradient
     y2="188.44341"
     x2="376.87701"
     y1="188.44341"
     x1="0.0093700709"
     gradientUnits="userSpaceOnUse"
     id="linearGradient9799"
     xlink:href="#lapkin" /><linearGradient
     y2="188.44341"
     x2="376.87701"
     y1="188.44341"
     x1="0.0093700709"
     gradientUnits="userSpaceOnUse"
     id="linearGradient9801"
     xlink:href="#lapkin" /><linearGradient
     y2="188.44341"
     x2="376.87701"
     y1="188.44341"
     x1="0.0093700709"
     gradientUnits="userSpaceOnUse"
     id="linearGradient9803"
     xlink:href="#lapkin" /><linearGradient
     y2="188.44341"
     x2="376.87701"
     y1="188.44341"
     x1="0.0093700709"
     gradientUnits="userSpaceOnUse"
     id="linearGradient9805"
     xlink:href="#lapkin" /><linearGradient
     y2="188.44341"
     x2="376.87701"
     y1="188.44341"
     x1="0.0093700709"
     gradientUnits="userSpaceOnUse"
     id="linearGradient9807"
     xlink:href="#lapkin" /><linearGradient
     y2="188.44341"
     x2="376.87701"
     y1="188.44341"
     x1="0.0093700709"
     gradientUnits="userSpaceOnUse"
     id="linearGradient9809"
     xlink:href="#lapkin" /><linearGradient
     y2="188.44341"
     x2="376.87701"
     y1="188.44341"
     x1="0.0093700709"
     gradientUnits="userSpaceOnUse"
     id="linearGradient9811"
     xlink:href="#lapkin" /><linearGradient
     y2="188.44341"
     x2="376.87701"
     y1="188.44341"
     x1="0.0093700709"
     gradientUnits="userSpaceOnUse"
     id="linearGradient9813"
     xlink:href="#lapkin" /><linearGradient
     y2="188.44341"
     x2="376.87701"
     y1="188.44341"
     x1="0.0093700709"
     gradientUnits="userSpaceOnUse"
     id="linearGradient9815"
     xlink:href="#lapkin" /><linearGradient
     y2="188.44341"
     x2="376.87701"
     y1="188.44341"
     x1="0.0093700709"
     gradientUnits="userSpaceOnUse"
     id="linearGradient9817"
     xlink:href="#lapkin" /></defs>
	<path
   id="path4925"
   d="m -64.554592,-37.972431 -28.98,-43.683 c -0.586,-0.885 -1.5,-1.499 -2.54,-1.71 -1.039,-0.209 -2.12,0.001 -3.004,0.588 l -44.181998,29.313 c -1.841,1.221 -2.344,3.703 -1.122,5.544 l 1.066,1.607 -94.415,62.64 -1.929,-2.908 c -1.221,-1.842 -3.705,-2.344 -5.544,-1.122 l -14.791,9.813 c -0.885,0.586 -1.499,1.5 -1.71,2.54 -0.21,1.039 10e-4,2.12 0.588,3.004 l 1.93,2.909 -53.185,35.284 c -0.885,0.586 -1.499,1.5 -1.71,2.54 -0.21,1.039 10e-4,2.12 0.588,3.004 l 0.286,0.431 -36.284,24.073 c -0.885,0.586 -1.499,1.5 -1.71,2.54 -0.21,1.04 10e-4,2.120001 0.588,3.005001 l 2.219,3.344 -31.669,21.017 c -1.353,0.897 -2.028,2.523 -1.711,4.115 0.317,1.592 1.565,2.834 3.158,3.145 l 21.834,4.251 c 0.254,0.049 0.51,0.073 0.765,0.073 0.781,0 1.552,-0.229 2.212,-0.667 l 18.468,-12.254 2.156,3.25 c 0.586,0.885 1.5,1.499 2.54,1.71 0.263,0.053 0.528,0.079 0.793,0.079 0.781,0 1.551,-0.229 2.211,-0.667 l 36.285,-24.073 c 0,0 1.371,1.956 2.826,2.141 0.266,0.034 0.528,0.079 0.793,0.079 0.781,0 1.551,-0.229 2.211,-0.667 l 53.185,-35.286001 13.45,20.273 -40.508,26.874001 c -0.884,0.586 -1.499,1.5 -1.71,2.54 -0.21,1.039 10e-4,2.12 0.588,3.004 l 8.415,12.685 c 0.587,0.885 1.5,1.5 2.54,1.71 0.264,0.053 0.528,0.079 0.793,0.079 0.781,0 1.552,-0.229 2.213,-0.668 l 4.716,-3.131 v 54.712 l -88.869,88.88 c -1.144,1.144 -1.485,2.864 -0.866,4.359 0.619,1.494 2.077,2.469 3.695,2.469 h 28.539 c 1.061,0 2.078,-0.422 2.828,-1.172 l 54.673,-54.673 v 3.372 c 0,2.209 1.791,4 4,4 h 15.688 c 2.209,0 4,-1.791 4,-4 v -3.373 l 54.664,54.674 c 0.751,0.75 1.769,1.172 2.829,1.172 h 28.551 c 1.618,0 3.076,-0.975 3.695,-2.469 0.619,-1.495 0.277,-3.216 -0.867,-4.359 l -88.872,-88.883 v -70.424 l 12.1,-8.031 4.097,6.176 c 0.77,1.161 2.041,1.789 3.337,1.789 0.759,0 1.527,-0.216 2.207,-0.667 l 14.791,-9.813 c 0.885,-0.586 1.499,-1.5 1.71,-2.54 0.21,-1.039 -0.001,-2.12 -0.588,-3.004 l -16.012,-24.135001 6.54,-4.339 3.572,5.383 c 0.77,1.16 2.041,1.788 3.337,1.788 0.759,0 1.527,-0.216 2.207,-0.667 1.842,-1.222 2.344,-3.704 1.122,-5.545 l -11.565,-17.432 c -1.221,-1.84 -3.703,-2.343 -5.544,-1.121 -1.842,1.222 -2.344,3.704 -1.122,5.545 l 3.571,5.382 -6.539,4.339 -9.948,-14.994 94.416,-62.6400001 1.066,1.607 c 0.77,1.161 2.041,1.789 3.337,1.789 0.759,0 1.527,-0.216 2.207,-0.667 l 44.181998,-29.3119999 c 0.885,-0.586 1.499,-1.5 1.71,-2.54 0.206,-1.039 -0.005,-2.12 -0.592,-3.004 z m -292.310998,167.119001 -10.647,-2.073 23.54,-15.622 4.21,6.345 z m 28.137,-9.189 -13.009,-19.607 32.951,-21.862001 13.009,19.609 z m 42.114,-22.520001 -18.003,-27.135 49.851,-33.074 18.003,27.135 z m 38.963,31.210001 -3.991,-6.017 9.799,-6.501 v 8.661 z m -53.351,148.167 h -17.225 l 76.384,-76.395 v 17.237 z m 74.847,-48.473 h -7.688 v -115 c 0,-2.123 1.721,-3.844 3.844,-3.844 v 0 c 2.123,0 3.844,1.721 3.844,3.844 z m 84.388,48.473 h -17.237 l -59.15,-59.161 v -17.237 z m -76.844,-167.436 c -0.71,-2.399 -2.218,-4.454 -4.215,-5.865 l 8.359,-5.545001 3.99,6.014001 z m 21.109,-0.31 -54.737,-82.504001 8.124,-5.391 54.737,82.504001 z m -35.807,-86.075001 83.925,-55.681 18.003,27.1349999 -83.926,55.6800001 z m 108.594,-32.9680001 -18.003,-27.1349999 3.824,-2.537 18.003,27.135 z m 13.768,-2.0199999 -24.558,-37.015 37.514998,-24.89 24.558,37.016 z"
   style="fill:url(#linearGradient4978);fill-opacity:1;stroke:none;stroke-width:0;stroke-miterlimit:4;stroke-dasharray:none" />
	<g
   id="g4927">
	</g>
	<g
   id="g4929">
	</g>
	<g
   id="g4931">
	</g>
	<g
   id="g4933">
	</g>
	<g
   id="g4935">
	</g>
	<g
   id="g4937">
	</g>
	<g
   id="g4939">
	</g>
	<g
   id="g4941">
	</g>
	<g
   id="g4943">
	</g>
	<g
   id="g4945">
	</g>
	<g
   id="g4947">
	</g>
	<g
   id="g4949">
	</g>
	<g
   id="g4951">
	</g>
	<g
   id="g4953">
	</g>
	<g
   id="g4955">
	</g>
<g
   style="fill:url(#linearGradient9729);fill-opacity:1"
   transform="matrix(0,-0.96836956,0.9638528,0,2.4972955,366.61165)"
   id="g9721"><g
     style="fill:url(#linearGradient9787);fill-opacity:1"
     id="g9660">
		<path
   style="fill:url(#linearGradient9775);fill-opacity:1"
   d="m 268.822,345.886 c 10.294,10.293 23.98,15.963 38.537,15.963 14.558,0 28.244,-5.669 38.538,-15.963 10.293,-10.294 15.962,-23.98 15.962,-38.538 0,-14.557 -5.669,-28.244 -15.962,-38.538 -7.011,-7.011 -15.598,-11.871 -24.961,-14.261 L 186.439,2.119 C 185.4,0.17 182.98,-0.568 181.028,0.47 c -1.95,1.039 -2.688,3.461 -1.649,5.411 l 131.66,247.104 c -1.22,-0.081 -2.445,-0.136 -3.679,-0.136 -4.792,0 -9.486,0.626 -13.999,1.818 L 167.329,81.051 c -1.297,-1.788 -3.798,-2.186 -5.586,-0.887 -1.788,1.297 -2.185,3.799 -0.887,5.586 l 124.619,171.67 c -6.131,2.69 -11.776,6.514 -16.653,11.39 -4.877,4.877 -8.701,10.521 -11.39,16.653 L 85.761,160.845 c -1.787,-1.299 -4.29,-0.9 -5.586,0.887 -1.298,1.788 -0.901,4.289 0.887,5.586 L 254.677,293.35 c -1.191,4.513 -1.818,9.207 -1.818,13.999 0,1.234 0.056,2.458 0.136,3.678 L 5.891,179.368 c -1.949,-1.038 -4.373,-0.301 -5.411,1.649 -1.039,1.95 -0.3,4.372 1.649,5.411 L 254.56,320.925 c 2.391,9.363 7.251,17.95 14.262,24.961 z m -7.962,-38.537 c 0,-12.42 4.836,-24.098 13.62,-32.88 8.782,-8.783 20.459,-13.62 32.88,-13.62 2.802,0 5.562,0.259 8.263,0.741 l 7.299,13.699 c 0.72,1.351 2.103,2.12 3.534,2.12 0.634,0 1.278,-0.152 1.877,-0.471 1.95,-1.039 2.688,-3.461 1.649,-5.411 l -3.506,-6.58 c 5.06,2.284 9.721,5.479 13.764,9.522 8.783,8.783 13.62,20.46 13.62,32.88 0,12.421 -4.836,24.098 -13.62,32.88 -8.782,8.783 -20.459,13.62 -32.88,13.62 -12.42,0 -24.098,-4.837 -32.88,-13.62 -4.043,-4.043 -7.238,-8.704 -9.522,-13.764 l 6.58,3.506 c 0.599,0.319 1.243,0.471 1.877,0.471 1.43,0 2.814,-0.77 3.534,-2.12 1.039,-1.95 0.3,-4.372 -1.649,-5.411 l -13.699,-7.299 c -0.482,-2.702 -0.741,-5.462 -0.741,-8.263 z"
   id="path9648" />
		<path
   style="fill:url(#linearGradient9777);fill-opacity:1"
   d="m 271.606,357.464 c -2.779,-1.983 -5.397,-4.197 -7.782,-6.582 -1.563,-1.562 -4.095,-1.561 -5.657,10e-4 -1.562,1.563 -1.561,4.095 0.001,5.657 2.696,2.695 5.654,5.197 8.791,7.435 0.705,0.503 1.516,0.745 2.32,0.745 1.249,0 2.479,-0.583 3.259,-1.677 1.283,-1.797 0.866,-4.295 -0.932,-5.579 z"
   id="path9650" />
		<path
   style="fill:url(#linearGradient9779);fill-opacity:1"
   d="m 371.337,279.981 c -0.867,-2.032 -3.217,-2.977 -5.249,-2.108 -2.032,0.867 -2.976,3.217 -2.108,5.249 7.495,17.562 6.152,38.774 -3.505,55.358 -9.454,16.234 -26.411,27.409 -45.359,29.891 -10.808,1.418 -21.823,-0.094 -31.856,-4.369 -2.033,-0.865 -4.382,0.08 -5.248,2.113 -0.866,2.032 0.08,4.382 2.113,5.248 8.583,3.656 17.803,5.524 27.076,5.524 2.985,0 5.977,-0.194 8.954,-0.583 21.389,-2.802 40.542,-15.437 51.233,-33.798 11.069,-19.009 12.545,-42.383 3.949,-62.525 z"
   id="path9652" />
		<path
   style="fill:url(#linearGradient9781);fill-opacity:1"
   d="m 356.265,269.937 c 0.788,1.026 1.975,1.563 3.175,1.563 0.85,0 1.707,-0.27 2.434,-0.828 1.752,-1.346 2.082,-3.857 0.736,-5.609 -1.854,-2.414 -3.892,-4.737 -6.058,-6.905 -1.562,-1.564 -4.095,-1.564 -5.657,-0.003 -1.563,1.561 -1.564,4.094 -0.003,5.657 1.922,1.924 3.73,3.985 5.373,6.125 z"
   id="path9654" />
		<path
   style="fill:url(#linearGradient9783);fill-opacity:1"
   d="m 288.861,343.649 c 1.97,0.988 4.041,1.825 6.157,2.486 0.397,0.124 0.799,0.183 1.194,0.183 1.703,0 3.282,-1.096 3.817,-2.808 0.659,-2.108 -0.516,-4.352 -2.625,-5.011 -1.704,-0.533 -3.372,-1.206 -4.956,-2.001 -1.973,-0.991 -4.378,-0.194 -5.369,1.781 -0.99,1.975 -0.193,4.379 1.782,5.37 z"
   id="path9656" />
		<path
   style="fill:url(#linearGradient9785);fill-opacity:1"
   d="m 308.939,347.889 c 0.076,0 0.152,-0.002 0.229,-0.006 14.382,-0.812 27.329,-9.298 33.788,-22.148 0.992,-1.974 0.197,-4.378 -1.777,-5.37 -1.974,-0.994 -4.378,-0.197 -5.37,1.777 -5.178,10.3 -15.558,17.103 -27.091,17.753 -2.206,0.125 -3.893,2.013 -3.769,4.219 0.12,2.13 1.883,3.775 3.99,3.775 z"
   id="path9658" />
	</g><g
     style="fill:url(#linearGradient9789);fill-opacity:1"
     id="g9662">
	</g><g
     style="fill:url(#linearGradient9791);fill-opacity:1"
     id="g9664">
	</g><g
     style="fill:url(#linearGradient9793);fill-opacity:1"
     id="g9666">
	</g><g
     style="fill:url(#linearGradient9795);fill-opacity:1"
     id="g9668">
	</g><g
     style="fill:url(#linearGradient9797);fill-opacity:1"
     id="g9670">
	</g><g
     style="fill:url(#linearGradient9799);fill-opacity:1"
     id="g9672">
	</g><g
     style="fill:url(#linearGradient9801);fill-opacity:1"
     id="g9674">
	</g><g
     style="fill:url(#linearGradient9803);fill-opacity:1"
     id="g9676">
	</g><g
     style="fill:url(#linearGradient9805);fill-opacity:1"
     id="g9678">
	</g><g
     style="fill:url(#linearGradient9807);fill-opacity:1"
     id="g9680">
	</g><g
     style="fill:url(#linearGradient9809);fill-opacity:1"
     id="g9682">
	</g><g
     style="fill:url(#linearGradient9811);fill-opacity:1"
     id="g9684">
	</g><g
     style="fill:url(#linearGradient9813);fill-opacity:1"
     id="g9686">
	</g><g
     style="fill:url(#linearGradient9815);fill-opacity:1"
     id="g9688">
	</g><g
     style="fill:url(#linearGradient9817);fill-opacity:1"
     id="g9690">
	</g></g></svg>