<?xml version="1.0" encoding="UTF-8" standalone="no"?>
<svg
   xmlns:dc="http://purl.org/dc/elements/1.1/"
   xmlns:cc="http://creativecommons.org/ns#"
   xmlns:rdf="http://www.w3.org/1999/02/22-rdf-syntax-ns#"
   xmlns:svg="http://www.w3.org/2000/svg"
   xmlns="http://www.w3.org/2000/svg"
   xmlns:xlink="http://www.w3.org/1999/xlink"
   xml:space="preserve"
   style="enable-background:new 0 0 368.258 368.258;"
   viewBox="0 0 368.258 368.258"
   y="0px"
   x="0px"
   id="Capa_1"
   version="1.1"><metadata
   id="metadata4962"><rdf:RDF><cc:Work
       rdf:about=""><dc:format>image/svg+xml</dc:format><dc:type
         rdf:resource="http://purl.org/dc/dcmitype/StillImage" /><dc:title></dc:title></cc:Work></rdf:RDF></metadata><defs
   id="defs4960"><linearGradient
     id="lapkin"><stop
       id="stop4972"
       offset="0"
       style="stop-color:#2351ee;stop-opacity:1" /><stop
       id="stop4974"
       offset="1"
       style="stop-color:#00ff00;stop-opacity:1" /></linearGradient><linearGradient
     gradientUnits="userSpaceOnUse"
     y2="188.44341"
     x2="376.87701"
     y1="188.44341"
     x1="0.0093700709"
     id="linearGradient9729"
     xlink:href="#lapkin" /><linearGradient
     y2="188.44341"
     x2="376.87701"
     y1="188.44341"
     x1="0.0093700709"
     gradientUnits="userSpaceOnUse"
     id="linearGradient9775"
     xlink:href="#lapkin" /><linearGradient
     y2="188.44341"
     x2="376.87701"
     y1="188.44341"
     x1="0.0093700709"
     gradientUnits="userSpaceOnUse"
     id="linearGradient9777"
     xlink:href="#lapkin" /><linearGradient
     y2="188.44341"
     x2="376.87701"
     y1="188.44341"
     x1="0.0093700709"
     gradientUnits="userSpaceOnUse"
     id="linearGradient9779"
     xlink:href="#lapkin" /><linearGradient
     y2="188.44341"
     x2="376.87701"
     y1="188.44341"
     x1="0.0093700709"
     gradientUnits="userSpaceOnUse"
     id="linearGradient9781"
     xlink:href="#lapkin" /><linearGradient
     y2="188.44341"
     x2="376.87701"
     y1="188.44341"
     x1="0.0093700709"
     gradientUnits="userSpaceOnUse"
     id="linearGradient9783"
     xlink:href="#lapkin" /><linearGradient
     y2="188.44341"
     x2="376.87701"
     y1="188.44341"
     x1="0.0093700709"
     gradientUnits="userSpaceOnUse"
     id="linearGradient9785"
     xlink:href="#lapkin" /><linearGradient
     y2="188.44341"
     x2="376.87701"
     y1="188.44341"
     x1="0.0093700709"
     gradientUnits="userSpaceOnUse"
     id="linearGradient9787"
     xlink:href="#lapkin" /><linearGradient
     y2="188.44341"
     x2="376.87701"
     y1="188.44341"
     x1="0.0093700709"
     gradientUnits="userSpaceOnUse"
     id="linearGradient9789"
     xlink:href="#lapkin" /><linearGradient
     y2="188.44341"
     x2="376.87701"
     y1="188.44341"
     x1="0.0093700709"
     gradientUnits="userSpaceOnUse"
     id="linearGradient9791"
     xlink:href="#lapkin" /><linearGradient
     y2="188.44341"
     x2="376.87701"
     y1="188.44341"
     x1="0.0093700709"
     gradientUnits="userSpaceOnUse"
     id="linearGradient9793"
     xlink:href="#lapkin" /><linearGradient
     y2="188.44341"
     x2="376.87701"
     y1="188.44341"
     x1="0.0093700709"
     gradientUnits="userSpaceOnUse"
     id="linearGradient9795"
     xlink:href="#lapkin" /><linearGradient
     y2="188.44341"
     x2="376.87701"
     y1="188.44341"
     x1="0.0093700709"
     gradientUnits="userSpaceOnUse"
     id="linearGradient9797"
     xlink:href="#lapkin" /><linearGradient
     y2="188.44341"
     x2="376.87701"
     y1="188.44341"
     x1="0.0093700709"
     gradientUnits="userSpaceOnUse"
     id="linearGradient9799"
     xlink:href="#lapkin" /><linearGradient
     y2="188.44341"
     x2="376.87701"
     y1="188.44341"
     x1="0.0093700709"
     gradientUnits="userSpaceOnUse"
     id="linearGradient9801"
     xlink:href="#lapkin" /><linearGradient
     y2="188.44341"
     x2="376.87701"
     y1="188.44341"
     x1="0.0093700709"
     gradientUnits="userSpaceOnUse"
     id="linearGradient9803"
     xlink:href="#lapkin" /><linearGradient
     y2="188.44341"
     x2="376.87701"
     y1="188.44341"
     x1="0.0093700709"
     gradientUnits="userSpaceOnUse"
     id="linearGradient9805"
     xlink:href="#lapkin" /><linearGradient
     y2="188.44341"
     x2="376.87701"
     y1="188.44341"
     x1="0.0093700709"
     gradientUnits="userSpaceOnUse"
     id="linearGradient9807"
     xlink:href="#lapkin" /><linearGradient
     y2="188.44341"
     x2="376.87701"
     y1="188.44341"
     x1="0.0093700709"
     gradientUnits="userSpaceOnUse"
     id="linearGradient9809"
     xlink:href="#lapkin" /><linearGradient
     y2="188.44341"
     x2="376.87701"
     y1="188.44341"
     x1="0.0093700709"
     gradientUnits="userSpaceOnUse"
     id="linearGradient9811"
     xlink:href="#lapkin" /><linearGradient
     y2="188.44341"
     x2="376.87701"
     y1="188.44341"
     x1="0.0093700709"
     gradientUnits="userSpaceOnUse"
     id="linearGradient9813"
     xlink:href="#lapkin" /><linearGradient
     y2="188.44341"
     x2="376.87701"
     y1="188.44341"
     x1="0.0093700709"
     gradientUnits="userSpaceOnUse"
     id="linearGradient9815"
     xlink:href="#lapkin" /><linearGradient
     y2="188.44341"
     x2="376.87701"
     y1="188.44341"
     x1="0.0093700709"
     gradientUnits="userSpaceOnUse"
     id="linearGradient9817"
     xlink:href="#lapkin" /><linearGradient
     gradientUnits="userSpaceOnUse"
     y2="184.106"
     x2="368.21262"
     y1="184.106"
     x1="0.00050000002"
     id="linearGradient10247"
     xlink:href="#lapkin" /><linearGradient
     y2="184.106"
     x2="368.21262"
     y1="184.106"
     x1="0.00050000002"
     gradientUnits="userSpaceOnUse"
     id="linearGradient10249"
     xlink:href="#lapkin" /><linearGradient
     y2="184.106"
     x2="368.21262"
     y1="184.106"
     x1="0.00050000002"
     gradientUnits="userSpaceOnUse"
     id="linearGradient10251"
     xlink:href="#lapkin" /><linearGradient
     y2="184.106"
     x2="368.21262"
     y1="184.106"
     x1="0.00050000002"
     gradientUnits="userSpaceOnUse"
     id="linearGradient10253"
     xlink:href="#lapkin" /><linearGradient
     y2="184.106"
     x2="368.21262"
     y1="184.106"
     x1="0.00050000002"
     gradientUnits="userSpaceOnUse"
     id="linearGradient10255"
     xlink:href="#lapkin" /><linearGradient
     y2="184.106"
     x2="368.21262"
     y1="184.106"
     x1="0.00050000002"
     gradientUnits="userSpaceOnUse"
     id="linearGradient10257"
     xlink:href="#lapkin" /><linearGradient
     y2="184.106"
     x2="368.21262"
     y1="184.106"
     x1="0.00050000002"
     gradientUnits="userSpaceOnUse"
     id="linearGradient10259"
     xlink:href="#lapkin" /><linearGradient
     y2="184.106"
     x2="368.21262"
     y1="184.106"
     x1="0.00050000002"
     gradientUnits="userSpaceOnUse"
     id="linearGradient10261"
     xlink:href="#lapkin" /><linearGradient
     y2="184.106"
     x2="368.21262"
     y1="184.106"
     x1="0.00050000002"
     gradientUnits="userSpaceOnUse"
     id="linearGradient10263"
     xlink:href="#lapkin" /><linearGradient
     y2="184.106"
     x2="368.21262"
     y1="184.106"
     x1="0.00050000002"
     gradientUnits="userSpaceOnUse"
     id="linearGradient10265"
     xlink:href="#lapkin" /><linearGradient
     y2="184.106"
     x2="368.21262"
     y1="184.106"
     x1="0.00050000002"
     gradientUnits="userSpaceOnUse"
     id="linearGradient10267"
     xlink:href="#lapkin" /><linearGradient
     y2="184.106"
     x2="368.21262"
     y1="184.106"
     x1="0.00050000002"
     gradientUnits="userSpaceOnUse"
     id="linearGradient10269"
     xlink:href="#lapkin" /><linearGradient
     y2="184.106"
     x2="368.21262"
     y1="184.106"
     x1="0.00050000002"
     gradientUnits="userSpaceOnUse"
     id="linearGradient10271"
     xlink:href="#lapkin" /><linearGradient
     y2="184.106"
     x2="368.21262"
     y1="184.106"
     x1="0.00050000002"
     gradientUnits="userSpaceOnUse"
     id="linearGradient10273"
     xlink:href="#lapkin" /><linearGradient
     y2="184.106"
     x2="368.21262"
     y1="184.106"
     x1="0.00050000002"
     gradientUnits="userSpaceOnUse"
     id="linearGradient10275"
     xlink:href="#lapkin" /><linearGradient
     y2="184.106"
     x2="368.21262"
     y1="184.106"
     x1="0.00050000002"
     gradientUnits="userSpaceOnUse"
     id="linearGradient10277"
     xlink:href="#lapkin" /><linearGradient
     y2="184.106"
     x2="368.21262"
     y1="184.106"
     x1="0.00050000002"
     gradientUnits="userSpaceOnUse"
     id="linearGradient10279"
     xlink:href="#lapkin" /><linearGradient
     y2="184.106"
     x2="368.21262"
     y1="184.106"
     x1="0.00050000002"
     gradientUnits="userSpaceOnUse"
     id="linearGradient10281"
     xlink:href="#lapkin" /><linearGradient
     y2="184.106"
     x2="368.21262"
     y1="184.106"
     x1="0.00050000002"
     gradientUnits="userSpaceOnUse"
     id="linearGradient10283"
     xlink:href="#lapkin" /></defs>
	
	<g
   id="g4927">
	</g>
	<g
   id="g4929">
	</g>
	<g
   id="g4931">
	</g>
	<g
   id="g4933">
	</g>
	<g
   id="g4935">
	</g>
	<g
   id="g4937">
	</g>
	<g
   id="g4939">
	</g>
	<g
   id="g4941">
	</g>
	<g
   id="g4943">
	</g>
	<g
   id="g4945">
	</g>
	<g
   id="g4947">
	</g>
	<g
   id="g4949">
	</g>
	<g
   id="g4951">
	</g>
	<g
   id="g4953">
	</g>
	<g
   id="g4955">
	</g>
<g
   style="fill:url(#linearGradient9729);fill-opacity:1"
   transform="matrix(0,-0.96836956,0.9638528,0,-430.89767,398.1158)"
   id="g9721"><g
     style="fill:url(#linearGradient9787);fill-opacity:1"
     id="g9660">
		<path
   style="fill:url(#linearGradient9775);fill-opacity:1"
   d="m 268.822,345.886 c 10.294,10.293 23.98,15.963 38.537,15.963 14.558,0 28.244,-5.669 38.538,-15.963 10.293,-10.294 15.962,-23.98 15.962,-38.538 0,-14.557 -5.669,-28.244 -15.962,-38.538 -7.011,-7.011 -15.598,-11.871 -24.961,-14.261 L 186.439,2.119 C 185.4,0.17 182.98,-0.568 181.028,0.47 c -1.95,1.039 -2.688,3.461 -1.649,5.411 l 131.66,247.104 c -1.22,-0.081 -2.445,-0.136 -3.679,-0.136 -4.792,0 -9.486,0.626 -13.999,1.818 L 167.329,81.051 c -1.297,-1.788 -3.798,-2.186 -5.586,-0.887 -1.788,1.297 -2.185,3.799 -0.887,5.586 l 124.619,171.67 c -6.131,2.69 -11.776,6.514 -16.653,11.39 -4.877,4.877 -8.701,10.521 -11.39,16.653 L 85.761,160.845 c -1.787,-1.299 -4.29,-0.9 -5.586,0.887 -1.298,1.788 -0.901,4.289 0.887,5.586 L 254.677,293.35 c -1.191,4.513 -1.818,9.207 -1.818,13.999 0,1.234 0.056,2.458 0.136,3.678 L 5.891,179.368 c -1.949,-1.038 -4.373,-0.301 -5.411,1.649 -1.039,1.95 -0.3,4.372 1.649,5.411 L 254.56,320.925 c 2.391,9.363 7.251,17.95 14.262,24.961 z m -7.962,-38.537 c 0,-12.42 4.836,-24.098 13.62,-32.88 8.782,-8.783 20.459,-13.62 32.88,-13.62 2.802,0 5.562,0.259 8.263,0.741 l 7.299,13.699 c 0.72,1.351 2.103,2.12 3.534,2.12 0.634,0 1.278,-0.152 1.877,-0.471 1.95,-1.039 2.688,-3.461 1.649,-5.411 l -3.506,-6.58 c 5.06,2.284 9.721,5.479 13.764,9.522 8.783,8.783 13.62,20.46 13.62,32.88 0,12.421 -4.836,24.098 -13.62,32.88 -8.782,8.783 -20.459,13.62 -32.88,13.62 -12.42,0 -24.098,-4.837 -32.88,-13.62 -4.043,-4.043 -7.238,-8.704 -9.522,-13.764 l 6.58,3.506 c 0.599,0.319 1.243,0.471 1.877,0.471 1.43,0 2.814,-0.77 3.534,-2.12 1.039,-1.95 0.3,-4.372 -1.649,-5.411 l -13.699,-7.299 c -0.482,-2.702 -0.741,-5.462 -0.741,-8.263 z"
   id="path9648" />
		<path
   style="fill:url(#linearGradient9777);fill-opacity:1"
   d="m 271.606,357.464 c -2.779,-1.983 -5.397,-4.197 -7.782,-6.582 -1.563,-1.562 -4.095,-1.561 -5.657,10e-4 -1.562,1.563 -1.561,4.095 0.001,5.657 2.696,2.695 5.654,5.197 8.791,7.435 0.705,0.503 1.516,0.745 2.32,0.745 1.249,0 2.479,-0.583 3.259,-1.677 1.283,-1.797 0.866,-4.295 -0.932,-5.579 z"
   id="path9650" />
		<path
   style="fill:url(#linearGradient9779);fill-opacity:1"
   d="m 371.337,279.981 c -0.867,-2.032 -3.217,-2.977 -5.249,-2.108 -2.032,0.867 -2.976,3.217 -2.108,5.249 7.495,17.562 6.152,38.774 -3.505,55.358 -9.454,16.234 -26.411,27.409 -45.359,29.891 -10.808,1.418 -21.823,-0.094 -31.856,-4.369 -2.033,-0.865 -4.382,0.08 -5.248,2.113 -0.866,2.032 0.08,4.382 2.113,5.248 8.583,3.656 17.803,5.524 27.076,5.524 2.985,0 5.977,-0.194 8.954,-0.583 21.389,-2.802 40.542,-15.437 51.233,-33.798 11.069,-19.009 12.545,-42.383 3.949,-62.525 z"
   id="path9652" />
		<path
   style="fill:url(#linearGradient9781);fill-opacity:1"
   d="m 356.265,269.937 c 0.788,1.026 1.975,1.563 3.175,1.563 0.85,0 1.707,-0.27 2.434,-0.828 1.752,-1.346 2.082,-3.857 0.736,-5.609 -1.854,-2.414 -3.892,-4.737 -6.058,-6.905 -1.562,-1.564 -4.095,-1.564 -5.657,-0.003 -1.563,1.561 -1.564,4.094 -0.003,5.657 1.922,1.924 3.73,3.985 5.373,6.125 z"
   id="path9654" />
		<path
   style="fill:url(#linearGradient9783);fill-opacity:1"
   d="m 288.861,343.649 c 1.97,0.988 4.041,1.825 6.157,2.486 0.397,0.124 0.799,0.183 1.194,0.183 1.703,0 3.282,-1.096 3.817,-2.808 0.659,-2.108 -0.516,-4.352 -2.625,-5.011 -1.704,-0.533 -3.372,-1.206 -4.956,-2.001 -1.973,-0.991 -4.378,-0.194 -5.369,1.781 -0.99,1.975 -0.193,4.379 1.782,5.37 z"
   id="path9656" />
		<path
   style="fill:url(#linearGradient9785);fill-opacity:1"
   d="m 308.939,347.889 c 0.076,0 0.152,-0.002 0.229,-0.006 14.382,-0.812 27.329,-9.298 33.788,-22.148 0.992,-1.974 0.197,-4.378 -1.777,-5.37 -1.974,-0.994 -4.378,-0.197 -5.37,1.777 -5.178,10.3 -15.558,17.103 -27.091,17.753 -2.206,0.125 -3.893,2.013 -3.769,4.219 0.12,2.13 1.883,3.775 3.99,3.775 z"
   id="path9658" />
	</g><g
     style="fill:url(#linearGradient9789);fill-opacity:1"
     id="g9662">
	</g><g
     style="fill:url(#linearGradient9791);fill-opacity:1"
     id="g9664">
	</g><g
     style="fill:url(#linearGradient9793);fill-opacity:1"
     id="g9666">
	</g><g
     style="fill:url(#linearGradient9795);fill-opacity:1"
     id="g9668">
	</g><g
     style="fill:url(#linearGradient9797);fill-opacity:1"
     id="g9670">
	</g><g
     style="fill:url(#linearGradient9799);fill-opacity:1"
     id="g9672">
	</g><g
     style="fill:url(#linearGradient9801);fill-opacity:1"
     id="g9674">
	</g><g
     style="fill:url(#linearGradient9803);fill-opacity:1"
     id="g9676">
	</g><g
     style="fill:url(#linearGradient9805);fill-opacity:1"
     id="g9678">
	</g><g
     style="fill:url(#linearGradient9807);fill-opacity:1"
     id="g9680">
	</g><g
     style="fill:url(#linearGradient9809);fill-opacity:1"
     id="g9682">
	</g><g
     style="fill:url(#linearGradient9811);fill-opacity:1"
     id="g9684">
	</g><g
     style="fill:url(#linearGradient9813);fill-opacity:1"
     id="g9686">
	</g><g
     style="fill:url(#linearGradient9815);fill-opacity:1"
     id="g9688">
	</g><g
     style="fill:url(#linearGradient9817);fill-opacity:1"
     id="g9690">
	</g></g><g
   style="fill:url(#linearGradient10247);fill-opacity:1"
   transform="matrix(0.98855407,0,0,0.98855407,3.4308376,3.1509169)"
   id="g10239"><g
     style="fill:url(#linearGradient10253);fill-opacity:1"
     id="g10182">
		<path
   style="fill:url(#linearGradient10249);fill-opacity:1"
   d="M 367.041,309.778 255.273,198.011 c -0.75,-0.75 -1.768,-1.171 -2.828,-1.171 -1.06,0 -2.078,0.421 -2.828,1.171 l -22.9,22.9 -8.456,-8.456 34.22,-34.22 8.113,8.113 c 0.757,0.757 1.777,1.171 2.828,1.171 0.26,0 0.522,-0.025 0.782,-0.077 1.311,-0.262 2.404,-1.161 2.915,-2.396 l 10.912,-26.419 c 0.617,-1.494 0.274,-3.212 -0.869,-4.355 L 248.38,125.49 262.521,111.35 c 1.563,-1.562 1.563,-4.095 0,-5.657 -1.563,-1.562 -4.096,-1.562 -5.656,0 L 242.724,119.834 213.941,91.05 c -1.142,-1.143 -2.86,-1.484 -4.355,-0.869 l -26.419,10.912 c -1.235,0.51 -2.134,1.604 -2.396,2.915 -0.261,1.311 0.149,2.666 1.094,3.611 l 8.114,8.114 -34.22,34.219 -8.456,-8.456 22.9,-22.9 c 1.562,-1.563 1.562,-4.095 0,-5.657 L 58.435,1.171 C 57.684,0.421 56.667,0 55.606,0 54.545,0 53.528,0.421 52.777,1.171 L 1.172,52.778 c -1.562,1.563 -1.562,4.095 0,5.657 L 112.94,170.203 c 0.781,0.781 1.805,1.171 2.829,1.171 1.023,0 2.047,-0.391 2.829,-1.171 l 23.049,-23.049 8.456,8.456 -45.533,45.533 c -1.562,1.563 -1.562,4.095 0,5.657 l 8.2,8.2 -19.231,19.231 c -1.562,1.563 -1.562,4.095 0,5.657 l 34.786,34.786 c 0.781,0.781 1.805,1.171 2.829,1.171 1.024,0 2.047,-0.391 2.829,-1.171 l 19.231,-19.231 8.201,8.201 c 0.781,0.781 1.805,1.171 2.829,1.171 1.024,0 2.047,-0.391 2.829,-1.171 l 45.533,-45.533 8.456,8.456 -23.049,23.049 c -1.563,1.563 -1.563,4.095 0,5.657 l 111.768,111.768 c 0.75,0.75 1.768,1.171 2.828,1.171 1.06,0 2.078,-0.421 2.828,-1.171 l 51.605,-51.606 c 1.561,-1.562 1.561,-4.094 -10e-4,-5.657 z M 87.363,41.413 97.584,51.634 51.634,97.583 41.413,87.363 Z M 35.756,81.705 25.535,71.485 71.484,25.536 81.705,35.757 Z M 103.241,57.292 113.462,67.513 67.513,113.462 57.292,103.241 Z M 119.119,73.169 129.34,83.39 83.39,129.34 73.169,119.119 Z m 15.878,15.879 10.221,10.221 -45.949,45.949 -10.221,-10.221 z M 55.606,9.657 65.827,19.878 19.878,65.827 9.657,55.606 Z m 60.162,152.06 -10.843,-10.843 45.949,-45.949 10.842,10.842 z m 61.202,80.716 -51.189,-51.189 57.976,-57.976 51.189,51.188 z m 33.203,-143.838 59.446,59.446 -7.605,18.413 L 191.76,106.2 Z m 36.652,73.983 -6.221,6.221 -51.189,-51.189 6.221,-6.221 z m -115.671,93.611 -29.129,-29.129 16.403,-16.402 29.129,29.129 z m 33.089,-11.029 -51.189,-51.189 7.07,-7.07 51.189,51.189 z m 120.58,-16.286 10.222,10.222 -45.949,45.949 -10.221,-10.221 z m -51.606,40.292 -10.221,-10.221 45.948,-45.949 10.221,10.221 z m 67.484,-24.414 10.221,10.222 -45.949,45.948 -10.221,-10.221 z M 316.579,270.63 326.8,280.851 280.851,326.8 270.63,316.579 Z m 15.878,15.878 10.221,10.221 -45.949,45.948 -10.221,-10.221 z m -80.012,-80.012 10.843,10.843 -45.948,45.949 -10.843,-10.843 z m 60.162,152.06 -10.221,-10.221 45.949,-45.948 10.221,10.221 z"
   id="path10178" />
		<path
   style="fill:url(#linearGradient10251);fill-opacity:1"
   d="m 180.504,153.205 -33.089,33.089 c -1.562,1.563 -1.562,4.095 0,5.657 l 28.847,28.847 c 0.781,0.781 1.805,1.171 2.829,1.171 1.023,0 2.047,-0.391 2.829,-1.171 l 33.089,-33.089 c 0.75,-0.75 1.172,-1.768 1.172,-2.829 0,-1.061 -0.422,-2.078 -1.172,-2.829 l -28.848,-28.847 c -1.562,-1.56 -4.093,-1.56 -5.657,0.001 z m -1.413,59.108 -23.19,-23.19 27.433,-27.433 23.19,23.19 z"
   id="path10180" />
	</g><g
     style="fill:url(#linearGradient10255);fill-opacity:1"
     id="g10184">
	</g><g
     style="fill:url(#linearGradient10257);fill-opacity:1"
     id="g10186">
	</g><g
     style="fill:url(#linearGradient10259);fill-opacity:1"
     id="g10188">
	</g><g
     style="fill:url(#linearGradient10261);fill-opacity:1"
     id="g10190">
	</g><g
     style="fill:url(#linearGradient10263);fill-opacity:1"
     id="g10192">
	</g><g
     style="fill:url(#linearGradient10265);fill-opacity:1"
     id="g10194">
	</g><g
     style="fill:url(#linearGradient10267);fill-opacity:1"
     id="g10196">
	</g><g
     style="fill:url(#linearGradient10269);fill-opacity:1"
     id="g10198">
	</g><g
     style="fill:url(#linearGradient10271);fill-opacity:1"
     id="g10200">
	</g><g
     style="fill:url(#linearGradient10273);fill-opacity:1"
     id="g10202">
	</g><g
     style="fill:url(#linearGradient10275);fill-opacity:1"
     id="g10204">
	</g><g
     style="fill:url(#linearGradient10277);fill-opacity:1"
     id="g10206">
	</g><g
     style="fill:url(#linearGradient10279);fill-opacity:1"
     id="g10208">
	</g><g
     style="fill:url(#linearGradient10281);fill-opacity:1"
     id="g10210">
	</g><g
     style="fill:url(#linearGradient10283);fill-opacity:1"
     id="g10212">
	</g></g></svg>